<?xml version="1.0" encoding="utf-8"?>
<!-- Generator: Adobe Illustrator 15.0.2, SVG Export Plug-In . SVG Version: 6.00 Build 0)  -->
<!DOCTYPE svg PUBLIC "-//W3C//DTD SVG 1.1//EN" "http://www.w3.org/Graphics/SVG/1.1/DTD/svg11.dtd">
<svg version="1.1" id="Ebene_1" xmlns="http://www.w3.org/2000/svg" xmlns:xlink="http://www.w3.org/1999/xlink" x="0px" y="0px"
	 width="685.466px" height="638.968px" viewBox="0 0 685.466 638.968" enable-background="new 0 0 685.466 638.968"
	 xml:space="preserve">
<g id="ap_2_">
	<path fill="#438DCC" stroke="#FCF8D2" stroke-width="0.375" d="M276.451,545.948c-3.06-5.535-7.665-12-15.075-11.49
		c-1.665-4.305-4.754-11.055-7.635-14.609c0.465,4.199-5.79,5.551-7.096,1.83c-1.949-5.566-7.229-5.279-12.06-5.971
		c0.69,5.926,0.75,12.256-6.21,14.131c-5.535,1.484-10.305-0.586-14.55-3.75c-5.085-3.75-10.755-7.561-17.279-7.967
		c-8.505-0.539-16.591,3.24-25.261,2.477c-0.914-4.531-8.174-2.324-8.174-5.791c0-5.055-7.246-4.094-10.246-4.154
		c-3.734,4.439-12.33,1.891-17.115,4.186c-0.314,3.061-0.119,6.27-0.405,9.344c-6.51,1.111-7.065-5.176-12.089-7.199
		c-4.815-1.949-13.455-0.84-17.01,3.074c-0.27,0.824-0.436,1.756-0.391,2.881c0.825,0.193,2.07,0.225,2.895,0.076
		c-0.555-3.977,6.15-3.662,8.371-2.596c3.974,1.904,1.319,11.504,1.109,14.879c-2.34-0.014-5.386,0.18-2.58,2.926
		c1.275,0.029,2.504-0.166,3.705-0.602c1.71,0.092,2.805,1.381,4.424,1.682c0.406,2.43-0.869,4.846-0.854,7.379
		c0.524,0.18,1.274,0.195,1.801,0.045c0.224-3.42,11.039-3.523,13.243-2.25c2.536,1.455,0.75,8.01,0.601,10.141
		c-0.061,1.771-0.166,3.541-0.285,5.295c-0.164,2.506,1.8,4.77,1.471,7.111c4.35,0.389,10.185-1.307,14.189,0.93
		c2.939,1.648-0.015,11.564-0.36,14.07c-2.76,0.014-2.22,4.094-2.039,5.953c-3.961,0.15-7.096-0.014-7.605,4.74
		c-0.21,2.1,3.944,11.82-0.796,11.807c-4.02,0-4.68-8.012-9.885-7.666c-5.925,0.389-0.615,5.625,2.835,5.459
		c0.75,2.73-2.7,2.957-4.529,3.615c-3.75,1.336-5.565,4.455-6.135,8.311c1.845,0.734,2.099,6.09,4.515,7.666
		c4.41,2.879,8.82,6.51,13.785,2.625c2.91-2.281,6.66-4.816,8.789-7.875c1.786-2.566,2.551-8.191,6.75-7.727
		c0.315-3.523,0.467-7.334,0.271-10.859c-0.271-0.061-0.555-0.121-0.826-0.195c-0.33-1.801,0.314-3.6,0.646-5.324
		c7.994-3.945,19.904-6.285,28.74-4.141c4.319,1.051,5.398,6.24,9.839,6.9c2.73,0.404,8.19-0.076,7.681-4.066
		c0.99,0.211,2.385-0.283,3.375-0.059c1.033-10.35,5.414,2.145,7.875-3.422c1.574-3.584,2.55-4.754,6.254-5.729
		c3.916-1.035-0.045-6.57,3.916-8.76c-7.966-2.775-0.87-4.785,3.765-4.275c6.12,0.676,7.14,2.686,7.349,8.43
		c0.977-0.209,2.521-0.795,3.406-1.439c0.75-7.83,7.649-0.615,7.08,4.215c2.145,0.885,4.574,0.734,6.869,0.674
		c-0.359-8.49,4.861-6.494,11.236-6.732c0.898-2.686-2.041-3.287-1.2-5.883c5.339-2.713,3.075-10.107,10.125-9.418
		c0.239-2.582,0.12-5.266,0.358-7.846c1.786-0.314,3.301-0.045,3.99,1.439c0.375,0.045,0.916,0.016,1.276,0.18
		C279.961,550.208,277.786,548.378,276.451,545.948"/>
	<path fill="#438DCC" stroke="#FCF8D2" stroke-width="0.375" d="M66.241,406.253c7.32-4.621,10.47-0.09,17.91-0.344
		c4.694-0.166,8.189-0.705,11.85,2.684c1.891,1.756,5.115,5.191,7.936,3.016c4.77-3.676,10.215-3.705,14.789,1.199
		c5.235,5.625,1.726,12.736,9.976,16.875c0.135-0.945,0.346-1.875,0.765-2.668c7.305,1.125,9.689-14.477,19.141-6.137
		c-0.99,1.619-4.141,3.42-3.359,5.715c1.889,5.551,4.56,1.65,6.389-0.568c2.19-2.643,5.4-4.23,8.221-1.143
		c1.979,2.176-1.455,4.951-2.43,6.707c5.189,0.449,11.219,0.734,15.719-2.355c6.016-4.125,4.365-10.785,4.921-16.996
		c0.615-0.014,1.245-0.029,1.875-0.045c-0.12-10.094,3.944-18.764,4.29-28.574c0.359-10.125-2.685-20.686,1.904-30.285
		c5.611,0.24,9.96-12.525,9.301-16.799c-0.285-0.061-0.555-0.135-0.824-0.195c-0.092-1.846-0.166-3.916-0.151-5.939
		c-3.36,2.895-3.63,3.328-4.095,7.844c-2.086,0.66-3.586,2.773-3.646,4.92c-4.724,0.164-5.204-1.109-8.31-4.109
		c-3.225-3.121-11.654-1.891-15.6-1.695c-5.221,0.27-11.041-0.945-16.096,0.6c-6.959,2.115-5.52,5.67-8.084,10.875
		c-1.111,2.25-3.421,7.98-6.705,7.545c-5.041-0.676-8.956-4.801-14.355-5.324c-12.48-1.215-25.064,0.629-37.439-2.041
		c-0.029,0.646-0.061,1.275-0.121,1.92c-10.02,0.301-20.398-4.754-30.494-2.85c-6.766,1.275-14.506,16.096-4.95,18.586
		c0.194,1.754,0.915,3.314,0.601,5.158c-4.605,0.166-5.956,0.855-6.406,5.822c-0.165,1.814-0.06,4.199-1.064,5.818
		c-0.916,1.471-5.205,1.59-3.99,4.035c1.365,2.744,6.36,6.84,8.716,8.879c4.245,3.691-1.62,11.73,4.77,13.906
		c0.105,0.016,0.21,0.029,0.315,0.045c0.029-0.029,0.045-0.029,0.045,0.016C53.941,411.353,59.356,410.618,66.241,406.253"/>
	<path fill="#D59EC7" stroke="#FCF8CE" stroke-width="0.375" d="M104.927,242.514c0.255,6.599-3.166,15.825,1.424,21.554
		c3.841,4.785,13.365,6.63,18.811,3.766c4.994-2.625-3.315-9.045-5.19-10.994c-1.589-1.651-5.339-7.74-0.914-8.461
		c2.52-0.404,4.349-2.835,6.375-2.984c2.954-11.086,9.464,5.024,12.585,3.33c2.189-1.186,5.444-14.94,9.51-9.406
		c3.6,4.906,5.115,17.101,12.346,18.555c4.664,0.931,6.254-0.885,9.974,3.391c3.78,4.336,8.146,3.99,13.546,3.78
		c-5.1-3.915,9.615-5.79,11.04-5.835c0.51-5.415-0.721-6.494-3.39-10.785c-3.016-4.846-0.18-9.27-1.035-14.37
		c-0.406-2.37-1.621-3.06-3.421-4.245c-2.925-1.936-2.069-6.209-2.745-9.18c-1.455-6.391-1.334-10.395,2.564-15.871
		c-7.424-3.675-15.074-2.625-22.994-3.314c-2.07,3.061-3.345,6.226-5.835,9.271c-3.48,4.243-5.385,6.135-5.925,11.803
		c-4.141,0.166-9.391,0.661-13.154-1.424c-3.075-1.694-5.176-5.16-9.151-4.5c-0.089,0.45-0.135,0.885-0.179,1.35
		c-7.275,0.855-9.196,1.305-12.887-4.875c-4.574-7.649-9.854,3.39-11.579,6.39c0.315,0.586,0.405,1.276,0.149,2.132
		c-0.57,0.014-1.229-0.046-1.904-0.105c-1.274,0.75-2.64,1.125-4.11,1.17c-2.399,2.58-6.495,2.385-8.325,5.385
		c-2.385,3.914-7.694,7.245-8.385,12.12c-1.05-0.151-1.994,0.164-2.459,1.005C87.646,243.353,96.751,241.793,104.927,242.514"/>
	<path fill="#D59EC7" stroke="#FCF8CE" stroke-width="0.375" d="M107.821,152.843c6.449,0.871,11.34,4.891,17.34,7.561
		c-5.039,7.83,13.141,7.979,17.355,7.784c0.66-1.71,2.475-11.37,5.625-6.733c2.55,3.779,4.785,3.824,7.23,0.658
		c3.389-4.408,6.435,0.24,9.974,1.246c5.505,1.545,11.355-0.436,13.471-5.82c-0.81-0.166-1.694-0.346-2.671-0.51
		c-3.494-7.846-1.05-22.021,7.531-25.846c0.75-3.135-1.035-5.625-0.615-8.76c6.645,0.735-3.105-7.365-5.341-7.89
		c-0.089-3.03-5.024-14.76-0.854-16.485c-3.346-1.485-7.096-1.98-10.74-2.024c-3.9-0.046-5.01,2.474-7.725,4.62
		c-2.4-4.966-9.6-8.13-14.686-4.485c-2.115,1.515-3.479,3.96-6.314,4.171c-3.585,0.254-7.455,0.449-10.979,0.898
		c-1.11,3.256-7.155,4.516-9.435,7.2c-2.551,3-5.806,7.591-6.826,11.431c-0.614,2.324,1.439,5.398-2.445,5.355
		c-2.549-0.031-5.82-1.666-8.294-0.661c0.794,2.64-0.87,4.05-3.466,3.556c0.795,1.648,0.841,3.78-1.08,4.471
		c-0.42,3.029,1.171,3.584,2.145,6.074c1.711,4.395-1.439,9.375-2.969,13.35c1.995-1.289,7.62,0.855,9.824,1.23
		C104.956,152.798,106.247,152.632,107.821,152.843"/>
	<path fill="#D59EC7" stroke="#FCF8CE" stroke-width="0.375" d="M209.642,199.448c4.471,3.915,10.319,5.701,15.09,9.181
		c4.529,3.314,8.595,7.5,13.92,9.569c6.045,2.355,12.646-0.089,18.6,2.206c6.811,2.625,9.496,10.604,15.285,14.52
		c2.881-0.855,7.064-1.904,10.109-1.574c3.526,0.389,5.58,3.885,9.346,4.214c3.104,0.271,7.516-0.029,9.779-2.505
		c2.401-2.61-1.379-7.094-1.425-10.034c-4.079,0.345-6.224-6.06-6.87-9c-1.274-5.819,0.811-8.73,6.285-10.036
		c6.15-1.469,6.031-5.969,8.895-10.619c3.092-5.01,7.695-7.561,9.436-13.604c2.07-7.216,19.456-0.316,23.76-6.75
		c2.295-3.421-6.149-5.536-7.229-8.206c-1.23-3.061-1.891-8.189-6.301-7.844c-1.785-3.977,1.666-8.416-2.25-11.76
		c-4.051-3.467-5.49-4.201-3.765-9.977c-5.911,2.145-10.53,2.25-12.435,8.806c-0.796,2.76-1.681,9.615-6.061,8.31
		c-2.64-4.814-3.689-11.609-9.811-12.704c-6.704-1.201-9.03,0.194-10.846,6.69c-1.994-3.361-3.869-3.767-7.724-4.246
		c-2.101-4.771-12.855-4.305-17.49-3.795c-0.601,6.75-1.335,13.455-1.665,20.235c-0.21,4.5,4.141,7.71,2.205,11.685
		c-7.5,0.479-15.24,1.141-21.346,5.67c-4.365,3.24-13.05,2.879-16.74-1.08c-0.089,0.314-0.148,0.63-0.254,0.945
		c-6.301,0.24-11.835,2.086-17.715,4.23c-7.275,2.654-6.9,6.944-2.745,12.375C203.687,194.154,206.747,196.928,209.642,199.448"/>
	<path fill="#438DCC" stroke="#FCF8D2" stroke-width="0.375" d="M108.047,518.663c4.799-2.145,9.81-3.869,15.224-1.68
		c5.01,2.023,5.58,8.311,12.092,7.199c0.283-3.074,0.089-6.283,0.404-9.344c4.785-2.295,13.379,0.254,17.115-4.186
		c-0.661-0.014-1.306-0.031-1.936-0.09c0.029-6.09-1.125-11.895-0.855-18.061c0.346-7.424-3.51-9.719-10.14-11.506
		c-5.97-1.619-9.51-4.857-14.145-8.76c-3.706-3.119-7.966-4.154-12.286-6.074c-1.244-0.555-7.994-3.346-5.533-5.596
		c4.543-4.154,10.529,5.791,14.76,0.586c2.908-3.586-0.166-10.004-0.092-14.129c0.121-6.705,5.115-10.951,6.061-17.342
		c-8.475-4.26-4.844-13.32-11.399-18.119c-2.64-1.934-7.966-4.365-11.069-2.086c-3.375,2.477-4.921,3.9-8.717,0.525
		c-3.375-2.984-5.579-4.738-10.439-4.334c-5.115,0.434-8.64-2.236-13.38-2.236c-4.8,0-8.175,3.646-12.404,5.43
		c-4.396,1.861-9.03,2.221-13.726,1.486c1.846,4.965-6.36,13.859-11.039,11.023c-2.805-1.693-6.166-1.424-9.15-0.344
		c-5.535,1.98-7.725-3.525-10.65-6.93c-0.6,1.365-0.975,3.584-2.775,3.615c-0.479,5.475,0.375,6.811,5.73,7.289
		c-0.36,5.4-1.439,10.59-1.92,15.99c-3.556-0.525-4.154,5.461-4.695,8.189c-0.48,2.477-0.855,5.521,0.18,7.906
		c1.141,2.609,3.96,2.205,3.69,5.654c2.745,0.945,3.735,3.9,7.005,3.629c2.221-0.18,4.995-1.363,4.035,2.297
		c-1.98-0.227-3.646,0.84-3.855,2.895c-0.959,0.6-0.944,0.465-1.545,1.471c-0.33,0.029-0.689-0.016-1.02,0.088
		c0.465,2.207,0.42,4.771,3.555,4.23c0.09,2.266-1.439,6.631,1.365,7.891c2.085,0.945,7.604-1.68,8.311,1.635
		c1.561,0.119,3.18,0.195,4.755,0.119c0.375-3.328-0.015-7.875,4.875-7.379c2.414,0.24,8.204,2.656,9.06-1.154
		c0.436-0.135,0.72-0.031,1.095-0.256c-0.104,2.234,0.36,4.381,0.24,6.57c3.69,0.227,4.096,4.709,6.556,4.904
		c1.334,0.105-0.166-8.699,0-10.273c2.535,2.385,3.074,1.395,4.305,5.355c0.735,2.354,2.61,5.953,5.445,6.193
		c1.185,5.1-6.99,2.611-9.525,3.422c-3.18,1.004-5.115,11.789-0.975,12.645c9.93,2.084,0.915,10.77-1.71,6.584
		c-3.735-5.969-6.511-9.824-14.431-8.311c-0.3,1.846-1.59,2.67-3.449,2.041c-0.331-7.471-6.555-3.645-8.16-8.986
		c-1.727-5.729-6.45-9.434-12.465-9.463c-0.091,1.199-0.12,2.443-0.091,3.645c2.37-0.016,4.875,2.189,6.976,2.924
		c0.061,1.861-1.141,3.705-0.841,5.551c0.405,2.58,3.646,2.549,5.101,4.275c3.09,3.645,3.495,8.818-2.37,9.389
		c-0.931,2.461-2.175,5.836-1.74,8.477c3.585,0.328,7.591,1.424,11.19,0.658c2.264-0.479,0.629-10.109,0.795-11.879
		c3.676-0.75,5.024,2.266,7.455,4.215c3.48,2.789,10.98,2.371,15.24,2.746c0.148,4.094-1.26,8.805,3.898,9.119
		c-0.523,0.225-0.104,2.145,0.031,2.475c1.875-0.539,1.485-2.266,1.62-3.93c4.47,0.016,8.97,0.404,13.454,0.24
		c-0.029-0.404,0.181-0.975,0.15-1.381c2.775-0.104,5.521,0.211,7.53-2.129c1.77-2.07,2.911-3.705,5.714-4.41
		c0.151-1.814,0.57-3.9-0.898-5.146c2.369-0.135,9.51-1.033,9.375,2.371c0.629,0.211,1.875,0.24,2.52,0.061
		c0.119-1.186,0.09-2.445,0.211-3.631c0.839-0.148,2.069-0.119,2.895,0.074c0.105,3.436-1.605,4.996-2.4,7.457
		C106.802,519.474,107.372,518.964,108.047,518.663"/>
	<path fill="#438DCC" stroke="#FCF8D2" stroke-width="0.375" d="M198.076,412.659c-6.63-0.57-13.335-0.676-19.98-0.436
		c-0.554,6.209,1.096,12.869-4.919,16.994c-4.5,3.09-10.531,2.807-15.721,2.355c0.885-1.605,3.226-3.42,3.031-5.445
		c-0.346-3.539-5.551-3.436-7.471-1.604c-2.085,1.979-3.15,6.93-6.45,3.854c-3.3-3.074,0.495-4.936,2.069-7.5
		c-9.435-8.34-11.834,7.262-19.139,6.137c-1.276,2.443-0.602,5.354-1.921,7.783c-1.365,2.52-3.255,4.381-4.14,7.217
		c-1.86,5.969,1.98,12.164,0.061,17.744c-2.221,6.465-8.955-0.119-12.766-0.195c-6.6-0.121-0.886,4.83,1.381,5.939
		c3.254,1.59,6.959,2.369,10.108,4.156c5.716,3.225,9.24,8.895,15.78,10.783c5.835,1.68,11.865,2.73,12.121,9.947
		c0.224,6.629,0.854,13.574,0.824,20.158c5.189,0.48,8.88-1.004,11.895,3.391c1.051,1.516-0.225,2.715,2.641,2.91
		c2.835,0.195,5.205,0.705,5.82,3.75c9.284,0.824,18.436-3.824,27.51-2.205c7.695,1.381,11.85,7.426,18.42,10.41
		c5.984,2.715,16.664,2.145,17.686-6c1.064-8.566-1.531-17.82-3.301-26.086c-0.961-4.5-0.09-9.359-2.28-13.588
		c-2.175-4.201-4.845-8.115-7.515-12c-4.59-6.691-10.186-12.961-10.08-21.541c0.09-7.605-5.775-12.977-7.305-20.115
		C202.802,421.823,208.951,413.603,198.076,412.659"/>
	<path fill="#D59EC7" stroke="#FCF8CE" stroke-width="0.375" d="M114.78,350.903c4.486,0.121,8.582,1.064,12.467,3.33
		c1.875,1.094,4.8,3.27,6.944,1.531c5.714-4.637,3.601-13.383,10.185-16.816c6.69-3.496,19.635-2.25,27.029-1.605
		c6.796,0.586,8.986,6.047,15.346,5.836c0.061-2.145,1.561-4.275,3.645-4.922c0.615-6.104,5.746-9.238,9.075-14.113
		c4.065-0.195,8.415-0.512,12.12,1.455c3.255,1.725,5.851,4.033,9.841,3.42c6.569-1.004,0.96-13.441-0.046-17.146
		c-0.523,1.291-0.148,2.82-0.27,4.156c-3,0.51-2.415-3.39-4.215-5.101c-2.76-2.64-5.895-5.37-9.359-7.05
		c-7.021-3.436-15.646-5.176-23.25-7.065c-9.045-2.25-1.17-8.474,1.965-12.36c3.824-4.725,1.665-15.885-2.881-19.38
		c-4.215,0.165-8.865,0.87-12.194-2.325c-3.075-2.954-4.62-5.879-9.346-4.858c-7.05,1.529-11.22-12.392-13.515-17.115
		c-3.99-8.221-7.154,4.575-8.805,6.599c-4.44,5.445-11.056-13.425-14.115-1.949c-2.025,0.149-3.854,2.58-6.375,2.985
		c-4.44,0.72-0.676,6.81,0.915,8.46c1.875,1.949,10.185,8.369,5.19,10.994c-5.445,2.852-14.971,1.021-18.811-3.764
		c-4.605-5.73-1.17-14.971-1.426-21.556c-8.189-0.735-17.295,0.841-25.244-1.351c-1.516,2.821-6.66,3.42-1.455,6.512
		c4.005,2.385,7.395-0.046,5.82,6.344c-1.26,5.086-1.246,9.48-4.154,13.92c-2.596,3.96,2.084,6.855,1.26,10.904
		c-1.426,0.061-2.896-0.043-4.32,0c-0.795,3.092,1.725,6.24,0.404,9.286c2.205,0.165,3.406,1.589,2.805,3.825
		c-1.425,0.555-1.214,2.369-1.589,3.721c-2.521-0.24-4.726,3.824-5.431,5.789c-4.109,1.454-14.461-2.431-13.199,4.994
		c5.85,0.541,10.77,4.306,16.635,4.786c2.58,0.224,8.88-0.181,9.93,3.029c1.32,0.12,2.7,0.091,4.02,0.226
		c0.061,5.686-3.285,4.83-7.92,5.07c-5.13,6.824-2.01,21.628-2.311,29.458C91.487,351.474,103.276,350.603,114.78,350.903"/>
	<path fill="#D59EC7" stroke="#FCF8CE" stroke-width="0.375" d="M112.336,211.058c3.99-0.029,4.021,3.166,5.76,5.791
		c2.235,3.344,7.86,1.484,11.086,1.094c0.06-0.465,0.104-0.899,0.181-1.35c3.27-0.54,5.31,1.725,7.648,3.51
		c4.051,3.09,9.855,2.611,14.656,2.416c0.404-4.336,1.26-7.141,4.455-10.201c3.464-3.314,4.829-7.186,7.305-10.875
		c7.919,0.689,15.555-0.359,22.995,3.314c3.029-4.26,7.5-10.185,13.274-10.439c-4.17-5.429-4.529-9.734,2.745-12.375
		c5.88-2.145,11.415-3.988,17.714-4.229c0.092-0.315,0.166-0.631,0.256-0.945c-2.52-2.716-5.76-3.916-7.859-7.156
		c-2.716-4.154-4.711-8.175-9.945-9.464c-3.689-0.901-7.155-2.161-10.8-3.151c-4.23-1.139-8.536,1.396-13.005,0.526
		c-2.041,5.204-6.314,6.345-11.564,6.089c-3.736-0.194-7.352-5.625-11.012-2.444c-2.789,2.415-3.09,5.145-6.975,1.635
		c-5.055-4.589-4.829,0.405-6.75,5.37c-4.215,0.18-22.395,0.031-17.355-7.784c-5.939-2.655-14.31-9.855-21.283-7.201
		c2.444,0.421,1.408,5.431,2.579,5.671c-0.841,0.014-1.665,0.045-2.505,0.06c-0.166,1.935-1.291,7.71,1.186,7.921
		c0.074,1.935,0.014,3.974-0.151,5.895c-7.005,0.06-1.289,8.28-1.395,12.42c-0.089,3.75-6.779,11.145-10.77,10.305
		c-0.194,2.19-0.105,4.455-0.271,6.645c-4.979,0.195-4.994,1.681-5.46,6.615c-3.226-0.014-6.735,0.029-6.029,4.35
		c1.56,0.091,3.569,0.016,4.515,1.576c1.545,2.534,5.414,1.738,7.875,1.814c3.105,0.075,9.51-0.285,11.265,3
		C106.651,216.099,106.831,211.089,112.336,211.058"/>
	<path fill="#D59EC7" stroke="#FCF8CE" stroke-width="0.375" d="M224.132,300.128c0.404-4.08,2.055-3.96,5.714-3.854
		c5.865,0.149,11.505-1.815,17.401-1.875c10.8-0.105,19.185-6.392,29.819-3.841c-0.149,3.63,3.72,10.726,6.63,4.755
		c1.035-2.099,2.52-3.539,4.156-5.19c2.444-2.49,2.204-5.339,3.793-8.204c0.796,0.029,1.486-0.075,2.131-0.226
		c-4.77-2.863-7.02-0.479-6-7.125c0.211-1.409,0.494-2.85,0.961-4.186c0.523-1.514,2.504-0.928,3.074-2.264
		c-2.73-4.529-0.916-8.01-6.601-10.095c-3.044-1.11-0.96-6.556-3.615-8.971c-1.829-1.664-18.104-11.414-9.029-14.13
		c-5.79-3.914-8.476-11.895-15.286-14.52c-6.674-2.564-13.858,0.314-20.533-3.061c-5.76-2.91-10.065-7.965-15.676-11.115
		c-3.074-1.725-6.344-3.119-9.27-5.129c-3.211-2.22-5.805-5.611-9.781-6.556c-7.334-1.77-13.319,6.735-16.724,11.925
		c-1.875,2.852-2.985,5.686-2.49,9.135c0.45,3.195,0.659,10.306,2.46,12.871c1.65,2.355,4.23,2.25,4.785,5.564
		c0.63,3.705-1.245,7.351-0.391,11.07c0.511,2.234,1.92,4.53,3.615,6.074c2.28,2.086,1.455,5.326,1.201,8.012
		c-4.036,0.148-9.301-0.301-11.642,3.885c-0.765,1.379,3.901,5.189,4.185,7.334c0.48,3.795,2.176,8.91,0.315,12.48
		c-1.875,3.601-7.169,5.686-7.47,10.08c-0.314,4.619,18.195,7.77,21.15,8.564c4.68,1.245,8.744,3.074,12.405,6.314
		c1.89,1.681,5.909,8.461,7.755,8.131C221.612,310.464,223.547,305.918,224.132,300.128"/>
	<path fill="#D59EC7" stroke="#FCF8CE" stroke-width="0.375" d="M321.632,143.363c0.975,2.355,4.17,3.016,5.609,5.07
		c2.311,3.24-0.405,7.125,1.111,10.545c3.75-0.285,4.814,3.496,5.76,6.33c1.469,4.439,7.469,4.456,8.023,8.476
		c0.871,6.39-22.408,2.399-24.014,7.995c-1.395,4.844-4.411,8.295-7.95,11.73c-3.721,3.613-3.046,10.005-8.521,11.955
		c-4.725,1.68-8.91,1.8-8.506,8.158c0.211,3.375,2.401,11.806,7.217,11.401c0.043,2.94,3.824,7.424,1.424,10.034
		c-2.595,2.82-8.266,3.12-11.715,2.176c-3.555-0.977-5.385-4.561-9.465-3.779c-3.15,0.613-10.455,0.118-10.53,4.694
		c-0.105,6.149,10.5,8.056,13.096,12.81c1.995,3.645-1.411,6,3.839,7.604c3.945,1.201,3.016,6.78,4.83,9.675
		c4.125,0.45,4.68-2.204,7.65-3.629c3.45-1.666,5.595,1.334,8.82,1.709c0.33,8.146,0.105,10.441,8.49,13.291
		c3.24,1.096,6.615,0.135,9.811,1.139c3.375,1.051,4.064,4.921,6.375,7.156c1.814-4.365,3.404-13.426-2.385-15.705
		c-3.721-1.455-7.816,0.465-11.281-2.16c-2.926-2.221-4.38-6.48-3.66-10.035c2.655-0.09,5.266,0.03,7.125,2.189
		c1.17,1.365,2.67,4.245,4.875,2.581c3.211-2.444-0.989-8.685,3.375-10.14c5.685-1.92,8.386,5.534,12.691,7.559
		c3.238,1.531,10.604,3.15,10.154-2.684c4.379-2.281,3.029-11.881,10.395-9.226c6.06,2.19,10.096-0.556,16.004-2.296
		c2.686-0.795,3.271-4.29,5.221-5.984c2.19-1.891,5.775-0.705,8.34-1.529c3.226-1.036,4.245-4.335,7.995-4.411
		c4.319-0.089,4.396-5.159,8.19-6.524c-2.609-6.375,1.244-16.709,6.629-20.551c6.931-4.949,16.936,0.945,17.072-11.023
		c-0.017,0.119-0.031,0.209-0.046,0.329c-2.069,0.464-3.885,1.589-6,1.921c-2.19,0.329-4.395-0.767-6.556-0.075
		c-4.17,1.319-5.76,2.265-10.589,2.145c-5.175-0.135-10.966,0.27-16.021,1.38c-3.84,0.84-5.789-3.149-9.556-2.625
		c-7.784,1.064-14.354,9.976-14.01-3.285c0.12-4.424,0.901-9.404-2.355-12.96c-3.255-3.569,1.591-7.096-0.539-9.704
		c-0.03-0.135-0.06-0.256-0.105-0.392c-2.46-0.464-3.181,2.161-5.909,1.201c-0.211-1.755-0.676-3.556-0.512-5.37
		c-4.289-0.375-7.618,4.469-11.459,2.551c-1.38-4.44,3.375-6.257,0.66-11.521c-2.295-4.455-2.85-9.074-5.521-13.574
		c-2.909-4.921-6.315-9.436-10.649-13.2c-5.16-4.485-3.885,0.21-8.43,0.539c-1.186,0.855-2.477,1.456-3.811,1.935
		C321.751,139.224,320.821,141.443,321.632,143.363"/>
	<path fill="#D59EC7" stroke="#FCF8CE" stroke-width="0.375" d="M129.257,101.303c6.449-0.105,9.54-1.649,14.459-5.159
		c5.086-3.646,12.285-0.48,14.686,4.484c2.715-2.145,3.824-4.664,7.725-4.621c3.645,0.046,7.395,0.541,10.74,2.026
		c5.039-2.101,8.49-5.25,14.279-5.101c2.896,0.074,6.24-0.135,9.092,0.466c2.969,0.63,5.849,2.474,8.983,1.89
		c5.896-12.51,12.601,0.135,16.98,6.885c2.25,3.466,4.875,7.649,9.315,8.43c5.895,1.036,11.954-2.084,15.42,4.306
		c2.324,4.306,5.834,2.279,9.57,3.585c4.139,1.454,3.869,6.15,8.879,6.885c8.385,1.23,6.585-9.585,10.875-13.71
		c3.315,1.89,5.686,4.214,9.227,5.085c-0.496-1.17-0.135-2.131,2.158-2.311c0.346-3.419-0.719-13.934-4.319-15.359
		c-5.909-2.31-3.046-6.944,0.405-10.35c3.825-3.796,1.83-10.141,3.42-14.791c0.855-2.534,1.951-4.695,1.846-7.455
		c-0.105-2.52-2.355-4.05-2.401-6.494c-4.829-0.556-10.079-5.1-12.779-8.94c-1.306-1.86-1.905-2.265-4.02-1.62
		c-3.841,1.199-6.661-0.765-10.411-0.676c-0.704,2.102-1.439,5.161-4.154,4.74c0.225-1.454-1.109-4.185-3.045-2.939
		c-1.635,1.064,0.284,3.466-0.676,4.801c-2.969,4.139-7.469-1.65-6.898-4.996c-0.99,0.166-2.371-0.404-3.361-0.24
		c0.21-0.795-0.285-2.069-0.06-2.879c-2.145-0.195-5.325,0.449-7.216-0.84c-2.084-1.41-0.6-4.291-4.005-3.436
		c-0.375,2.16-0.224,4.604-0.435,6.84c-2.864,1.021-1.35,4.561,0.391,6.015c-5.086,1.441-6.48-5.114-10.695-4.604
		c-0.045,0.391-0.211,0.9-0.285,1.35c-4.5-0.854-9.24,0.586-13.426-0.359c-0.089-2.58-0.449-6.24,2.115-7.891
		c1.727-1.109,3.181-1.32,2.565-3.854c-3.435-0.736-7.319,0.389-10.921,0.06c-0.148-3.915,0.301-7.951,0.151-11.865
		c-4.319-0.39-8.476,0.105-12.615-1.44c-5.28-1.965-10.11,1.246-15.346,0.061c0.767-3.66-10.125-7.32-12.39-10.051
		c-0.645,1.411-1.965,2.49-3.524,2.835c0.72,4.5,7.604,6.78,3.569,11.851c-1.096,1.38-3.405,0.824-4.199,2.34
		c-1.531,2.896,1.455,2.129,1.649,4.23c0.286,3.06,0.046,12.66-1.95,14.971c-5.025,5.819-9.555,4.829-16.619,5.668
		c-0.046,1.906,1.589,2.355,2.925,3.121c2.565,1.454,2.235,4.53,4.245,6.391c-0.301,0.284-1.305,1.26-1.591,1.484
		c-3.569,0.225-8.579-0.99-10.74,2.73c2.161-4.666-4.483-5.955-3.765-10.411c-1.755-0.39-3.48-0.104-5.235,0.331
		c1.021,4.26-2.64,4.77-4.245,7.919c-2.07,4.036,1.336,8.745-4.199,10.651c-10.47,3.615,4.185,11.158,3.615,16.648
		c2.744,0.406,4.68-0.404,3.449,3.227C127.321,101.093,128.372,101.318,129.257,101.303"/>
	<path fill="#D59EC7" stroke="#FCF8CE" stroke-width="0.375" d="M267.331,124.899c-2.594-0.767-2.85-2.896-4.529-4.635
		c-2.311-2.401-4.531-1.951-7.65-2.221c-3.99-0.346-3.811-4.726-6.676-6.404c-3.914-2.28-8.76-0.316-12.975-1.05
		c-9.314-1.637-18.119-32.671-26.295-15.315c-7.469,1.424-19.034-6.976-26.039-0.54c-2.566,2.355-7.262,2.385-7.711,6.135
		c-0.555,4.619,2.101,9.045,2.25,13.635c2.235,0.54,11.985,8.641,5.341,7.891c-0.435,3.135,1.349,5.625,0.614,8.76
		c-8.58,3.824-11.01,18.015-7.529,25.844c4.589,0.781,7.545,0.661,12.119-0.135c4.154-0.719,8.145,2.07,12.166,2.806
		c8.939,1.635,12.179,10.694,18.869,15.944c4.305,3.375,10.244,6.21,16.035,3.346c3.541-1.754,5.535-4.484,9.705-5.069
		c4.471-0.632,8.955-1.456,13.471-1.757c1.935-3.959-2.416-7.185-2.205-11.685c0.33-6.779,1.064-13.47,1.664-20.233
		c4.65-0.51,15.406-0.977,17.49,3.795c3.84,0.479,5.73,0.899,7.726,4.244c1.44-5.114,2.954-7.799,8.669-7.035
		c8.01,1.065,8.43,6.57,11.985,13.051c4.77,1.424,5.536-6.9,6.51-9.735c2.341-6.885,10.605-5.579,15.796-9.3
		c-8.01,0.555-8.596-8.91-16.051-8.279c-6.42,0.555-17.88-3.842-20.625-10.262c-3.539-0.87-5.909-3.195-9.225-5.084
		C275.326,116.409,278.461,128.183,267.331,124.899"/>
	<path fill="#D59EC7" stroke="#FCF8CE" stroke-width="0.375" d="M166.726,221.889c-1.844,0.765-5.324-0.076-7.35,0
		c-0.225,2.414-0.15,4.934-0.314,7.349c-0.811-0.209-2.086,0.286-2.895,0.075c0.539,5.956,12.238,8.461,15.479,3.615
		c1.44-2.159,1.891-6.585,1.801-9.105C173.221,217.673,169.862,220.583,166.726,221.889"/>
</g>
<path fill="#F7EC66" stroke="#438DCC" stroke-width="0.375" d="M285.662,537.653c-0.841-3.555,0.044-9.09,0.375-12.721
	c0.554-0.164,1.604-0.135,2.145,0.061c0.029,7.186,5.069,12.705,5.94,20.012c0.283,2.338,1.334,3.178,2.084,5.232
	c0.57,1.561-0.09,3.406,0.301,4.98c0.314,1.246,2.145,4.23,4.05,2.686c1.724-1.395-1.05-2.686-1.306-3.436
	c-0.915-2.744,0.556-6.449,0.166-9.314c-0.766-5.76-2.266-11.25-2.836-17.234c-0.404-4.32,0.346-8.176-0.659-12.391
	c-1.05-4.41-2.056-8.1-2.19-12.721c-0.119-4.109-2.025-7.125-2.31-11.01c-1.905-0.615-3.841,0.074-4.38,1.771
	c-1.23-4.006,2.174-3.406,4.919-3.42c0.165-2.777,0.3-3.586,1.74-5.777c1.306-1.979,2.896-2.367,3.661-5.023
	c1.185-4.125,0.719-9.135,0.839-13.5c0.046-1.92,0.421-4.125,0.151-6.016c-0.661-4.68-3.615-9.375-4.666-14.145
	c-1.215-5.473-2.691-11.242-3.4-16.852c-5.637-0.029-11.426-0.775-16.641-0.594c-0.615,3.031-9.194,3.211-8.158-1.215
	c-10.727-0.646-22.352-1.426-32.971-3c0.225-0.811-0.256-2.055-0.061-2.865c-4.755-0.436-23.189-5.1-24.676,1.709
	c-1.334,0.166-2.385,0.393-3.358,0.615c-1.125,8.686,4.635,13.756,6.72,21.57c1.035,3.9,0.346,7.92,1.725,11.805
	c1.306,3.631,3.645,6.766,5.865,9.871c5.295,7.439,11.7,15.074,12.27,24.48c0.496,8.145,2.625,16.365,3.57,24.51
	c4.334,0.615,8.625,0.209,11.295,4.395c1.32,2.07,0.766,3.285,3.615,3.6c2.595,0.285,4.561-1.078,4.26-3.855
	c2.881,3.557,5.97,10.307,7.635,14.611c9.391-0.645,16.141,11.234,19.904,18.18c0.017,0,0.046,0.016,0.061,0.016
	c0,0.045,0.016,0.09,0.031,0.135c0.675,1.275,1.154,2.639,1.635,3.961c2.25,0.148,3.346-1.832,4.02-3.977
	c1.032,0.363,2.035,0.787,3.029,1.234c-0.995-2.135-2.98-4.094-3.104-6.139C292.172,548.319,285.991,539.063,285.662,537.653z"/>
<path fill="#F7EC66" stroke="#438DCC" stroke-width="0.375" d="M292.336,409.808c0.78-1.83,2.146-3.195,2.73-5.113
	c1.86-6.092,3.149-14.551,8.714-18.855c4.967-3.855,4.651-9.721,7.921-14.355c1.86-2.654,4.14-6.99,7.711-7.801
	c0.666-0.148,1.349-0.16,2.036-0.131c-0.22-0.383-0.468-0.732-0.776-1.008c-6.63-5.926-4.005-8.176-0.3-15.256
	c-5.176-0.375-11.477-0.436-16.5-1.471c-1.891-0.389-3.871-1.334-5.852-1.168c-3.254,0.254-6.329,2.564-9.689,1.68
	c-0.105-2.957,1.02-6.916-1.365-9.301c-3.524-3.525-9.24-0.646-13.439-0.961c-0.6,1.785-0.164,3.572,1.74,4.064
	c0.165,0.707,0.15,1.621-0.046,2.342c-5.385,1.32-2.97,5.82-5.294,9.344c-2.01,3.045-8.476,0.842-7.666,5.852
	c-5.925,0.119-11.055-5.654-14.459-9.932c-3.391-4.26-0.66-14.879,0.015-19.814c2.145-15.495-21.931,2.041-26.37,1.141
	c0-0.016-0.015-0.029-0.015-0.029c-3.99,0.598-6.586-1.711-9.841-3.422c-3.719-1.963-8.07-1.648-12.12-1.453
	c-1.5,2.189-2.909,4.545-4.979,6.283c-0.03,2.041,0.061,4.096,0.15,5.939c0.27,0.061,0.555,0.137,0.824,0.197
	c0.66,4.273-3.705,17.023-9.299,16.799c-4.591,9.6-1.545,20.16-1.906,30.285c-0.359,9.811-4.425,18.48-4.29,28.574
	c6.646-0.18,13.411-0.135,20.026,0.662c6.135,0.75,5.099,5.684,4.454,10.619c0.976-0.225,2.026-0.451,3.36-0.615
	c1.485-6.811,19.92-2.145,24.676-1.711c-0.195,0.811,0.27,2.055,0.06,2.865c10.62,1.592,22.245,2.371,32.97,3
	c-1.035,4.426,7.545,4.246,8.16,1.217c5.272-0.18,11.018,0.518,16.605,0.527c-0.051-0.408-0.108-0.814-0.15-1.219
	C289.53,422.005,290.132,415.028,292.336,409.808z"/>
<path fill="#F7EC66" stroke="#438DCC" stroke-width="0.375" d="M325.966,363.487c2.235-0.629,3.48-2.369,5.535-3.074
	c0.075-0.449,0.105-0.869,0.195-1.32c4.531-2.865,10.995-2.068,16.455-1.588c-0.225,2.863,1.155,5.113,1.379,7.979
	c0.166,2.25-1.514,7.396,2.267,6.494c-0.091-2.295-0.03-4.783,2.654-5.309c0.255,2.16-0.765,3.705-0.51,5.865
	c3.595,0.395,3.571-5.402,3.726-8.633c-0.377-0.635-0.761-1.23-1.16-1.748c-3.09-4.035-0.781-11.984-0.766-16.74
	c0-7.035-3.81-11.656-6.06-17.984c-1.846-5.16-7.11-7.38-9.99-11.775c-3.435-5.235-5.25-11.055-11.19-14.145
	c-5.4-2.805-11.579-2.266-17.4-3.42c-2.909-0.586-11.265-0.436-11.895-4.352c-0.855-5.295-0.029-8.805-5.43-12.045
	c-0.645,0.15-1.335,0.24-2.131,0.226c-1.109,2.01-0.99,4.454-2.264,6.375c-1.71,2.579-4.291,4.185-5.671,7.02
	c-2.909,5.971-6.779-1.125-6.63-4.755c-5.189-1.245-9.436-1.59-14.235,1.005c-6.75,3.661-13.89,2.296-21.239,3.105
	c-3.119,0.346-6.105,1.38-9.24,1.575c-1.905,0.119-5.055-0.676-6.855,0.24c-1.829,0.93-1.484,5.1-1.484,6.555
	c-0.016,3.976-1.246,5.476-2.625,8.834c1.004,3.705,6.615,16.156,0.045,17.146c0,0.016,0.015,0.029,0.015,0.029
	c4.44,0.9,28.5-16.62,26.37-1.139c-0.676,4.904-2.865,13.723-0.87,18.42c2.086,4.918,9.825,11.445,15.315,11.324
	c-0.72-4.439,4.17-3.18,6.646-4.83c4.14-2.775,0.21-8.881,6.299-10.365c0.196-0.705,0.211-1.619,0.046-2.34
	c-1.904-0.496-2.34-2.279-1.74-4.064c3.84,0.285,7.891-1.74,11.641-0.195c4.409,1.814,3.044,6.764,3.164,10.471
	c2.535,0.658,5.01-0.555,7.365-1.217c3.09-0.869,5.16,0.076,8.176,0.705c5.023,1.051,11.339,1.096,16.5,1.471
	c-3.705,7.08-6.315,9.33,0.3,15.256c0.315,0.281,0.575,0.627,0.802,1.01C322.979,363.622,324.51,363.899,325.966,363.487z"/>
<path fill="#F7EC66" stroke="#438DCC" stroke-width="0.375" d="M357.751,362.724c0.523,0.822,0.702,1.955,0.951,2.996
	c0.6,0.852,1.198,1.711,1.761,2.596c0.393,0.123,0.867,0.16,1.474,0.064c0.105,0.463,0.061,0.898,0.105,1.363
	c0.659,0.166,1.215,0.031,1.859,0.045c-0.016-1.004,0.375-2.234,0.136-3.27c0.63,1.486,1.904,1.844,3.585,1.439
	c-2.955-0.9-1.906-5.879,0.24-7.889c3.959-3.689,8.474-4.471,10.574-9.977c0.84-2.219,0.51-4.334,1.785-6.344
	c1.32-2.1,3.645-3.031,5.131-4.859c2.129-2.625,1.918-2.941,2.204-6.467c0.45-5.639,2.505-6.389,7.71-6.811
	c3.689-0.299,7.56-1.213,11.04-2.292c0.023-0.17,0.021-0.328,0.009-0.481c-0.185-0.411-0.384-0.813-0.584-1.216
	c-1.424-1.418-5.062-1.465-6.819-0.959c-3.586,1.035-3.48,3.361-8.04,2.746c1.029-4.064,10.316-3.201,14.207-3.06
	c-0.369-0.645-0.771-1.271-1.217-1.875c-3.541-4.77-9.271-8.145-9.871-14.551c-0.346-3.63-0.975-8.699-6.119-7.38
	c-4.276,1.11-5.311,6.615-10.561,5.19c-3.795-1.036-10.995-1.111-13.186-4.5c-3.6-5.58-0.405-8.671,1.77-13.275
	c1.171-2.475,0.135-4.185-1.74-5.625c-2.339-1.8-2.608-5.386-2.594-8.069c0.015-6.721,1.305-12.886-2.73-18.841
	c-2.279,2.265-1.89,6.48-4.936,8.07c0.977,12.6-19.395-5.234-21.089-5.16c-6.06,0.256-2.415,6.104-4.306,9.496
	c-1.29,2.31-3.3,1.363-4.589-0.256c-2.326-2.925-4.485-3.689-8.235-3.57c-0.721,3.555,0.735,7.814,3.659,10.035
	c3.466,2.625,7.546,0.689,11.28,2.16c5.806,2.266,4.2,11.34,2.385,15.705c-2.31-2.221-3-6.105-6.375-7.156
	c-3.194-1.004-6.569-0.043-9.81-1.139c-8.385-2.852-8.161-5.145-8.49-13.291c-3.24-0.375-5.385-3.375-8.819-1.709
	c-2.955,1.439-3.525,4.079-7.65,3.629c-0.03-0.045-0.045-0.089-0.06-0.135c-0.961,2.236-3.06,1.561-3.735,4.83
	c-0.18,0.855-1.591,7.395,0.48,7.23c3.914-0.314,9.404,3.42,10.274,7.365c0.645,2.969-0.96,7.5,2.806,8.715
	c9.855,3.165,23.069,0.465,30.944,8.204c3.796,3.721,5.024,9.12,8.52,13.036c3.976,4.454,7.036,7.019,9.675,12.541
	c2.49,5.203,4.967,9.434,4.967,15.389c0,4.23-2.041,11.445-0.137,15.344c0.588,1.213,1.307,2.34,2.062,3.451
	c0.004-0.104,0.009-0.209,0.014-0.307C357.688,363.452,357.712,363.05,357.751,362.724z"/>
<path fill="#F7EC66" stroke="#438DCC" stroke-width="0.375" d="M413.972,321.205c3.15,0.854,5.385,3.134,8.385,3.675
	c0.09,0.539,0.375,1.363,0.42,1.783c0.212-1.809,0.177-3.734,0.311-5.581c0.001-0.092,0.001-0.176,0.004-0.27
	c0.091-3.645-0.659-7.515,4.081-7.229c4.529,0.27,7.935-5.025,9.12-8.775c0.975-3.104,0.015-7.62-0.887-10.68
	c-1.694-5.7-5.579-6.96-8.939-11.174c-2.534-3.181,0.24-9.586-0.87-13.561c-1.335-4.801-4.858-9.285-5.325-14.266
	c-0.435-4.635-1.514-9.104-2.608-13.635c-1.336-5.52-5.701-7.32-7.605-11.97c-3.24,1.154-3.255,4.44-5.88,6.029
	c-2.61,1.591-5.01,0.661-7.5,3.06c-3.525,3.391-9.255,0.556-12.12,4.455c-3.81,5.176-5.355,3.676-10.5,6.615
	c-2.086,1.186-3.51,2.355-6.075,1.86c-3.391-0.645-6.06-3.165-9.136-0.135c3.435,5.085,3.136,10.44,2.806,16.289
	c-0.181,3.091-0.299,6.586,1.365,9.346c1.35,2.25,3.555,2.024,3.285,5.22c-0.211,2.355-1.801,2.564-2.775,4.425
	c-1.35,2.579-1.289,5.895-0.33,8.579c1.965,5.461,9.255,5.115,14.13,6.451c5.265,1.424,6.286-4.08,10.56-5.189
	c6.092-1.576,5.625,5.294,6.33,9.015c1.158,6.19,7.966,9.532,10.869,14.806c0.129,0.006,0.267,0.012,0.383,0.014
	C408.451,320.439,411.228,320.455,413.972,321.205z"/>
<path fill="#F7EC66" stroke="#438DCC" stroke-width="0.375" d="M423.136,320.379c2.852,0.495,1.727,4.559,1.815,6.915
	c4.53,0.943,10.065-1.516,14.069-3.061c5.012-1.919,7.247-5.219,11.627-7.185c4.289-1.919,9.225-2.34,13.186-4.814
	c1.918-1.2,2.939-1.664,3.854-3.676c1.021-2.25-0.149-5.07,2.115-6.885c-0.12,2.07-0.195,4.201-0.12,6.255
	c0.646,0.151,1.23,0.165,1.86,0.046c1.32-0.33,0.015-9.225,0.24-10.35c0.51-2.49,1.68-6.601,2.654-9.076
	c1.156-2.939,3.391-4.26,2.91-7.919c-0.254-2.04-3.254-5.507-5.31-5.941c-0.27,0.81-0.3,2.401-0.091,3.24
	c0.466,0.06,0.916,0.12,1.365,0.181c0.12,3.51,0.495,7.846-1.305,10.846c-7.484,1.935-0.539-17.746,1.109-19.936
	c2.296-3.061,6.57-3.824,9.721-5.73c2.885-1.751,5.243-3.901,7.805-5.896c-1.478-4.119-2.017-8.486-0.5-12.764
	c1.096-3.061,4.98-4.575,3.721-8.234c-1.096-3.166-3.602-9.495-6.766-4.17c-1.965-0.256-2.641-2.791-4.215-3.99
	c-3.69,7.514-10.996-3.676-13.395-6.75c-1.695-2.161-4.246-5.715-7.426-5.46c-1.649,0.135-3.09,1.664-4.439,2.444
	c-3.404,1.936-6.66,0.811-10.26,1.59c-0.15-3.42,0.24-6.84,0.105-10.245c-2.207-0.21-5.461,0.63-6.842-1.755
	c-1.605-2.805,1.5-6.209,3.931-7.11c5.385-2.01,8.221-5.745,3.36-11.099c-5.189,5.084-13.201-1.065-14.189,8.099
	c0,1.816-0.151,3.54-0.646,4.786c-2.445,6.105-11.58,2.805-16.38,6.24c-5.52,3.944-7.365,11.49-7.14,17.925
	c0.149,4.14,3.225,5.159,5.445,8.024c2.43,3.149,2.865,7.591,3.719,11.341c0.826,3.585,0.976,7.349,1.875,10.875
	c1.081,4.229,3.811,7.993,4.995,12.255c1.142,4.125-1.049,8.145,0.017,11.939c0.898,3.256,4.964,4.306,6.854,6.825
	c3.406,4.546,5.641,13.095,3.091,18.45c-1.276,2.685-3.615,6.119-6.735,6.839c-2.58,0.586-5.34-0.87-5.76,3.046
	c-0.334,3.173-0.475,5.856-0.138,8.201c0.058-1.203,0.076-2.422,0.163-3.612C423.103,320.848,423.112,320.611,423.136,320.379z"/>
<path fill="#F7EC66" stroke="#438DCC" stroke-width="0.375" d="M502.787,248.244c3.375-5.01,6.464-5.91,12.181-8.46
	c4.74-2.13,9.734-4.575,14.895-5.76c3.27-0.75,6.764-1.575,9.721-3.211c2.803-1.559,3.283-4.424,5.444-6.464
	c1.8-1.695,4.95-2.34,6.194-4.352c1.289-2.055,1.215-5.385,2.654-7.709c2.911-4.695,7.517-8.13,11.431-11.926
	c0.276-0.267,0.574-0.494,0.858-0.75c-2.078-2.029-3.964-4.356-4.594-6.974c-0.914-3.78,0.18-7.396-3.255-10.171
	c-2.056,4.604-9.224,2.22-11.385,6.404c-1.74,3.375,2.296,6.842,0.96,10.44c-1.32,3.571-5.414,3.661-8.58,3.211
	c-0.105-2.13,0.33-4.336-0.48-6.39c-2.054-0.586-5.25,0.33-6.975-1.216c-1.395-1.245-0.855-4.351-1.395-6
	c-2.955-0.915-2.221-3.3-0.195-4.71c2.971-2.086,7.064-0.975,10.425-1.694c0.015-2.206-0.315-8.745,2.671-9.331
	c2.55-0.495,6.915,1.064,5.699-3.33c-0.449-0.135-0.885-0.105-1.35-0.18c0.27-3.195-2.685-2.505-4.965-2.64
	c-0.645-3.36,1.875-5.64,1.605-9.329c-4.846-0.406-5.461,0.254-6.661,4.68c-2.671,0.765-3.974-1.275-4.845-3.615
	c-3.84,0.225-5.984,5.774-10.064,4.229c-5.115-1.935-3.795-7.319-10.891-7.125c-0.18,1.921-0.135,3.931-0.299,5.852
	c-4.756-0.541-14.625,14.805-16.561,5.25c1.68-0.99,6.39-4.26,2.669-5.625c-1.5-4.605-4.604-12.195-10.529-13.875
	c-2.971,4.454-4.351,6.48-9.81,7.635c-0.315,3.271,1.395,6.435,1.139,9.766c0.45,0.104,0.901,0.135,1.352,0.179
	c0.375,1.995-0.916,2.235-2.281,2.985c-2.669,1.439-1.949,5.355-1.859,7.785c1.244,0.045,2.039,0.779,3.345,0.734
	c0.226,0.855,0.194,2.505-0.089,3.346c-2.911-0.166-1.951,3.375-2.161,5.459c-2.911,0.361-4.56-0.719-5.61,2.94
	c-0.779,2.701-3.495,6.435-6.015,2.296c-4.726-7.756-11.056-6.796-17.204-0.766c4.859,5.355,2.023,9.09-3.361,11.1
	c-2.25,0.841-3.9,2.716-4.23,5.16c-0.584,4.32,4.531,3.45,7.082,3.676c0.119,3.404-0.197,6.87-0.046,10.289
	c5.325-1.154,8.385-0.929,13.335-3.6c3.525-1.905,6.93,2.641,8.79,5.01c2.399,3.075,9.704,14.266,13.395,6.75
	c1.575,1.2,2.235,3.736,4.216,3.99c3.524-5.925,7.784,3.345,6.959,6.766c-0.523,2.145-3.105,3.375-3.898,5.639
	c-0.977,2.717-1.142,5.625-0.661,8.461c0.245,1.484,0.62,2.918,1.095,4.312c1.23-0.959,2.504-1.886,3.915-2.707
	C498.047,252.654,500.566,251.543,502.787,248.244z"/>
<path fill="#F7EC66" stroke="#438DCC" stroke-width="0.375" d="M583.112,171.593c1.469-6.675-5.266-6.869-6.645-12.105
	c-1.352-5.084,4.214-12.389-3.061-14.685c-0.105-3.105,3.465-13.71-0.646-14.534c1.021-5.281,12.57-1.245,16.006-1.516
	c10.365-0.766-1.44-15.121-1.545-19.664c-3.675-1.006-6.435-8.431-6.225-11.506c-0.602-0.555-1.561-1.004-2.325-1.08
	c-0.255,2.865,0.135,13.471-5.325,8.761c-0.78,0.914-1.484,2.474-1.98,3.479c-0.99-2.115-1.305-4.621-3-6
	c-1.244,2.775-2.49,8.175-2.369,11.369c-4.335-2.52-5.16-8.414-11.056-3.629c-3.39,2.744,4.726,4.395,5.101,6.944
	c0.63,0.06,1.245,0.135,1.86,0.194c-2.761,0.151-5.175,6.75-7.831,7.98c-2.64,1.215-5.654,1.786-8.505,2.236
	c-2.685,0.42-5.339-0.885-7.904-0.315c-1.905,0.435,1.589,7.635-3.36,8.339c-2.76,0.391-4.005,2.01-4.305,4.815
	c-0.436,3.976,4.05,3.78,4.635,7.171c2.069,0,2.355,1.77,1.754,3.555c-3.584-0.75-4.408,1.949-4.5,4.726
	c0.076,0.239,0.151,0.479,0.227,0.72c1.545,0.375,1.29,0.405,1.574,1.994c-0.314-0.03-0.63-0.045-0.93-0.03
	c0.915,2.296,2.221,4.336,4.889,3.569c1.201-4.424,1.832-5.069,6.661-4.678c0.27,3.674-2.265,5.969-1.605,9.329
	c2.296,0.135,5.235-0.569,4.966,2.64c0.465,0.074,0.899,0.061,1.35,0.18c1.215,4.395-3.15,2.835-5.7,3.33
	c-2.985,0.586-2.654,7.11-2.671,9.33c-2.969,0.631-6.074,0-9,0.961c-2.52,0.824-5.084,4.26-1.229,5.444c0.539,1.649,0,4.755,1.395,6
	c1.726,1.546,4.92,0.63,6.976,1.214c0.81,2.056,0.375,4.246,0.479,6.392c2.461,0.345,5.609,0.495,7.5-1.456
	c3.33-3.436-0.555-7.08-0.256-10.799c0.45-5.521,9.69-3.15,11.76-7.785c2.791,2.264,2.642,4.98,2.94,8.219
	c0.337,3.632,2.52,6.369,4.998,8.876c4.255-3.8,9.252-6.22,14.313-8.966C575.69,183.704,571.939,176.525,583.112,171.593z"/>
<path fill="#F7EC66" stroke="#438DCC" stroke-width="0.375" d="M591.797,182.784c1.8-1.29,3.704-1.8,5.819-2.836
	c3.586-1.755,8.176-2.819,11.236-5.474c2.385-2.056,3.51-5.686,6.99-6.541c3.734-0.899,1.935-7.199,2.939-9.24
	c1.094-2.189,3.811-2.475,5.805-3.6c3.104-1.74,7.275-6.314,10.35-6.689c0.346-1.561,1.516-2.67,3.091-2.939
	c1.74-3.075,3.358-6.436,5.849-9.286c1.426-1.649,3.421-2.685,4.651-4.529c1.14-1.711,1.515-3.615,2.654-5.326
	c1.694-2.549,4.786-5.25,7.2-7.2c2.85-2.31,5.805-4.589,8.129-7.514c1.248-1.555,1.248-3.445,1.748-5.254
	c-0.141-0.043-0.29-0.067-0.428-0.117c-3.945-1.41-1.424-4.949-1.875-7.994c-3.945-0.315-5.369,0.314-8.445,2.295
	c-0.479,1.904,0.961,2.985,2.776,3.061c0.974,4.574-9.646,2.76-12.63,5.608c-0.811,1.216-1.846,2.191-3.091,2.941
	c-1.125,0.479-3.104-0.99-3.96,0.345c-0.54,0.824,3.15,5.76,3.75,6.555c-6.24,0.24-5.055,6.39-10.635,6.93
	c0.164,0.811-0.375,2.025-0.211,2.835c-4.469,0.165-9.674,1.245-13.979-0.404c-5.025-1.921-7.201-4.081-12.961-4.23
	c-2.805-0.075-7.875,1.38-8.445-2.79c-0.779-5.67-4.365-8.864-6.27-14.039c-1.545-0.392-2.625,0.24-3.06,1.754
	c-0.526,0.121-1.02,0.09-1.515-0.045c0.104,5.596,4.709,8.146,5.654,13.26c2.52,13.561-18.645,0.226-20.145,7.92
	c4.11,0.842,0.539,11.445,0.645,14.536c7.26,2.294,1.709,9.615,3.061,14.685c1.379,5.234,8.115,5.445,6.645,12.104
	c-3.93,1.74-7.395,3.915-7.785,7.935c1.688,3.633,3.151,7.623,5.548,10.9c1.963-1.07,3.932-2.188,5.868-3.475
	C588.722,185.634,589.981,184.103,591.797,182.784z"/>
</svg>
