<?xml version="1.0" encoding="utf-8"?>
<!DOCTYPE svg PUBLIC "-//W3C//DTD SVG 1.1//EN" "http://www.w3.org/Graphics/SVG/1.1/DTD/svg11.dtd" [
	<!ENTITY ns_extend "http://ns.adobe.com/Extensibility/1.0/">
	<!ENTITY ns_ai "http://ns.adobe.com/AdobeIllustrator/10.0/">
	<!ENTITY ns_graphs "http://ns.adobe.com/Graphs/1.0/">
	<!ENTITY ns_vars "http://ns.adobe.com/Variables/1.0/">
	<!ENTITY ns_imrep "http://ns.adobe.com/ImageReplacement/1.0/">
	<!ENTITY ns_sfw "http://ns.adobe.com/SaveForWeb/1.0/">
	<!ENTITY ns_custom "http://ns.adobe.com/GenericCustomNamespace/1.0/">
	<!ENTITY ns_adobe_xpath "http://ns.adobe.com/XPath/1.0/">
]>
<svg version="1.1" id="Andaman_and_Nicobar_Islands" xmlns:x="&ns_extend;" xmlns:i="&ns_ai;" xmlns:graph="&ns_graphs;"
	 xmlns="http://www.w3.org/2000/svg" xmlns:xlink="http://www.w3.org/1999/xlink" x="0px" y="0px" width="566.964px"
	 height="744.385px" viewBox="0 0 566.964 744.385" enable-background="new 0 0 566.964 744.385" xml:space="preserve">
<metadata>
	<sfw  xmlns="&ns_sfw;">
		<slices></slices>
		<sliceSourceBounds  height="744.385" width="566.964" x="259.581" y="181.551" bottomLeftOrigin="true"></sliceSourceBounds>
	</sfw>
</metadata>
<rect fill-rule="evenodd" clip-rule="evenodd" fill="#C6ECFF" width="566.964" height="744.385"/>
<path fill-rule="evenodd" clip-rule="evenodd" fill="#FEFEE9" stroke="#0978AB" stroke-width="1.1339" stroke-linejoin="round" stroke-miterlimit="3.8637" d="
	M252.641,127.955l0.05,0.44l0.827,0.316l0.202,0.262l-0.097,0.88c-0.575,0.57-0.688,1.035-0.947,1.75l0.268,1.423l-0.373,0.358
	c0.254,1.168-0.971,3.229-1.462,4.172c-0.067,1.4,1.592,4.628,1.504,5.448l-0.149,0.286l-0.331,0.183l-0.061,0.263l0.399,0.061
	l0.21,0.655l0.2,0.021c0.116-1.315,0.452-2.154,1.593-2.815c0.11-0.232,0.012-0.675-0.124-0.877l-0.79,0.475l-0.142-0.482
	l0.218-0.376l-0.165-0.546l0.086-0.178l1.528-0.066c0.515-0.236,0.41-0.892,0.643-1.283c0.07-0.118,0.561-0.522,0.677-0.67
	c0.375-0.475,0.685-1.062,1.016-1.575l-0.113-0.172l-0.488-0.104l-0.092-0.196l0.153-0.178l0.464-0.029
	c0.603-0.801,0.114-2.36,0.126-3.231c0.011-0.787,0.17-1.654,0.251-2.441c0.007-0.066-0.084-0.503-0.1-0.594l-0.37,0.445
	l-0.155-0.063c-0.543-1.187,1.964-2.526-0.604-4.626l-0.664,0.056l-0.472-0.39C254.337,124.731,253.062,127.304,252.641,127.955z"/>
<path fill-rule="evenodd" clip-rule="evenodd" fill="#FEFEE9" stroke="#0978AB" stroke-width="1.1339" stroke-linejoin="round" stroke-miterlimit="3.8637" d="
	M255.908,114.377l-0.394,0.355c-0.309,0.593,0.025,2.37,0.557,2.958l0.176-0.024l0.546-1.919l1.187-0.766l0.15-0.376l-0.16-0.326
	c-0.29-0.028-0.733,0.208-0.927,0.408l-0.485,0.029L255.908,114.377z"/>
<path fill-rule="evenodd" clip-rule="evenodd" fill="#FEFEE9" stroke="#0978AB" stroke-width="1.1339" stroke-linejoin="round" stroke-miterlimit="3.8637" d="
	M222.791,359.727c-0.231-0.638,0.291-1.144,0.811-1.421c0.209-0.765,0.596-1.436,0.974-2.124c0.188-0.343,0.797-0.496,0.884-0.981
	c0.174-0.971-0.16-2.331,0.964-2.874l0.168-0.527c-0.387-0.816,0.029-1.586-0.278-2.171c-0.733-0.412-1.074-2.468-2.113-2.821
	l-0.749,0.077l-0.244-0.302l-0.023-0.294c-0.095-1.244-0.283-2.567-0.289-3.81c-0.002-0.418,0.254-0.901,0.262-1.323
	c0.019-0.996-0.122-2.074-0.181-3.072c-0.002-0.044,0.166-0.605,0.187-0.684l-0.499-0.893c-0.008-0.455,0.352-1.124,0.656-1.439
	l0.307-0.026l0.209,0.633l0.73,0.363l0.412-0.403c0.352,0.002,1.044-0.098,1.336-0.329c0.484-0.519,1.248-2.62,1.483-3.297
	l0.241-0.114l0.662,0.122l1.229-1.493l0.792,0.053l-0.034-0.681c0.409-0.567,0.551-1.112,0.126-1.715l0.118-0.247l1.034-0.628
	l0.793,0.098c0.767-0.119,0.526-1.805,2.96-1.893l0.496-0.536l0.417-0.029c0.816,0.468,0.906,0.853,1.406,1.317
	c0.428,0.397,0.968,0.757,1.431,1.119c0.322,0.252,0.759,0.648,0.848,1.065l-0.307,1.323c0.539,0.771,0.815,2.306,0.601,3.218
	l0.315,0.501l-0.259,0.201c0.027,0.03,0.149,0.185,0.178,0.196c0.758,0.296,1.066,0.414,1.31,0.61
	c0.253,0.204,0.438,0.493,0.985,1.156c0.024,0.029,0.098,0.298,0.115,0.35c-0.545,0.78-0.796,2.532-0.714,3.438
	c0.015,0.163,0.391,0.934,0.436,1.156c0.226,1.1,0.004,1.814,0.879,2.799c-0.035,0.475-0.094,2.521-0.328,2.839l-0.197,0.003
	l-0.247-0.305l-0.858-0.096l-0.124,0.573l-0.459,0.249l-0.144,0.485c0.02,0.336,0.489,0.881,0.719,1.087
	c-1.756,0.328-3.552,1.977-4.003,3.733c-0.134,0.521-0.118,1.279-0.168,1.826l0.137,0.326c0.985,0.076,2.044,0.664,2.68,1.408
	c-0.559,1.006-1.411,1.705-1.979,2.601c-0.691,1.09-1.031,2.292-1.879,3.327c-0.935,0.127-2.163,0.436-3.09,0.421
	c-0.171-0.002-0.249-0.1-0.407-0.163c-0.193-0.078-1.852-0.724-1.912-0.767c-0.349-0.248-0.661-0.741-0.984-1.037
	c-1.003-0.918-2.154-1.642-3.528-1.65c-0.136,0-0.569,0.017-0.693,0.157C225.213,359.751,224.511,360.551,222.791,359.727z"/>
<path fill-rule="evenodd" clip-rule="evenodd" fill="#FEFEE9" stroke="#0978AB" stroke-width="1.1339" stroke-linejoin="round" stroke-miterlimit="3.8637" d="
	M256.084,485.684l0.409-0.49l0.371-0.093l0.771,0.448l0.501-0.029l0.402,0.368l0.666-0.538c0.256,0,1.27-0.044,1.441-0.263
	c-0.012-0.439,0.229-1.192,0.588-1.479l-0.268-0.392l-0.005-0.308l0.197,0.021l0.174-0.223c-0.208-0.442-0.311-1.068-0.286-1.553
	l0.194-0.093c0.083,0.38,0.156,0.829,0.454,1.113c1.811,1.726,4.734,3.912,4.344,6.85l0.333,0.302
	c-0.045,0.276,0.146,0.746,0.299,0.962l-0.459,1.476l0.252,0.788l-0.17,0.331c-1.452-0.362-0.858,1.716-3.93,1.602
	c-0.33-0.013-0.747,0.001-1.009-0.254l-0.071-0.329l0.257-0.334l0.415-0.05l0.596,0.299l0.173-0.09l-0.047-0.199l-0.531-0.297
	l-0.005-0.395l-0.244-0.239c-0.329-0.031-0.827,0.331-1.018,0.565l0.16,0.435l-0.627,0.448c-0.63-0.091-1.62,0.128-2.155,0.472
	c-0.375-0.053-0.845-0.068-1.096-0.313c-0.417-0.405-0.377-0.943-0.57-1.439c-0.19-0.486-0.522-0.82-0.57-1.418
	c-0.046-0.58,0.068-1.196,0.04-1.779c-0.023-0.486-0.177-0.981-0.197-1.466C255.83,487.345,256.013,486.444,256.084,485.684z"/>
<path fill-rule="evenodd" clip-rule="evenodd" fill="#FEFEE9" stroke="#0978AB" stroke-width="1.1339" stroke-linejoin="round" stroke-miterlimit="3.8637" d="
	M349.806,667.719l0.806,0.021c0.389-0.144,0.889-0.647,1.008-1.05c0.322-0.1,0.816-0.397,0.998-0.697
	c-0.783-1.611,0.808-1.956,1.194-3.239l-0.047-0.636c-0.737-0.779-2.25-2.479-3.329-2.592c-0.66-0.938-0.238-2.462-0.541-3.505
	l-0.656-0.982l-0.328-0.491l-0.276,0.498c-0.04,0.438,0.319,1.304,0.502,1.681l-0.475,0.668l-0.092,1.007l0.475,0.167l0.564,0.891
	c-1.381-0.127-1.518-0.123-2.528,0.68c-0.414,0.329-0.728,0.638-0.807,1.186l-0.51,0.273l-0.593-0.61l-0.433-0.01
	c-0.271,0.165-0.471,0.297-0.583,0.62c-0.632-0.149-1.334-0.441-1.958-0.117c0.037,0.739,0.718,4.762,0.562,5.193
	c-0.308,0.162-1.224,0.683-1.398,0.997l0.982,0.838c0.066,0.262,0.256,0.797,0.218,1.042c-0.037,0.232-0.192,0.786-0.011,0.983
	l-0.331,1l0.336,0.472l0.415-0.01l1.283,1.702c0.491-0.139,1.158-0.709,1.336-1.195l0.438-0.141
	c0.082-0.329,0.027-0.756,0.092-1.007C346.737,668.973,348.234,669.212,349.806,667.719z"/>
<path fill-rule="evenodd" clip-rule="evenodd" fill="#FEFEE9" stroke="#0978AB" stroke-width="1.1339" stroke-linejoin="round" stroke-miterlimit="3.8637" d="
	M346.806,680.085l0.11,1.564l0.424,0.406v0.856c-0.315,0.188-0.636,0.42-0.973,0.567c-0.198,0.816-1.154,0.932-1.331,1.742
	c0.006,0.277,0.223,0.677,0.412,0.87c0.25,0.142,0.82-0.014,1.05-0.127l0.254,0.226l-0.011,0.374
	c-0.304,0.265-0.829,0.486-1.23,0.517c-0.127,0.32-0.152,0.915,0.01,1.23l0.694,0.127l0.088,0.75l-0.459,0.098l-0.317,0.517
	l0.052,0.419l0.541,0.212l-0.443,1.964l1.014,1.235c-0.116,0.594-0.576,1.589-1.077,1.97l0.25,0.445l0.546-0.029
	c0.108-0.415,0.637-0.917,1.008-1.095l0.89,0.069c0.293,0.213,0.835,0.682,0.974,1.036c-0.088,0.303,0.047,0.828,0.254,1.061
	l1.467,0.501l-0.433-0.848l0.477,0.013l0.555,0.477c-0.079,0.454-0.04,0.827,0.117,1.275l0.384,0.297l0.208,1.235
	c0.514,0.056,1.202,0.268,1.616,0.591l0.184,0.422l-0.07,0.241l0.359,0.448c-0.066,0.556,0.031,1.257,0.213,1.784l-0.56,0.557
	c0.086,0.681,0.653,1.071,0.741,1.71l0.347,0.077l1.176-0.848c0.094,0.361,0.606,1.914,0.485,2.145l1.056,0.421l0.008,0.549
	l0.189,0.292l0.798,0.241l0.058,0.31c-0.366,0.124-0.887,0.141-1.262,0.053c-0.35,0.444-0.141,1.39,0.081,1.848
	c0.372,0.498,1.211,0.242,1.633,0.79l0.034,0.374c-0.44,0.396-0.628,0.72-0.774,1.253c0.586,0.631,1.127,1.414,1.533,2.171
	l0.431,0.098l0.191-0.61l0.454,0.08c0.149,0.201,0.205,0.623,0.131,0.859l-0.506,0.162l0.239,0.843
	c-0.254,0.141-0.438,0.644-0.459,0.91l0.359,0.448l0.031,0.44l-0.501,0.867l0.268,0.554c0.783,0.295,1.728,0.831,2.594,0.663
	l0.314-0.43l0.095-1.052l0.53-0.271c0.506-0.645,0.55-2.315,0.449-3.064c0.323-0.661,0.945-0.957,1.659-1.01l0.496,0.19
	c0.309,0.419,0.436,0.567,0.521,0.735c0.079,0.156,0.123,0.33,0.246,0.755l0.653-0.048c0.146-0.371,0.942-0.891,1.268-1.063
	l0.254-0.565l-0.074-0.506c0.326-0.326,0.288-1.016,0.32-1.442l-0.207-0.379l-1.241-0.713c-0.374-0.363-0.387-1.536-0.318-1.991
	c0.096-0.238,0.43-0.548,0.69-0.591l0.189-0.631c-0.184-0.385-0.405-1.022-0.375-1.46l0.333-0.254L369,706.656l0.011-0.417
	c0.524-0.02,1.263-0.558,1.572-0.946l-0.342-0.36c-0.124-0.271-0.128-0.76-0.016-1.034l0.518-0.535
	c-0.076-0.488,0.046-1.146,0.236-1.596l0.313-0.299c0.608,0.072,1.084,0.171,1.674,0.045l0.073-0.284l-0.984-0.663l-0.202-0.554
	l-0.426-0.342l0.107-0.832c-0.17-0.444-0.962-1.083-1.335-1.331l0.061-0.658c0.251-0.421,1.075-0.809,1.527-0.901l0.071,0.615
	c0.438,0.094,1.031,0.738,1.254,1.09l0.336-0.387l0.035-0.438c-0.112-0.386-0.511-0.441-0.767-0.681
	c-0.567-0.532-0.545-1.407-1.323-1.792l-0.707,0.397l-0.459-1.569l0.208-0.501c-0.029-0.539-0.371-0.63-0.475-0.912
	c-0.235-0.639-0.212-1.576-0.686-2.104l-1.247-0.538c-0.351-0.964-0.987-2.351-0.197-3.322c0.031-0.332-0.29-0.895-0.491-1.132
	l0.083-0.693c0.318-2.649-0.386-1.755-0.794-3.761c-0.021-0.101-0.002-2.117-0.002-2.351c0-0.29-1.067-1.53-1.281-1.79
	c-0.323,0.126-1.316,0.419-1.659,0.241l-0.766-0.657c-0.157-0.354-0.076-1.239-0.024-1.604l-0.74,0.003l-0.475,0.623l-2.406,0.464
	l-0.073,0.35l0.341,0.271l-0.003,0.922l-0.33,0.212c0.136,0.278,0.116,0.803-0.029,1.074l-0.522-0.848
	c-0.254-0.124-0.715-0.142-0.979-0.048l-0.473-0.23c-0.26,0.049-0.661,0.299-0.777,0.549l-0.567,0.029l-0.572-0.498l-1.011,0.26
	l-0.115,0.302l0.572,0.543l0.097,0.464c-0.189-0.197-0.58-0.418-0.858-0.44l-0.638,0.18l-0.302,0.761
	c-1.021,0.765-1.451,0.116-2.417,0.066c-0.812-0.042-1.546,0.426-2.35-0.085C347.789,679.359,347.294,679.718,346.806,680.085z"/>
<path fill-rule="evenodd" clip-rule="evenodd" fill="#E0E0E0" stroke="#0978AB" stroke-width="1.1339" stroke-linejoin="round" stroke-miterlimit="3.8637" d="
	M318.602,11.339l0.312-0.024l0.191-0.596l-0.137-0.326l-1.047-0.032l-0.241,0.289C317.884,10.929,318.27,11.23,318.602,11.339z"/>
<path fill-rule="evenodd" clip-rule="evenodd" fill="#E0E0E0" stroke="#0978AB" stroke-width="1.1339" stroke-linejoin="round" stroke-miterlimit="3.8637" d="
	M318.554,22.778l0.349-0.4c0.211-1.093,0.511-2.244,0.646-3.345c0.083-0.676-0.19-1.385,0.063-2.062
	c-0.155-0.327-0.727-1.743-0.496-2.081l0.489-0.225l0.063-0.22l-0.069-0.13l-0.643,0.14l-0.226-0.13l-0.163-0.504l-1.016,0.52
	l-0.17,0.506c0.731,1.406,0.755,3.259,0.952,4.796c0.056,0.433-0.651,1.369-0.913,1.657l0.184,0.371l0.672,0.432L318.554,22.778z"/>
<path fill-rule="evenodd" clip-rule="evenodd" fill="#E0E0E0" stroke="#0978AB" stroke-width="1.1339" stroke-linejoin="round" stroke-miterlimit="3.8637" d="
	M304.963,31.163l0.399-0.027c0.19-0.172,0.425-0.553,0.433-0.819l-0.672-1.988l0.147-0.597l-0.454-0.652l-0.197,0.223
	c0.167,1.202-0.124,2.435,0.115,3.6L304.963,31.163z"/>
<path fill-rule="evenodd" clip-rule="evenodd" fill="#FEFEE9" stroke="#0978AB" stroke-width="1.1339" stroke-linejoin="round" stroke-miterlimit="3.8637" d="
	M287.63,63.167l-0.149-1.052l-0.268-0.13c-0.047,0.282-0.063,0.854,0.082,1.119L287.63,63.167z"/>
<path fill-rule="evenodd" clip-rule="evenodd" fill="#FEFEE9" stroke="#0978AB" stroke-width="1.1339" stroke-linejoin="round" stroke-miterlimit="3.8637" d="
	M282.688,62.746l0.62-0.421l1.667,0.045c0.739,0.462,0.792,1.658,1.43,2.02l0.441-0.114c0.347-0.62-0.143-1.385-0.205-2.018
	c-0.023-0.239,0.103-0.534,0.076-0.771c-0.069-0.609-0.689-1.214-0.603-1.768l-0.363-0.435l-0.598,0.074l-0.304,0.421l-0.245,0.024
	l-0.226-0.172c-0.496-0.042-2.25,0.44-2.475,0.824l-0.037,0.506l-0.488,0.116l-0.084,0.286
	C281.958,61.619,282.071,62.39,282.688,62.746z"/>
<path fill-rule="evenodd" clip-rule="evenodd" fill="#FEFEE9" stroke="#0978AB" stroke-width="1.1339" stroke-linejoin="round" stroke-miterlimit="3.8637" d="
	M288.478,65.065l0.289-0.026c0.281-0.762,0.485-1.466,0.546-2.291c0.199-0.269,0.75-0.522,1.058-0.607l0.108-0.265l-0.16-0.329
	c-1.26-0.054-1.066,0.982-1.869,1.431C288.214,63.558,288.532,64.405,288.478,65.065z"/>
<path fill-rule="evenodd" clip-rule="evenodd" fill="#FEFEE9" stroke="#0978AB" stroke-width="1.1339" stroke-linejoin="round" stroke-miterlimit="3.8637" d="
	M273.149,69.407l0.265-0.069c0.246-0.698,1.375-1.493,1.371-2.017l-0.095-0.329l-0.444,0.05c-0.559,0.419-1.089,1.371-1.346,1.996
	L273.149,69.407z"/>
<path fill-rule="evenodd" clip-rule="evenodd" fill="#FEFEE9" stroke="#0978AB" stroke-width="1.1339" stroke-linejoin="round" stroke-miterlimit="3.8637" d="
	M271.882,76.65c0.24-0.229,0.314-0.942,0.113-1.209l-0.223-0.106l-0.152,0.111l-0.147,0.663l0.163,0.501L271.882,76.65z"/>
<path fill-rule="evenodd" clip-rule="evenodd" fill="#FEFEE9" stroke="#0978AB" stroke-width="1.1339" stroke-linejoin="round" stroke-miterlimit="3.8637" d="
	M293.677,83.815l0.289-0.072l0.129-0.199c-0.062-0.236-0.545-0.566-0.74-0.67l-0.218,0.397L293.677,83.815z"/>
<path fill-rule="evenodd" clip-rule="evenodd" fill="#FEFEE9" stroke="#0978AB" stroke-width="1.1339" stroke-linejoin="round" stroke-miterlimit="3.8637" d="
	M403.903,82.535l-0.087,0.308l0.366,1.007c0.346,0.042,0.593,0.031,0.869,0.3l0.309-0.135c0.222-0.293,0.933-1.331,0.893-1.72
	l-0.383-0.766c0.036-0.16,0.058-0.328,0.104-0.485c-0.388-0.608,0.064,0.116-0.955-0.056
	C404.567,82.001,404.738,81.76,403.903,82.535z"/>
<path fill-rule="evenodd" clip-rule="evenodd" fill="#FEFEE9" stroke="#0978AB" stroke-width="1.1339" stroke-linejoin="round" stroke-miterlimit="3.8637" d="
	M267.89,84.372c0.239-0.13,1.171-0.716,1.184-1.026l-0.128-1.119l-0.242,0.048l-0.197,0.265l-1.215,0.347l-0.26,0.379l-0.052,0.944
	L267.89,84.372z"/>
<path fill-rule="evenodd" clip-rule="evenodd" fill="#FEFEE9" stroke="#0978AB" stroke-width="1.1339" stroke-linejoin="round" stroke-miterlimit="3.8637" d="
	M290.924,85.323c0.03-0.248,0.252-1.403,0.066-1.562l-0.242,0.048l-0.237,0.618l0.21,0.745L290.924,85.323z"/>
<path fill-rule="evenodd" clip-rule="evenodd" fill="#FEFEE9" stroke="#0978AB" stroke-width="1.1339" stroke-linejoin="round" stroke-miterlimit="3.8637" d="
	M292.686,85.782c0.189-0.154,0.126-0.958,0.094-1.166l-0.137-0.13l-0.304,0.467l-0.016,0.395L292.686,85.782z"/>
<polygon fill-rule="evenodd" clip-rule="evenodd" fill="#FEFEE9" stroke="#0978AB" stroke-width="1.1339" stroke-linejoin="round" stroke-miterlimit="3.8637" points="
	266.228,86.066 266.522,84.854 266.029,84.488 265.963,86.026 266.228,86.066 "/>
<path fill-rule="evenodd" clip-rule="evenodd" fill="#FEFEE9" stroke="#0978AB" stroke-width="1.1339" stroke-linejoin="round" stroke-miterlimit="3.8637" d="
	M285.843,92.871l0.512,0.334c-0.28,0.548-0.275,1.563-0.079,2.131l-0.155,0.069l-0.52-0.565
	C285.429,94.407,285.707,93.28,285.843,92.871z"/>
<path fill-rule="evenodd" clip-rule="evenodd" fill="#FEFEE9" stroke="#0978AB" stroke-width="1.1339" stroke-linejoin="round" stroke-miterlimit="3.8637" d="
	M278.365,124.615l0.307-0.202c0-0.301-0.196-0.74-0.391-0.962c0.082-0.398,0.056-1.198-0.223-1.535l-0.377-0.191l-0.375,0.159
	l-0.538-0.453l-0.131,0.133l0.078,0.877l-0.391,0.599c-0.06,0.345,0.154,0.91,0.417,1.137l0.887,0.053l0.47,0.366L278.365,124.615z"
	/>
<path fill-rule="evenodd" clip-rule="evenodd" fill="#FEFEE9" stroke="#0978AB" stroke-width="1.1339" stroke-linejoin="round" stroke-miterlimit="3.8637" d="
	M280.699,129.591l0.267,0.106l0.084-0.22l-0.336-0.371c-0.429-0.066-1.218,0.406-1.52,0.66l0.027,0.262l0.178,0.109
	C279.822,129.935,280.264,129.766,280.699,129.591z"/>
<path fill-rule="evenodd" clip-rule="evenodd" fill="#FEFEE9" stroke="#0978AB" stroke-width="1.1339" stroke-linejoin="round" stroke-miterlimit="3.8637" d="
	M283.467,124.872l0.501-0.445l0.355-0.072l0.05,0.416c-0.726,0.262-2.547,2.531-2.347,3.176l0.25,0.347l0.354-0.05l0.092,0.263
	l-0.604,1.15l0.145,0.724l-0.31,0.072l-0.247-0.196c-0.197-0.348-0.291-1.019-0.155-1.402l-0.336-0.281
	c-0.446-0.062-1.336-0.09-1.625-0.437l-0.16-0.395l0.062-0.265c0.23-0.112,0.696,0.04,0.89,0.164l0.016-0.395l-0.342-0.546
	l-0.377-0.125l-0.163-0.371c0.285-0.111,0.562-0.592,0.633-0.867l0.265-0.048c0.224,0.085,0.481,0.489,0.564,0.694l-0.215,0.53
	l0.16,0.35l0.422,0.061c0.188-0.319,0.706-0.845,1.094-0.917l0.208-1.013C282.911,124.919,283.196,124.888,283.467,124.872z"/>
<polygon fill-rule="evenodd" clip-rule="evenodd" fill="#FEFEE9" stroke="#0978AB" stroke-width="1.1339" stroke-linejoin="round" stroke-miterlimit="3.8637" points="
	262.669,131.584 262.88,130.858 262.72,130.463 262.541,130.399 262.413,130.709 262.557,131.521 262.669,131.584 "/>
<path fill-rule="evenodd" clip-rule="evenodd" fill="#FEFEE9" stroke="#0978AB" stroke-width="1.1339" stroke-linejoin="round" stroke-miterlimit="3.8637" d="
	M272.535,131.99l0.04-0.286l-0.229-0.414l0.066-0.175l0.89,0.271l0.283-0.331c-0.137-0.451-0.674-0.609-1.094-0.602l-0.352,0.159
	c-0.225-0.055-1.146-0.353-1.333-0.223l-0.149,0.398C270.822,131.411,271.888,132.141,272.535,131.99z"/>
<path fill-rule="evenodd" clip-rule="evenodd" fill="#FEFEE9" stroke="#0978AB" stroke-width="1.1339" stroke-linejoin="round" stroke-miterlimit="3.8637" d="
	M263.822,134.468l0.083-0.223l1.124-0.411l0.062-0.244c-0.147-0.373-0.565-1.168-0.929-1.392l-0.31,0.05l-0.436,0.467l-0.422-0.061
	l-0.176,0.114l-0.084,0.307l0.276,0.459c0.277,0.016,0.727-0.236,0.923-0.409l0.155,0.064l0.047,0.217l-0.478,0.536L263.822,134.468
	z"/>
<path fill-rule="evenodd" clip-rule="evenodd" fill="#FEFEE9" stroke="#0978AB" stroke-width="1.1339" stroke-linejoin="round" stroke-miterlimit="3.8637" d="
	M260.501,134.67l0.262-0.156c0.297-0.474,0.38-1.282,0.216-1.805l-0.2-0.019l-0.092,1.254l-0.286,0.09l-0.105,0.31L260.501,134.67z"
	/>
<path fill-rule="evenodd" clip-rule="evenodd" fill="#FEFEE9" stroke="#0978AB" stroke-width="1.1339" stroke-linejoin="round" stroke-miterlimit="3.8637" d="
	M257.037,139.906c0.568-0.58,1.03-2.05,1.242-2.853l-0.181-0.217l-0.398-0.08l-0.441,1.588c-0.354,0.21-0.787,0.937-0.955,1.288
	L257.037,139.906z"/>
<path fill-rule="evenodd" clip-rule="evenodd" fill="#FEFEE9" stroke="#0978AB" stroke-width="1.1339" stroke-linejoin="round" stroke-miterlimit="3.8637" d="
	M257.543,144.608l-0.108,0.276l0.224,1.198l0.286,0.289c0.245-0.368-0.023-1.308-0.197-1.67L257.543,144.608z"/>
<path fill-rule="evenodd" clip-rule="evenodd" fill="#FEFEE9" stroke="#0978AB" stroke-width="1.1339" stroke-linejoin="round" stroke-miterlimit="3.8637" d="
	M257.947,148.547l-0.131,0.135c-0.143-0.148-0.265-0.495-0.209-0.7l-0.247-0.217c-0.034,0.405-0.175,3.194-0.371,3.345l-0.309-0.085
	c-0.583-0.766,0.209-1.507,0.139-2.351c-0.077-0.925-0.093-2.296-0.38-3.181c-0.247-0.761-1.006-1.23-1.184-2.001
	c0.587-0.668,0.347-1.027,0.551-1.657c0.16-0.497,0.578-0.936,0.73-1.503l0.307-0.117l0.074,0.395
	c-0.72,1.058,0.248,2.226,0.228,3.292c-0.007,0.396-0.092,0.836-0.136,1.232C256.948,145.679,258.117,147.195,257.947,148.547z"/>
<path fill-rule="evenodd" clip-rule="evenodd" fill="#FEFEE9" stroke="#0978AB" stroke-width="1.1339" stroke-linejoin="round" stroke-miterlimit="3.8637" d="
	M253.971,170.291l0.417-1.543c-0.146-0.303-0.812-0.485-1.11-0.358c-0.119,0.295-0.334,1.093-0.178,1.41L253.971,170.291z"/>
<path fill-rule="evenodd" clip-rule="evenodd" fill="#FEFEE9" stroke="#0978AB" stroke-width="1.1339" stroke-linejoin="round" stroke-miterlimit="3.8637" d="
	M279.179,179.831l-0.536-0.366l-0.465,0.029c-0.704,0.704-1.146,1.623-1.089,2.629l0.339,0.501
	c-0.486,0.369-1.217,1.333-1.187,1.993l0.116,0.305l0.506-0.05l1.027,0.511l0.214-0.353l-0.005-0.461
	c0.732-0.902,0.822-2.508,1.029-3.619l0.528-0.204c0.083-0.387,0.493-0.914,0.848-1.089l-0.396-1.312l-0.939,0.827L279.179,179.831z
	"/>
<path fill-rule="evenodd" clip-rule="evenodd" fill="#FEFEE9" stroke="#0978AB" stroke-width="1.1339" stroke-linejoin="round" stroke-miterlimit="3.8637" d="
	M275.758,187.834l-0.32-0.809c0.033-0.348,0.258-0.9,0.535-1.129l0.242-0.09l0.315,0.347c-0.282,0.337-0.683,1.146-0.596,1.612
	L275.758,187.834z"/>
<polygon fill-rule="evenodd" clip-rule="evenodd" fill="#FEFEE9" stroke="#0978AB" stroke-width="1.1339" stroke-linejoin="round" stroke-miterlimit="3.8637" points="
	286.281,193.748 286.875,193.499 287.023,193.234 286.777,192.908 286.008,193.334 286.058,193.597 286.281,193.748 "/>
<path fill-rule="evenodd" clip-rule="evenodd" fill="#FEFEE9" stroke="#0978AB" stroke-width="1.1339" stroke-linejoin="round" stroke-miterlimit="3.8637" d="
	M364.262,195.553l0.481-0.445l0.599,0.016c0.786-0.681,0.647-1.807,0.081-2.55c-0.353-0.326-1.216-0.019-1.612,0.193l-0.557,1.567
	c0.012,0.32,0.542,0.98,0.743,1.198L364.262,195.553z"/>
<polygon fill-rule="evenodd" clip-rule="evenodd" fill="#FEFEE9" stroke="#0978AB" stroke-width="1.1339" stroke-linejoin="round" stroke-miterlimit="3.8637" points="
	271.063,196.094 270.979,196.447 271.208,196.926 271.543,197.141 271.662,196.219 271.48,195.956 271.063,196.094 "/>
<path fill-rule="evenodd" clip-rule="evenodd" fill="#FEFEE9" stroke="#0978AB" stroke-width="1.1339" stroke-linejoin="round" stroke-miterlimit="3.8637" d="
	M277.124,197.788l0.26-0.268c-0.383-2.869,1.068-2.653,1.273-3.6l-0.103-0.944l-0.493-0.408c-0.19-0.3,0.066-1.228,0.178-1.519
	l-0.229-0.479l-0.309,0.047l-0.233,2.068l-0.712-0.188l-0.315-0.477l-0.294-0.101l-0.79,0.18l-0.194,0.202
	c0,0.295-0.085,0.973-0.292,1.214l0.089,0.172l0.312,0.085l0.48-0.249l0.312,0.061l0.273,0.501l0.465,0.061
	c0.341,0.408-0.142,2.727-0.219,3.276l0.25,0.305L277.124,197.788z"/>
<path fill-rule="evenodd" clip-rule="evenodd" fill="#FEFEE9" stroke="#0978AB" stroke-width="1.1339" stroke-linejoin="round" stroke-miterlimit="3.8637" d="
	M272.646,199.875l0.284-0.093c-0.024-0.279,0.218-0.699,0.43-0.864l-0.118-0.438l0.344-0.687l0.417-0.181l0.265,0.04l0.409,0.652
	l0.481-0.358l0.244,0.085l0.273,0.501l0.155-0.045l0.126-0.419c-0.146-0.571-0.534-2.214-1.01-2.534l-0.617,0.096l-0.268-0.148
	l-0.525,0.312l-0.116,1.32l-0.241,0.069c-0.277-0.301-0.357-0.531-0.433-0.959l-0.441,0.05
	C271.426,196.766,272.401,199.279,272.646,199.875z"/>
<path fill-rule="evenodd" clip-rule="evenodd" fill="#FEFEE9" stroke="#0978AB" stroke-width="1.1339" stroke-linejoin="round" stroke-miterlimit="3.8637" d="
	M293.644,200.062l0.081-0.353c-0.383-0.526,0.019-1.134-0.199-1.71c0.471-0.761,0.7-1.631,0.448-2.51l-0.336-0.347
	c-0.214,0.253-0.37,0.773-0.338,1.103l-0.355-0.148l-0.221,0.069l0.142,0.546l-0.239,0.464l-0.373,0.093
	c-0.352-0.136-0.664-1.797-0.761-2.163l-0.244-0.13l-0.352,0.093c-0.705,0.936-0.733,1.461-1.023,2.672l0.16,0.395l0.774,0.056
	l0.539,0.475l0.792-0.077l0.328-0.31l0.334,0.148c0.029,0.311,0.228,1.486,0.554,1.641L293.644,200.062z"/>
<path fill-rule="evenodd" clip-rule="evenodd" fill="#FEFEE9" stroke="#0978AB" stroke-width="1.1339" stroke-linejoin="round" stroke-miterlimit="3.8637" d="
	M278.434,201.218l0.197-0.048c-0.005-0.381-0.107-1.146-0.352-1.466l0.32-0.774l-0.1-0.636l-0.507,0.053
	c-0.524,0.332-0.938,1.278-0.438,1.808l0.491,0.212L278.434,201.218z"/>
<path fill-rule="evenodd" clip-rule="evenodd" fill="#FEFEE9" stroke="#0978AB" stroke-width="1.1339" stroke-linejoin="round" stroke-miterlimit="3.8637" d="
	M295.317,207.687c0.372-0.618,0.807-1.15,0.395-1.874l-1.009,0.541c-0.041,0.46,0.21,0.888,0.395,1.291L295.317,207.687z"/>
<path fill-rule="evenodd" clip-rule="evenodd" fill="#FEFEE9" stroke="#0978AB" stroke-width="1.1339" stroke-linejoin="round" stroke-miterlimit="3.8637" d="
	M284.496,207.856c-0.507-0.348-1.391-1.179-1.575-1.802c-0.943,0.085-2.113-0.54-2.37-0.472l-0.522,0.448
	c-0.002,0.717,0.259,1.59,0.562,2.232l0.47,0.39l1.063,0.095l0.202,0.326c0.235-0.157,0.759-0.149,1.016-0.079l0.302-0.576
	l0.462,0.08L284.496,207.856z"/>
<path fill-rule="evenodd" clip-rule="evenodd" fill="#FEFEE9" stroke="#0978AB" stroke-width="1.1339" stroke-linejoin="round" stroke-miterlimit="3.8637" d="
	M291.344,200.139c-0.163-0.18-0.622-0.233-0.843-0.209c-1.192,0.816-1.2,2.019-1.254,3.356l-0.612,0.514l-0.969,3.332l0.16,0.393
	l0.245,0.151l0.375-0.071l0.294,0.522l0.444,0.016l-0.061,0.506c0.097,0.366,0.467,0.89,0.811,1.065
	c0.104,0.471,0.499,1.601,0.931,1.898c1.746-0.648,1.912-1.21,2.145-3.038l-0.426-0.477c-0.179-1.062,0.895-1.842,0.785-2.275
	l-0.315-0.302l-0.596,0.05l-0.226-0.435c0.437-1.007,0.672-2.419,0.108-3.449C292.031,201.121,291.539,200.857,291.344,200.139z"/>
<path fill-rule="evenodd" clip-rule="evenodd" fill="#FEFEE9" stroke="#0978AB" stroke-width="1.1339" stroke-linejoin="round" stroke-miterlimit="3.8637" d="
	M279.606,211.989c-0.05-0.429,0.043-1.305,0.352-1.651l-0.209-0.724l-0.402-0.257c-0.106,0.452-0.357,2.154,0.037,2.526
	L279.606,211.989z"/>
<path fill-rule="evenodd" clip-rule="evenodd" fill="#FEFEE9" stroke="#0978AB" stroke-width="1.1339" stroke-linejoin="round" stroke-miterlimit="3.8637" d="
	M286.78,203.827l0.226,0.459c-0.452,0.835-0.104,1.683-0.386,2.179c1.526,2.071-0.009,3.958,1.709,5.294l0.333,0.082
	c0.386,0.322,0.374,1.996,0.254,2.391c-0.025,0.083-0.549,0.956-0.625,1.087l-0.176-0.021l-1.539-2.418
	c-0.339-0.108-1.271-0.513-1.425-0.88c-0.032-0.295-0.598-4.342-0.596-4.43c0.008-0.313,0.223-1.414,0.485-1.654
	C285.764,205.253,286.316,204.748,286.78,203.827z"/>
<path fill-rule="evenodd" clip-rule="evenodd" fill="#FEFEE9" stroke="#0978AB" stroke-width="1.1339" stroke-linejoin="round" stroke-miterlimit="3.8637" d="
	M283.832,215.467l0.189-0.684l-0.617-1.484l0.255-0.642c-0.154-0.287-0.335-0.952-0.174-1.272l0.35-0.268l0.015-0.482l0.396-0.117
	l0.234-0.573l-0.068-0.175c-0.35-0.053-1.037-0.065-1.368,0.106l-0.446-0.257c-0.1,0.243-0.436,0.65-0.719,0.692l-1.021-0.406
	l-0.31,0.072l-0.005,1.076l0.157,0.217c0.276,0.017,0.726-0.235,0.921-0.408l0.158,0.13l-0.782,0.912l-0.331,0.093l-0.213,0.464
	c0.057,0.328,0.448,0.749,0.719,0.912l0.599,0.059c0.253,0.13,0.477,0.973,0.525,1.222l1.291,0.817L283.832,215.467z"/>
<path fill-rule="evenodd" clip-rule="evenodd" fill="#FEFEE9" stroke="#0978AB" stroke-width="1.1339" stroke-linejoin="round" stroke-miterlimit="3.8637" d="
	M262.483,220.366l-0.129-1.185l-0.199-0.193c-0.223,0.013-0.558,0.251-0.701,0.406l-0.042,0.22l0.25,0.393L262.483,220.366z"/>
<path fill-rule="evenodd" clip-rule="evenodd" fill="#FEFEE9" stroke="#0978AB" stroke-width="1.1339" stroke-linejoin="round" stroke-miterlimit="3.8637" d="
	M259.84,222.208l0.546-0.427l0.27,0.326l0.242-0.026c-0.003-0.292,0.223-0.747,0.472-0.907l-0.247-0.284
	c-0.429,0.29-1.379,0.64-1.913,0.512l0.005,0.44l0.181,0.284L259.84,222.208z"/>
<path fill-rule="evenodd" clip-rule="evenodd" fill="#FEFEE9" stroke="#0978AB" stroke-width="1.1339" stroke-linejoin="round" stroke-miterlimit="3.8637" d="
	M260.549,225.251c0.745-0.385,1.826-0.718,1.475-1.803l-0.357-0.281l-0.575,0.032l-0.346,0.4l-1.103,0.19l-0.152,0.202l-0.016,0.287
	c0.255,0.327,0.546,0.631,0.833,0.93L260.549,225.251z"/>
<path fill-rule="evenodd" clip-rule="evenodd" fill="#FEFEE9" stroke="#0978AB" stroke-width="1.1339" stroke-linejoin="round" stroke-miterlimit="3.8637" d="
	M258.59,225.654l0.528-1.503l-0.068-0.284l-0.286,0.048c-0.309,0.275-0.563,0.916-0.554,1.325l0.16,0.416L258.59,225.654z"/>
<path fill-rule="evenodd" clip-rule="evenodd" fill="#FEFEE9" stroke="#0978AB" stroke-width="1.1339" stroke-linejoin="round" stroke-miterlimit="3.8637" d="
	M246.822,226.887l0.28-0.422c0.236-1.34-0.026-2.948-0.729-4.119l-0.357-0.194l-0.331,0.05l-0.192,0.311
	c0.439,0.299,0.768,1.882,0.833,2.359l-0.126,0.376C246.3,225.75,246.512,226.465,246.822,226.887z"/>
<path fill-rule="evenodd" clip-rule="evenodd" fill="#FEFEE9" stroke="#0978AB" stroke-width="1.1339" stroke-linejoin="round" stroke-miterlimit="3.8637" d="
	M246.428,228.583l0.286-0.069c0.104-0.2,0.193-0.411,0.278-0.62l-0.095-0.329l-0.286-0.016l-0.388,0.599l0.05,0.305L246.428,228.583
	z"/>
<path fill-rule="evenodd" clip-rule="evenodd" fill="#FEFEE9" stroke="#0978AB" stroke-width="1.1339" stroke-linejoin="round" stroke-miterlimit="3.8637" d="
	M284.05,224.406l-0.939,0.562l-1.06-0.005c-1.296-0.708-0.772-1.762-1.525-3.165c-0.407-0.319-1.579-0.417-2.061-0.411l-1.163-0.949
	l0.281-0.488c1.951-0.668,3.095-2.333,2.961-4.414l0.215-0.289l0.179,0.106l0.373,1.249l0.2,0.019l0.467-1.148l0.176-0.048
	l2.436,1.813c0.502,1.065-0.084,1.962,0.281,2.653c0.191,0.362,0.507,0.698,0.677,1.066c0.218,0.473,0.293,1.037,0.509,1.511
	c0.075,0.164,0.409,0.478,0.469,0.631c0.2,0.504,0.306,1.154,0.446,1.683l0.825,0.517c0.315,0.791,1.572,4.649,1.307,4.946
	l-1.026,0.938l-0.438,0.05l-0.491-0.345c-0.124-0.472-2.686-4.493-3.236-5.471l0.084-0.286l0.685-0.011l0.217-0.156L284.05,224.406z
	"/>
<path fill-rule="evenodd" clip-rule="evenodd" fill="#FEFEE9" stroke="#0978AB" stroke-width="1.1339" stroke-linejoin="round" stroke-miterlimit="3.8637" d="
	M289.717,237.687l0.283-0.202l0.184-1.013c0.526-0.443,0.57-0.905,0.908-1.376l-0.116-0.196c-0.075-0.051-0.989-0.39-1.131-0.445
	c-0.235,0.126-0.984,0.413-1.254,0.257c-1.124,0.993-2.385-0.65-3.207-0.591l-0.24,0.244c0.194,0.563,0.188,1.108,0.158,1.691
	l0.682-0.12C287.043,236.562,288.464,237.542,289.717,237.687z"/>
<path fill-rule="evenodd" clip-rule="evenodd" fill="#FEFEE9" stroke="#0978AB" stroke-width="1.1339" stroke-linejoin="round" stroke-miterlimit="3.8637" d="
	M292.373,239.914l-0.816-0.035c-0.024,0.217-0.035,0.907,0.147,1.076l0.333,0.127l0.352-0.071l0.209-0.816L292.373,239.914z"/>
<path fill-rule="evenodd" clip-rule="evenodd" fill="#FEFEE9" stroke="#0978AB" stroke-width="1.1339" stroke-linejoin="round" stroke-miterlimit="3.8637" d="
	M261.741,251.114l0.154-0.09c0.008-0.256,0.153-0.654,0.338-0.838l-0.331-0.061l-0.48,0.336l0.026,0.329L261.741,251.114z"/>
<path fill-rule="evenodd" clip-rule="evenodd" fill="#FEFEE9" stroke="#0978AB" stroke-width="1.1339" stroke-linejoin="round" stroke-miterlimit="3.8637" d="
	M247.725,261.5l0.241-0.072c0.094-0.533,0.158-1.69-0.123-2.195l-0.352,0.072l-0.268-0.194l-0.349,0.247
	c-0.084,0.196,0.006,0.559,0.123,0.724c-0.101,0.184-0.253,0.65-0.142,0.859l0.325-0.247L247.725,261.5z"/>
<path fill-rule="evenodd" clip-rule="evenodd" fill="#FEFEE9" stroke="#0978AB" stroke-width="1.1339" stroke-linejoin="round" stroke-miterlimit="3.8637" d="
	M239.935,262.433l0.331-0.072l0.323-0.509c0.25-0.239,0.909-0.234,1.209-0.151c0.494-0.267,0.736-0.984,1.323-1.272l-0.312-0.305
	l0.016-0.308l0.26-0.376l0.459-0.117l0.063-0.223c-0.288-0.331-1.67-0.275-2.053-0.23l-0.17-0.92l-0.711-0.405l-0.241,0.09
	c-0.228,0.165-0.436,0.876-0.488,1.129l0.457,1.089l-0.189,0.467l0.32,0.697c-0.063,0.409-0.412,0.951-0.664,1.262L239.935,262.433z
	"/>
<path fill-rule="evenodd" clip-rule="evenodd" fill="#FEFEE9" stroke="#0978AB" stroke-width="1.1339" stroke-linejoin="round" stroke-miterlimit="3.8637" d="
	M247.659,264.357l0.352-0.071l0.433-2.007l-0.449-0.456l-0.192,0.533l-0.22-0.042l-0.161-0.371l-0.242,0.135
	C247.03,262.566,247.327,263.983,247.659,264.357z"/>
<path fill-rule="evenodd" clip-rule="evenodd" fill="#FEFEE9" stroke="#0978AB" stroke-width="1.1339" stroke-linejoin="round" stroke-miterlimit="3.8637" d="
	M246.142,264.578c0.141-0.779,0.485-3.959-0.531-4.255l-0.238,0.223c0.039,0.771-0.141,1.669-0.36,2.402l0.507,1.289
	L246.142,264.578z"/>
<path fill-rule="evenodd" clip-rule="evenodd" fill="#FEFEE9" stroke="#0978AB" stroke-width="1.1339" stroke-linejoin="round" stroke-miterlimit="3.8637" d="
	M246.819,265.622l0.155-0.048c0.141-0.349,0.169-0.992,0-1.338l-0.152,0.069C246.748,264.56,246.607,265.393,246.819,265.622z"/>
<path fill-rule="evenodd" clip-rule="evenodd" fill="#FEFEE9" stroke="#0978AB" stroke-width="1.1339" stroke-linejoin="round" stroke-miterlimit="3.8637" d="
	M214.995,265.935l0.654-0.342c-0.115-0.442,0.248-1.183,0.549-1.482l-0.583-0.625c-0.13-0.463-0.074-1.24,0.146-1.673
	c-0.177-0.335-0.302-0.847-0.265-1.227c-0.92-1.994-2.471-1.301-4.168-1.402c-0.195-0.012-0.57-0.38-0.887-0.271l-0.213,0.488
	l-0.905-0.074l-0.06,0.223l0.756,0.448c0.542,0.768-0.199,1.741,0.22,2.566l-0.273,0.819l0.554,1.331
	C210.827,265.176,213.899,265.193,214.995,265.935z"/>
<path fill-rule="evenodd" clip-rule="evenodd" fill="#FEFEE9" stroke="#0978AB" stroke-width="1.1339" stroke-linejoin="round" stroke-miterlimit="3.8637" d="
	M243.058,266.03l0.359-0.904c-0.036-0.199-0.32-0.43-0.493-0.499c-0.142-0.196-0.197-0.604-0.123-0.833
	c-0.255-0.002-0.641,0.173-0.809,0.363l-0.104,0.353C242.09,265.062,242.628,265.651,243.058,266.03z"/>
<path fill-rule="evenodd" clip-rule="evenodd" fill="#FEFEE9" stroke="#0978AB" stroke-width="1.1339" stroke-linejoin="round" stroke-miterlimit="3.8637" d="
	M248.869,276.75c-0.533,0.33-2.125,0.245-2.706,0.175l-0.15,0.353c0.165,0.426,0.307,1.452,0.121,1.912l-0.851,0.604
	c-0.287,0.844,0.944,1.814,1.62,2.195c0.53,0.104,1.417-0.087,1.845-0.424c0.359,0.214,1.045,0.352,1.457,0.241
	c0.435-0.547,1.582-0.966,2.278-0.87l0.378,0.257l0.189-0.66l2.186-1.065c0.187-0.182,0.013-1.501-0.181-1.755l-0.664-0.101
	l-0.362-0.631l-0.265-0.084l-0.213,0.464l-0.486-0.013l-0.268-0.172l-0.115-0.372l-0.292-0.259l-0.837,0.034l-0.178-0.172
	c0.147-0.304,1.646-0.813,1.992-0.954l0.194-0.265l-0.005-0.353l-0.446-0.233l0.654-0.559l0.556,0.408l0.242-0.048l-0.027-0.374
	l-0.223-0.172l0.037-0.353l0.352-0.093l-0.051-0.35c-0.665-0.523-1.251-1.929-0.768-2.712l-0.139-0.438l-0.399-0.04l-0.244-0.215
	l-0.168-0.92l-1.848-1.028l-0.412-0.981l-0.2-0.13l-0.197,0.047l-0.338-0.522l-0.373,0.18c-0.801,1.154-2.128,3.89-1.614,5.299
	c0.109,0.299,0.363,0.574,0.478,0.872c0.288,0.747,0.315,1.823,0.438,2.601C248.933,275.493,249.104,276.283,248.869,276.75z"/>
<path fill-rule="evenodd" clip-rule="evenodd" fill="#FEFEE9" stroke="#0978AB" stroke-width="1.1339" stroke-linejoin="round" stroke-miterlimit="3.8637" d="
	M257.531,285.408l0.241-0.047c0.203-0.128,0.353-0.528,0.365-0.753l-0.092-0.196l-0.241,0.048l-0.386,0.753L257.531,285.408z"/>
<path fill-rule="evenodd" clip-rule="evenodd" fill="#FEFEE9" stroke="#0978AB" stroke-width="1.1339" stroke-linejoin="round" stroke-miterlimit="3.8637" d="
	M255.37,288.12l0.339,1.909l-0.572,1.413l0.113,0.263l0.288,0.04c0.254-0.436,0.35-0.514,0.378-1.061l0.716-0.647
	c0.107-0.414,0.353-2.468,0.027-2.704C256.343,287.497,255.573,287.791,255.37,288.12z"/>
<polygon fill-rule="evenodd" clip-rule="evenodd" fill="#FEFEE9" stroke="#0978AB" stroke-width="1.1339" stroke-linejoin="round" stroke-miterlimit="3.8637" points="
	253.769,298.384 254.031,298.358 253.378,297.269 253.008,297.647 253.769,298.384 "/>
<polygon fill-rule="evenodd" clip-rule="evenodd" fill="#FEFEE9" stroke="#0978AB" stroke-width="1.1339" stroke-linejoin="round" stroke-miterlimit="3.8637" points="
	252.197,317.389 252.415,317.365 252.979,316.739 252.774,316.437 252.155,316.204 252.013,316.997 252.197,317.389 "/>
<path fill-rule="evenodd" clip-rule="evenodd" fill="#FEFEE9" stroke="#0978AB" stroke-width="1.1339" stroke-linejoin="round" stroke-miterlimit="3.8637" d="
	M210.273,317.884c0.315-0.324,0.969-0.619,1.417-0.66l0.153-0.178l-0.205-0.305c-0.277-0.172-0.863-0.352-1.192-0.244l-0.562,0.581
	l-0.396,0.074l-0.171,0.244C209.486,317.659,209.971,317.879,210.273,317.884z"/>
<path fill-rule="evenodd" clip-rule="evenodd" fill="#FEFEE9" stroke="#0978AB" stroke-width="1.1339" stroke-linejoin="round" stroke-miterlimit="3.8637" d="
	M247.875,322.333l0.107-0.198l-0.071-0.242c-0.219-0.111-0.506-0.426-0.56-0.673l-0.286,0.072l-0.141,0.684l0.354,0.302
	L247.875,322.333z"/>
<path fill-rule="evenodd" clip-rule="evenodd" fill="#FEFEE9" stroke="#0978AB" stroke-width="1.1339" stroke-linejoin="round" stroke-miterlimit="3.8637" d="
	M269.281,523.322c0.431-0.299,0.955-1.422,0.931-1.946l-0.088-0.196l-0.284,0.069l-0.879,0.957l-0.019,0.287l0.265,0.26
	L269.281,523.322z"/>
<path fill-rule="evenodd" clip-rule="evenodd" fill="#FEFEE9" stroke="#0978AB" stroke-width="1.1339" stroke-linejoin="round" stroke-miterlimit="3.8637" d="
	M286.969,559.154l0.239-0.069l0.15-0.286c-0.454-0.598,0.233-1.365-0.094-1.951l-0.901-0.557l-0.239,0.002
	c-0.513,0.49-0.938,1.54-0.448,2.177L286.969,559.154z"/>
<path fill-rule="evenodd" clip-rule="evenodd" fill="#FEFEE9" stroke="#0978AB" stroke-width="1.1339" stroke-linejoin="round" stroke-miterlimit="3.8637" d="
	M340.932,555.101l-0.257,0.331l-0.305,0.048l-0.17,0.506c0.203,0.366,0.348,1.075,0.215,1.487l-0.365,0.509
	c0.448,1.384-0.348,1.285,0.413,3.242l0.256-0.135c0.455-0.987,0.225-1.751-0.117-2.763l0.48-1.606l0.37-0.114l0.596,0.74
	l0.323-0.355c-0.139-0.629-0.473-1.61-0.289-2.234l-0.239-0.106l-0.478-1.487l0.365-0.552l-0.289-0.522
	c0-0.131,0.024-0.265,0.037-0.395c-1.433-0.658-1.031-1.444-1.229-2.553c-0.059-0.333-0.271-0.767-0.386-1.092
	c-0.097-0.276-0.086-0.714-0.121-1.007c-0.255-0.138-0.17-0.161-0.394-0.061l-0.013,0.17c-0.054,0.781-0.17,1.956,0.046,2.68
	c0.222,0.74,0.807,1.496,1.098,2.225C340.833,552.941,340.43,554.178,340.932,555.101z"/>
<path fill-rule="evenodd" clip-rule="evenodd" fill="#FEFEE9" stroke="#0978AB" stroke-width="1.1339" stroke-linejoin="round" stroke-miterlimit="3.8637" d="
	M343.593,564.432l0.063-0.263l-0.11-0.241l-0.876-0.252l-0.281,0.202l0.289,0.456C342.895,564.465,343.353,564.548,343.593,564.432z
	"/>
<path fill-rule="evenodd" clip-rule="evenodd" fill="#FEFEE9" stroke="#0978AB" stroke-width="1.1339" stroke-linejoin="round" stroke-miterlimit="3.8637" d="
	M304.161,579.492c0.722-0.737-0.085-2.498-0.502-3.197c-0.211-0.165-0.687-0.22-0.939-0.183l-0.347,0.201
	c-0.803,1.224-0.34,2.035,0.63,2.996L304.161,579.492z"/>
<path fill-rule="evenodd" clip-rule="evenodd" fill="#FEFEE9" stroke="#0978AB" stroke-width="1.1339" stroke-linejoin="round" stroke-miterlimit="3.8637" d="
	M300.602,582.061c0.223-0.292,0.341-1.572,0.365-1.935l-0.489-0.65c-0.391-0.218-0.974-0.344-1.419-0.334
	c-0.793-0.844-1.415-0.776-2.153-1.264l-1.19-0.992c-1.81-1.508-2.258-2.591-1.133-4.7c-0.568-1.723,1.249-2.553,0.725-4.287
	l-0.241-0.215l-0.257,0.265l-0.307-0.148l-0.425-0.697l-0.52,0.183l-0.317,0.575l-0.588,0.074l-0.289-0.281
	c-0.409,0.051-0.832,0.582-0.858,0.976l-0.41,0.313c0.094,1.957-1.115,2.123-0.925,4.298c0.062,0.72,0.021,1.352,0.34,2.006
	c0.2,0.41,0.416,1.016,0.866,1.238l0.344,1.114l0.394,0.191l0.226,0.588l0.373,0.106c0.958,2.05,2.912,1.356,3.454,2.54l0.567,0.058
	l0.396,0.302C298.314,581.113,299.208,582.357,300.602,582.061z"/>
<path fill-rule="evenodd" clip-rule="evenodd" fill="#FEFEE9" stroke="#0978AB" stroke-width="1.1339" stroke-linejoin="round" stroke-miterlimit="3.8637" d="
	M338.748,597.667l0.478-0.114c0.796-0.559,0.15-1.743-0.331-2.277c0.191-0.673,0.021-1.765-0.184-2.41l-0.59-0.321l-0.157-0.414
	l0.37-0.05l0.242,0.196l0.105-0.31l-0.439-2.033l-0.548-0.432c-0.479,0.029-1.01,0.157-1.457,0.326
	c-0.174,0.282-0.423,0.722-0.139,1.031l0.349,0.085c0.132-0.216,0.554-0.807,0.816-0.888l0.263,0.063l0.244,0.435l-0.299,0.31
	l-0.543,0.051l0.252,1.204l-0.147,0.395l0.113,0.262l0.349,0.193l0.141,0.788c0.346,0.138,0.76,1.12,0.867,1.437l-0.281,0.069
	l-0.753-0.867l-0.218-0.042l-0.136,1.251c0.084,0.474,0.456,0.474,0.661,0.737C338.055,596.701,338.277,597.503,338.748,597.667z"/>
<path fill-rule="evenodd" clip-rule="evenodd" fill="#FEFEE9" stroke="#0978AB" stroke-width="1.1339" stroke-linejoin="round" stroke-miterlimit="3.8637" d="
	M328.205,593.391l0.389-0.334l0.304-0.048l0.105-0.22l-0.268-0.458c-0.224-0.012-0.571,0.144-0.714,0.315l-0.304-0.106
	c-0.221-0.324-0.885-1.414-0.83-1.829l0.105-0.244l0.63-0.183l0.255-0.398l-0.065-0.154l-0.481-0.016l-0.559,0.403l-0.371,0.005
	c-0.087-0.512-0.165-0.981,0.003-1.493l0.236-0.111l0.23-0.772l-0.178-0.371l-0.276,0.576l-0.241-0.021
	c0.111-0.896,0.025-2.028-0.254-2.89l0.191-0.464c0.609-0.721,1.472,0.395,3.257-2.298c0.042-0.547,0.03-1.549,0.281-2.02
	c0.151-0.185,1.82-0.401,2.646-0.954c0.525,0.202,1.265,0.356,1.832,0.284c0.312,0.708,0.644,2.061,0.473,2.847
	c-0.377,0.409-0.902,1.391-0.782,1.982l-0.415-0.061l-0.137-0.22l0.205-0.363l-0.066-0.127l-0.147-0.019
	c-0.2,0.427-0.589,0.891-0.96,1.18l-0.132-0.042c-0.015-0.17-0.109-0.772-0.272-0.872l-0.15,0.066
	c-0.104,1.117-1.35,1.846-0.79,3.014l-0.086,0.199l-0.346,0.027l-0.042,0.241l0.974,1.238l-0.1,0.57l0.546,0.302l0.226,0.501
	l0.174,0.064l0.05,0.329l-0.213,0.418l0.501,0.104c0.3,0.389,1.442,1.726,1.438,2.044l0.833,0.361
	c0.456,0.753-0.754,3.465-0.187,4.125l-0.149,0.353l-0.24,0.024c-0.221-0.128-0.453-0.504-0.464-0.761l-0.349-0.061l-0.223-0.347
	l-0.239,0.045c-0.215,0.421-0.365,1.001-0.373,1.474l-0.242-0.019l-0.113-0.393c-0.217,0.131-0.296,0.167-0.355,0.224
	c-0.061,0.059-0.1,0.141-0.246,0.375l-0.459-0.148l-0.259,0.156l-0.255,0.552l0.485,0.432l0.048,0.329l-0.326,0.093l-0.083,0.284
	l0.16,0.546c-0.14,0.114-0.229,0.413-0.205,0.586l0.354,0.53l-0.724,0.199c-0.319-0.195-0.706-0.44-0.953-0.729
	c0.067-0.274-0.338-0.859-0.501-1.042c0.073-0.784-0.16-1.446-0.181-2.189c-0.014-0.497,0.127-0.92,0.074-1.453
	C328.835,595.878,328.841,593.788,328.205,593.391z"/>
<path fill-rule="evenodd" clip-rule="evenodd" fill="#FEFEE9" stroke="#0978AB" stroke-width="1.1339" stroke-linejoin="round" stroke-miterlimit="3.8637" d="
	M335.124,601.24l-0.058-0.525l-0.307-0.172l-0.069-0.326l0.192-0.31l-0.396-0.323l-0.068-0.22l0.17-0.22l0.522-0.072l0.312,0.543
	l0.386-0.4l0.239-0.002c0.136,0.238,1.098,1.763,1.076,2.028l0.534,0.612c0.307,1.306-0.188,2.018-0.19,3.131
	c-0.001,0.909,0.215,1.969,0.315,2.881l-0.381,0.475c-0.083-0.038-0.603-0.257-0.625-0.281c-0.538-0.592-1.102-1.338-1.695-1.864
	c-0.462-0.41-1.371-0.532-1.515-1.27c-0.842-0.128-2.006-1.005-2.37-1.773l0.061-0.678l1.21-0.406
	c0.051-0.301,0.077-0.636,0.165-0.928l0.454-0.422l0.102-0.353l-0.378-0.761l0.19-0.551l0.373,0.281l0.118,0.655l0.499-0.05
	l0.068,0.22l-0.171,0.353l0.444,0.564c-0.02,0.105,0.037,0.246,0.112,0.318C334.67,601.393,334.916,601.327,335.124,601.24z"/>
<path fill-rule="evenodd" clip-rule="evenodd" fill="#FEFEE9" stroke="#0978AB" stroke-width="1.1339" stroke-linejoin="round" stroke-miterlimit="3.8637" d="
	M321.412,601.24c0.08-0.1,0.047-0.356,0.011-0.464c-0.58-0.426-2.347-1.485-3.066-1.341l-0.323,0.177l-0.082,0.461l-1.1,0.87
	l-0.37-0.04l-0.182-0.655l-0.37,0.072l-0.299,0.376c-0.425-0.278-1.192,0.276-1.475,0.543l0.459,0.162
	c-0.53,1.225-1.187,1.852-0.591,3.099c-2.338,1.205-0.817,2.514-0.008,4.059c0.181,0.344,0.092,0.767,0.428,1.065l0.155-0.085
	l0.086-0.808l0.654-0.005l-0.047-0.703l0.333-0.212c-0.022-0.342,0.127-0.848,0.312-1.132l0.288,0.599
	c0.407,0.23,0.809,0.478,1.226,0.689l-1.215,0.628l0.491,0.429l-0.417,0.119c-0.228,0.611-0.481,1.497-0.449,2.161
	c0.621,1.182,2.312,1.607,3.504,1.803l2.205-1.872c0.837-0.71,3.585,0.001,4.008,0.893c0.291,0.614,0.509,1.315,0.756,1.951
	l0.788-0.111c1.227-0.865,0.454-2.506,0.168-3.623l-0.622-2.421c-0.62-0.579-1.545-1.3-2.354-1.599l-0.079-0.353
	c-0.424-0.632-1.292-0.5-1.929-0.336c-0.347-0.39-0.745-0.833-0.993-1.296l0.394-2.558L321.412,601.24z"/>
<path fill-rule="evenodd" clip-rule="evenodd" fill="#FEFEE9" stroke="#0978AB" stroke-width="1.1339" stroke-linejoin="round" stroke-miterlimit="3.8637" d="
	M349.96,675.121c0.066,0.763,0.233,1.628,0.525,2.34l0.588,0.016l0.288-0.188C351.267,676.354,350.723,675.642,349.96,675.121z"/>
<path fill-rule="evenodd" clip-rule="evenodd" fill="#FEFEE9" stroke="#0978AB" stroke-width="1.1339" stroke-linejoin="round" stroke-miterlimit="3.8637" d="
	M256.945,191.248l-0.656-0.098l-0.283,0.311c-0.288,1.003-0.143,2.539,0.055,3.536l0.046,1.439l0.188,0.281l0.312,0.969l0.094-1.75
	l0.469-1.719l0.594-2.594L256.945,191.248z"/>
<path fill-rule="evenodd" clip-rule="evenodd" fill="#FEFEE9" stroke="#0978AB" stroke-width="1.1339" stroke-linejoin="round" stroke-miterlimit="3.8637" d="
	M261.624,213.468l0.294,0.244c0.3-0.587,1.872-1.331,2.465-1.943c0.09-0.209,0.221-0.719,0.118-0.947l-0.357-0.368l0.015-0.241
	c0.145-0.167,0.7-0.736,0.94-0.74l0.958,0.427c0.198-0.219,0.312-0.783,0.336-1.06l-0.184-0.525l-0.585-0.337
	c-0.133-0.211-0.157-0.631-0.074-0.861l0.195-0.223l0.375-0.072l0.312,0.236c0.111-0.667,0.726-1.615,1.074-1.991l-0.068-0.262
	l-0.422-0.061l0.018-0.374l0.307-0.093l0.283-0.31l0.572-0.074l0.934,0.424l0.287-0.069c0.179-0.136,0.477-0.441,0.543-0.668
	c-0.164-0.356-0.157-1.049,0.068-1.383l-0.095-0.35l-0.354-0.019c-0.061-0.528,0.138-1.255,0.441-1.543
	c0.81,0.015,1.582,1.214,2.472,1.347l0.307-0.114l-0.049-0.395c-0.946-0.991-0.932-1.885-0.932-3.237l-1.1-1.172l-0.053-0.549
	c0.153-0.18,0.32-0.359,0.502-0.512c0.751,0.115,1.79,0.127,2.312-0.538l-0.606-0.607l0.275-0.795l-0.496-0.585l0.525-0.403
	l-0.226-0.372l-0.351,0.093l-0.219,0.226l-0.181-0.154l0.042-0.284l-0.202-0.109l-0.239,0.202l-0.137-0.217l0.192-0.485
	l-0.092-0.241l-1.092-0.599l-0.725,0.277l-0.344-0.312l-0.656,0.188l-0.562,0.25h-0.344l-1.344-0.938l-0.781-0.188l-0.375,0.25
	l-0.375,0.375l-0.406,0.312l-0.594-0.562l-1.062-0.188l-0.656-0.094l-0.156,1l0.625,0.031l0.5,1.469l-0.688,0.594l-0.562,0.844
	l-0.344,0.5l-1.406-0.781l-0.219,1.062l-0.5,1.062l-0.094,0.5l0.719,0.031l-0.125,0.531l-0.031,0.312l0.625,0.062l0.594,0.188
	l0.438-0.438l0.438,0.062l-0.188,1.156l-0.062,1.625l-0.438,0.062v-1.406l-0.062-0.531l-1.062-0.094l-1.094-0.562l-0.188,0.469
	l0.594,0.625v0.406l-0.719-0.469l-0.219,1.062l-0.406-0.25l-0.125-1.125l0.5-1.312l-0.344-0.125l-0.438,0.156l-0.156,0.469
	l-0.062,1.312l-0.094,0.562v1.562l0.094,1.156l0.625-0.469l0.156,0.656l0.781,0.188l0.469,0.281l0.406-0.219l1.156,0.062
	l0.312-0.469l-0.031-0.75l0.344-0.406l0.219,0.281l-0.281,0.438l0.156,0.5l-0.312,0.812l-0.219,0.75l-0.469,1.062l0.094,0.938
	l-0.656,0.812l-0.344,1.531l-0.156,0.75l-0.438,0.906l-0.312,0.656l-0.031,1.75l0.5,0.531l0.438,0.125l0.844,0.219L261.624,213.468z
	"/>
<polygon fill-rule="evenodd" clip-rule="evenodd" fill="#FEFEE9" stroke="#0978AB" stroke-width="1.1339" stroke-linejoin="round" stroke-miterlimit="3.8637" points="
	258.919,196.061 259.419,195.53 259.794,194.686 259.888,193.717 260.325,192.311 259.95,192.374 259.356,192.936 258.919,194.03 
	259.325,193.936 259.013,194.561 258.888,195.061 "/>
<polygon fill-rule="evenodd" clip-rule="evenodd" fill="#FEFEE9" stroke="#0978AB" stroke-width="1.1339" stroke-linejoin="round" stroke-miterlimit="3.8637" points="
	261.45,191.717 261.2,192.561 260.606,193.155 261.013,193.53 261.075,193.78 261.638,194.217 261.95,193.905 262.044,192.53 
	261.888,192.155 261.919,191.749 "/>
<path fill-rule="evenodd" clip-rule="evenodd" fill="#FEFEE9" stroke="#0978AB" stroke-width="1.1339" stroke-linejoin="round" stroke-miterlimit="3.8637" d="
	M258.419,251.561c0,0-0.25,0.812-0.5,1.125s-0.812,0.625-1.188,0.75s-0.375,1.062-0.625,1.562s-0.125,0.562-0.125,1.062
	s-0.812,0.812-1.188,0.562s-0.375-0.125-0.938,0.125s-0.562-0.5-0.5-0.812s-0.062-1.75-0.062-2.125s0.312-0.875,0.562-1.062
	s0.375-0.062,0.938-0.125s0.438-0.75,0.5-1s0.312-0.25,0.812-0.25s0.75-0.438,0.75-0.438s-0.312-0.75-0.625-1.125
	s0.312-0.812,0.312-0.812s0.438-0.562,1-0.562s0.688-0.125,1.25,0.125s0.592,0.305,0.592,0.305l0.556-0.053
	c0.199-0.392-0.041-1.624-0.141-2.02l0.173-0.223l0.399,0.194c0.09,0.43,0.498,1.036,0.879,1.262l0.307-0.093l-0.331-1.447
	c0.632-0.876,0.146-2.092,0.965-3.155c-0.463-0.896,0.367-2.651,0.499-3.589c0.014-0.1-0.119-0.496-0.097-0.57
	c0.348-1.17,0.746-2.35,1.05-3.531c0.08-0.311,0.037-0.677,0.115-0.989c0.104-0.413,0.488-0.959,0.509-1.371
	c0.036-0.713,0.267-2.132-0.131-2.768l-0.402-0.299l-0.112-0.286l0.389-0.422c0.062-0.1-0.232-3.413-0.252-3.533l-0.446-0.369
	c-1.067-0.029-2.417,0.316-3.095,1.211l-0.145,1.089l-0.531,1.406v0.531l-0.344,1.5l0.125,0.5l-0.25,1.406l0.156,0.25l-0.531,1.531
	l-0.656,1l-0.156,0.75l-0.812,0.906l-0.531,0.156h-0.594v-0.188l0.812-0.219l0.531-0.531l0.312-0.5l0.062-0.688l0.344-0.844
	l0.625-1.844l-0.25-1.531l0.25-2.094l-0.281-0.344l0.156-0.531l0.094-1.219l-0.105-1.089c-0.247-0.061-0.477-0.126-0.611-0.208
	l-0.381,0.883l-0.228-0.191c-0.126-0.792,0.54-0.852,0.062-1.805c0.09-0.503,0.448-1.498,0.945-1.75
	c0.256-0.025,0.515-0.041,0.769-0.077l0.081-0.461l-0.768,0.119l-0.381-0.278l-0.074-0.374l0.608-0.668l-0.046-0.262l-0.357-0.257
	l0.062-0.178l0.832-0.408l0.129-0.199l1.501-0.045l0.415-0.27c-0.314-0.236-0.53-0.895-0.548-1.265l-0.224-0.13l-1.013,0.037
	l0.233-0.488l-0.465-0.035l-0.223-0.151l0.525-0.339l-0.16-0.25l0.208-0.98l0.49,0.366l0.218-0.265l0.268,0.236l0.422,0.083
	l0.611,0.957l0.331,0.04l0.415-0.358l0.732,0.276l0.438-0.292l-0.475-0.676l0.236-0.443l0.548-0.249l0.084-0.199l-0.247-0.281
	l-0.354-0.04l-0.549,0.271l-0.486-0.035l-0.163-0.591l-0.509-0.058l-0.139-0.395l-0.755,0.366l-0.281-0.469l0.688-0.344
	l-0.156-0.625l-0.719-0.219l-0.688-0.531c0,0-0.656-0.312-0.656-1.219s-0.031-1.531,0.188-2.031s0.594-0.906,0.719-1.406
	s0.438-1.406,0.625-1.844s0.688-1.562,0.688-1.688s0.188-1.375-0.031-1.531s-0.281-0.188-0.469-0.094s-0.656,0-0.844-0.125
	s-1.062-0.219-1.188-0.125s-0.812,0.281-0.812,0.281l-0.312,0.594c-0.062,0.125-0.375,0.625-0.594,0.594s-0.094-0.5-0.094-0.656
	s-0.156-0.312-0.281-0.125s-0.312,0.281-0.344,0.031s-0.531-0.594,0.062-0.938s0.594-0.75,0.438-0.969s-0.156-0.562-0.125-0.938
	s0-1.094-0.031-1.344s-0.281-1.031-0.312-1.219s-0.406-0.938-0.406-0.938l-0.206-0.482l-0.478,0.204
	c-0.382,0.77-0.868,1.79-0.488,2.643l-0.147,0.397l-0.322-0.742l-0.215,1.797l-0.392,0.233l-0.152-0.475l0.362-1.551l-0.16-0.393
	c-0.479,0.304-1.599,2.89-1.801,3.565l-0.242,0.136c-0.234-0.354,0.816-2.915,0.984-3.399l-0.264-0.084l-1.417,3.152
	c-0.296,0.659,0.052,1.099-0.076,1.683c-0.291,1.32-0.855,2.722-1.263,4.019l0.365,0.74l-1.268,2.24
	c0.321,1.299-0.376,1.693,0.391,3.772l-0.168,0.573l0.478,0.806l-1.714,3.367l0.092,0.262l0.38,0.215
	c0.153,0.886,0.103,1.958-0.354,2.751c0.596,1.579-0.017,3.06,0.287,4.66l-1.623,2.632l-0.202,0.048l-0.244,1.299
	c-1.005-0.929-0.416-2.661-1.1-3.828c-0.788-0.109-1.066-0.78-1.124-1.503l-0.467,0.077l-0.1,0.618l-0.394,0.247l-0.234,0.62
	l-0.704,0.231l-0.43,0.623l-0.528,0.117l0.027,0.263l0.268,0.193l0.047,0.265l-0.67,0.843l-0.748,0.146
	c0.113,1.342-0.415,3.149-1.079,4.3c0.223,0.524,0.5,1.038,0.533,1.617l0.248,0.151c0.539,0.112,1.158-0.954,1.509-0.859
	l0.205,0.326l-0.016,0.461l0.459-0.183l0.05,0.199l-0.457,0.467l0.005,0.331c1.183,0.53,1.283,3.493,1.286,4.507l0.333,0.236
	l0.094,0.329l-0.562,0.755c-0.21,2.332-0.192,3.672,0.688,5.766c0.027,0.065,0.115,0.141,0.16,0.196
	c0.968,0.005,1.08-0.937,1.186-1.622l1.124-0.17l0.083-0.177l0.672,0.559c-0.205,2.016,1.262,1.203-0.115,3.87
	c0.097,0.37,0.353,0.826,0.635,1.087c-0.074,0.603,0.656,1.917,0.969,2.383l0.658,0.186l0.415-0.379l0.272,0.631l0.31-0.048
	l0.194-0.244c-0.212-0.724-0.146-1.897,0.134-2.595l0.221-0.09c0.203,0.46,0.254,1.251,0.115,1.734l0.25,0.456l0.562-0.822
	l0.262,0.019c-0.499,0.872-0.356,1.997-0.286,2.839l-0.365,0.578c-0.244,0.067-0.735-0.218-0.908-0.36l-0.212,0.642l-0.269-0.305
	l-0.352,0.071l-0.277-0.787l-0.179-0.151l-0.462,0.074l-0.283,0.268c0.125,0.319,0.03,0.929-0.089,1.232
	c0.048,0.299,0.275,0.867,0.545,1.044l0.489,0.146c0.573,0.314-0.008,1.973,0.367,2.455l0.375-0.069l0.192-0.379
	c-0.215-0.517-0.219-1.214,0.104-1.691l0.373-0.117c0.112,0.258,0.292,0.854,0.567,0.957l0.572-0.051
	c0.255,0.423,0.528,1.198,0.469,1.705l0.381,0.501l-0.126,0.397l-0.367,0.334c-0.233,0.475-0.42,2.414-0.089,2.771l0.976,0.403
	l0.294,0.522l0.979,0.557c0.254-0.146,0.81-0.121,1.079-0.061l-0.231-0.633l0.173-0.199l0.286-0.027l0.229,0.435l0.244,0.13
	l0.698-0.363c0.21,0.379,1.008,2.028,0.766,2.45l0.318,0.501l0.903-2.871l0.391-0.334c0.249-0.486-0.079-1.357-0.008-1.936
	l0.63-0.668c-0.027-0.17,0.254-1.329,0.273-1.725c0.009-0.177-0.022-0.283,0.023-0.454c0.186-0.698,0.599-1.488,0.872-2.166
	c-0.49-1.326,1.692-1.872,0.564-4.756l-0.381-0.39l0.129-0.307l0.373-0.096c0.426-0.255,0.539-0.896,0.333-1.323l0.322-0.488
	l-0.07-0.308l-0.493-0.474l0.083-0.332l-0.202-0.326l-0.373,0.292l-1.255,0.148L258.419,251.561z"/>
<path fill-rule="evenodd" clip-rule="evenodd" fill="none" stroke="#0978AB" stroke-width="1.1339" stroke-linejoin="round" stroke-miterlimit="3.8637" d="
	M255.95,231.561"/>
<polygon fill-rule="evenodd" clip-rule="evenodd" fill="#FEFEE9" stroke="#0978AB" stroke-width="1.1339" stroke-linejoin="round" stroke-miterlimit="3.8637" points="
	271.575,179.514 271.153,179.795 271.138,180.045 271.435,180.295 271.966,180.139 271.981,179.702 "/>
<path fill-rule="evenodd" clip-rule="evenodd" fill="#FEFEE9" stroke="#0978AB" stroke-width="1.1339" stroke-linejoin="round" stroke-miterlimit="3.8637" d="
	M270.56,180.592l-0.828,0.234l-0.141,0.484l0.203,0.594l0.672,0.391l0.109,0.188l0.578,0.047l0.156,0.641l0.484,0.359l0.688-0.547
	l0.625,0.109l0.078,0.453l-0.047,0.25l0.172,0.047l0.113-0.173c0.093-0.234,0.04-0.646-0.06-0.877
	c0.101-0.365,0.512-0.752,1.017-1.072l-0.414-0.237l-0.031-0.609l-0.219-0.094l-0.25,0.75l-0.547,0.109l-0.484-0.609l-0.578,0.078
	l-0.594-0.172L270.56,180.592z"/>
<path fill-rule="evenodd" clip-rule="evenodd" fill="#FEFEE9" stroke="#0978AB" stroke-width="1.1339" stroke-linejoin="round" stroke-miterlimit="3.8637" d="
	M272.2,134.295l-0.141,0.266l0.234,0.25l0.234,0.141l0.016,0.266l-0.109,0.219l-0.922,0.062l-0.641,0.25l-0.672-0.031l-0.797,0.25
	l-0.25-0.156v-0.531l0.297-0.328l-0.047-0.328l-0.141-0.156l-0.219,0.062l-0.359,0.406l-0.328,0.172l-0.391-0.156l-0.172-0.406
	l-0.031-0.375l-0.391-0.219h-0.688l-0.531-0.141l-0.521,0.052c-0.391,0.17-0.816,0.53-1.01,0.833
	c-0.158,0.353,0.018,1.724,0.076,2.108l-0.347,0.424l-0.706,0.165l-0.496-0.432l-0.086,0.178l-0.507,0.063l-0.197,0.167
	c0.263,0.185,0.488,1.707,0.562,2.055c-0.448-0.367-0.875-1.302-1.047-1.83l-0.223-0.13l-0.176,0.069l-0.229,1.037l-0.919,0.76
	c-0.182,0.306-0.296,0.908-0.179,1.254l-0.173,0.268l-0.291-0.217l-0.174-0.83l-0.215,0.186c-0.23,0.503,0.403,1.304,0.034,2.057
	l-0.427-0.411l-0.36-1.731c-0.337,0.192-0.627,0.644-0.753,0.985c-0.578,1.561,0.066,1.786,0.377,3.349
	c0.084,0.426-0.017,0.927,0.058,1.357c0.21,1.213,0.555,1.511,0.362,2.783c-0.049,0.326,0.091,0.77,0.149,1.1l0.56,0.387
	c0.045,0.431,0.42,1.1,0.816,1.307c-0.757,0.255-1.004,0.745-1.128,1.421l0.16,0.35c0.236-0.005,0.639,0.113,0.803,0.297
	l-0.218,0.223c-0.33-0.036-0.981,0.025-1.26,0.239l-0.152,0.22l0.05,0.329l0.648,0.474l0.115,0.263l-0.188,0.573l0.273,0.524
	l1.002,0.048l0.576-0.323l1.094,0.312l0.562-0.344l0.781-1.094l0.5-0.562l0.219-1.188l0.188,0.188l-0.094,1.469l0.188,1.219
	l-0.406,0.938l-0.312,1.125l0.094,1.625l-0.344-0.062l-0.094-0.844l0.094-1.156l-0.156-0.781l-0.375-0.344l-0.562,0.188l-1.5-0.281
	l-0.062,0.406l-0.468-0.059l-0.112,0.431c-0.123,0.194-0.511,0.322-0.725,0.318l-0.606,0.976l0.32,0.588l-0.06,0.485l-0.68,0.36
	c-0.003,0.204-0.134,0.573-0.321,0.687l-0.312-0.04c0.021-0.398-0.061-1.244-0.333-1.575l-0.239,0.376l0.1,0.546
	c-0.448,0.568-0.591,1.144-0.793,1.813l-0.286,0.026l-0.128,0.31l-0.357-0.169l-0.197,0.048l-0.284,0.397l-0.641,0.032l-0.128,0.289
	l0.181,0.281l1.422,0.464l0.226,0.281c-0.221,0.712-0.135,1.651,0.389,2.213l-0.344,0.642c0.138,0.218,0.439,0.891,0.307,1.161
	c-0.841,0.633-0.744,1.028-0.832,2.012c-0.008,0.085-0.47,1.349-0.53,1.522l0.695,0.604l-0.015,0.331
	c0.33,0.35,0.618,1.16,0.49,1.641c-0.783,0.522-0.75,2.276-0.197,2.945l-0.06,0.485l-0.548,0.273l-0.108,0.22l0.137,0.262
	l0.398-0.05l0.226,0.393c-0.581,0.616-0.524,3.041-0.514,3.809c0.013,0.949,0.682,2.033,0.068,2.897
	c0.23,0.481,0.013,2.617-0.018,3.208l0.205,0.305l0.352-0.159l0.244,0.151l0.094,0.239l-0.344,0.71l0.205,0.414l0.577,0.056
	l0.161,0.438l0.258,0.724l1.188-0.125l0.094-0.438l0.375-0.375l0.031,0.844l1.031,0.219l0.656,0.5l0.438-1.062l0.406,0.219
	l0.531-0.781l0.438-0.625l0.438,0.469l1.344,0.281l0.312,0.344l0.562-0.469l0.562-0.219l0.781,0.188l1.688,0.844l1.406-0.562
	l0.25-0.406l0.816-0.032c0.458,0.008,1.155-0.119,1.549-0.374l0.422,0.17l0.635-0.361c0.215,0.037,1.013,0.135,1.194-0.016
	l0.128-0.223l-0.16-0.284l-1.037,0.082l-0.091-0.175l0.086-0.265l-0.625-0.188l-0.181-0.392l0.212-0.488l0.286-0.069
	c0.224,0.332,0.888,0.97,1.341,0.946l0.042-0.287l-0.675-0.604l-0.233-0.965l-0.651-0.538c-0.231,0.019-0.547,0.27-0.677,0.448
	l-0.292-0.236l-0.186-0.62l-0.844-0.297l-0.094-0.828l-0.828-1.031l-0.359-0.797l-0.531-0.172l-0.219-0.516l0.266-0.719
	l-0.234-0.328l-0.375-0.125l-0.078-0.688l1.188,0.328l0.031-0.219l-0.656-0.797l-1.516-0.609l-0.938-0.141l0.062-0.203h0.797
	l1.484,0.547l0.719,0.438l1.391,0.047l0.625-0.094l0.734,0.906l0.828-0.5l0.578-0.031l0.516,0.516l0.281-0.047l-0.516-1.328
	l-1.406-1.016h-0.672l-0.953-0.953l-1.016-0.562l-0.75-1.281l1.016,1.031l1.625,1.141l0.391-0.062l0.578,0.234l0.5,0.391
	l1.172,1.203l0.391,0.109l0.844,0.641l-0.344,1.234l0.714,0.28c0,0-0.504,0.003,0,0c-0.198-1.188,1.25-1.353,0.483-3.213
	l-0.536-0.411l0.083-0.353l0.423,0.324c0.256-0.042,0.592-0.326,0.724-0.539l0.819,0.122c0.342-0.14,0.719-0.972,0.822-1.286
	l0.769-0.472l0.278-0.554l-0.229-0.438l-0.289-0.04l-1.067,0.983l-0.73,0.098l0.171-0.551l-0.165-0.679
	c0.525-0.183,1.145-1.456,1.12-1.994l0.197-0.093l0.299,0.658l0.51,0.034l0.451,0.631c0.159-0.216,0.283-0.634,0.252-0.904
	l0.509-0.005l-0.005-0.353c-0.164-0.176-0.485-0.673-0.413-0.938c0.482-0.821,1.13-2.55,0.921-3.528
	c-0.403-1.886-2.038-5.189-1.937-6.826c0.088-1.436,0.514-3.063,0.753-4.493c0.195-1.164,0.067-2.691,0.097-3.889l0.454-0.689
	l0.672,0.496l0.26-0.53l-0.186-0.567l-0.798-0.077c-0.196-0.264-0.342-0.701-0.35-1.028l0.373-0.421l-0.029-0.332
	c-0.38-0.279-0.6-1.089-0.575-1.53l-0.8-0.164c-0.111-0.396-0.188-0.976-0.528-1.243l-0.223-0.042l-0.283,0.18
	c-0.23-0.002-0.542-0.294-0.648-0.475l-0.073-0.35c0.151-0.622,0.81-1.08,0.863-1.66l0.417-0.226l-0.053-0.437l0.438-0.424
	l0.016-0.332c-0.545-0.56-0.756-1.898-0.593-2.627l-0.247-0.347l-0.224-0.063c-0.088-0.172-0.043-1.107-0.042-1.339l-0.226-0.347
	l-0.446-0.17c-0.331-0.463-0.605-1.838-0.701-2.386l-0.247-0.193c-0.499-0.098-1.21-0.1-1.635,0.22l-0.268-0.106l0.464-1.5
	l1.231-0.721l0.018-0.284l-0.425-0.127l-0.527,0.25l-0.334-0.04l-0.858-1.084l-0.199-0.042c-0.211,0.732,0.619,1.69-0.077,2.351
	l-0.394,0.205c-0.397-0.125-1.032-0.102-1.491,0.047L272.2,134.295z"/>
<polygon fill-rule="evenodd" clip-rule="evenodd" fill="#FEFEE9" stroke="#0978AB" stroke-width="1.1339" stroke-linejoin="round" stroke-miterlimit="3.8637" points="
	283.606,94.389 283.278,94.467 283.091,94.842 283.169,95.295 283.528,95.327 283.872,94.514 "/>
<path fill-rule="evenodd" clip-rule="evenodd" fill="#FEFEE9" stroke="#0978AB" stroke-width="1.1339" stroke-linejoin="round" stroke-miterlimit="3.8637" d="
	M288.776,88.35c0.512-1.999,1.495-1.244,1.828-2.057l-0.05-0.374l-0.638,0.384l-0.115-0.286l0.368-0.838l-0.184-0.392
	c-0.265,0.077-0.73,0.84-0.851,1.065l-0.464,0.072l-1.184-1.962c-0.389-0.004-1.009-0.261-1.252-0.575l0.174-0.286l0.265-0.072
	l0.38,0.127l0.174-0.265l-0.205-0.392c0.22-0.373,0.088-1.291-0.024-1.67l-0.205-0.239l-0.646-0.188l-0.092-0.241l0.242-0.111
	l0.601,0.167l0.265-0.159c0.049-0.254,0.252-0.89,0.496-1.039l-0.184-0.326l0.504-0.533c-0.05-0.706,0.206-1.253,0.263-1.914
	c0.053-0.609,0.01-1.276,0.015-1.89c-0.506-1.349-0.676-4.168-1.469-4.987l-0.557,0.051l-0.416,0.424l-0.325,0.53l-0.287,0.247
	c0.097,0.487,0.104,1.119-0.021,1.604l-0.241,0.114l-0.782-1.768l-1.029-0.49l-0.307,0.114c-0.047,0.458-0.263,1.47-0.596,1.829
	l0.67,1.683l-0.242,0.31l-0.312-0.194l-0.667-0.013l-0.121-0.525c-0.692-1.165-1.847-0.32-2.732-0.159
	c-0.199,0.036-0.6-0.092-0.8-0.056c-0.71,0.127-1.812,0.551-2.362,1.044l0.25,0.305l1.07,0.292l0.053,0.504
	c-0.137,0.19-0.529,0.31-0.75,0.297l-0.483,0.445l0.181,0.218c0.219-0.155,0.701-0.321,0.974-0.233l0.094,0.305
	c-0.05,0.206-0.13,0.51-0.257,0.686l-0.331,0.157l-0.472-0.411l-0.245,0.048l-0.238,0.289l-0.467,0.051l-0.239,0.334
	c0.092,1.655-0.45,1.8-2.039,1.675l-0.483,0.358l-0.034,2.243l0.793,0.909l0.07,0.416l-0.17,0.443l-0.636,0.514l-0.535-0.125
	l-0.047,1.188l0.158,0.172c-0.205,0.085-0.407,0.652-0.454,0.84l-0.31,0.093l-0.291-0.236l-0.163-0.504l-0.485,0.225l-0.759-0.186
	c-0.181,0.127-0.374,0.666-0.431,0.864l0.074,0.437l0.473,0.387l0.399-0.048l0.407,0.411l0.641-0.141l0.268,0.127l0.094,0.35
	l-0.17,0.376c-1.608-0.133-1.146,1-1.851,1.079l-0.539-0.474c-0.58,0.696-0.795,2.32-0.685,3.173
	c-0.181,0.246-0.791,0.95-0.779,1.241l0.394,1.071l-0.299,0.816l0.205,0.218c0.342-0.063,0.985,0.258,1.247,0.443l-0.52,0.777
	l0.121,0.591l-0.176,0.177c-0.322,0.031-0.77-0.08-1.044-0.249l-0.066,0.199l0.207,0.392l-0.149,0.398l0.454,0.676l0.509-0.053
	c0.169,0.079,0.345,0.581,0.389,0.742l0.953-0.037c0.242,0.431,0.339,1.646,0.365,2.126l-0.483,0.249l-0.557-0.058l-0.449-0.39
	l-0.467-0.037c-0.242,0.409-0.47,0.84-0.645,1.283l0.157,0.217l0.357,0.019l0.113,0.238l-0.258,0.488l0.339,0.369l-0.215,0.551
	l-0.462,0.204l-0.28,0.554l0.082,1.01l-0.389,0.554l0.002,0.286l0.205,0.281l1.023,0.207l0.339,0.456l-0.239,0.223l-0.312-0.04
	l-0.336-0.281l-0.26,0.509l-0.406-0.477l-0.286,0.048l-0.242,1.606l0.205,0.329l0.53-0.053l0.229,0.413l1.373-0.217
	c0.266,0.063,0.626,0.457,0.765,0.671l-0.302,0.596l0.118,0.416l-0.15,0.464l-0.714-0.276l-0.194,0.31l-0.265,0.093l-0.139-0.417
	l-0.441,0.138l-0.202-0.218l-0.239,0.4l-0.797-0.056l0.052,0.66c0.187,0.305,0.715,0.73,1.097,0.729l0.006,0.199l-0.329,0.421
	l0.368,0.851l-0.215,0.31l-0.79-0.822l-0.379-0.016l-0.301,0.488c-0.066,0.563,0.201,1.575,0.671,1.943l-0.129,0.178l-0.648-0.363
	l-0.304-1.05l-0.268-0.106c-0.376,1.175,0.484,2.022-0.307,3.123l0.263,1.336c-0.361,0.469-0.021,1.55-0.67,2.582l0.273,0.39
	l0.937,0.406l0.283-0.4l0.053,0.702c0.347,0.084,1.291-0.44,1.564-0.618l0.335,0.148l-1.068,1.092l-1.129,0.172l0.048,0.217
	c0.274,0.093,0.804,0.159,1.086,0.05l0.312,0.172l0.074,0.35l-0.192,0.53l-0.779-0.143l-0.362-0.477l-0.51-0.104l-0.241,0.18
	l-0.293,1.015l0.136,0.347l0.448,0.324l-0.459,0.445c0.011,0.438,0.009,0.958,0.131,1.384l0.497,0.387l-0.116,1.254l-0.283,0.247
	c-0.329,0.725,0.195,2.227,0.867,2.888c0,0,0.305-0.164,0.524-0.117s0.594,0.25,0.594,0.25l0.719,0.062l0.266,0.125l0.156,0.641
	l0.234,0.312l0.25-0.109l0.438-0.391l0.375-0.141l0.312,0.266l-0.016,0.469l-0.188,0.312l-0.016,0.344l0.188,0.156l0.297-0.062
	l0.281-0.141h0.594l0.453-0.219l0.859-0.047l0.234-0.094l-0.062-0.141l-0.328-0.422l0.166-0.654
	c0.011-0.315,0.156-0.697,0.306-0.893c-0.041-0.121-0.166-0.305-0.293-0.35l-0.265,0.093l-0.326,0.509
	c-0.413,0.013-1.027-0.344-1.25-0.684c-0.134-0.393-0.086-2.176,0.118-2.417c0.288-0.28,1.095-0.246,1.438-0.154l0.286-0.156
	c0.079-0.275,0.347-0.958,0.604-1.129l-0.449-0.366l0.192-0.509l-0.115-0.284l0.548-0.403l0.071-1.1
	c0.158-0.272,0.56-0.574,0.855-0.671c0.066-0.195,0.312-0.621,0.543-0.668l0.354,0.04l-0.011,0.702l0.402,0.149
	c0.454,0.598,0.384,2.753,0.317,3.444l0.422,0.082c0.321-0.16,0.529-0.879,0.557-1.193l0.373-0.271l0.2-0.002l0.141,0.503
	l0.441-0.116l0.236-0.485l-0.026-0.374l0.218-0.09l0.215-0.509l-0.136-0.329l-0.47-0.278l0.019-0.199l0.241-0.111l0.063-0.31
	c-0.263-0.07-0.735,0.24-0.903,0.408l-0.488-0.037c-0.327-0.28-0.609-1.242-0.69-1.636L275.166,124l-0.153-1.228l-0.493-0.387
	c0.708-0.585,0.71-1.649,1.384-2.304l0.039-0.398l-0.251-0.501l-0.459-0.357l-0.625-0.047l-0.859,0.641l-0.266,0.625l-0.031-0.594
	l0.25-0.359l0.594-0.531l0.75-0.062l0.438-0.125l0.188-0.562l-0.109-0.812l-0.922-0.25l-0.062-0.25l-0.156-1.109l-0.656-0.016
	l-0.391,0.141l-0.188-0.141l0.109-0.375l0.109,0.234l0.281-0.031l0.609-0.141l0.375,0.234l0.078,0.969l0.109,0.203l0.75,0.328
	l0.312,0.312l0.016,0.328l0.33,0.713l0.029,0.258l0.41,0.411l0.635-0.647l0.599,0.08l0.076-0.752l-0.031-0.859l-0.141-0.875
	l0.141-0.266l0.297-0.062l0.047-0.781l0.094-0.625l0.078,0.609l0.016,0.578v0.281l-0.109,0.109l-0.297,0.047l-0.094,0.125
	l0.266,0.906l-0.016,0.906l0.246,0.695l-0.031,0.461l0.249,0.368l-0.394,0.379l-0.008,1.034c0.218,0.247,0.694,0.64,1.032,0.71
	l0.459,1.092l0.963,0.689l0.194-0.289l-0.273-0.522c0.12-0.3,0.108-0.824-0.016-1.121l0.174-0.331
	c0.224,0.11,0.465,0.491,0.541,0.716c0.382,0.017,1.119,0.122,1.446,0.355l0.564-0.909l0.197-0.069l0.806,0.583l0.333-0.072
	c0.204-0.148,0.293-1.157,0.333-1.41c0.715-0.28,1.527-1.274,1.812-1.959l-0.05-0.459l-0.271-0.35l0.168-0.594l0.575-0.029
	c0.388-1.444-0.387-3.502-0.26-4.17c0.126-0.663,0.333-1.403,0.394-2.07c0.043-0.48-0.099-1.01-0.068-1.492
	c0.027-0.44,0.361-0.867,0.094-1.32l-0.203-0.151c0.231-0.817,0.809-3.024,0.675-3.876c0.106-0.205,0.457-0.671,0.722-0.689
	c0.75-0.691,0.49-2.587,1.212-3.597l-1.344,0.588l-0.178-0.063l-0.502-0.869l0.478-0.798l-0.095-0.437l-0.727,0.469l-0.244-0.061
	l-0.273-0.414l-0.265-0.04l-0.417,0.4l-0.158-0.175l-0.619,0.141l-0.494-0.321l0.173-0.289l0.199-0.048l0.129-0.329l-0.094-0.395
	l0.533-0.029l0.104-0.286l-0.58-0.389l-0.233-0.721l-0.31,0.026l-0.115-0.262l0.236-0.552l-0.161-0.392l-0.354,0.048l-0.606,1.129
	l-0.138,0.419l-0.016,0.469l-0.312,0.016l0.156,0.219l-0.031,0.391l-0.297-0.078l-0.453-0.234l-0.172-0.344l0.109-0.188h0.328
	l0.094-0.25l-0.25-0.141l-0.047-0.578l-0.203-0.344l-0.078-0.422l-0.609-0.109l-0.062-0.281l-0.672-0.016h-0.516l-0.453-0.297
	l-0.375-0.531l-0.391-0.109l-0.016-0.5l-0.219-0.266l0.047-0.672l0.438,0.219l0.234-0.719l0.062-0.484l0.469-0.281l0.688,0.016
	l0.062,0.375l0.172,0.625l0.5,0.047l0.141,0.422l-0.141,0.25l0.203,0.344l-0.141,0.312l0.281,0.406l0.141,0.203l0.438-0.016
	l0.073-0.671l0.111-0.374l0.488-0.138c0.144-0.309,0.526-0.793,0.85-0.936c0.169-0.042,0.372-0.038,0.587-0.006l0.188-0.422
	l-0.25-0.781l0.453-0.312l-0.422-0.5v-0.266l0.172-0.984l0.344-0.047l0.219,0.844l0.266,0.203l0.422,0.094l0.609-0.156h0.812
	l0.438-0.172L288.776,88.35z"/>
<path fill-rule="evenodd" clip-rule="evenodd" fill="#FEFEE9" stroke="#0978AB" stroke-width="1.1339" stroke-linejoin="round" stroke-miterlimit="3.8637" d="
	M286.168,91.172c0.442,0.162,0.734,0.317,0.805,0.288l0.947-0.387l0.131-0.257l-0.587-0.851l-0.003-0.193l0.43-0.262
	c0.098,0.352,0.11,0.908,0.234,1.185l0.215,0.175l0.139,0.44c-0.319,0.486-0.491,1.601-0.546,2.158l0.228,0.458
	c0.328-0.094,0.75-0.419,0.945-0.695l0.333,0.019c0.686,0.257,0.289,1.868,0.854,2.251l0.241-0.069
	c0.195-0.19-0.065-1.17,0.286-1.718c0.408-0.635,1.476-0.763,1.648-1.209l-0.097-0.525l-0.95,0.275l-0.141-0.612l-0.357-0.082
	l-1.027-1.964l0.053-0.965l-0.252-0.459l-0.722,0.626l-0.31-0.019l-0.31-0.016l-0.578,0.031l-0.422-0.078l-0.625,0.172h-0.609
	l-0.297,0.203l-0.062,0.266l0.281,0.234l-0.25,0.5l0.078,0.547L286.168,91.172z"/>
<path fill-rule="evenodd" clip-rule="evenodd" fill="#FEFEE9" stroke="#0978AB" stroke-width="1.1339" stroke-linejoin="round" stroke-miterlimit="3.8637" d="
	M334.021,648.194c0.364,0.218,1.166-0.656,0.874-0.801C334.604,647.247,333.657,647.975,334.021,648.194z"/>
<path fill-rule="evenodd" clip-rule="evenodd" fill="#FEFEE9" stroke="#0978AB" stroke-width="1.1339" stroke-linejoin="round" stroke-miterlimit="3.8637" d="
	M344.352,651.605c0,0,1.227,0,0.79-0.437S344.352,651.605,344.352,651.605z"/>
<path fill-rule="evenodd" clip-rule="evenodd" fill="#FEFEE9" stroke="#0978AB" stroke-width="1.1339" stroke-linejoin="round" stroke-miterlimit="3.8637" d="
	M355.982,657.504c-0.364,0.073-0.364,1.082,0.073,1.082S356.346,657.432,355.982,657.504z"/>
<path fill-rule="evenodd" clip-rule="evenodd" fill="#FEFEE9" stroke="#0978AB" stroke-width="1.1339" stroke-linejoin="round" stroke-miterlimit="3.8637" d="
	M260.544,300.436c0,0,1.25,0,0.75-0.5S260.544,300.436,260.544,300.436z"/>
<path fill-rule="evenodd" clip-rule="evenodd" fill="#FEFEE9" stroke="#0978AB" stroke-width="1.1339" stroke-linejoin="round" stroke-miterlimit="3.8637" d="
	M259.044,301.061c0,0-0.5,1.375,0.25,1.125S259.044,301.061,259.044,301.061z"/>
<line fill-rule="evenodd" clip-rule="evenodd" fill="none" stroke="#646464" stroke-width="4.252" stroke-linejoin="round" stroke-miterlimit="3.8637" x1="278.919" y1="39.936" x2="313.419" y2="45.936"/>
<path fill-rule="evenodd" clip-rule="evenodd" fill="none" stroke="#646464" stroke-width="1.7008" stroke-linejoin="round" stroke-miterlimit="3.8637" d="
	M264.612,213.936c0,0,3.813,2.1,8.19-2.855c4.377-4.955,9.713-15.245,11.235-18.671c1.523-3.426,6.097-10.284,13.716-8.19"/>
<path fill-rule="evenodd" clip-rule="evenodd" fill="none" stroke="#646464" stroke-width="1.7008" stroke-linejoin="round" stroke-miterlimit="3.8637" d="
	M254.703,195.265c-1.903-2.664-3.235-4.567-10.665-4.567"/>
<line fill-rule="evenodd" clip-rule="evenodd" fill="none" stroke="#646464" stroke-width="1.7008" stroke-linejoin="round" stroke-miterlimit="3.8637" x1="343.563" y1="197.628" x2="377.409" y2="206.612"/>
<line fill-rule="evenodd" clip-rule="evenodd" fill="none" stroke="#646464" stroke-width="1.7008" stroke-linejoin="round" stroke-miterlimit="3.8637" x1="223.719" y1="418.521" x2="258.737" y2="418.521"/>
</svg>
