<?xml version="1.0" encoding="utf-8"?>
<!DOCTYPE svg PUBLIC "-//W3C//DTD SVG 1.1//EN" "http://www.w3.org/Graphics/SVG/1.1/DTD/svg11.dtd" [
	<!ENTITY ns_extend "http://ns.adobe.com/Extensibility/1.0/">
	<!ENTITY ns_ai "http://ns.adobe.com/AdobeIllustrator/10.0/">
	<!ENTITY ns_graphs "http://ns.adobe.com/Graphs/1.0/">
	<!ENTITY ns_vars "http://ns.adobe.com/Variables/1.0/">
	<!ENTITY ns_imrep "http://ns.adobe.com/ImageReplacement/1.0/">
	<!ENTITY ns_sfw "http://ns.adobe.com/SaveForWeb/1.0/">
	<!ENTITY ns_custom "http://ns.adobe.com/GenericCustomNamespace/1.0/">
	<!ENTITY ns_adobe_xpath "http://ns.adobe.com/XPath/1.0/">
]>
<svg version="1.1" id="Bihar" xmlns:x="&ns_extend;" xmlns:i="&ns_ai;" xmlns:graph="&ns_graphs;"
	 xmlns="http://www.w3.org/2000/svg" xmlns:xlink="http://www.w3.org/1999/xlink" x="0px" y="0px" width="982.662px"
	 height="755.136px" viewBox="0 0 982.662 755.136" enable-background="new 0 0 982.662 755.136" xml:space="preserve">
<metadata>
	<sfw  xmlns="&ns_sfw;">
		<slices></slices>
		<sliceSourceBounds  x="146.905" y="161.891" width="990.087" height="760.255" bottomLeftOrigin="true"></sliceSourceBounds>
	</sfw>
</metadata>
<rect fill-rule="evenodd" clip-rule="evenodd" fill="#F5F5F5" width="982.662" height="755.136"/>
<path fill-rule="evenodd" clip-rule="evenodd" fill="#FEFEE9" d="M868.556,521.043c-1.909,0.305-2.965-0.51-4.092-1.984
	c-2.311-3.025-5.339-4.94-8.541-6.931c-2.62-2.922-7.45-3.384-9.666-6.696c-2.075-3.102-3.753-4.031-6.744-6.01
	c-1.519-1.005-2.521-2.64-3.816-3.849l-4.671,1.671c0,0-5,0.75-6.5,1s-2,2.25-2,3.25s-1.25,5.5-1.25,5.5l-10-2.75l1.75,6.5l-4.5,5
	l-0.25,9.25c0,0-8.25-3.25-13.25-6s-6,3.75-6,3.75l-8.5-3c0,0-0.75,2-1.5,3.25s-0.75,9-0.75,9s-0.5,3.5-2.5,5.5s-1,8-1,9
	s-5.75-1-7.25-2s-3.75,0.75-4,2s-1.5,1-3,1s-1.75,0.5-2.75,1s-4.75,5.5-9,10s-0.5,8.25-0.5,9.5s-0.5,10.75-0.5,10.75s0.75,3.5,0,5.5
	s0.75,2.25,1.25,4s-2.25,6.25-2.25,6.25s-2.25,1.25-4.5,1.75s-3.25,3-3.5,4s-0.5,2.25-3.75,2.25s-2.5,0.5-2.5,2.5
	s4.25,2.25,4.25,2.25s-0.75,2.75-1.75,3.5s-0.5,6-0.75,7.75s0,2.5,0.5,3.75s-3,7-4.5,10.75s-2.5,13.25-2.5,13.25s-3,0.5-5.25,0.75
	s-5.25-2-7.5-3.75s-4,0-5.25,0.25s-4-2.75-4-2.75s-4.5,9-5.25,10.25s1.75,10.5,1.75,10.5s-2.25-2-3.75-2.5s-2.75-3.25-2.75-3.25
	s-1,1-1.5,2s-1.75,1.25-4.5,0.75s-1.75-3-1.75-3l-6,0.75c0,0,0.75-1.75,0.75-4.25s-3.75-5.75-5.25-6s-5.75-0.75-5.75-0.75l-0.25,3
	c0,0,1.25,4.75-2.25,4.75s-4.5,0.5-6,1s-7,2.75-7,2.75s-5.75-3.25-7.5-4.5s-4-4-4-4s-1.25,1.5-2.25,2.25s-2.25,2.75-2.75,4.25
	s-0.75,2.5-3.75,3s-2.75,5-2.75,5s-2.25,0.5-4.25,0.5s-3.75,5.75-4.75,7.25s-1.25,7.5-1.25,8.5s0.75,6.5,0.75,6.5h-5
	c0,0-0.5,6.75-0.25,8.75s-1.75,2.25-7,1.5s-15.25-14.25-15.25-14.25s-2.75,0.25-5.75,0.5s-3.5-2.5-3.5-2.5l-3.5-1.25
	c0,0,4-7.25,4.75-8.25s1-3.5-0.25-5.75s1-8,1-8l1.75-3.75l-7.25-0.5l-0.75,2.25l-4.5-1.75l-6.5-5.75c0,0,0.25,2-1.5,4.25
	s-9,0.5-9,0.5s-2.25-3-5.75-3.75s-2.25-6-2.25-6s1.25-5.75,1.5-8s-1.25-8.25-2.5-10.25s-3.75-3.75-7.75-4.75s-7,1.75-7,1.75
	s0.5-2.5,2.25-6s-0.75-1.75-4.25-1.25s-4.75,4-4.75,4s-2.25,0.5-4.25,2.25s-6.75,1.5-8.75,0.5s-6.75-5.75-7.5-7.25
	s-2.25-4.75-2.25-4.75s-5.25-2-8-2.25s-5,1.25-6.25,2s-3.75,0.5-5.5-2s-7.5-2.5-7.5-2.5s-1,1.25-1.5,3.5s-0.5,2.75-2.75,4.25
	s-1.75,7.5-2,12s-10.25,8.25-10.25,8.25l2.75,3c0,0-0.5,4-0.5,6s2.5,6.75,2.25,10s-9.5,2.25-9.5,2.25s-1.5-1-2.75-2.5
	s-4.5-1.25-7-0.5s-0.75,6.25-0.75,6.25l-3.5,1.25c0,0-2.5,0-2.5,1.5s1,3.75-0.75,5s-3.5,0.25-5-1.25s-1-2.75-2.25-2.5
	s-7.25,1.75-7.25,1.75s-5.5,0.25-7.75-0.75s-3,0-4.25,1s-10.25,2-10.25,2s-4.25,1.5-8,1s-2.5,4.25-2.5,5.5s-6.5,0.75-6.5,0.75
	s-1.75,2-2.75,3s-1,2-5,1.75s-9.75,1.25-9.75,1.25l-0.25,2.25c0,0,1,1,2.25,2.5s0.5,2.75-1,4s-3.5,2-6.5,2.25s-2.5,3-3.75,5
	s-7.25,0-7.25,0s1-2,1.25-4s-0.5-6.25-0.5-6.25l-2.75,4c0,0-1.75,0-3-0.75s-5.25,1.25-7.75,1.5s-2.75,3.25-3.5,5.5s-3,3-5,3
	s-9.5-0.5-9.5-0.5s-0.75-3-1-4.25s-3.25-5-3.25-5s-0.25-5.5-0.25-7.25s-0.75-1.25-2-0.75s-6.5,0.5-6.5,0.5l-1-4.25c0,0,0.75-4,1-7
	s-7.5-3.5-7.5-3.5l-2.5,4.75c0,0-3.75,1-5.25,1s-2.75,0.75-4.5,4s-3.75,2.25-4.75,2.25s-1.75,1.5-4,3.75s-2.75,8-3,9.5
	s-2.75,2.5-4.25,1.75s-4.25-1.25-6.5-1.25s-5.25-1.5-5.25-1.5s-2,3-2.25,4.5s-3.75,2-6,3.25s-1.25,2.75-2,5s-0.75,3-2.75,5.25
	s-1.25,6.25-1.25,6.25l-3.25,0.75l-0.75-2.5l-4-1.5c0,0-0.75-1.75-1-4.25s-3.5-1-6-0.25s-1-1.5-1-4s-5.25-4.5-5.25-4.5l-2.5-3
	l-7.25-1.5c0,0-3-3.25-3.25-5.5s-0.75-5.75-4.75-5.75s-3.5-3-3.5-4.75s4-2.75,6-3.75s1.25-5.5,0.75-6.75s-3.5-8.5-3.5-8.5
	l-5.25-0.25c0,0,1,1.5-1.25,4.25s-5.75,1.25-6.75-0.25s-4.25-0.5-4.75-1.75s-1.25-0.25-3.75,0.5s-0.75,4.25-0.5,5.75
	s-0.25,2.75-2.5,2.75s-2.25-1.25-2.25-2.5s-0.25-1.75-2.25-3.25s-2.25,1.25-2.25,3s1.25,4,1.25,4s-1.25,2-3.25,3s-2.5,0.75-3.5,0
	s-2.75-2.5-2.75-2.5s-0.25-2.75-0.25-4.5s-0.25-3-1.25-3.75s-1.5-2.25-1-4.25s-2.5-4.75-4-5.5s-1.75-2.75-1.75-5.25
	s-8.196-3.826-8.196-3.826l-3.026-0.664c-0.767,0.951-1.594,1.864-2.15,2.954c-0.245,0.93-0.466,1.073-1.019,1.816
	c-0.014,0.08-0.005,0.166-0.005,0.252c0.01,2.208-0.344,4.254-0.243,6.506c0.3,6.671-1.256,7.31-6.321,9.677
	c-4.482,3.185-9.787,0.603-14.5,2.472c-5.386,2.135-5.614,2.582-11.144-0.264c-0.108-0.056-0.238-0.118-0.343-0.15
	c-0.532,0-3.381,0.97-3.824,1.283c-2.531,3.187-1.794,7.285-8.522,6.114c-5.139-0.895-3.144,1.746-8.691,1.169
	c-1.599-0.166-2.896-0.726-4.418-1.037c-3.893-0.796-7.486-1.152-11.401-1.528c-1.354-0.13-2.227-0.346-3.279-1.191
	c-1.909-1.028-8.898-3.082-10.932-3.169c-0.993-0.043-1.878,0.014-2.689,0.138l-0.43-1.189c0.991-0.681,1.961-1.369,2.525-1.738
	l0.847-3.418l1.695-6.835l1.654-4.014l0.827-2.007c-1.968-5.079-4.33-12.777-5.13-18.209c-1.317-1.365-2.972-2.802-4.132-4.283
	c-1.066-1.363-2.44-4.373-3.515-5.487c-1.018-1.056-10.395-5.528-11.893-6.192l-2.333-4.262l1.275-5.429l-0.772-1.824l-1.544-3.649
	c-0.601-1-2.697-3.342-3.534-4.277c-1.262-1.409-3.031-2.776-4.132-4.283c-0.019-0.026-1.532-3.406-1.564-3.512
	c-0.12-0.39,0.028-4.197-0.072-4.911c-0.252-1.811-1.156-3.396-0.892-5.307c-1.236-1.263-2.528-2.857-3.326-4.447
	c-0.025-1.7,0.134-6.04-0.107-7.365c-0.173-0.952-0.91-2.328-1.273-3.256c-0.947-0.517-3.318-2.111-3.714-3.213
	c-0.003-0.23-0.055-2.366-0.036-2.454c0.195-0.907,0.854-1.993,1.181-2.884c0.292-0.796,0.538-1.655,0.779-2.469
	c0.398-1.348,0.847-2.745,1.166-4.111c0.073-0.312,0.314-2.337,0.369-2.462c0.435-0.984,1.456-1.941,1.997-2.896
	c0.101-0.179,1.956-4.052,1.978-4.126c0.266-0.901-0.236-2.61,0.347-4.099c-0.261-0.627-0.674-1.385-0.845-2.033
	c-0.154-0.581-0.927-6.2-0.911-6.534c0.004-0.09,0.704-2.622,0.773-2.876l2.034-0.442c1.082-1.724,2.37-4.155,2.762-6.186
	l2.039-0.032c1.508-1.096,3.308-2.692,4.425-4.166c1.136-1.499,1.726-3.723,3.603-4.56l2.445-0.04l1.648,1.2l2.02-1.258
	c0.351-1.399,0.995-2.805,1.572-4.12c1.778-0.327,5.881-0.351,7.32-1.347c0.371-0.256,0.49-0.507,0.803-0.831
	c1.293-1.338,2.247-2.258,4.033-2.932c2.465-0.93,6.031-1.387,8.531-2.184c0.679-0.216,1.344-0.668,2.027-0.852
	c1.865-0.5,3.369-0.428,5.28-1.313l0.797-1.241c3.06-0.973,5.162-3.421,8.085-4.634c0.885-1.702,1.78-3.528,2.369-5.36
	c1.188-0.286,2.455-0.687,3.656-0.878c0.647-0.104,1.385,0.052,2.039-0.032c1.758-0.225,3.539-0.605,5.288-0.904
	c1.24,0.785,3.794,1.792,5.322,1.55c2.973-1.908,5.899-3.61,9.311-4.652l2.799-3.73c-1.427,0.356-4.089-0.506-5.319-1.141
	l-1.244-1.617l4.465-1.301c0.792-1.094,1.67-2.181,2.398-3.314c0.15-0.234,1.117-1.987,1.194-2.066
	c0.456-0.472,1.566-0.789,2.021-1.261c0.077-0.08,1.039-1.831,1.189-2.064c0.542-0.843,1.317-2.193,1.998-2.898
	c0.97-1.004,3.919-2.487,5.257-2.95c0.127-0.198,1.552-2.445,1.596-2.483c0.928-0.813,2.574-1.413,3.637-2.104
	c0.975-0.633,1.845-1.467,2.823-2.093c1.67-1.068,3.562-1.881,5.26-2.949l0.403-2.542c2.509-0.568,5.363-1.349,7.677-2.5
	c1.754-0.873,3.463-2.198,5.255-2.951c0.464-0.195,2.42-0.262,2.849-0.455l2.823-2.094c1.051-1.233,2.277-3.543,3.189-4.963
	l-0.101-6.956l1.067-1.381l2.135-2.763c0.705-0.73,4.7-2.561,5.663-2.958c1.792,1.185,3.766,2.355,5.756,3.182l4.465-1.301
	c1.006,1.233,2.153,3.645,2.116,5.286c0.108,0.105,1.218,1.165,1.24,1.208c0.538,1.04,0.886,2.54,1.277,3.663l1.502,0.521
	l3.005,1.042c0.628,0.099,0.995-0.016,1.631-0.026c2.031-0.032,4.116-0.128,6.12,0.311c1.448-1.218,3.274-0.746,4.872-1.309
	l1.076-0.835l0.538-0.417c0.14-1.568,0.345-5.643,0.714-6.97c0.451-1.624,1.778-4.32,2.768-5.774
	c1.094-0.263,2.558-0.796,3.658-0.879c0.923-0.07,2.322,0.253,3.267,0.356c1.366,1.099,4.532,3.6,5.376,5.234l0.572,1.9l0.286,0.95
	l0.401-0.415c0.185-0.041,1.964-0.447,2.033-0.443c1.121,0.062,2.561,0.529,3.679,0.759c0.736,1.29,2.314,2.698,3.717,3.214
	c0.989,0.363,2.24,0.507,3.273,0.766c0.952,0.238,1.908,0.574,2.866,0.772c1.043,0.215,2.593-0.042,3.668-0.059l1.612-1.254
	l-0.845-2.032l0.797-1.242c1.673,0.582,3.217,0.416,4.892-0.08c0.626-1.169,1.09-2.477,1.576-3.708
	c1.346-0.434,4.25-1.176,5.695-0.91c1.509,0.277,2.168,1.169,4.089,0.75l0.525-0.698c0.333-1.412-1.304-4.177-2.108-5.28
	l4.044-2.114c-0.126-0.59-0.21-1.494-0.435-2.037c-0.132-0.318-3.308-5.234-3.329-5.257c-0.736-0.776-2.067-1.265-2.879-1.995
	c-0.415-0.373-2.232-2.653-2.481-2.819c-0.348-0.232-5.076-1.94-6.14-2.347c-0.461-1.478-0.917-2.972-1.283-4.476
	c-2.094-1.355-4.261-2.775-6.169-4.391c-1.396,0.61-3.033,0.349-4.477,0.213c-2.696-0.253-6.492-1.505-8.596-3.259
	c-0.045-0.038-2.406-2.714-2.483-2.819c-0.635-0.865-1.022-1.979-1.667-2.834l-1.93-2.146c-0.376-0.418-0.516-0.734-0.965-1.073
	c-1.025-0.774-5.46-2.883-6.975-3.696c-0.48-0.258-0.695-0.566-1.231-0.661c-0.313-0.055-6.218,0.107-6.919,0.119
	c-2.068-2.079-7.014-5.221-9.857-5.961c-1.408-0.367-3.045-0.502-4.49-0.74l-1.25-2.022c-2.514-0.426-5.491-1.108-7.768-2.32
	c-0.883-2.535-2.501-4.564-3.762-6.887c-0.623-1.147-0.996-2.547-1.677-3.649c-0.528-0.855-1.473-1.595-2.071-2.419
	c-1.723-2.374-2.964-5.056-5.388-6.857c-2.129-0.253-4.639-0.913-6.541-1.932l-2.08-3.234c0.348-1.102,1.01-2.581,1.17-3.701
	c0.013-0.09-0.051-4.075-0.055-4.088c-0.154-0.557-1.826-2.935-2.086-3.644c-0.148-0.402-0.092-0.664-0.15-1.088
	c-0.32-2.312-0.424-4.987-1.59-7.059c-0.41-0.73-1.118-1.791-1.661-2.425c-0.684-0.799-1.913-1.558-2.477-2.41
	c-0.051-0.077-1.159-2.972-1.267-3.249c1.681,0.405,4.551,0.372,5.711,0.717c1.366,0.408,2.756,1.443,4.102,1.974
	c1.613,0.636,4.873,1.046,6.525,0.705l1.89-0.85c0.368-0.166,0.626-0.177,0.945-0.425c1.148-0.894,2.83-3.943,3.186-5.37
	c1.937-0.623,4.062-1.121,6.089-1.334c0.593,0.692,1.377,1.867,2.07,2.418c0.067,0.053,2.239,1.079,2.458,1.185
	c0.123-0.288,1.57-3.64,1.58-3.708c0.188-1.29-0.068-5.06-0.088-6.541c-0.067-4.951-0.304-9.796-1.015-14.702
	c-0.943-0.253-1.909-0.564-2.862-0.768c-0.766-0.164-1.713-0.134-2.448-0.367c-1.717-0.543-3.33-1.797-5.322-1.953
	c-2.366-0.185-4.93,0.084-7.328,0.128c-0.779-0.885-1.614-2.045-2.484-2.821c-1.355-1.208-4.836-2.967-6.569-3.975l-0.431-1.627
	l1.204-1.249l-0.02-1.634l-1.662-2.425c-1.503,0.487-3.02,1.054-4.457,1.714c-2.606-0.572-5.168-1.306-7.764-1.911
	c-2.307-0.538-4.64-0.944-6.944-1.515l-2.499-4.046c-0.057-3.973-0.733-8.615,1.054-12.286c2.036-0.036,4.126-0.241,6.113,0.304
	c0.585,1.177,2.062,3.057,3.307,3.623c0.032-1.724,0.748-3.843,1.557-5.343l2.036-0.036c1.125,0.506,2.524,1.403,3.29,2.398
	c2.261-0.659,6.46-0.876,8.557,0.26l2.427-1.269c-0.217-1.631-0.487-3.292-0.881-4.892c0.423-1.231,1.129-3.102,1.979-4.124
	c1.094-0.047,3.35-1.396,4.044-2.114c0.037-0.039,0.724-1.505,0.793-1.649c-0.214-1.495-0.711-3.082-1.283-4.474l1.606-1.664
	l1.359,0.113l2.718,0.225c0.895-0.069,1.934-0.723,2.84-0.869c3.383-0.545,5.855,0.83,8.59,2.714l1.493-0.026l2.986-0.052
	c2.144,0.361,4.416,1.389,6.543,1.932c1.021,0.261,2.214,0.33,3.264,0.487l1.632,0.245c0.731-0.012,1.702-0.324,2.438-0.451
	c0.864-0.148,2.028-0.189,2.845-0.457c0.823-0.27,1.609-0.955,2.426-1.269c0.356-0.137,6.611-1.342,6.906-1.347
	c1.054-0.018,2.2,0.304,3.263,0.353c3.405,0.154,4.638-0.413,7.833,1.48c0.478-4.128,0.458-7.639,0.375-11.726l-1.688-2.035
	c-1.502-0.106-3.022-0.263-4.526-0.321c-0.756-0.029-1.736,0.174-2.464,0.052c-1.333-0.223-2.82-0.789-4.132-1.156l-0.571-1.093
	c-1.406-2.688-1.337-3.01-2.047-6.033c-0.176-0.75-0.164-1.209-0.452-1.924l-1.41-1.903l-0.705-0.952l-3.723-1.164
	c-2.311,0.784-4.721,1.573-6.927,2.63l-1.24-0.39l-2.562-4.501c1.218-2.282,3.448-7.964,3.883-10.434
	c0.064-0.362-0.144-7.629-0.169-7.866c-0.016-0.157-0.908-4.511-0.92-4.537c-0.031-0.07-2.335-3.003-2.535-3.26l-2.063-0.372
	c-2.142,0.819-4.876,2.166-6.489,3.862c-0.973,1.023-1.771,2.432-2.803,3.373l-2.161,1.425l-1.08,0.713l-3.293-0.347
	c-1.605-2.434-1.961-6.205-1.84-9.072l-4.588-3.218l-1.197,1.682c-1.237,0.449-3.558,1.128-4.909,0.93l-3.419-6.14
	c-0.048-0.086,0.018-1.458-0.036-1.657c-0.271-1.002-1.833-2.952-2.545-3.673l-0.483-3.304l1.635-0.449l1.197-1.68
	c-0.228-2.405-0.866-4.668-1.384-7.012c-0.172-0.776-0.214-1.732-0.464-2.475c-0.436-1.296-3.022-7.617-3.884-8.615
	c-0.032-0.037-2.304-1.48-2.497-1.605l-1.305-3.287c0.723-1.071,1.367-2.219,1.982-3.354l-0.447-1.647
	c-1.243,0.026-3.352-0.136-4.516,0.093c-0.056,0.011-4.803,1.715-4.892,1.76c-0.899,0.453-2.004,1.508-2.829,2.129l-1.297-2.871
	c0.383-1.399,0.643-3.261,1.135-4.58c0.316-0.848,0.815-1.675,1.179-2.509c0.984-2.251,2.103-4.719,2.724-7.099
	c0.694-2.662,0.787-8.001,0.588-10.78c-1.393-1.211-2.815-2.403-4.185-3.639c-0.641-0.578-1.394-1.575-2.099-2.028
	c-1.24-0.797-2.845-1.269-4.149-1.985c-2.504-1.373-3.74-4.189-3.848-6.96c1.233-0.631,3.057-3.043,3.607-4.216
	c0.336-0.716,0.468-2.616-0.072-3.312c-0.809-0.996-2.911-1.656-4.142-1.569c-1.529,0.911-3.021,1.936-4.454,2.991
	c-1.899,0.295-4.382-0.067-6.178-0.7c-0.21-0.713-0.382-3.079-0.081-3.725l1.834-2.971l0.828-1.559l0.879,0.615
	c1.577-1.426,2.45-2.694,3.359-4.539l0.095-0.186l-0.079-1.305c-0.967-1.061-2.116-2.126-2.976-3.257
	c-0.58-0.763-1.007-2.163-1.423-3.053l-2.473-0.844c-0.331-0.477-2.229-2.958-2.147-3.397c0.927-1.098,1.934-1.921,3.045-2.855
	c1.99-0.406,4.079,1.393,6.309,1.084c2.736-0.379,5.458-1.632,8.194-1.975c1.039-0.13,2.351,0.094,3.403,0.134l1.201,1.124
	l0.845-0.231c2.935-0.802,2.151-0.126,4.798,0.01c0.954,0.049,2.057-0.107,3.019-0.157c0.045-0.002,4.139,1.765,4.787,2.033
	c0.919-0.51,2.165-1.407,3.135-1.742c0.034-0.012,1.701,0.021,1.848,0.023l2.067-1.9c0.622-2.075,1.223-4.156,1.833-6.235
	c2.814-0.914,4.869-0.875,5.7-4.119c0.012-0.047-0.244-2.508-0.258-2.651l0.699-1.241c2.847-0.26,1.378-0.579,4.057,2.028
	c1.766-0.538,2.945-1.184,4.604-2.057l1.365,0.064l0.078,1.206c-0.421,0.823-1.188,1.964-1.449,2.826
	c-0.013,0.041,0.058,1.606,0.063,1.754c0.007,0.196,1.306,1.27,1.497,1.445l2.183,0.414l0.662,1.311
	c2.703,1.346,3.707,1.36,7.024,2.121c0.389,1.803,0.638,3.615,0.455,5.448l1.644,0.46l0.803-1.678
	c0.278-0.099,2.158-0.787,2.2-0.787c0.885,0.002,3.375,0.46,4.067,1.166l1.181,2.523l1.544,0.699l1.002,1.41
	c0.118,1.921,0.396,3.869,0.594,5.786l0.415,0.441l0.83,0.882c1.719,1.021,3.92,0.85,5.769,1.474c2.404,0.812,4.913,1.76,7.496,1.76
	c1.318,0,2.726-0.523,4.043-0.519c0.229,0.001,2.934,1.284,3.379,1.358c1.692,0.282,3.863-0.6,4.919-0.554
	c0.09,0.004,4.317,0.778,4.357,0.793c1.367,0.518,3.477,1.934,4.818,2.68l0.877-0.181l1.286-1.375
	c0.751,1.067,5.162,1.787,6.41,1.969c2.624,0.384,5.316,0.677,7.921,1.16c0.723,0.134,1.452,0.538,2.173,0.711
	c1.896,0.456,3.844,0.798,5.754,1.194c1.787,0.371,3.645,1.526,5.317,2.313l2.509,3.98c1.959,3.108,3.465,6.675,5.134,9.964
	c1.083,2.135,4.772,8.335,4.278,10.552c-0.211,0.945-0.826,1.869-1.044,2.814c-0.011,0.049,0.193,1.697,0.221,1.952
	c-0.683,1.417-0.784,0.805,0.016,1.999l-1.193,1.614c0.181,0.752,0.327,1.515,0.489,2.272l1.28,0.688l0.083,0.402l-1.081,0.513
	l-0.283,0.612c0.344,1.414,0.132,2.672-0.127,4.061c-0.142,0.763-0.534,3.626-0.97,4.161l-0.626,0.209l-0.146,0.577l0.42,1.247
	l-0.237,0.752l-0.761,0.25l-0.394,1.806c-0.53,0.331-1.246,1.153-1.37,1.789l-1.491,0.862c-0.433,0.948-0.513,2.495-0.451,3.508
	c-0.443,0.454-1.032,1.311-1.14,1.958c0.851,0.333,1.73,0.76,2.599,1.014c0.449,0.131,1.125,0.031,1.543,0.216l9.811,4.341
	c1.821,0.806,3.802,1.894,5.679,2.517c0.044,0.015,1.578-0.053,1.727-0.058c0.624-0.501,2.311-1.737,3.14-1.847l1.432,0.991
	l0.642,2.033l1.002,0.694l1.602-0.076c1.106-0.93,2.308-2.426,2.834-3.787l1.9-0.594c0.724,0.097,3.118,1.522,3.449,1.853
	c1.036,1.037,3.36,4.536,4.482,6.06c0.565,0.226,7.702,3.091,7.738,3.088c3.976-0.377,3.592-0.324,7.381,1.306
	c0.095,0.041,2.554,0.319,2.75,0.343c0.807,0.75,3.074,3.295,2.955,4.539c-1.436,1.668-1.328,3.07-1.475,5.075
	c1.14,0.064,5.227,0.165,5.754,0.56l0.231,0.734c-0.033,0.234-0.317,0.642-0.493,0.798l0.089,1.119l0.461,0.146
	c0.7,0.227,1.5,0.571,2.214,0.717c1.284,0.262,2.793-0.036,4.111,0.134c0.964,0.125,1.931,0.3,2.892,0.449l1.097,0.891l-0.996,1.375
	c-0.879,0.438-2.084,0.719-3.025,1.043l-1.296,1.8l0.227,3.158c1.626,0.086,3.251,0.213,4.876,0.321l0.793-0.798l0.771,0.11
	l0.755,0.693l1.224-0.991c0.809,0.047,1.885-0.217,2.588-0.617l-0.101-2.022c0.974,0.231,3.104-1.307,5.009-1.241
	c1.929,0.066,3.865,0.372,5.795,0.46c2.807,0.129,5.654,0.062,8.467,0.087l0.416,0.88c-0.102,1.077-0.372,2.356-0.32,3.414
	c0.055,1.123,0.45,2.311,0.456,3.426c0.006,1.267-1.425,3.769-2.135,4.726l0.193,2.121l5.041,7.965
	c2.81,0.496,3.998-0.699,5.433-0.699c0.535,0,0.812,0.204,1.332,0.334c1.434,0.359,2.928,0.842,4.385,1.099
	c1.776,0.313,3.696,0.297,5.443,0.706c1.177,0.275,2.78,0.728,3.89,1.194c0.608,0.255,1.223,0.872,1.811,1.2
	c0.278,0.155,0.862,0.26,1.198,0.362l4.834-4.026c0.692-0.064,1.429-0.033,2.125-0.047c0.736-0.729,1.564-1.737,2.379-2.354
	c0.545-0.412,1.474-0.54,2.005-0.962c0.853-0.676,1.715-1.795,2.477-2.593c0.669-0.009,5.315-0.099,5.464-0.059
	c1.569,0.431,3.253,1.061,4.908,0.985l0.706-0.513c1.78-1.294,1.483-1.166,2.455-3.059l0.173-0.344
	c1.08,0.075,2.176-0.478,3.156-0.845c0.252-0.094,1.216-1.321,1.454-1.596c0.793,0.243,2.524,0.402,3.292-0.059l3.836-4.435
	l1.502-0.25l1.05-1.229l1.443,0.227l1.785-3.519l1.234-0.228c1.078,0.769,1.271,1.28,1.952,2.383l1.308-0.018
	c1.608-1.216,1.878-3.127,2.97-4.644l0.991-0.746l0.495-0.373c0.894-0.049,2.387,0.855,2.861,1.567
	c0.658,0.989,0.954,2.321,1.606,3.315c0.389,0.592,1.351,0.846,1.995,0.973c1.264,0.249,2.679,0.416,3.91,0.769
	c0.597,0.171,1.363,0.707,1.934,1.002c0.917,0.474,2.039,0.912,2.884,1.486c1.194,0.81,2.554,1.727,3.655,2.651
	c1.873,1.573,2.731,7.262,2.592,9.754c-0.084,1.509-0.558,3.109-0.561,4.609c-0.002,0.993,0.529,2.103,0.545,3.1
	c0.015,0.95-0.924,2.217-1.002,3.199c-0.189,2.392-0.575,4.964-0.583,7.354c-0.004,1.279,0.86,4.243,1.884,5.209v1.923
	c0.791,0.911,1.66,2.126,2.825,2.634c1.957,0.854,3.861,1.787,5.89,2.447c0.22,0.072,2.764,0.885,2.807,0.915
	c0.491,0.335,0.66,0.655,1.082,1.074c1.347,1.338,2.716,2.811,4.487,3.611l1.35,0.035l1.145-1.317l1.018-0.023
	c0.954,0.529,3.126,2.223,3.139,3.415c-0.049,1.287-1.461,3.761-2.115,4.807l0.829,1.37l1.801-0.938l1.187,0.519l0.598-0.779
	l1.197-1.558c0.448-0.428,2.276-0.667,2.862-0.629l0.771-2.057c0.333-0.378,1.181-0.594,1.658-0.571
	c0.833-1.035,1.996-2.113,3.145-2.791l1.238,0.169l0.924-1.212c0.636-0.243,1.79,0.046,2.341,0.379l0.761-0.152
	c0.223-0.677,0.62-1.546,0.735-2.237c0.025-0.152-0.195-0.994-0.169-1.142c0.112-0.641,0.517-1.477,0.735-2.104
	c0.026-0.073,0.172-0.254,0.221-0.326c0.786-1.171,1.705-3.1,3.223-3.473l3.932,0.751c1.136-0.78,2.797-2.176,3.995-2.744
	l3.113-0.629l3.566,1.111l2.798,0.874c0.198,0.062,0.333,0.047,0.508,0.159c0.065,0.042,1.032,1.11,1.149,1.235
	c0.206,0.221,7.098,3.911,7.833,4.312c0.049,0.027,3.178,0.708,3.501,0.78c0.322,1.063,0.636,2.13,0.976,3.188
	c0.376,0.08,0.879,0.249,1.255,0.268c0.994,0.05,3.161-0.68,4.352-0.845c1.553-0.215,3.556,0,5.118,0.005l0.682,2.867l3.506,2.133
	l2.274-0.076c0.74-1.835,2.849-3.972,4.313-5.215c2.502,0.042,4.952,0.032,7.424,0.42c0.808-0.358,2.002-1.069,2.839-1.259
	c0.166-0.038,5.87,0.233,6.315,0.25l-0.078,2.5c3.022,0.407,6.198,1.343,9.044,2.412l1.559,2.506
	c1.309,0.552,2.754,1.344,4.101,1.719c0.761,0.212,1.754,0.253,2.546,0.367c1.404,0.449,3.006,0.82,4.246,1.398
	c2.667,1.243,5.856,3.794,8.478,4.953c1.514,0.669,3.437,0.181,5.003,0.454c0.675,0.118,1.64,0.732,2.312,1.029
	c0.099,0.044,0.174,0.04,0.255,0.113c1.364,1.222,1.39,2.647,2.279,4.026c0.708,1.098,3.197,4.438,4.566,4.784
	c2.967,0.75,6.131,1.19,8.83,2.657c0.286,0.723,0.529,1.466,0.793,2.197c2.207,0.907,4.395,1.958,6.609,2.727
	c2.224,0.771,4.51,0.68,5.933,2.762l1.012,1.48l2.797-0.093l1.034,2.156c0.663,0.651,2.3,0.853,3.156,0.688
	c0.115-0.068,1.887-1.098,1.921-1.142c2.095-2.754,1.989-2.677,3.339-5.903c4.029,1.537,9.739,4.308,14.242,3.543
	c0.294-0.211,3.807-2.765,3.91-2.803c0.087-0.032,2.333-0.354,2.572-0.39c0.051-0.008,2.393-1.368,2.61-1.492
	c0.583-1.923,1.18-3.842,1.753-5.769c1.814-0.018,3.635,0.034,5.449,0.052l0.556-4.702c3.038-1.485,3.558-2.177,7.055-1.783
	c0.139,0.016,0.665,0.093,0.726,0.082c2.604-0.483,3.915-0.61,6.386-1.626c0.381-0.157,0.653-0.148,0.978-0.402
	c0.167-0.13,2.672-3.06,2.976-3.408c0.059-0.068,0.775-0.557,0.892-0.641c0.306-1.069,1.143-2.268,1.9-3.059l0.598-4.411
	l4.788-0.157c0.302,2.92,0.443,6.008,0.918,8.897c0.137,0.829,0.77,1.715,0.966,2.546c0.255,1.082,0.31,2.368,0.456,3.478
	c0.423,3.231,0.623,6.477,0.878,9.725c0.056,0.715,0.507,1.753,0.701,2.418c0.074,0.255,0.03,0.441,0.19,0.653
	c0.465,0.615,0.84,0.865,1.377,1.418c2.892,2.976,5.353,5.05,8.497,7.73c0.307,0.262,0.729,0.348,1.094,0.521
	c2.272,1.079,4.714,1.009,7.195,0.715l0.125-2.021l4.955,0.238l0.242,1.311l1.626,0.303l2.437-1.929l2.871,0.594l2.715,2.797
	l0.493,5.139l7.947,1.276c0.89,1.131,2.371,2.462,3.738,2.989c1.342-0.072,1.745-0.05,2.121-0.14
	c0.386-0.092,0.744-0.302,2.058-0.851c0.047-0.095,0.554-1.088,0.557-1.119c0.133-1.306,0.181-3.824,0.509-5.005l1.179-2.136
	l0.59-1.068l0.918-0.111c0.48-0.429,1.273-1.322,1.801-1.614c1.535-0.85,3.185-1.95,4.782-2.646c0.843-0.367,2.401-0.708,3.318-0.88
	c0.84-0.158,1.773-0.06,2.608-0.233c0.687-0.143,1.373-0.559,2.058-0.734c0.938-0.24,1.965-0.364,2.919-0.542
	c0.116-0.021,0.586-0.13,0.676-0.128c1.673,0.038,3.764-0.131,5.396,0.122c0.064,0.01,2.439,1.032,2.657,1.125
	c0.354,0.15,0.677,0.658,1.024,0.856c1.844,1.059,3.908,1.797,5.868,2.605c0.106,0.167,1.174,1.893,1.223,1.934
	c1.203,1.032,4.827,2.79,6.41,3.397l0.08,1.596l2.834,0.169c2.948-2.9,3.984-2.249,7.806-2.132l0.557-0.601l0.247-1.293
	c0.776-1.1,2.738-1.739,3.906-2.29c0.042-0.02,1.209-1.199,1.306-1.294l-0.829-3.123l3.528-0.187l1.306,0.668
	c3.313,1.696,2.681,1.412,5.113,4.057l0.216,0.239c0.916-0.71,2.884-1.311,4.042-0.984l2.11,1.439l3.292-4.726l-0.479-1.316
	l0.195-1.055l-0.388-1.078c1.194-0.903,2.521-3.004,2.703-4.51c1.484,0.626,2.973,1.241,4.451,1.882l0.856,1.387l1.884,0.997
	l0.966,2.167l2.819,0.652c0.099-0.942,1.531-2.314,2.247-2.791l-0.006-2.074c0.077-0.12,0.899-1.433,0.93-1.457l2.278-1.313
	c1.226-0.707,2.509-1.595,3.544-2.574c0.657,1.15,2.727,4.369,2.839,5.524l-1.539,2.005c1.629-0.062,3.172,0.293,4.747,0.646
	l0.204,0.827l-1.816,1.754c0.834,0.959,3.426,3.707,4.667,4.317l9.019,4.44l0.97,4.143c0.894,0.973,2.845,2.031,4.194,2.068
	l2.069-0.915c0.03-0.249,0.354-3.01,0.378-3.071l1.968-2.942c0.054-0.057,1.947-1.317,2.137-1.445
	c2.121-1.434,5.022-5.208,7.396-5.594l0.683-1.171c-0.234-0.906-0.435-1.822-0.652-2.733l1.103-0.862l-0.741-1.673
	c0.551-0.569,1.684-1.458,1.87-2.237c0.042-0.175,0.508-2.053,0.498-2.092c-0.593-2.271-1.332-4.582-1.799-6.881l1.595-2.138
	l-0.526-1.906l2.454,0.724l0.809-0.422l6.104-0.919l1.595-2.481l1.589-2.891l5.286-0.904l2.029-0.852l2.031-0.442l-1.546,5.756
	l-2.01,2.079L941.435,246l-0.756,4.105l0.477,4.905l1.626-0.436l1.236,0.799l3.302,2.812l2.464,1.187l1.247,1.617l2.476,2.008
	l2.079,2.83l-0.791,1.651l-1.229-0.39l-4.862,2.127l-1.625,0.434l-1.612,1.254l0.858,2.851l2.865,0.772l2.854-0.046l2.846-0.455
	l2.062,1.604l2.062,1.603l1.262,2.436l-0.788,2.06l-1.199,1.658l-2.463-1.189l-0.816,0.015l-1.996,2.897l-1.998,2.897l-2.81,2.912
	l-2.794,4.14l-3.254,0.461l-3.239,1.691l-4.04,2.521l-0.377,2.051l-2.003,2.49l-4.452,2.119l-3.227,2.507l-2.817,2.503l-1.206,1.248
	l-1.601,2.073l-2.462-1.189l-3.238,1.691l-1.193,2.066l-2.853,0.046l-0.378,2.052l0.035,2.457l-2.855,0.046l-4.075,0.065
	l0.047,3.275l-2.014,1.669l-0.359,3.281l2.468,1.597l0.072,4.911l1.253,2.027l-1.207,1.248l-3.68-0.759l-1.595,2.482l-3.26,0.052
	l-3.706-2.396l-0.868-3.669l-5.245,3.77l-3.203,4.146l-2.404,2.903l-3.609,4.151l0.879,4.49l-0.767,3.287l-1.181,2.884l0.467,4.084
	l0.036,2.457l-2.385,4.132l0.424,1.221l0.434,1.63l1.25,2.026l0.852,2.442l0.035,2.455l3.261-0.053l2.466,1.187l2.066,2.014
	l3.655-0.878l2.868,0.773l-1.187,2.474l1.239,1.208l2.471,1.599l0.438,2.039l-0.787,2.058l0.857,2.853l-1.181,2.885l0.012,0.818
	l2.859,0.363l2.434-0.857l1.663,2.018l0.441,2.45l2.47,1.597l2.086,3.241l2.457,0.778l1.612-1.254l3.704,2.396l0.839,1.624
	l0.453,2.859l2.437-0.449l3.305,2.812l1.658,2.02l0.061,4.09l-0.773,2.878l-1.187,2.476l-1.194,2.066l-0.376,2.054l0.832,1.212
	l-0.359,3.281l-1.582,3.3l-0.77,3.288l-0.372,2.463l2.483,2.415l2.468,1.599l2.075,2.421l0.87,3.671l0.023,1.637l-1.606,1.663
	l-2.879-1.59l-2.062-1.603l-2.042-0.377l-4.072,0.476l-3.26,0.053l-1.686-3.657l-3.29-1.993l-5.305-0.324l-2.832,1.683l-1.598,2.073
	l-2.868-0.771l-2.787,4.548l-1.164,4.111l-0.349,4.1l-0.38,1.645l-2.052-0.787l-2.428,1.27l-2.806,3.319l-1.211,0.839l-3.68-0.76
	l-2.021,1.261l-1.979,4.126l-0.78,2.467l0.053,3.684l1.655,1.611l1.289,4.481l0.456,3.268l2.08,2.831l4.14,4.434l2.885,2.001
	l1.672,2.839l0.06,4.09l-0.78,2.469l-1.595,2.482l-4.064,0.885l-3.28-1.175l-3.265-0.357l-0.798,1.242l0.461,3.675L868.556,521.043
	L868.556,521.043z"/>
<path fill-rule="evenodd" clip-rule="evenodd" fill="none" stroke="#646464" stroke-width="3.9685" stroke-linejoin="round" stroke-miterlimit="3.8637" d="
	M984.348,290.344c-0.158,0.02-3.696,0.436-3.816,0.489c-0.962,0.425-1.968,0.954-2.956,1.305c-0.506,0.18-1.22,0.134-1.7,0.35
	c-1.663,0.749-1.728,3.942-3.333,5.239c-0.303,0.959,0.256,2.751,0.746,3.555l-0.357,1.375l1.564,4.161l-0.986,3.898
	c-1.456,1.084-4.342,0.677-5.214,3.292c-1.722,0.598-4.942,2.176-6.63,1.62c-0.65,1.059-2.331,2.337-3.576,2.529
	c-3.184-1.408-4.502-2.888-7.963-0.723l1.029,3.152l-1.475,1.288l-1.753-0.443l-0.284,0.431l0.111,0.496l0.509,0.379l-0.7,0.676
	c-1.158,0.244-2.137,0.46-3.312-0.029l-0.372,1.271c-0.405,0.399-1.296,0.676-1.849,0.664l-0.883,0.886
	c0.367,0.993-0.093,2.774-0.66,3.607l0.424,1.305c-0.718,2.557-3.089,4.005-3.375,5.781l0.588,1.667l-0.887,0.979l0.619,0.874
	l1.177-0.565c0.484,0.065,0.674,0.726,0.972,1.02c1.264,1.249,2.331,0.271,2.288,2.908l-0.241,0.478l-0.904,0.309l-0.278,2.162
	l-1.076,0.344l-0.242,0.431l0.715,0.746l-0.201,1.457c0.351,0.387,1.246,1.005,1.807,0.973l-0.578,1.037
	c-2.098,0.971-3.938,1.461-6.2,2.092l-0.34,0.653c0.276,0.652,0.075,1.94-0.168,2.563c-0.729-0.105-1.492-0.114-2.226-0.076
	l-1.191,0.863l0.236,3.193l-2.306,1.049l-0.052,1.107l-1.302,1.189l0.625,1.089l1.549,0.752l0.011,0.769l-0.163,0.146
	c-0.851,0.753-2.042,2.09-2.992,2.646c-0.84,0.491-2.741,0.27-3.365,1.195c0.285,0.93,0.234,2.318-0.1,3.229
	c0.843,1.522,0.773,3.946,2.073,5.011c-0.986,0.847-1.893,2.388-1.229,3.701c0.576,0.47,1.808,1.045,2.577,0.99l0.21,1.119
	l0.877-0.758l0.431,0.198c0.358,0.65,0.049,2.88,0,3.771l-1.129,0.519l-0.152,0.396l0.888,1.725l-0.936,1.107
	c-0.047,0.842,0.18,1.959,0.578,2.704l1.255,0.926l-0.021,2.506l4.86,0.705l0.614,1.235c-0.093,0.639-0.219,1.275-0.33,1.911
	l0.398,0.746l1.522,0.215c0.53-0.082,1.313-1.389,1.618-1.806c0.033-0.045,1.527-0.652,1.617-0.74
	c1.638-1.608,1.757-2.66,4.357-2.546l0.173,0.012c0.967,0.403,1.632,2.119,2.115,2.989l1.318-2.541l2.598-0.163l0.914-2.081
	l0.636-0.303l2.666,0.414l1.339-0.903l1.102,0.052c2.168,1.145,2.035,3.458,1.459,5.565l1.024,1.737l0.326,0.122
	c0.253,0.094,2.247,0.799,2.357,0.874c1.551,1.061,6.271,4.797,6.073,7.378l1.366-0.461l2.184,0.49
	c0.183,0.223,1.479,1.833,1.584,1.906c1.681,1.156,3.276,2.033,4.767,3.514l-0.841,1.451l0.163,0.589l3.371,2.669l0.34,0.886
	l2.005,0.146l-0.052,2.069c0.319,0.706,1.915,1.168,2.578,1.235"/>
<polyline fill-rule="evenodd" clip-rule="evenodd" fill="none" stroke="#646464" stroke-width="2.5512" stroke-linejoin="round" stroke-miterlimit="3.8637" points="
	925.522,245.085 927.976,245.809 928.785,245.387 934.888,244.468 936.483,241.987 938.072,239.096 943.358,238.192 945.387,237.34 
	947.418,236.897 945.872,242.654 943.863,244.732 941.435,246 940.679,250.105 941.156,255.01 942.782,254.574 944.018,255.373 
	947.32,258.184 949.784,259.371 951.031,260.988 953.507,262.996 955.586,265.826 954.795,267.477 953.567,267.087 948.704,269.214 
	947.079,269.648 945.468,270.903 946.325,273.753 949.19,274.526 952.044,274.479 954.89,274.024 956.952,275.629 959.014,277.232 
	960.276,279.667 959.488,281.727 958.289,283.385 955.826,282.195 955.01,282.21 953.014,285.107 951.016,288.004 948.206,290.916 
	945.411,295.055 942.157,295.516 938.918,297.208 934.878,299.729 934.501,301.78 932.498,304.271 928.046,306.389 924.819,308.896 
	922.001,311.399 920.796,312.647 919.195,314.72 916.733,313.53 913.494,315.221 912.302,317.288 909.448,317.333 909.071,319.385 
	909.105,321.842 906.25,321.888 902.176,321.953 902.223,325.228 900.209,326.897 899.85,330.178 902.318,331.775 902.39,336.686 
	903.643,338.712 902.437,339.96 898.757,339.201 897.162,341.683 893.902,341.735 890.197,339.34 889.328,335.67 884.083,339.44 
	880.881,343.585 878.477,346.489 874.868,350.64 875.747,355.13 874.981,358.417 873.8,361.301 874.267,365.386 874.303,367.843 
	871.918,371.975 872.342,373.196 872.776,374.826 874.026,376.853 874.878,379.294 874.913,381.749 878.174,381.696 880.64,382.883 
	882.706,384.897 886.361,384.019 889.229,384.792 888.042,387.266 889.281,388.474 891.752,390.073 892.191,392.112 891.404,394.17 
	892.261,397.023 891.08,399.908 891.092,400.726 893.951,401.088 896.385,400.231 898.048,402.249 898.489,404.699 900.959,406.295 
	903.045,409.536 905.502,410.314 907.114,409.061 910.818,411.456 911.657,413.08 912.11,415.939 914.547,415.49 917.851,418.301 
	919.51,420.321 919.57,424.412 918.797,427.29 917.611,429.766 916.417,431.832 916.04,433.886 916.872,435.098 916.513,438.379 
	914.932,441.679 914.162,444.966 913.79,447.429 916.273,449.844 918.741,451.442 920.816,453.863 921.685,457.534 921.708,459.171 
	920.102,460.834 917.223,459.244 915.161,457.641 913.119,457.264 909.047,457.74 905.787,457.792 904.102,454.136 900.812,452.143 
	895.507,451.819 892.675,453.502 891.077,455.575 888.21,454.803 885.423,459.351 884.259,463.462 883.91,467.562 883.53,469.207 
	881.478,468.419 879.05,469.689 876.243,473.008 875.032,473.847 871.353,473.087 869.331,474.348 867.353,478.475 866.573,480.941 
	866.626,484.625 868.281,486.236 869.571,490.717 870.027,493.985 872.107,496.816 876.246,501.25 879.132,503.251 880.804,506.09 
	880.864,510.181 880.083,512.649 878.489,515.132 874.424,516.017 871.144,514.842 867.879,514.485 867.081,515.728 
	867.542,519.403 870.048,523.456 870.095,526.73 870.557,530.406 869.796,534.102 868.211,537.402 866.227,541.119 865.826,541.535 
	866.281,544.803 868.355,547.224 870.434,550.056 872.905,551.652 875.771,552.426 879.05,553.599 881.117,555.613 883.629,560.075 
	884.899,563.329 885.391,569.051 885.656,573.073 888.856,579.027 890.456,583.266 890.656,595.981 885.717,601.91 884.403,605.281 
	883.75,607.975 883.43,611.337 881.781,613.37 878.791,613.062 878.452,611.05 878.774,608.696 878.108,607.695 876.78,607.708 
	876.127,610.066 875.476,613.431 875.149,615.115 876.156,617.792 878.154,619.452 880.48,620.773 884.129,620.064 886.785,620.375 
	888.782,622.034 889.788,624.377 889.137,627.071 887.819,630.106 887.497,632.46 890.823,634.109 893.484,636.433 892.826,637.784 
	889.849,639.828 889.861,642.179 891.528,644.178 889.204,644.537 885.549,643.565 885.226,645.583 886.23,647.589 885.786,651.54 
	883.805,652.811 881.064,656.14 877.484,657.451 874.274,657.527 871.833,655.951 869.376,653.562 866.125,651.598 862.908,651.267 
	862.576,654.54 864.998,655.299 867.424,656.056 868.677,658.475 867.133,661.37 867.585,663.808 866.817,665.458 867.287,668.712 
	868.457,667.053 868.838,666.226 870.059,667.015 870.103,669.054 871.298,668.616 872.91,668.987 872.152,671.045 870.188,673.132 
	872.237,675.125 873.475,676.728 871.085,677.601 868.277,677.668 868.338,680.523 866.794,683.417 866.862,686.68 869.661,686.206 
	870.481,687.002 867.33,689.934 865.378,692.43 865.039,695.293 862.732,700.247 861.584,702.722 859.664,706.85 857.342,710.987 
	855.765,712.248 852.583,713.549 851.002,714.81 850.261,717.686 849.092,719.345 847.112,720.616 844.321,721.499 843.556,723.15 
	842.377,724.403 839.552,723.654 838.699,721.225 836.711,722.086 836.31,722.097 837.155,724.118 837.59,725.741 837.225,727.381 
	838.87,729.383 841.27,728.917 844.086,729.259 845.75,732.076 845.791,734.115 849.043,736.079 849.923,739.731 847.568,742.236 
	842.763,742.758 838.344,742.457 834.307,741.328 829.478,740.625 827.49,741.489 829.521,742.666 831.168,744.667 831.219,747.113 
	828.019,747.598 826.074,750.501 826.118,752.541 826.57,754.979 822.166,755.492 818.48,751.907 815.219,749.536 811.236,750.854 
	811.303,754.118 812.544,755.721 812.309,757.06 "/>
<path fill-rule="evenodd" clip-rule="evenodd" fill="none" stroke="#646464" stroke-width="2.5512" stroke-linejoin="round" stroke-miterlimit="3.8637" d="
	M28.209,754.288c0.806-3.102,2.42-4.364,3.786-7c1.503-2.9,2.758-5.983,3.822-9.07c0.277-0.803,0.443-1.675,0.75-2.465
	c0.703-1.807,1.579-3.556,2.294-5.359c1.27-3.204,2.346-6.421,3.273-9.736c0.194-0.694,0.391-1.067,0.498-1.78
	c0.174-1.167-0.06-2.874-0.085-4.08l-2.057-2.4c0.209-2.226,1.817-5.23,3.062-7.01c2.358-1.069,4.656-2.721,6.732-4.241
	c-0.81-1.308-1.785-2.661-2.49-4.021c-0.251-0.484-1.092-2.982-1.271-3.235c-0.817-1.153-2.517-2.018-3.28-3.188
	c-0.014-0.021-1.672-4.341-1.697-4.447l-0.336-3.257c-0.252-2.44-0.479-4.885-0.689-7.33c1.879-1.828,6.801-4.979,9.136-5.911
	c2.463-0.982,5.411-1.256,7.82-2.327c0.616-0.273,1.781-1.045,2.918-1.826"/>
<path fill-rule="evenodd" clip-rule="evenodd" fill="none" stroke="#646464" stroke-width="3.9685" stroke-linejoin="round" stroke-miterlimit="3.8637" d="
	M-2.026,51.604c0.957,1.182,1.963,2.363,2.79,3.586c0.453,0.67,0.706,1.652,1.202,2.272c0.509,0.637,1.491,1.323,2.115,1.876
	c1.904,1.689,4.254,2.989,6.351,4.422c0.698,0.477,1.378,0.999,2.226,1.183l0.813,1.55c-0.069,1.421-0.397,4.06,0.21,5.296
	l1.03,1.29c0.616,0.772,1.806,1.635,2.739,2.008l0.332,1.405c1.443,0.22,2.894,0.467,4.345,0.617l0.773-1.189l0.803-0.081
	c1.742,1.223,2.77,0.668,4.425-0.099l0.63-0.967l0.807-0.256c0.262-3.172,2.373-2.301,2.936-3.566l-0.258-1.2l0.316-0.396
	c0.688-0.093,2.11-0.484,2.604-1.037l0.068-2.925c1.438-0.776,3.404-4.044,4.121-5.413c-0.753-0.562-4.542-3.519-4.745-4.563
	l0.598-1.544l2.473-1.975c0.111-0.819,0.251-1.875,0.074-2.698l-0.72-0.052l-0.483-0.938l-1.339-0.233
	c0.169-0.644,0.318-1.297,0.51-1.935c4.137,0.243,44.295,2.644,44.414,2.704l16.767,8.478c3.562,1.625,7.178,3.201,10.608,5.011
	c3.776,1.993,7.506,4.096,11.255,6.141c1.979,1.08,4.678,3.219,6.704,4.603c1.577-1.426,2.45-2.694,3.359-4.539l0.095-0.186
	l-0.079-1.305c-0.967-1.061-2.116-2.126-2.976-3.257c-0.58-0.763-1.007-2.163-1.423-3.053l-2.473-0.844
	c-0.331-0.477-2.229-2.958-2.147-3.397c0.927-1.098,1.934-1.921,3.045-2.855c1.99-0.406,4.079,1.393,6.309,1.084
	c2.736-0.379,5.458-1.632,8.194-1.975c1.039-0.13,2.351,0.094,3.403,0.134l1.201,1.124l0.845-0.231
	c2.935-0.802,2.151-0.126,4.798,0.01c0.954,0.049,2.057-0.107,3.019-0.157c0.045-0.002,4.139,1.765,4.787,2.033
	c0.919-0.51,2.165-1.407,3.135-1.742c0.034-0.012,1.701,0.021,1.848,0.023l2.067-1.9c0.622-2.075,1.223-4.156,1.833-6.235
	c2.814-0.914,4.869-0.875,5.7-4.119c0.012-0.047-0.244-2.508-0.258-2.651l0.699-1.241c2.847-0.26,1.378-0.579,4.057,2.028
	c1.766-0.538,2.945-1.184,4.604-2.057l1.365,0.064l0.078,1.206c-0.421,0.823-1.188,1.964-1.449,2.826
	c-0.013,0.041,0.058,1.606,0.063,1.754c0.007,0.196,1.306,1.27,1.497,1.445l2.183,0.414l0.662,1.311
	c2.703,1.346,3.707,1.36,7.024,2.121c0.389,1.803,0.638,3.615,0.455,5.448l1.644,0.46l0.803-1.678
	c0.278-0.099,2.158-0.787,2.2-0.787c0.885,0.002,3.375,0.46,4.067,1.166l1.181,2.523l1.544,0.699l1.002,1.41
	c0.118,1.921,0.396,3.869,0.594,5.786l0.415,0.441l0.83,0.882c1.719,1.021,3.92,0.85,5.769,1.474c2.404,0.812,4.913,1.76,7.496,1.76
	c1.318,0,2.726-0.523,4.043-0.519c0.229,0.001,2.934,1.284,3.379,1.358c1.692,0.282,3.863-0.6,4.919-0.554
	c0.09,0.004,4.317,0.778,4.357,0.793c1.367,0.518,3.477,1.934,4.818,2.68l0.877-0.181l1.286-1.375
	c0.751,1.067,5.162,1.787,6.41,1.969c2.624,0.384,5.316,0.677,7.921,1.16c0.723,0.134,1.452,0.538,2.173,0.711
	c1.896,0.456,3.844,0.798,5.754,1.194c1.787,0.371,3.645,1.526,5.317,2.313l2.509,3.98c1.959,3.108,3.465,6.675,5.134,9.964
	c1.083,2.135,4.772,8.335,4.278,10.552c-0.211,0.945-0.826,1.869-1.044,2.814c-0.011,0.049,0.193,1.697,0.221,1.952
	c-0.683,1.417-0.784,0.805,0.016,1.999l-1.193,1.614c0.181,0.752,0.327,1.515,0.489,2.272l1.28,0.688l0.083,0.402l-1.081,0.513
	l-0.283,0.612c0.344,1.414,0.132,2.672-0.127,4.061c-0.142,0.763-0.534,3.626-0.97,4.161l-0.626,0.209l-0.146,0.577l0.42,1.247
	l-0.237,0.752l-0.761,0.25l-0.394,1.806c-0.53,0.331-1.246,1.153-1.37,1.789l-1.491,0.862c-0.433,0.948-0.513,2.495-0.451,3.508
	c-0.443,0.454-1.032,1.311-1.14,1.958c0.851,0.333,1.73,0.76,2.599,1.014c0.449,0.131,1.125,0.031,1.543,0.216l9.811,4.341
	c1.821,0.806,3.802,1.894,5.679,2.517c0.044,0.015,1.578-0.053,1.727-0.058c0.624-0.501,2.311-1.737,3.14-1.847l1.432,0.991
	l0.642,2.033l1.002,0.694l1.602-0.076c1.106-0.93,2.308-2.426,2.834-3.787l1.9-0.594c0.724,0.097,3.118,1.522,3.449,1.853
	c1.036,1.037,3.36,4.536,4.482,6.06c0.565,0.226,7.702,3.091,7.738,3.088c3.976-0.377,3.592-0.324,7.381,1.306
	c0.095,0.041,2.554,0.319,2.75,0.343c0.807,0.75,3.074,3.295,2.955,4.539c-1.436,1.668-1.328,3.07-1.475,5.075
	c1.14,0.064,5.227,0.165,5.754,0.56l0.231,0.734c-0.033,0.234-0.317,0.642-0.493,0.798l0.089,1.119l0.461,0.146
	c0.7,0.227,1.5,0.571,2.214,0.717c1.284,0.262,2.793-0.036,4.111,0.134c0.964,0.125,1.931,0.3,2.892,0.449l1.097,0.891l-0.996,1.375
	c-0.879,0.438-2.084,0.719-3.025,1.043l-1.296,1.8l0.227,3.158c1.626,0.086,3.251,0.213,4.876,0.321l0.793-0.798l0.771,0.11
	l0.755,0.693l1.224-0.991c0.809,0.047,1.885-0.217,2.588-0.617l-0.101-2.022c0.974,0.231,3.104-1.307,5.009-1.241
	c1.929,0.066,3.865,0.372,5.795,0.46c2.807,0.129,5.654,0.062,8.467,0.087l0.416,0.88c-0.102,1.077-0.372,2.356-0.32,3.414
	c0.055,1.123,0.45,2.311,0.456,3.426c0.006,1.267-1.425,3.769-2.135,4.726l0.193,2.121l5.041,7.965
	c2.81,0.496,3.998-0.699,5.433-0.699c0.535,0,0.812,0.204,1.332,0.334c1.434,0.359,2.928,0.842,4.385,1.099
	c1.776,0.313,3.696,0.297,5.443,0.706c1.177,0.275,2.78,0.728,3.89,1.194c0.608,0.255,1.223,0.872,1.811,1.2
	c0.278,0.155,0.862,0.26,1.198,0.362l4.834-4.026c0.692-0.064,1.429-0.033,2.125-0.047c0.736-0.729,1.564-1.737,2.379-2.354
	c0.545-0.412,1.474-0.54,2.005-0.962c0.853-0.676,1.715-1.795,2.477-2.593c0.669-0.009,5.315-0.099,5.464-0.059
	c1.569,0.431,3.253,1.061,4.908,0.985l0.706-0.513c1.78-1.294,1.483-1.166,2.455-3.059l0.173-0.344
	c1.08,0.075,2.176-0.478,3.156-0.845c0.252-0.094,1.216-1.321,1.454-1.596c0.793,0.243,2.524,0.402,3.292-0.059l3.836-4.435
	l1.502-0.25l1.05-1.229l1.443,0.227l1.785-3.519l1.234-0.228c1.078,0.769,1.271,1.28,1.952,2.383l1.308-0.018
	c1.608-1.216,1.878-3.127,2.97-4.644l0.991-0.746l0.495-0.373c0.894-0.049,2.387,0.855,2.861,1.567
	c0.658,0.989,0.954,2.321,1.606,3.315c0.389,0.592,1.351,0.846,1.995,0.973c1.264,0.249,2.679,0.416,3.91,0.769
	c0.597,0.171,1.363,0.707,1.934,1.002c0.917,0.474,2.039,0.912,2.884,1.486c1.194,0.81,2.554,1.727,3.655,2.651
	c1.873,1.573,2.731,7.262,2.592,9.754c-0.084,1.509-0.558,3.109-0.561,4.609c-0.002,0.993,0.529,2.103,0.545,3.1
	c0.015,0.95-0.924,2.217-1.002,3.199c-0.189,2.392-0.575,4.964-0.583,7.354c-0.004,1.279,0.86,4.243,1.884,5.209v1.923
	c0.791,0.911,1.66,2.126,2.825,2.634c1.957,0.854,3.861,1.787,5.89,2.447c0.22,0.072,2.764,0.885,2.807,0.915
	c0.491,0.335,0.66,0.655,1.082,1.074c1.347,1.338,2.716,2.811,4.487,3.611l1.35,0.035l1.145-1.317l1.018-0.023
	c0.954,0.529,3.126,2.223,3.139,3.415c-0.049,1.287-1.461,3.761-2.115,4.807l0.829,1.37l1.801-0.938l1.187,0.519l0.598-0.779
	l1.197-1.558c0.448-0.428,2.276-0.667,2.862-0.629l0.771-2.057c0.333-0.378,1.181-0.594,1.658-0.571
	c0.833-1.035,1.996-2.113,3.145-2.791l1.238,0.169l0.924-1.212c0.636-0.243,1.79,0.046,2.341,0.379l0.761-0.152
	c0.223-0.677,0.62-1.546,0.735-2.237c0.025-0.152-0.195-0.994-0.169-1.142c0.112-0.641,0.517-1.477,0.735-2.104
	c0.026-0.073,0.172-0.254,0.221-0.326c0.786-1.171,1.705-3.1,3.223-3.473l3.932,0.751c1.136-0.78,2.797-2.176,3.995-2.744
	l3.113-0.629l3.566,1.111l2.798,0.874c0.198,0.062,0.333,0.047,0.508,0.159c0.065,0.042,1.032,1.11,1.149,1.235
	c0.206,0.221,7.098,3.911,7.833,4.312c0.049,0.027,3.178,0.708,3.501,0.78c0.322,1.063,0.636,2.13,0.976,3.188
	c0.376,0.08,0.879,0.249,1.255,0.268c0.994,0.05,3.161-0.68,4.352-0.845c1.553-0.215,3.556,0,5.118,0.005l0.682,2.867l3.506,2.133
	l2.274-0.076c0.74-1.835,2.849-3.972,4.313-5.215c2.502,0.042,4.952,0.032,7.424,0.42c0.808-0.358,2.002-1.069,2.839-1.259
	c0.166-0.038,5.87,0.233,6.315,0.25l-0.078,2.5c3.022,0.407,6.198,1.343,9.044,2.412l1.559,2.506
	c1.309,0.552,2.754,1.344,4.101,1.719c0.761,0.212,1.754,0.253,2.546,0.367c1.404,0.449,3.006,0.82,4.246,1.398
	c2.667,1.243,5.856,3.794,8.478,4.953c1.514,0.669,3.437,0.181,5.003,0.454c0.675,0.118,1.64,0.732,2.312,1.029
	c0.099,0.044,0.174,0.04,0.255,0.113c1.364,1.222,1.39,2.647,2.279,4.026c0.708,1.098,3.197,4.438,4.566,4.784
	c2.967,0.75,6.131,1.19,8.83,2.657c0.286,0.723,0.529,1.466,0.793,2.197c2.207,0.907,4.395,1.958,6.609,2.727
	c2.224,0.771,4.51,0.68,5.933,2.762l1.012,1.48l2.797-0.093l1.034,2.156c0.663,0.651,2.3,0.853,3.156,0.688
	c0.115-0.068,1.887-1.098,1.921-1.142c2.095-2.754,1.989-2.677,3.339-5.903c4.029,1.537,9.739,4.308,14.242,3.543
	c0.294-0.211,3.807-2.765,3.91-2.803c0.087-0.032,2.333-0.354,2.572-0.39c0.051-0.008,2.393-1.368,2.61-1.492
	c0.583-1.923,1.18-3.842,1.753-5.769c1.814-0.018,3.635,0.034,5.449,0.052l0.556-4.702c3.038-1.485,3.558-2.177,7.055-1.783
	c0.139,0.016,0.665,0.093,0.726,0.082c2.604-0.483,3.915-0.61,6.386-1.626c0.381-0.157,0.653-0.148,0.978-0.402
	c0.167-0.13,2.672-3.06,2.976-3.408c0.059-0.068,0.775-0.557,0.892-0.641c0.306-1.069,1.143-2.268,1.9-3.059l0.598-4.411
	l4.788-0.157c0.302,2.92,0.443,6.008,0.918,8.897c0.137,0.829,0.77,1.715,0.966,2.546c0.255,1.082,0.31,2.368,0.456,3.478
	c0.423,3.231,0.623,6.477,0.878,9.725c0.056,0.715,0.507,1.753,0.701,2.418c0.074,0.255,0.03,0.441,0.19,0.653
	c0.465,0.615,0.84,0.865,1.377,1.418c2.892,2.976,5.353,5.05,8.497,7.73c0.307,0.262,0.729,0.348,1.094,0.521
	c2.272,1.079,4.714,1.009,7.195,0.715l0.125-2.021l4.955,0.238l0.242,1.311l1.626,0.303l2.437-1.929l2.871,0.594l2.715,2.797
	l0.493,5.139l7.947,1.276c0.89,1.131,2.371,2.462,3.738,2.989c1.342-0.072,1.745-0.05,2.121-0.14
	c0.386-0.092,0.744-0.302,2.058-0.851c0.047-0.095,0.554-1.088,0.557-1.119c0.133-1.306,0.181-3.824,0.509-5.005l1.179-2.136
	l0.59-1.068l0.918-0.111c0.48-0.429,1.273-1.322,1.801-1.614c1.535-0.85,3.185-1.95,4.782-2.646c0.843-0.367,2.401-0.708,3.318-0.88
	c0.84-0.158,1.773-0.06,2.608-0.233c0.687-0.143,1.373-0.559,2.058-0.734c0.938-0.24,1.965-0.364,2.919-0.542
	c0.116-0.021,0.586-0.13,0.676-0.128c1.673,0.038,3.764-0.131,5.396,0.122c0.064,0.01,2.439,1.032,2.657,1.125
	c0.354,0.15,0.677,0.658,1.024,0.856c1.844,1.059,3.908,1.797,5.868,2.605c0.106,0.167,1.174,1.893,1.223,1.934
	c1.203,1.032,4.827,2.79,6.41,3.397l0.08,1.596l2.834,0.169c2.948-2.9,3.984-2.249,7.806-2.132l0.557-0.601l0.247-1.293
	c0.776-1.1,2.738-1.739,3.906-2.29c0.042-0.02,1.209-1.199,1.306-1.294l-0.829-3.123l3.528-0.187l1.306,0.668
	c3.313,1.696,2.681,1.412,5.113,4.057l0.216,0.239c0.916-0.71,2.884-1.311,4.042-0.984l2.11,1.439l3.292-4.726l-0.479-1.316
	l0.195-1.055l-0.388-1.078c1.194-0.903,2.521-3.004,2.703-4.51c1.484,0.626,2.973,1.241,4.451,1.882l0.856,1.387l1.884,0.997
	l0.966,2.167l2.819,0.652c0.099-0.942,1.531-2.314,2.247-2.791l-0.006-2.074c0.077-0.12,0.899-1.433,0.93-1.457l2.278-1.313
	c1.226-0.707,2.509-1.595,3.544-2.574c0.657,1.15,2.727,4.369,2.839,5.524l-1.539,2.005c1.629-0.062,3.172,0.293,4.747,0.646
	l0.204,0.827l-1.816,1.754c0.834,0.959,3.426,3.707,4.667,4.317l9.019,4.44l0.97,4.143c0.894,0.973,2.845,2.031,4.194,2.068
	l2.069-0.915c0.03-0.249,0.354-3.01,0.378-3.071l1.968-2.942c0.054-0.057,1.947-1.317,2.137-1.445
	c2.121-1.434,5.022-5.208,7.396-5.594l0.683-1.171c-0.234-0.906-0.435-1.822-0.652-2.733l1.103-0.862l-0.741-1.673
	c0.551-0.569,1.684-1.458,1.87-2.237c0.042-0.175,0.508-2.053,0.498-2.092c-0.593-2.271-1.332-4.582-1.799-6.881l1.595-2.138
	l-0.545-1.859c0.566-1.211,0.756-1.75,1.622-2.674l-0.246-3l0.745-0.496l0.074-2.552l3.018-0.536
	c-0.056-1.588-0.304-3.268,0.41-4.755c0.348-0.724,1.156-1.326,1.501-2.051c0.132-0.277,0.676-2.26,0.735-2.324l3.916-4.254
	c0.667-2.516,0.286-4.746,0.105-7.324c-0.032-0.465,0.515-3.982,0.583-4.166c0.472-1.274,1.538-2.619,2.162-3.852
	c0.499-0.985,0.548-2.373,0.777-3.438c0.33-1.536,1.732-6.761,1.791-8.012c0.022-0.489-1.015-5.433-1.119-6.357
	c-0.345-3.042,0.863-3.585-1.68-5.757l-1.014-4.796l0.924-2.528c-0.179-1.775-0.815-2.908-2.256-3.968
	c-0.159-0.117-1.15-0.559-1.218-0.635c-0.968-1.092-1.833-2.572-2.688-3.77l0.018-2.475c0.016-2.267-0.626-3.025-1.957-4.797
	c-0.367-0.488-0.923-1.247-1.579-1.468c-0.519-0.902-1.676-3.492-1.385-4.597l2.53-4.37l-4.131-1.777
	c-0.63-0.866-1.259-1.9-1.963-2.698c-0.212-0.24-1.524-1.218-1.632-1.375c-0.7-1.017-1.262-2.527-1.822-3.648
	c-1.074-1.166-3.44-0.842-4.844-1.09l-2.044-0.544c-0.398-0.106-0.66-0.073-1.021-0.272c-0.011-0.006-1.961-1.921-1.996-1.97
	c-0.631-0.895-1.112-2.399-1.587-3.415l-0.844-1.806c-0.014-0.08,0.198-3.267,0.216-3.56l-0.534-0.73l-1.068-1.46
	c-1.21-1.11-3.048-1.171-3.9-2.78c-0.616-3.34,1.399-4.298,2.399-7.187c0.495-1.431,0.141-1.421,0.23-1.804
	c0.232-0.996,1.245-2.783,1.302-3.706c0.042-0.684-0.226-1.446-0.194-2.132c0.035-0.781,0.384-1.612,0.399-2.389
	c0.021-1.073-0.389-2.341-0.284-3.391c0.15-1.519,1.004-3.897,1.701-5.24l1.386-2.673c0.416-1.502,0.35-4.028,0.598-5.658
	c0.151-0.992,0.491-2.049,0.725-3.03c0.037-0.153,0.062-0.357,0.12-0.501c0.453-1.143,0.859-2.522,1.429-3.601
	c0.98-1.859,2.263-3.691,3.365-5.489c0.05-0.082,0.342-0.946,0.394-1.09l-1.036-2.989c-0.193-0.162-1.944-1.603-2.01-1.684
	c-1.465-1.825,0.391-7.843,0.897-10.033l3.754-3.251c0.913-1.901-1.455-7.573-2.405-9.078c-0.697-1.104-1.565-2.177-2.33-3.24
	c-0.331-1.666,1.742-4.183,2.588-5.477c0.418-0.639-0.096-2.357,1.185-3.467l-1.228-2.989c0.88-0.695,2.331-2.5,2.367-3.706
	l1.391-0.612c0.896-1.696,0.666-2.73,0.352-4.37c0.059-0.125,0.736-1.589,0.757-1.608l7.029-6.427l-0.235-2.614
	c-0.15-1.674-0.106-2.191,1.004-3.444l1.34-1.511c1.454-1.414,1.972-1.118,2.646-3.403c0.238-0.807,0.232-1.724,0.463-2.535
	c0.222-0.782,0.796-1.629,0.944-2.412c0.033-0.173-0.187-1.427-0.167-1.696"/>
<path fill-rule="evenodd" clip-rule="evenodd" fill="none" stroke="#646464" stroke-width="2.5512" stroke-linejoin="round" stroke-miterlimit="3.8637" d="
	M983.348,129.388c-0.789,0.171-4.836,0.171-4.836,0.171l-4.032-3.651l-3.629,0.769l-0.806-2.114c0,0-1.008-2.306-2.016-2.306
	c-1.008,0-5.241-0.769-5.241-0.769s-3.226,0.577-4.233,1.153c-1.008,0.576-5.241,2.114-6.25,0.961
	c-1.008-1.153-2.419-2.306-2.419-2.306s-2.419-0.769-3.629-0.769c-1.209,0-3.628,0.384-3.628,0.384l-5.443,3.843l-3.83-3.267
	c0,0-4.032-0.961-5.443-2.114c-1.411-1.153-2.218-0.769-2.218-3.266c0-2.498,0-4.035-0.403-4.996
	c-0.403-0.961-1.411-3.267-2.016-4.035c-0.605-0.769-1.411-1.922-2.621-2.114s-3.024-0.192-4.233-0.384s-8.266-0.769-8.266-0.769"/>
<path fill-rule="evenodd" clip-rule="evenodd" fill="none" stroke="#646464" stroke-width="3.9685" stroke-linejoin="round" stroke-miterlimit="3.8637" d="
	M984.207,223.995c-0.854,0.141-1.749,0.322-2.578,0.577c-0.108,0.768-0.521,3.249-1.014,3.857l0.274,0.723l1.391,0.601l0.021,0.489
	c-2.181-0.69-6.068,5.267-4.887,8.053l-2.206,4.149c-0.051,0.097-0.103,0.434-0.131,0.554c-0.635,2.721-1.389,5.218-2.765,7.686
	l-2.578,1.207c-0.04,0.894-0.262,2.236,0.093,3.042c1.7,1.001,2.759,5.077,3.435,6.865l0.661,0.228l0.725-0.88l0.762-5.799
	l0.634-0.571c0.931,0.032,2.474-0.113,3.24,0.484l0.115,0.373l1.581,0.221l1.449-0.938l1.492,1.416"/>
<path fill-rule="evenodd" clip-rule="evenodd" fill="none" stroke="#646464" stroke-width="3.9685" stroke-linejoin="round" stroke-miterlimit="3.8637" d="
	M984.774,569.865c-0.874,1.614-3.057,1.991-3.57,3.537l0.221,2.419c-0.278,1.084-2.076,2.229-3.029,2.546l-4.131-1.113l-0.956,1.107
	l-1.584,0.262l-0.493,0.408c-0.525,1.947-1.319,4.168-2.972,5.443l0.089,3.088l3.574-0.164c0.036,1.978-1.724,4.88-3.097,6.16
	c-1.029-0.603-1.396-1.442-2.058-2.448c-0.88-0.121-2.363,0.508-3.055,0.997l-0.898-2.167l-4.131-2.173
	c-0.131,0.023-0.937,0.195-1.019,0.181l-0.972,2.914l-1.071-0.111l-0.147-0.729c0.768-1.144,1.496-2.587,1.854-3.927
	c-0.268-2.69-1.308-4.556-3.367-6.249l-1.253-1.03c-0.549-0.732-0.836-1.911-1.318-2.715c-1.627-2.717-5.531-0.297-7.575,0.391
	c-1.153,0.388-2.574,0.512-3.769,0.752l-0.358,0.512l-1.721,0.164c-0.827,0.992-2.87,2.385-4.242,2.302l-0.867,1.212
	c-0.191,2.593,4.188,5.451,4.662,7.203l-0.467,1.905c1.056,1.614-0.018,3.22,1.801,5.239c-0.485,0.558-1.046,1.558-1.149,2.308
	l-2.851-0.041l-1.244,3.269l-0.914,0.198l-0.209,3.601l-0.304,0.373l-0.819,0.199l-0.767-2.972
	c-0.958,0.537-2.055,1.627-2.541,2.628l0.163,0.629l-0.594,0.455c-0.833,1.587-0.661,3.396-0.661,5.122
	c-0.826,0.981-3.652,0.104-6.573,3.403c-0.207,0.801-0.416,1.601-0.058,2.406l-0.598,1.608l0.944,1.154
	c-1.279,2.282-3.056,6.904-5.338,7.844l-2.924,3.764l-0.862-0.122c0,0,0.4,5.449,0.4,7.669s4.8,4.44,6.6,6.257s2.6,7.266,3.4,10.293
	s2.6,3.229,2.6,3.229c0.003,0.075,2.603,1.761,2.628,1.821c0.512,1.194,2.008,5.267,3.056,6.037
	c0.999,0.734,2.122,1.778,3.196,2.348c2.172,1.153,4.681,1.99,6.772,3.258c1.882,1.141,3.232,3.158,5.354,4.009
	c1.59,0.638,4.827,1.979,6.516,2.243c0,0,4.68,3.494,6.68,7.531c2,4.037,3.8,6.257,9.601,6.458s7.2,0.807,8.801,0.605
	c1.6-0.202,4.916,1.88,7.058,2.958"/>
<path fill-rule="evenodd" clip-rule="evenodd" fill="none" stroke="#646464" stroke-width="3.9685" stroke-linejoin="round" stroke-miterlimit="3.8637" d="
	M984.348,290.344c-0.158,0.02-3.696,0.436-3.816,0.489c-0.962,0.425-1.968,0.954-2.956,1.305c-0.506,0.18-1.22,0.134-1.7,0.35
	c-1.663,0.749-1.728,3.942-3.333,5.239c-0.303,0.959,0.256,2.751,0.746,3.555l-0.357,1.375l1.564,4.161l-0.986,3.898
	c-1.456,1.084-4.342,0.677-5.214,3.292c-1.722,0.598-4.942,2.176-6.63,1.62c-0.65,1.059-2.331,2.337-3.576,2.529
	c-3.184-1.408-4.502-2.888-7.963-0.723l1.029,3.152l-1.475,1.288l-1.753-0.443l-0.284,0.431l0.111,0.496l0.509,0.379l-0.7,0.676
	c-1.158,0.244-2.137,0.46-3.312-0.029l-0.372,1.271c-0.405,0.399-1.296,0.676-1.849,0.664l-0.883,0.886
	c0.367,0.993-0.093,2.774-0.66,3.607l0.424,1.305c-0.718,2.557-3.089,4.005-3.375,5.781l0.588,1.667l-0.887,0.979l0.619,0.874
	l1.177-0.565c0.484,0.065,0.674,0.726,0.972,1.02c1.264,1.249,2.331,0.271,2.288,2.908l-0.241,0.478l-0.904,0.309l-0.278,2.162
	l-1.076,0.344l-0.242,0.431l0.715,0.746l-0.201,1.457c0.351,0.387,1.246,1.005,1.807,0.973l-0.578,1.037
	c-2.098,0.971-3.938,1.461-6.2,2.092l-0.34,0.653c0.276,0.652,0.075,1.94-0.168,2.563c-0.729-0.105-1.492-0.114-2.226-0.076
	l-1.191,0.863l0.236,3.193l-2.306,1.049l-0.052,1.107l-1.302,1.189l0.625,1.089l1.549,0.752l0.011,0.769l-0.163,0.146
	c-0.851,0.753-2.042,2.09-2.992,2.646c-0.84,0.491-2.741,0.27-3.365,1.195c0.285,0.93,0.234,2.318-0.1,3.229
	c0.843,1.522,0.773,3.946,2.073,5.011c-0.986,0.847-1.893,2.388-1.229,3.701c0.576,0.47,1.808,1.045,2.577,0.99l0.21,1.119
	l0.877-0.758l0.431,0.198c0.358,0.65,0.049,2.88,0,3.771l-1.129,0.519l-0.152,0.396l0.888,1.725l-0.936,1.107
	c-0.047,0.842,0.18,1.959,0.578,2.704l1.255,0.926l-0.021,2.506l4.86,0.705l0.614,1.235c-0.093,0.639-0.219,1.275-0.33,1.911
	l0.398,0.746l1.522,0.215c0.53-0.082,1.313-1.389,1.618-1.806c0.033-0.045,1.527-0.652,1.617-0.74
	c1.638-1.608,1.757-2.66,4.357-2.546l0.173,0.012c0.967,0.403,1.632,2.119,2.115,2.989l1.318-2.541l2.598-0.163l0.914-2.081
	l0.636-0.303l2.666,0.414l1.339-0.903l1.102,0.052c2.168,1.145,2.035,3.458,1.459,5.565l1.024,1.737l0.326,0.122
	c0.253,0.094,2.247,0.799,2.357,0.874c1.551,1.061,6.271,4.797,6.073,7.378l1.366-0.461l2.184,0.49
	c0.183,0.223,1.479,1.833,1.584,1.906c1.681,1.156,3.276,2.033,4.767,3.514l-0.841,1.451l0.163,0.589l3.371,2.669l0.34,0.886
	l2.005,0.146l-0.052,2.069c0.319,0.706,1.915,1.168,2.578,1.235"/>
<path fill-rule="evenodd" clip-rule="evenodd" fill="none" stroke="#646464" stroke-width="2.5512" stroke-linejoin="round" stroke-miterlimit="3.8637" d="
	M13.19,757.464l4.571-7.9c1.585,0.97,4.209,2.832,5.805,3.554c1.028,0.465,3.461,0.873,4.643,1.17l4.644,2.366"/>
<path fill="none" stroke="#646464" stroke-width="2.5512" stroke-linejoin="round" stroke-miterlimit="3.8637" d="M124.677,72.438
	l-0.917,1.486l-1.834,2.971c-0.301,0.646-0.13,3.012,0.081,3.725c1.796,0.633,4.278,0.995,6.178,0.7
	c1.432-1.055,2.925-2.08,4.454-2.991c1.232-0.087,3.334,0.573,4.142,1.569c0.539,0.697,0.408,2.596,0.072,3.312
	c-0.551,1.173-2.375,3.585-3.607,4.216c0.108,2.771,1.344,5.587,3.848,6.96c1.304,0.715,2.909,1.188,4.149,1.985
	c0.706,0.453,1.458,1.45,2.099,2.028c1.371,1.236,2.792,2.428,4.185,3.639c0.198,2.779,0.106,8.117-0.588,10.78
	c-0.621,2.38-1.74,4.847-2.724,7.099c-0.364,0.833-0.863,1.66-1.179,2.509c-0.491,1.319-0.752,3.18-1.135,4.58l1.297,2.871
	c0.825-0.621,1.93-1.676,2.829-2.129c0.088-0.045,4.836-1.749,4.892-1.76c1.163-0.229,3.273-0.067,4.516-0.093l0.447,1.647
	c-0.615,1.135-1.26,2.283-1.982,3.354l1.305,3.287c0.193,0.124,2.465,1.568,2.497,1.605c0.862,0.998,3.448,7.319,3.884,8.615
	c0.25,0.743,0.293,1.699,0.464,2.475c0.518,2.345,1.156,4.608,1.384,7.012l-1.197,1.68l-1.635,0.449l0.483,3.304
	c0.712,0.721,2.273,2.67,2.545,3.673c0.054,0.199-0.012,1.571,0.036,1.657l3.419,6.14c1.351,0.199,3.673-0.481,4.909-0.93
	l1.197-1.682l4.588,3.218c-0.122,2.867,0.235,6.638,1.84,9.072l3.293,0.347l1.08-0.713l2.161-1.425
	c1.032-0.941,1.83-2.35,2.803-3.373c1.613-1.696,4.347-3.042,6.489-3.862l2.063,0.372c0.2,0.257,2.504,3.189,2.535,3.26
	c0.011,0.026,0.903,4.38,0.92,4.537c0.025,0.237,0.232,7.504,0.169,7.866c-0.435,2.47-2.665,8.152-3.883,10.434l2.562,4.501
	l1.24,0.39c2.207-1.057,4.616-1.846,6.927-2.63l3.723,1.164l0.705,0.952l1.41,1.903c0.288,0.715,0.276,1.173,0.452,1.924
	c0.711,3.023,0.642,3.344,2.047,6.033l0.571,1.093c1.312,0.367,2.799,0.933,4.132,1.156c0.728,0.122,1.708-0.081,2.464-0.052
	c1.503,0.058,3.024,0.214,4.526,0.321l1.688,2.035c0.083,4.087,0.103,7.597-0.375,11.726c-3.195-1.894-4.428-1.326-7.833-1.48
	c-1.063-0.048-2.208-0.371-3.263-0.353c-0.295,0.005-6.55,1.21-6.906,1.347c-0.817,0.314-1.603,1-2.426,1.269
	c-0.817,0.268-1.981,0.309-2.845,0.457c-0.736,0.127-1.706,0.439-2.438,0.451l-1.632-0.245c-1.05-0.158-2.243-0.227-3.264-0.487
	c-2.127-0.543-4.399-1.571-6.543-1.932l-2.986,0.052l-1.493,0.026c-2.735-1.885-5.207-3.259-8.59-2.714
	c-0.906,0.146-1.946,0.8-2.84,0.869l-2.718-0.225l-1.359-0.113l-1.606,1.664c0.573,1.392,1.07,2.979,1.283,4.474
	c-0.069,0.144-0.756,1.61-0.793,1.649c-0.694,0.718-2.951,2.067-4.044,2.114c-0.85,1.022-1.556,2.893-1.979,4.124
	c0.394,1.599,0.664,3.261,0.881,4.892l-2.427,1.269c-2.097-1.136-6.295-0.918-8.557-0.26c-0.766-0.995-2.165-1.892-3.29-2.398
	l-2.036,0.036c-0.81,1.5-1.525,3.619-1.557,5.343c-1.245-0.566-2.722-2.446-3.307-3.623c-1.988-0.544-4.077-0.339-6.113-0.304
	c-1.787,3.671-1.111,8.313-1.054,12.286l2.499,4.046c2.303,0.571,4.637,0.978,6.944,1.515c2.596,0.604,5.158,1.338,7.764,1.911
	c1.437-0.66,2.953-1.228,4.457-1.714l1.662,2.425l0.02,1.634l-1.204,1.249l0.431,1.627c1.732,1.008,5.213,2.767,6.569,3.975
	c0.87,0.776,1.705,1.937,2.484,2.821c2.398-0.044,4.963-0.312,7.328-0.128c1.992,0.156,3.605,1.41,5.322,1.953
	c0.735,0.232,1.682,0.203,2.448,0.367c0.953,0.204,1.919,0.515,2.862,0.768c0.711,4.906,0.948,9.751,1.015,14.702
	c0.02,1.481,0.276,5.251,0.088,6.541c-0.01,0.069-1.458,3.42-1.58,3.708c-0.219-0.106-2.391-1.132-2.458-1.185
	c-0.693-0.551-1.478-1.726-2.07-2.418c-2.027,0.213-4.151,0.711-6.089,1.334c-0.356,1.427-2.038,4.477-3.186,5.37
	c-0.319,0.248-0.576,0.259-0.945,0.425l-1.89,0.85c-1.652,0.341-4.912-0.069-6.525-0.705c-1.346-0.53-2.735-1.566-4.102-1.974
	c-1.159-0.346-4.03-0.312-5.711-0.717c0.108,0.277,1.216,3.172,1.267,3.249c0.564,0.852,1.793,1.611,2.477,2.41
	c0.543,0.634,1.25,1.695,1.661,2.425c1.166,2.072,1.27,4.747,1.59,7.059c0.059,0.424,0.003,0.686,0.15,1.088
	c0.26,0.708,1.932,3.087,2.086,3.644c0.004,0.013,0.068,3.998,0.055,4.088c-0.16,1.12-0.822,2.599-1.17,3.701l2.08,3.234
	c1.902,1.019,4.412,1.679,6.541,1.932c2.424,1.801,3.665,4.483,5.388,6.857c0.598,0.824,1.542,1.564,2.071,2.419
	c0.68,1.102,1.054,2.502,1.677,3.649c1.261,2.322,2.879,4.352,3.762,6.887c2.277,1.211,5.254,1.894,7.768,2.32l1.25,2.022
	c1.445,0.238,3.082,0.374,4.49,0.74c2.843,0.741,7.79,3.883,9.857,5.961c0.701-0.012,6.606-0.174,6.919-0.119
	c0.537,0.094,0.751,0.403,1.231,0.661c1.515,0.813,5.95,2.922,6.975,3.696c0.449,0.339,0.589,0.655,0.965,1.073l1.93,2.146
	c0.645,0.855,1.032,1.969,1.667,2.834c0.077,0.105,2.437,2.782,2.483,2.819c2.104,1.754,5.9,3.006,8.596,3.259
	c1.444,0.135,3.081,0.396,4.477-0.213c1.908,1.615,4.075,3.035,6.169,4.391c0.366,1.504,0.823,2.999,1.283,4.476
	c1.064,0.407,5.792,2.115,6.14,2.347c0.25,0.167,2.066,2.447,2.481,2.819c0.812,0.729,2.143,1.218,2.879,1.995
	c0.021,0.022,3.197,4.939,3.329,5.257c0.225,0.543,0.309,1.447,0.435,2.037l-4.044,2.114c0.804,1.103,2.441,3.868,2.108,5.28
	l-0.525,0.698c-1.92,0.419-2.579-0.473-4.089-0.75c-1.445-0.266-4.349,0.476-5.695,0.91c-0.486,1.232-0.949,2.539-1.576,3.708
	c-1.675,0.495-3.219,0.661-4.892,0.08l-0.797,1.242l0.845,2.032l-1.612,1.254c-1.075,0.018-2.625,0.274-3.668,0.059
	c-0.958-0.198-1.915-0.534-2.866-0.772c-1.033-0.259-2.284-0.402-3.273-0.766c-1.403-0.516-2.981-1.924-3.717-3.214
	c-1.118-0.23-2.558-0.697-3.679-0.759c-0.069-0.004-1.848,0.402-2.033,0.443l-0.401,0.415l-0.286-0.95l-0.572-1.9
	c-0.844-1.634-4.01-4.135-5.376-5.234c-0.945-0.103-2.344-0.426-3.267-0.356c-1.1,0.083-2.564,0.616-3.658,0.879
	c-0.991,1.455-2.318,4.15-2.768,5.774c-0.368,1.328-0.574,5.402-0.714,6.97l-0.538,0.417l-1.076,0.835
	c-1.598,0.563-3.424,0.091-4.872,1.309c-2.004-0.439-4.089-0.343-6.12-0.311c-0.636,0.01-1.002,0.125-1.631,0.026l-3.005-1.042
	l-1.502-0.521c-0.391-1.123-0.74-2.623-1.277-3.663c-0.022-0.043-1.132-1.103-1.24-1.208c0.036-1.642-1.111-4.053-2.116-5.286
	l-4.465,1.301c-1.99-0.827-3.963-1.998-5.756-3.182c-0.963,0.396-4.958,2.228-5.663,2.958l-2.135,2.763l-1.067,1.381l0.101,6.956
	c-0.912,1.42-2.138,3.729-3.189,4.963l-2.823,2.094c-0.429,0.193-2.385,0.26-2.849,0.455c-1.792,0.753-3.502,2.078-5.255,2.951
	c-2.315,1.152-5.169,1.933-7.677,2.5l-0.403,2.542c-1.698,1.068-3.589,1.881-5.26,2.949c-0.978,0.626-1.848,1.46-2.823,2.093
	c-1.063,0.691-2.709,1.291-3.637,2.104c-0.043,0.038-1.469,2.285-1.596,2.483c-1.338,0.463-4.287,1.946-5.257,2.95
	c-0.682,0.706-1.457,2.056-1.998,2.898c-0.15,0.234-1.113,1.985-1.189,2.064c-0.456,0.472-1.565,0.789-2.021,1.261
	c-0.077,0.079-1.044,1.833-1.194,2.066c-0.728,1.133-1.606,2.22-2.398,3.314l-4.465,1.301l1.244,1.617
	c1.229,0.635,3.892,1.497,5.319,1.141l-2.799,3.73c-3.411,1.042-6.338,2.745-9.311,4.652c-1.528,0.242-4.082-0.765-5.322-1.55
	c-1.75,0.299-3.53,0.68-5.288,0.904c-0.654,0.083-1.392-0.072-2.039,0.032c-1.201,0.192-2.468,0.593-3.656,0.878
	c-0.589,1.832-1.484,3.658-2.369,5.36c-2.923,1.213-5.026,3.661-8.085,4.634l-0.797,1.241c-1.911,0.886-3.415,0.813-5.28,1.313
	c-0.683,0.183-1.348,0.635-2.027,0.852c-2.5,0.797-6.066,1.254-8.531,2.184c-1.786,0.673-2.74,1.593-4.033,2.932
	c-0.313,0.324-0.433,0.575-0.803,0.831c-1.439,0.996-5.542,1.02-7.32,1.347c-0.577,1.314-1.221,2.721-1.572,4.12l-2.02,1.258
	l-1.648-1.2l-2.445,0.04c-1.877,0.837-2.467,3.061-3.603,4.56c-1.117,1.473-2.917,3.07-4.425,4.166l-2.039,0.032
	c-0.393,2.031-1.68,4.462-2.762,6.186l-2.034,0.442c-0.068,0.254-0.769,2.786-0.773,2.876c-0.016,0.334,0.758,5.953,0.911,6.534
	c0.171,0.647,0.584,1.405,0.845,2.033c-0.583,1.489-0.082,3.197-0.347,4.099c-0.022,0.074-1.877,3.948-1.978,4.126
	c-0.541,0.956-1.562,1.912-1.997,2.896c-0.055,0.125-0.296,2.15-0.369,2.462c-0.319,1.367-0.768,2.764-1.166,4.111
	c-0.241,0.814-0.487,1.673-0.779,2.469c-0.326,0.891-0.986,1.977-1.181,2.884c-0.019,0.088,0.032,2.224,0.036,2.454
	c0.396,1.103,2.767,2.696,3.714,3.213c0.363,0.928,1.101,2.304,1.273,3.256c0.24,1.325,0.082,5.665,0.107,7.365
	c0.798,1.59,2.09,3.184,3.326,4.447c-0.263,1.91,0.64,3.496,0.892,5.307c0.1,0.713-0.048,4.521,0.072,4.911
	c0.032,0.105,1.546,3.486,1.564,3.512c1.102,1.507,2.871,2.875,4.132,4.283c0.837,0.935,2.933,3.276,3.534,4.277l1.544,3.649
	l0.772,1.824l-1.275,5.429l2.333,4.262c1.499,0.665,10.875,5.137,11.893,6.192c1.074,1.114,2.448,4.125,3.515,5.487
	c1.16,1.481,2.816,2.918,4.132,4.283c0.8,5.432,3.162,13.13,5.13,18.209l-0.827,2.007l-1.654,4.014l-1.695,6.835l-0.847,3.418
	c-0.564,0.369-1.533,1.057-2.525,1.738l0.43,1.189c0.811-0.124,1.696-0.181,2.689-0.138c2.034,0.087,9.023,2.141,10.932,3.169
	c1.052,0.845,1.925,1.062,3.279,1.191c3.915,0.376,7.508,0.732,11.401,1.528c1.523,0.312,2.82,0.871,4.418,1.037
	c5.546,0.577,3.552-2.064,8.691-1.169c6.728,1.171,5.991-2.927,8.522-6.114c0.443-0.312,3.292-1.283,3.824-1.283
	c0.104,0.033,0.235,0.095,0.343,0.15c5.531,2.846,5.758,2.399,11.144,0.264c4.713-1.869,10.017,0.713,14.5-2.472
	c5.065-2.368,6.621-3.006,6.321-9.677c-0.101-2.252,0.253-4.298,0.243-6.506c0-0.086-0.01-0.172,0.005-0.252
	c0.553-0.743,0.774-0.886,1.019-1.816c0.556-1.089,1.383-2.002,2.15-2.954l3.026,0.664c0,0,8.196,1.326,8.196,3.826
	s0.25,4.5,1.75,5.25s4.5,3.5,4,5.5s0,3.5,1,4.25s1.25,2,1.25,3.75s0.25,4.5,0.25,4.5s1.75,1.75,2.75,2.5s1.5,1,3.5,0s3.25-3,3.25-3
	s-1.25-2.25-1.25-4s0.25-4.5,2.25-3s2.25,2,2.25,3.25s0,2.5,2.25,2.5s2.75-1.25,2.5-2.75s-2-5,0.5-5.75s3.25-1.75,3.75-0.5
	s3.75,0.25,4.75,1.75s4.5,3,6.75,0.25s1.25-4.25,1.25-4.25l5.25,0.25c0,0,3,7.25,3.5,8.5s1.25,5.75-0.75,6.75s-6,2-6,3.75
	s-0.5,4.75,3.5,4.75s4.5,3.5,4.75,5.75s3.25,5.5,3.25,5.5l7.25,1.5l2.5,3c0,0,5.25,2,5.25,4.5s-1.5,4.75,1,4s5.75-2.25,6,0.25
	s1,4.25,1,4.25l4,1.5l0.75,2.5l3.25-0.75c0,0-0.75-4,1.25-6.25s2-3,2.75-5.25s-0.25-3.75,2-5s5.75-1.75,6-3.25s2.25-4.5,2.25-4.5
	s3,1.5,5.25,1.5s5,0.5,6.5,1.25s4-0.25,4.25-1.75s0.75-7.25,3-9.5s3-3.75,4-3.75s3,1,4.75-2.25s3-4,4.5-4s5.25-1,5.25-1l2.5-4.75
	c0,0,7.75,0.5,7.5,3.5s-1,7-1,7l1,4.25c0,0,5.25,0,6.5-0.5s2-1,2,0.75s0.25,7.25,0.25,7.25s3,3.75,3.25,5s1,4.25,1,4.25
	s7.5,0.5,9.5,0.5s4.25-0.75,5-3s1-5.25,3.5-5.5s6.5-2.25,7.75-1.5s3,0.75,3,0.75l2.75-4c0,0,0.75,4.25,0.5,6.25s-1.25,4-1.25,4
	s6,2,7.25,0s0.75-4.75,3.75-5s5-1,6.5-2.25s2.25-2.5,1-4s-2.25-2.5-2.25-2.5l0.25-2.25c0,0,5.75-1.5,9.75-1.25s4-0.75,5-1.75
	s2.75-3,2.75-3s6.5,0.5,6.5-0.75s-1.25-6,2.5-5.5s8-1,8-1s9-1,10.25-2s2-2,4.25-1s7.75,0.75,7.75,0.75s6-1.5,7.25-1.75
	s0.75,1,2.25,2.5s3.25,2.5,5,1.25s0.75-3.5,0.75-5s2.5-1.5,2.5-1.5l3.5-1.25c0,0-1.75-5.5,0.75-6.25s5.75-1,7,0.5s2.75,2.5,2.75,2.5
	s9.25,1,9.5-2.25s-2.25-8-2.25-10s0.5-6,0.5-6l-2.75-3c0,0,10-3.75,10.25-8.25s-0.25-10.5,2-12s2.25-2,2.75-4.25s1.5-3.5,1.5-3.5
	s5.75,0,7.5,2.5s4.25,2.75,5.5,2s3.5-2.25,6.25-2s8,2.25,8,2.25s1.5,3.25,2.25,4.75s5.5,6.25,7.5,7.25s6.75,1.25,8.75-0.5
	s4.25-2.25,4.25-2.25s1.25-3.5,4.75-4s6-2.25,4.25,1.25s-2.25,6-2.25,6s3-2.75,7-1.75s6.5,2.75,7.75,4.75s2.75,8,2.5,10.25
	s-1.5,8-1.5,8s-1.25,5.25,2.25,6s5.75,3.75,5.75,3.75s7.25,1.75,9-0.5s1.5-4.25,1.5-4.25l6.5,5.75l4.5,1.75l0.75-2.25l7.25,0.5
	l-1.75,3.75c0,0-2.25,5.75-1,8s1,4.75,0.25,5.75s-4.75,8.25-4.75,8.25l3.5,1.25c0,0,0.5,2.75,3.5,2.5s5.75-0.5,5.75-0.5
	s10,13.5,15.25,14.25s7.25,0.5,7-1.5s0.25-8.75,0.25-8.75h5c0,0-0.75-5.5-0.75-6.5s0.25-7,1.25-8.5s2.75-7.25,4.75-7.25
	s4.25-0.5,4.25-0.5s-0.25-4.5,2.75-5s3.25-1.5,3.75-3s1.75-3.5,2.75-4.25s2.25-2.25,2.25-2.25s2.25,2.75,4,4s7.5,4.5,7.5,4.5
	s5.5-2.25,7-2.75s2.5-1,6-1s2.25-4.75,2.25-4.75l0.25-3c0,0,4.25,0.5,5.75,0.75s5.25,3.5,5.25,6s-0.75,4.25-0.75,4.25l6-0.75
	c0,0-1,2.5,1.75,3s4,0.25,4.5-0.75s1.5-2,1.5-2s1.25,2.75,2.75,3.25s3.75,2.5,3.75,2.5s-2.5-9.25-1.75-10.5s5.25-10.25,5.25-10.25
	s2.75,3,4,2.75s3-2,5.25-0.25s5.25,4,7.5,3.75s5.25-0.75,5.25-0.75s1-9.5,2.5-13.25s5-9.5,4.5-10.75s-0.75-2-0.5-3.75
	s-0.25-7,0.75-7.75s1.75-3.5,1.75-3.5s-4.25-0.25-4.25-2.25s-0.75-2.5,2.5-2.5s3.5-1.25,3.75-2.25s1.25-3.5,3.5-4s4.5-1.75,4.5-1.75
	s2.75-4.5,2.25-6.25s-2-2-1.25-4s0-5.5,0-5.5s0.5-9.5,0.5-10.75s-3.75-5,0.5-9.5s8-9.5,9-10s1.25-1,2.75-1s2.75,0.25,3-1s2.5-3,4-2
	s7.25,3,7.25,2s-1-7,1-9s2.5-5.5,2.5-5.5s0-7.75,0.75-9s1.5-3.25,1.5-3.25l8.5,3c0,0,1-6.5,6-3.75s13.25,6,13.25,6l0.25-9.25l4.5-5
	l-1.75-6.5l10,2.75c0,0,1.25-4.5,1.25-5.5s0.5-3,2-3.25s6.5-1,6.5-1l4.671-1.671c1.295,1.209,2.297,2.844,3.816,3.849
	c2.991,1.979,4.668,2.909,6.744,6.01c2.215,3.312,7.045,3.774,9.666,6.696c3.202,1.991,6.23,3.906,8.541,6.931
	c1.212,1.586,2.335,2.446,4.534,1.927"/>
<path fill-rule="evenodd" clip-rule="evenodd" fill="none" stroke="#646464" stroke-width="1.5591" stroke-linejoin="round" stroke-miterlimit="3.8637" d="
	M834.027,273.994v6.5c0,0,4,3,5.75,5.25s4.5,8,5,11.25s1,6.25,1.25,7.5s3.75,5.75,3.75,5.75s1.75,10.75-1.25,13s-7.25,4-7.25,6.5
	s-0.25,9.75-0.25,9.75l-14.25,14c0,0-9.25-1.25-11.75-1.25s-9.25-0.75-11.5,1.75s-12.5,7-12.5,7l-15.5,1.25l-3.5-3.75
	c0,0-6,2.75-7.5,3.25s-4.25,0.75-6.5,0.75s-7-1-8.5,0.25s-2.75,1.75-5.5,0.25s-8.25-1-8.25-1l-3.5,1.5l-5.5-2.25
	c0,0,3.75-3.25,5.5-7.75s4-13.5,4-16.5s-3.75-9.75-3.75-9.75l4.75-8.5c0,0-8.25-5.5-6.75-8.75s2.25-7.5,1.5-11.5s-3-11.25-1.25-15.5
	s0.5-9.5,0.5-12.25s-1-8.25-2.25-10.25s-3-6.25-3-9s-3.552-10.295-3.552-10.295"/>
<path fill-rule="evenodd" clip-rule="evenodd" fill="none" stroke="#646464" stroke-width="1.5591" stroke-linejoin="round" stroke-miterlimit="3.8637" d="
	M850.277,319.994c0,0,15.25,3.5,17.25,3s11.5-0.75,11.5-0.75s1.25,4,0.25,7s-3.25,7.75-3.75,9.25s-5.25,8.75-5,14.75
	s-0.25,6.75-0.25,6.75l3.523,1.308"/>
<path fill-rule="evenodd" clip-rule="evenodd" fill="none" stroke="#646464" stroke-width="1.5591" stroke-linejoin="round" stroke-miterlimit="3.8637" d="
	M732.277,363.494l-1.25,3c0,0-8.25,2-9.75,3s-4.5,3.75-4.5,3.75s5,5,5.5,7s-0.25,10.25-0.5,11.75s-2.5,18.5-2,20s5.25,8.75,5.25,11
	s5,22.25,5,23.75s-1.75,4.75,1,6.75s5.75,3.5,5.75,4.75s-2.25,9-2.25,9"/>
<path fill="none" stroke="#646464" stroke-width="1.5591" stroke-linejoin="round" stroke-miterlimit="3.8637" d="M684.726,467.965
	c1.754,0,2.864,0.274,4.543,0.717c1.343-0.312,1.406-3.274,5.21-2.27l0.394,0.171c0.717,0.452,1.391,0.966,2.077,1.462
	c0.092-0.759,0.351-1.619,0.804-2.222l0.249-0.256c2.171-1.733,5.538-0.581,7.425,1.05c0,0,5.848,0.876,7.848,0.376s16-2,17-2.25
	s4.25,2.5,4.25,2.5l4.75,4.5c0.775-0.543,2.267-0.329,3.725-0.661c2.926-0.667,4.344,0.204,5.275,1.518c0,0,11.25-3.107,11.5-4.357
	s0-6.5,0-6.5s-1.25-3,1.75-4.75s4-3.5,4-3.5l-0.5-11.25l8.5-11.25l-4.25-13.5c0,0,2.75-1.5,4.75-1.5s4.5-0.5,10.75,2.25s8.75,2,10,1
	s10.25-1.25,14-0.75s12.5,0.5,14.5,0.25s19.5-2.25,22.25-3s4.5-3.5,5-5.25s0.75-4.5,2.75-6.75s8.75-6.5,8.75-6.5s4.5,1.25,5.5,1.5
	s4.5,1,4.5,1s1.75-3.5,3.75-6.75s2.397-11.297,2.397-11.297"/>
<path fill-rule="evenodd" clip-rule="evenodd" fill="none" stroke="#646464" stroke-width="1.5591" stroke-linejoin="round" stroke-miterlimit="3.8637" d="
	M755.277,470.494l5,11l4,6.25c0,0,0.5,2.5,2.25,3.5s4.25,1.75,5.25,2s4-0.75,4.75-1.75s5.25-8,5.5-9.25s0.25-1.75,1.5-2.5
	s3-2.5,4.75-1.25s7.25,4,8,5.75s2,4,2,4s4.75,2.75,6.25,4.25s3.5,1.5,4.75,0.75s5-3.25,5-3.25l5.75,3.25l4.5,5"/>
<path fill-rule="evenodd" clip-rule="evenodd" fill="none" stroke="#646464" stroke-width="1.5591" stroke-linejoin="round" stroke-miterlimit="3.8637" d="
	M676.027,432.994c0,0,5.5-5.5,7.25-6.25s4-4,5-5s1.75-5,1.75-5s-4.75-6-3-6.25s3.75-3.5,3.75-3.5s-1-4.75-1-8s0-11-0.5-12.5
	s-2.25-6.25-2.25-6.25s-9.75,0.75-14.5,1.25s-10.75,0.75-10.75,0.75l-3-2.25l0.25-2.5l-4.5-4.25l-4.25-0.5c0,0-4-3-4.25-5.75
	s-1.75-7-1.75-7"/>
<path fill-rule="evenodd" clip-rule="evenodd" fill="none" stroke="#646464" stroke-width="1.5591" stroke-linejoin="round" stroke-miterlimit="3.8637" d="
	M608.527,339.244c0,0,10.25,11.75,10.75,13s2.75,2.5,2.75,2.5s-0.75,3.5,2.5,5s9.5,1.5,11.25,1.25s7.5-0.75,9-1.75s13-11.25,15.5-16
	s4-9,4-9l8.5-0.25l0.25,2.75l3.5,0.25c0,0,0.25-2.5,1.25-3.75s4-5.5,4-5.5h3.25c0,0,16.25,6,18,6.5s10.25,0.25,11.25,0.25
	s6.75,1,8.75,1.5s7,0.5,7,0.5l6.25,0.5"/>
<path fill-rule="evenodd" clip-rule="evenodd" fill="none" stroke="#646464" stroke-width="1.5591" stroke-linejoin="round" stroke-miterlimit="3.8637" d="
	M644.777,648.244c0,0-0.25-6.75-0.5-8.25s-1-5.25-1-5.25s-3.5,0.5-5-2.5s-4.25-8-5.25-9.5s-6-6.25-6-6.25s-0.5-9.25,0.25-11
	s2.5-8.75,1.25-11.5s-4.75-8.75-4.75-8.75l0.75-8.5c0,0-6.25-4-9.25-6.25s-10.75-11.75-11.25-16s-1.25-8.75-2-10.5
	s-0.75-2.5-1.75-2.75s-2.5-0.25-2.5-0.25s-2.5-4-3.25-6s-1-8.75,0.25-11s1.25-6.5,1.25-6.5s0.25-5.75,0.25-6.75s-0.5-3.5-2.25-4.25
	s-6.5-3.25-6.5-3.25"/>
<path fill-rule="evenodd" clip-rule="evenodd" fill="none" stroke="#646464" stroke-width="1.5591" stroke-linejoin="round" stroke-miterlimit="3.8637" d="
	M499.777,572.744c0,0,3.75-5.25,5.25-6.25s4.75-2,4.75-2l9.25,4.5l9.25,1.5c0,0,3.25,0.25,5.25-0.25s7.75,0.75,10.5,0.5
	s4.75-3.25,5.25-4.25s3-9,4-11.25s1.75-2.25,3.5-2s4,3,4.75,4.5s5,5,5,5l4-2.25c0,0,4.25-4.5,6.75-7.25s6-3.75,6-3.75
	s3.25-1.5,4.5-2.75s4.5-3.5,4.5-3.5s3.75-2,5.5-2.25"/>
<path fill-rule="evenodd" clip-rule="evenodd" fill="none" stroke="#646464" stroke-width="1.5591" stroke-linejoin="round" stroke-miterlimit="3.8637" d="
	M622.277,480.244c0,0-14-11-15.25-12.25s-5.5-3.25-7.25-3s-4.25,1-6.5,0.75s-5.75-2-5.75-2s-4.25-9-4.25-11.25s-2.25-12.5-2.5-13.75
	s-1-7,1.5-8.5s9.75-6.25,11-7s8.5-5.75,8.5-5.75l1.5-1"/>
<path fill-rule="evenodd" clip-rule="evenodd" fill="none" stroke="#646464" stroke-width="1.5591" stroke-linejoin="round" stroke-miterlimit="3.8637" d="
	M624.527,576.744c0,0,0.75-1.25,2-1.25s7.5,1.75,10.5,2.75s9.25-1.75,9.25-1.75l7-7.25c0,0-0.25-2.5-0.5-5.5s0.25-6,0.25-6l3.5-7
	l1.25-8.75c0,0,1.75-3.75,2.25-6s2.75-3.75,4.75-5s0.5-4.75-2.5-4.25s-4.5-0.75-8-1.5s-1.5-2.5-0.5-3.25s1.25-1.75,4-2.5s12-8,12-8
	s6.25-7.25,8.5-8.75s3.5-2.75,4.5-3.75s3.75-5.75,3.75-5.75l-2.5-8.5c0,0-1.75-7.5-1.5-8.5s2.167-8.278,2.167-8.278
	s-2.417-1.972-1.417-6.472s2.75-9.75,2.25-12.25s-2-8-2-8l-5.25-6l-2.25-2.25c0,0-6.75-0.5-8.5-1.75s-6.25-4-7.25-4.25
	s-2.75-1-3.75-0.25s-2.75,1.75-2.75,1.75l-7.5,0.75l-4.5,2l-3.428,2.693c0,0-1.822,1.557-4.822,1.557s-6.5-0.25-8.75-2
	s-3.25-2.25-4.5-3.25s-3.25-4.25-3.25-4.25l-13.75-9.5l-1.5-4.25c0,0-0.75-6.5-2.5-9s-2-6.5-2-6.5l-2.25-1.75l-0.5-5.75
	c0,0-2-1-2.25-3s-1.25-2.75-2.5-3.25s-1.75-3.5,0-5.5s2.75-3,4.25-3s5.25-1.75,5.25-1.75s0.25-2.5,0-3.75s-2.25-6.5-1.25-10
	s1.75-7,1.75-7s2.5-5.75,4.25-7.25s4.5-5.5,4.5-5.5s0.5-7.75,3.5-8.75s6-2.5,7-3.5s1.75-2.75,1.75-2.75s-4.75-1-8.25-1
	s-6.25,0-8,0.25s-2.25-0.75-3.25-1.5s-1-4.25,4.75-4.25s8.5-1,8.5-1l5.25-4.25l-0.25-8l2.25-5.75c0,0,9.5-0.75,11-0.75
	s4.25-1.75,4.25-1.75l8.25-6.75l11-7.25l0.075,0.886c1.763-0.884,3.201-3.378,4.754-4.71c0.736-0.631,2.539-1.896,4.583-3.201
	c0,0,2.54-4.08,2.313-8.277"/>
<path fill-rule="evenodd" clip-rule="evenodd" fill="none" stroke="#646464" stroke-width="1.5591" stroke-linejoin="round" stroke-miterlimit="3.8637" d="
	M471.277,544.244c0,0-2.25-3.75,0.75-6.5s6-5,6.75-7.75s2.25-5.25,0.5-8.25s-5.25-6.75-1-8.5s4.75-1.5,6.25,0.5s9,5.5,13.5,5.25
	s6.25-0.5,8.5-0.75s3.75-1.5,4.5-3s1-4.5,1-4.5"/>
<path fill-rule="evenodd" clip-rule="evenodd" fill="none" stroke="#646464" stroke-width="1.5591" stroke-linejoin="round" stroke-miterlimit="3.8637" d="
	M510.277,509.744c0,0,0.75-1.5,1.25-2.75s2.25-2.75,2.25-2.75h2.75c0,0,2.25-2.25,5.75-2.75s9-2.25,9-2.25"/>
<path fill-rule="evenodd" clip-rule="evenodd" fill="none" stroke="#646464" stroke-width="1.5591" stroke-linejoin="round" stroke-miterlimit="3.8637" d="
	M440.027,459.994c0,0,0-3.25,0.5-6.5s1.75-7.5,1.75-10s-3.5-11.5,1-14.75s9.75-11,10.25-14.5s1-9.25,1-9.25s-2.5-15-1.5-17
	s2.5-10,2.5-12.75s0.25-8.75,0.25-8.75s1.75-5.5,3.5-6.75s3.25-2.25,3.25-2.25l7-13.25l3.75-5.5v-6c0,0-0.5-2,0.5-4s1.5-4.5,1.5-4.5
	l-4.75-4.5c0,0-1.25-6-1.5-8.75s0.25-8.5-0.25-9.75s0.25-3.5,0.75-4.5s1.25-6-1-8.75s-4-3.25-2.75-5.25s3.25-5.75,3.25-5.75
	s-2.75-5.5-0.75-7.5s5.25-3.75,7.25-3.25s3.5,0.25,3.5,2s-1,5.75,3,5.75s10.25,0,10.25,3s-2,12-0.5,14.25s3,9,7.75,8.5
	s7.5-4.5,10.75-4.5s11-1.25,11-1.25l4.5,8.25c0,0,4.75,0.75,5,4s3.25,10,7,10s15.75-1.75,15.75-1.75l2.75-3l6-2c0,0,5.25,0,6.5,2.5
	s8.25,7,8.25,7s7,1.25,8.5,3.25s4.75,7.25,4.75,7.25s2,5,1,6.25s-1.5,3.25-1.5,3.25l9.75,11.5"/>
<path fill-rule="evenodd" clip-rule="evenodd" fill="none" stroke="#646464" stroke-width="1.5591" stroke-linejoin="round" stroke-miterlimit="3.8637" d="
	M479.527,460.244c0,0,1-4.5,1-5.5s0-2.25,1-4s3.25-5.75,3.25-5.75s2.5-5.25,5.5-4.5s4.5,0.75,6-0.75s3-1.5,3.25-3.25s-1.75-3,1-3.5
	s2.5-1.5,2.5-2.75s0.75-2.25,3.5-2.5s11,0,13,1.5s1.75,2.75,1.5,4.5s-0.25,3,2,2.75s5.25-2.25,5.75-3.75s0.5-2.5-0.75-4.25
	s-2.25-2.75-1.75-5s1.25-4.75,2.5-5.5s5.5-2.5,7.75-3s3.75-0.75,6-1.5s3.25-3,5.75-2.5s5.25,1,5.25,3.25s0.75,4.5,0.75,4.5l5,5.25
	l21.5,7.25"/>
<path fill-rule="evenodd" clip-rule="evenodd" fill="none" stroke="#646464" stroke-width="1.5591" stroke-linejoin="round" stroke-miterlimit="3.8637" d="
	M473.277,338.744c0,0,7.75,9.5,9,12s3,4,4.25,3s2.25-1.75,2.25-1.75l10.5,3c0,0,1.25,5.25,3.75,6.25s21.75,8.5,28.75,10
	s22,4.5,24.75,4.5s6,0.5,7.75,0.5s7.5-1.25,7.25,2.75s-4.25,17.25-4.25,17.25s2,6.75,2.5,7.75s3.25,2,5.75,2s3.75,0.75,5,1.75
	s4.25,6.5,8.25,6.75s5.5,0.25,7.25-0.25s5.75-2,5.75-2"/>
<path fill-rule="evenodd" clip-rule="evenodd" fill="none" stroke="#646464" stroke-width="1.5591" stroke-linejoin="round" stroke-miterlimit="3.8637" d="
	M479.277,269.244c0,0,1.25-2.75,3-2.75s10.75-1.75,10.75-1.75l1.75-4.5l-3.5-3.25l1.25-2.75c0,0,4.75-0.5,4.5-3.25
	s-0.75-4.25-0.5-6.75s1.25-8.5,4.75-9"/>
<path fill-rule="evenodd" clip-rule="evenodd" fill="none" stroke="#646464" stroke-width="1.5591" stroke-linejoin="round" stroke-miterlimit="3.8637" d="
	M246.277,232.494c0,0,4.5-2.75,6.25-5.25s2.5-4.25,5.5-5.5s3.25-4.25,5.75-4.5s6,0,6,0s6.25-3.75,9-6s8.5-7,8.5-7l0.5-5l2.75-6.75
	c0,0,1-3.75-1.5-7.75s-4.75-6-5.25-7.75s-4.75-8.75-0.25-11s7-5.25,7-5.25l1.5-8l0.51-8.17"/>
<path fill-rule="evenodd" clip-rule="evenodd" fill="none" stroke="#646464" stroke-width="1.5591" stroke-linejoin="round" stroke-miterlimit="3.8637" d="
	M349.027,366.744c0,0,9.25-4.25,11.25-4.25s6.5-1,6.5-1l8.5-5.25l13,0.5l4,2.5l2.5,1.25c0,0,2,4.75,3.25,6.25s6,3.5,12.5,3.5
	s15.25,1.5,17.25,2.5s6.25,1.25,6.25,1.25l16.5-3.25l4.75,0.25"/>
<path fill-rule="evenodd" clip-rule="evenodd" fill="none" stroke="#646464" stroke-width="1.5591" stroke-linejoin="round" stroke-miterlimit="3.8637" d="
	M314.527,306.244l7.5-9c0,0,5.25-4.75,6.75-4.75s13.75-2.25,16-2.25s14-0.5,16.5-0.5s13.5,1.25,13.5,1.25s2.75,2.5,4.25,3.5
	s3,1.5,6.75,1.25s3.25-1.75,1.25-3.75s-3.75-4.75-3.75-4.75s-3-3.5,0-3.5s6.5-1.25,11.25-0.25s12.75,2.5,14.5,5.25s3.25,4.75,4,5.75
	s1,2.75,2.75,3s3.25,0.25,3.25,0.25s1.25,2.25,2.25,2.5s3.25,0.25,3.5-1.75s3.25-12.5,4.75-14s7.75-8.25,10.75-8.75
	s8.25,0.25,9.75,2.75s7.75,9,7.75,9s5.25,4.5,7.25,4s3.25-2.75,2.75-4.5"/>
<path fill-rule="evenodd" clip-rule="evenodd" fill="none" stroke="#646464" stroke-width="1.5591" stroke-linejoin="round" stroke-miterlimit="3.8637" d="
	M392.027,282.994l-2.25-7.75l-10-5.25c0,0-3.25-6-4.5-8.25s-3.75-5-0.25-5.75s8-3.25,8-3.25s5-5.5,6-6.75s5.25-7.75,5.25-7.75
	l0.25-10.25c0,0-3.5-4.5-3.5-6.5s-0.25-9-0.25-11s3.25-13.75,3.25-13.75"/>
<path fill-rule="evenodd" clip-rule="evenodd" fill="none" stroke="#646464" stroke-width="1.5591" stroke-linejoin="round" stroke-miterlimit="3.8637" d="
	M394.527,227.994c0,0,4.25-4.25,5.5-5s3.5,0,5.25,0.25s5.5,1.75,5.5,1.75l6.5,21c0,0-2.5,2.75-2.5,4.75s-0.5,2.75-1.5,3.75
	s-1.75,3-1.25,4.5s0.5,1.75-0.25,4.25s-2.25,5.75-0.5,7.75s1.25,4,1.25,5.5s0,5.75,0,5.75l-3.5,6.5"/>
<path fill="none" stroke="#646464" stroke-width="1.5591" stroke-linejoin="round" stroke-miterlimit="3.8637" d="M372.527,432.994
	l0.092-3.504c-0.078-1.447-0.133-2.622,1.346-4.157l0.334-0.355c0.723-0.807,1.987-3.515,1.54-4.644
	c-2.131-5.383-2.578-11.014-3.058-16.74c-0.25-2.979-0.002-4.56-1.048-7.876c-1.537-4.875-7.741-5.891-9.572-10.823
	c-0.67-1.805-1.727-6.346-2.767-7.635c-0.455-0.563-0.533-1.159-0.895-1.707c-0.797-0.719-1.883-1.318-2.767-1.895
	c-1.21-0.81-2.143-1.813-3.158-2.853l-0.503-0.507c-0.625-0.632-1.001-1.378-1.244-2.166l-0.801-1.639c0,0-4.75-2.5-6-4
	s-6-3-7.25-3.25s-4.5-0.75-6.25-2s-4.5-1.75-5.75-3s-2-4.5-1.75-6.25s0.535-17.136,0.535-17.136
	c-1.023-0.938-1.867-1.78-2.202-2.265l-0.126-0.223l-0.499-1.107l-0.082-0.233c-0.61-2.4,0.383-3.673,0.947-5.728
	c-0.255-0.757-0.298-1.559-0.537-2.317c-0.253-0.803-0.742-1.568-1.001-2.41c-1.427-4.639-0.921-4.88-4.313-9.273
	c-3.938-5.101-6.327-2.726-9.454-5.857l-0.362-0.369c-0.167-0.167-0.337-0.311-0.539-0.433l-0.439-0.252
	c-3.028-1.718-2.915-4.869-4.957-7.234c-1.71-1.98-2.529-2.897-3.186-3.917c-0.759-1.18-1.302-2.499-2.754-5.759
	c-0.643-1.443-2.958-5.195-4.57-5.648c-0.96-0.271-3.789-5.003-4.852-6.391c-0.659-0.859-0.961-1.761-1.515-2.6
	c-1.614-1.273-1.986-4.237-3.701-5.693c-0.399-0.339-0.722-0.714-0.993-1.162l-0.308-0.536c-0.665-1.182-3.169-2.149-4.27-2.149
	c-1.359,0-2.327,0.601-3.504,0.979c-0.968,0.311-5.551,1.41-6.563,0.773c-2.787-1.755-3.018-4.43-5.829-5.262
	c-4.108-1.216-6.26-9.021-8.523-12.33c-0.898-1.313-1.004-1.867-1.321-3.329l-0.179-0.833c-0.101-0.473,0.312-0.628,0.7-0.673h-0.81
	c0-1.171,1.035-3.37,0.866-4.12c-0.204-0.906-2.23-2.606-3.299-2.912c-2.829-0.81-4.738-2.131-7.944-1.455
	c-0.387,0.082-0.793,0.169-2.004,0.263c-1.023,0.153-2.246,0.149-3.258-0.174l-2.86-1.799"/>
<path fill-rule="evenodd" clip-rule="evenodd" fill="none" stroke="#646464" stroke-width="1.5591" stroke-linejoin="round" stroke-miterlimit="3.8637" d="
	M304.777,426.244l-1.5-2.25l-13,0.75c0,0,0,2.5-1.25,3.5s-4,1-6,1s-6-2-7.5-3.75s-5.25-3.75-5.75-5s-7.559-4.244-7.559-4.244"/>
<path fill-rule="evenodd" clip-rule="evenodd" fill="none" stroke="#646464" stroke-width="1.5591" stroke-linejoin="round" stroke-miterlimit="3.8637" d="
	M668.777,512.244l-14-2.5l-5.75-7.25l1.5-4.25l-1.75-2c0,0-0.5-3.75-0.5-5.75s-2.5-6.75-3.5-7.5s-5.5-6.5-6.25-7.5s-1.5-4-3.5-6.75
	s-5.25,1-6,2.5s-6.75,9-6.75,9s-5.75,7.25-7,8.25s-7.5,3-7.5,3s-6.75,3.5-8.75,4.25s-6,4.5-6,4.5s-4.25,2.75-5.5,3s-8,2.75-8,2.75
	s-6,3.25-7.25,3.75s-11.5,1.5-13.25,1.5s-4.5-1.25-6.5-2.25s-4.25-2.75-5.5-5s-4.558-2.011-4.558-2.011
	c-3.524,2.672-8.85-0.396-11.442-2.988c-2.071-2.071-3.491-7.222-4.175-10.178c-3.291-3.442-1.72-1.252-3.269-5.791
	c-1.782-5.222-3.716-2.972-7.458-8.21c-1.514-2.119-3.351-4.104-4.191-6.625c-0.416-1.247-4.586-8.42-6.65-7.626
	c-5.76,2.215-4.812-1.76-8.438-2.736c-0.765-0.206-2.629,1.455-4.208,2.004c-1.114,0.388-2.061,0.606-2.061,0.606l-0.458,0.03
	c-4.516-0.442-9.324,0.128-13.844,0.128c-0.919,0-5.978,0.698-6.25,0.874c-2.188,1.411-3.01,3.188-6.249,3.188
	c-1.044,0-2.224,0.02-3.365-0.028l-7.135,0.363c0,0-7.5-4-8.75-4.5s-3-1-4.5-0.5s-3.25,1.5-6,2s-2.75-0.25-4.5-0.75
	s-2.5-0.75-4.75-0.75c-2.5,0-4.75-0.75-8.25,1s-6.25-0.25-10.25-1.5s-9.75-5-11.25-7.5s-7.908-12.896-7.908-12.896
	c-0.744,0.339-1.583,0.561-2.592,0.561c-10.037,0-7.842-5.149-12.928-7.923c-2.528-1.379-7.792-2.577-10.072-2.577
	c0,0-8.75-5.165-9.75-5.915s-6.5-3-8.5-3.25s-4.5-0.25-4.5-0.25l-22,0.5l-6.75,1.5c-2.241,2.111-6.342,3.738-7.662,6.711
	l-0.198,0.467c-0.102,0.235-0.167,0.338-0.261,0.43c-1.444,1.424,0.61,9.184,0.729,10.829c0.157,2.174,0.123,3.012-0.973,4.593
	c-1.279,1.846-4.167,5.345-4.549,7.05c-0.301,1.339-0.886,2.459-1.401,3.725c-1.902,4.675-1.891,9.472,0.059,14.182
	c0.746,1.802,0.74,2.124,0.866,4.256c-1.158,2.098-1.846,2.502-3.442,4.053c-4.025,3.909-1.756,10.537-5.125,15.585
	c-1.172,1.069-5.391,5.898-6.683,7.677l-0.706,0.961l-0.513,0.551c-1.425,0.861-2.818,2.611-3.578,4.05
	c-1.133,2.146-0.688,3.365-1.195,5.345c-2.464,2.462-6.236,2.12-9.385,2.347c-4.464,0.322-14.442,4.814-17.882,8.29
	c-0.283,0.276-0.384,0.367-0.748,0.433c-2.245,0.409-4.377,2.102-5.922,3.689c-4.37,4.491-2.923,9.3-4.747,10.671l-0.367,0.273
	c-1.618,1.226-2.367,3.667-2.351,5.654c0.021,2.716-4.109,5.512-6.458,6.241c-1.973,0.614-4.71,1.448-6.756,1.797
	c-4.115,0.703-6.805,2.893-10.459,4.666l-0.605,0.28c-1.695,0.79-1.388,0.893-2.194,2.145c-1.415,2.198-1.849,4.043-1.776,6.718
	c0.172,6.256-2.953,5.314-4.235,10.123c-0.621,2.328-2.359,5.488-4.936,6.048c-1.791,0.389-5.561,3.309-6.636,4.601
	c-1.216,1.462-1.098,3.066-1.211,4.791c-0.17,2.585-1.243,3.568-2.143,5.658c-0.58,1.346-2.116,2.067-3.045,3.181
	c-0.474,0.312-3.647,1.749-4.022,1.901c-1.622,0.658-8.454,2.818-9.682,3.645l-0.223,0.186l-0.72,0.738l-0.177,0.223
	c-0.283,0.44-0.33,0.948-0.628,1.374l-0.281,0.378c-1.314,1.729-1.3,3.146-3.396,4.444l-0.941,0.566
	c-1.995,1.219-2.718,2.286-3.358,4.544c-1.138,4.016-4.12,5.33-5.713,8.826c-0.835,1.833-2.079,3.291-3.188,4.954
	c-2.348,3.518-1.627,4.823-3.641,7.746l2.735,1.914"/>
<path fill-rule="evenodd" clip-rule="evenodd" fill="none" stroke="#646464" stroke-width="1.5591" stroke-linejoin="round" stroke-miterlimit="3.8637" d="
	M105.027,480.244c0,0-0.5,5-0.5,6.5s0.25,4,1.5,5.25s12.5,10.5,14,11.25s20.75,7.75,22.25,8s8.75,2.5,10.5,2.25s5-6,5-6
	s-3.25-3-3.75-4.75s1-3,6.5-3.75s11.75-1.75,11.75-1.75s4,0.25,5.25,0s5.5-1.25,8.25-2.5s4-0.5,5,0s6.75,2.25,6.75,2.25
	s1.5,3.5,2.5,4.5s2,1.25,2.75,2.5s6.75,3.75,6.75,3.75s2,9.25,2,10.25s0.75,8,0.75,8s10.25,5,11.25,6s3.5,2.75,3.5,2.75l6.25,2
	l8,4.75l8.25,6.25c0,0,4-2.25,7-1s12.5,3.25,14.25,3s7.25,0.75,9.5,1.75s8,3.5,11.25,3.5s17.25,0,18.5,0s12,2.5,14.5,4.25s5.5,4,6,6
	s2.75,4,4,3.25s3-2.25,5-2.25s3.75,0.25,4.75-0.5s3.25-0.5,4,0.5s2.25,2.25,4.25,3.75s6,0.25,7.25-1.25s4.25-7,4.75-8
	s-0.5-4.75,4.75-5s12.5-0.25,12.5-0.25"/>
<path fill-rule="evenodd" clip-rule="evenodd" fill="none" stroke="#646464" stroke-width="1.5591" stroke-linejoin="round" stroke-miterlimit="3.8637" d="
	M317.777,556.744l1-3.5l-6-10.25c0,0-1.5-2.5-1.5-3.5s0.25-4.5,0.75-6s1-4,1-4l-1.75-2.75l1.25-2l-2.25-3"/>
<path fill-rule="evenodd" clip-rule="evenodd" fill="none" stroke="#646464" stroke-width="1.5591" stroke-linejoin="round" stroke-miterlimit="3.8637" d="
	M285.527,496.494c0,0,4.5,4.25,4.75,5.25s0.75,3.25,2,5.25s2,5.25,4.25,5.25s4,0,4,0l4.75,3.75c0,0-3.5,0.25-4.5,1.25
	s-2.25,1.5-2.25,2.75s-1.75,2,1,2.5s7.25,0.5,7.25,0.5s2.5,0,3.5-1.25s1.5-2.5,3-2.5s6.25,0,7-2.25s2.75-9.25,5.75-6.75
	s6.25,2.5,7.25,0.25s1.5-3,2.5-3.75s5.5-3.75,8-1.25s4.75,3,7.25,2.5s11-3.5,12.5-3.5s6-0.75,8.5,0.5s6,3,5.5,6.75
	s-2.5,12.5-2.5,12.5s-0.25,9.75,0.25,12s3.75,12.75,3.75,12.75l2.75,6.5c0,0,2.75,0.25,2.75,2s0.75,1.75,2.25,3s5,1.75,6.75,1.5
	s4.25-0.75,5.5-0.5s6.25,0.5,7.75,1.5s4.75,1.5,4.75,3.75s-1.25,8-1.25,8s-4.25,9.25-5,10.75s-4.75,8-5.25,9s-3.75,9.75-3.75,9.75
	l-1,6.25c0,0-2.5,8.25-3,9.5s-1.25,4.25,2,5.5s5.75,2.25,6,4.25s-0.5,3-1,4.5s-2,3.5-2,3.5l1.25,4.75c0,0,1.25,6.25,1.75,7.25
	s1.75,5.25,2,6.5s0,2.5,2.5,2.5s5.25-0.5,5.25-0.5l3.25,4.25"/>
<path fill-rule="evenodd" clip-rule="evenodd" fill="none" stroke="#646464" stroke-width="1.5591" stroke-linejoin="round" stroke-miterlimit="3.8637" d="
	M533.277,613.744c0,0-2.75-11.5-3.25-12.75s-1.75-3.5-3-5s-6.25-5-7.5-6s-7.75-3.5-9.5-4.5s-5.75-3.5-5.75-4.75s-1-3.5-2.25-5.25
	s-3.75-5-6.5-5s-9-0.5-9-0.5l-2.75-2.25c0,0,2.25-16,2.25-17.25s0.75-4-2-4.75s-3.75-1.5-5.5-1.5s-6.25,0-7.25,0s-2.25,0-3.5,1.75
	s-2,3.75-3.5,4.75s-3.25,1.5-4.25,3.25s-4.75,4-4.75,4s-6,0.75-9,1s-3.5,3.75-8.25,5.25s-6.5,4.25-7.75,6.25s-10.75,0.25-12.75-0.5
	s-6-3.25-6-3.25"/>
<path fill-rule="evenodd" clip-rule="evenodd" fill="none" stroke="#646464" stroke-width="1.5591" stroke-linejoin="round" stroke-miterlimit="3.8637" d="
	M212.527,670.994c0,0,2.5,0.25,6,0s9-1.5,9-4s0-3.75,1.5-5.25s4.75-4.5,4.75-4.5s7.75,6.5,10.5,8.75s4.75,2.5,7,2
	s4.75-3.25,5.5-4.25s6.25-7.25,6.25-7.25s3-10.5,4.5-13.25s3.75-6.75,6.25-6.75s7.5-1.25,9.25-2.75s4-3.25,4-4.5
	s0.75-9.5,0.75-10.75s-0.25-4.25-2.25-5.75s-5.25-4-5.75-5s-3.25-4.25-3.75-11.75s0.5-10.75,3.5-12.25s8.75-6.5,8.75-8.75
	s-1.25-5.75-1.5-6.75s-0.25-4-0.25-5s-0.75-3.25,1.5-4s3.25-3.25,3.5-4.25"/>
<path fill-rule="evenodd" clip-rule="evenodd" fill="none" stroke="#646464" stroke-width="1.5591" stroke-linejoin="round" stroke-miterlimit="3.8637" d="
	M370.777,504.244l1.75-2c0,0-4-2.25-2-4.5s4.25-10,4.25-10s8.25-0.75,11,0s9.5,0.75,9.5,0.75l7.25-4l6.5-3.75c0,0,4-4.75,5.25-6
	s1-2.25,3.5-2.25s3,0,4.5,1.25s2.5,2.25,2.5,2.25l4.75,1c0,0,8,1,9,2.25s1.25,1.25,3.25,1.25s4.75,1.75,4.75,1.75s5.75,5.25,7,7
	s2.25,3.25,2.25,3.25l0.75,3.25l5.25,0.5l3.5,1c0,0,7.25,0.25,9.25,2s3,0.5,5.75,1s5.5,1,5.5,1l4.75,0.75c0,0,3.75,1.75,5,3.25
	s4,2.25,5.75,2s3-1,4,0s5.5,2.5,6.75,3.5s4,4.25,4.25,7.75s0.25,9.75,0.25,9.75s2.25,5.5,2,6.75s-3,4.25-3,4.25s-1.25,5,0.25,6.5
	s3,4,2,5.25s-4.75,6-4.75,6s-3.75,5.75-3.25,7.5"/>
<path fill-rule="evenodd" clip-rule="evenodd" fill="none" stroke="#646464" stroke-width="1.5591" stroke-linejoin="round" stroke-miterlimit="3.8637" d="
	M63.765,660.45c0,0,8.011,1.294,10.261,1.294s7.75-0.5,11.5-1.25s8.5-2,10.75-5.5s3.25-7,4-8.5s1.5-2.75,0-4.5s-4-3.5-4-3.5
	s-1-6,2-7.5s4.5-4.75,4.75-7.25s0.5-7,0.5-7s-7.75-7.25-8.25-9.25s-1.75-13.75,2.5-17.25s7.5-7.25,8.25-9s3.75-13.75,5.5-15
	s3-3.5,3-3.5v-4c0,0-4.75-8.5-4.5-11.75s1.25-12.75,2-14.75s1.75-9.75,3-11.5s4.25-6,4.25-6l-2.25-3l0.25-3.25c0,0-0.5-2.25,0.75-2
	s3.25,1.5,3.25,1.5l1.75-3.25"/>
<path fill-rule="evenodd" clip-rule="evenodd" fill="none" stroke="#646464" stroke-width="1.5591" stroke-linejoin="round" stroke-miterlimit="3.8637" d="
	M198.027,497.994l9.5-18l4.75-12.75c0,0-4-9-4.75-11.25s-1-11.75-0.75-13.25s4.5-11.25,6.75-13.5s3.25-5.75,3.25-5.75l7.702-4.312"
	/>
<path fill-rule="evenodd" clip-rule="evenodd" fill="none" stroke="#646464" stroke-width="1.5591" stroke-linejoin="round" stroke-miterlimit="3.8637" d="
	M187.777,285.244c0,0,4.5-2.25,6.25-1.25s2,1.5,3.25,3s3.75,4.5,3.75,4.5l6.25,0.25l2.75,2l6.25-0.5c0,0-3-2.75,0.5-5.75
	s4-4.25,4-5.75s2.5-1.75,4-1.75s4.5,1,4.5,1l7.5,4c0,0,0.75,1.5,3.25,1.5s6.5,0,6.5,0l7.25,6l4.25-0.5c0,0,15.75,8.25,17.25,11.25
	s4.5,6.25,6.5,7.25s5,2.25,6.75,3s10.75,0.5,13.25,0.5s17-0.75,17-0.75"/>
<path fill-rule="evenodd" clip-rule="evenodd" fill="none" stroke="#646464" stroke-width="1.5591" stroke-linejoin="round" stroke-miterlimit="3.8637" d="
	M241.961,384.835c0,0-3.684-13.342-3.934-16.092s-0.25-5.25-0.25-5.25l-3.5-7.25c0,0-1.5-5,0.25-5.5s4.5-2.5,6.5-2.5s5-0.25,6.25-1
	s10.75-3.25,11.5-4.25s7-7.25,7-7.25s2.25-1.25,4.75-0.75s6.75,2,8.75-0.25s6-5.25,7-6.25s4-4.5,5-6s2.75-8.5,2.75-8.5"/>
</svg>
