<?xml version="1.0" encoding="UTF-8" standalone="no"?>
<svg
   xmlns:dc="http://purl.org/dc/elements/1.1/"
   xmlns:cc="http://creativecommons.org/ns#"
   xmlns:rdf="http://www.w3.org/1999/02/22-rdf-syntax-ns#"
   xmlns:svg="http://www.w3.org/2000/svg"
   xmlns="http://www.w3.org/2000/svg"
   xmlns:xlink="http://www.w3.org/1999/xlink"
   xmlns:sodipodi="http://sodipodi.sourceforge.net/DTD/sodipodi-0.dtd"
   xmlns:inkscape="http://www.inkscape.org/namespaces/inkscape"
   width="1612.9297"
   height="2221.113"
   id="svg2"
   version="1.1"
   inkscape:version="0.92.4 (5da689c313, 2019-01-14)"
   sodipodi:docname="India_Chhattisgarh_location_map.svg">
=  <g
     inkscape:groupmode="layer"
     id="layer5"
     inkscape:label="Districts"
     style="display:inline"
     transform="translate(107.81721,0)">
    <path
       style="display:inline;fill:#fefee9;stroke:none;stroke-width:3;stroke-linecap:butt;stroke-linejoin:round;stroke-miterlimit:4;stroke-opacity:1;stroke-dasharray:none"
       d="m 603.90154,1598.3396 -2.77528,-11.6562 -6.10562,-4.9955 -4.99551,6.1056 -8.32585,0 0,-4.4405 4.99551,-3.8854 0,-9.4359 -2.22023,-3.3304 0,-7.7707 7.21574,-3.8854 -1.66517,-17.7619 -3.8854,-3.3303 -0.55505,-11.6562 2.22022,-11.6562 4.99551,-4.4404 -1.66517,-11.6562 -3.88539,-1.6652 -16.09664,1.6652 -4.99551,-3.3303 -2.77529,-9.9911 0,-4.4404 -2.22022,-3.8854 -7.77079,-1.1101 -9.43597,-7.7708 -6.66067,-0.5551 -7.7708,-5.5505 -6.10562,-11.6562 0.55506,-6.6607 3.88539,-7.7708 -1.66517,-8.8809 4.44046,-6.1056 7.77079,-3.8854 12.21124,-14.4315 0.55506,-5.5506 9.43596,1.1102 9.43596,16.0966 8.32585,1.6652 3.33034,9.991 3.33034,-0.5551 3.8854,-7.2157 0,-5.5506 6.66068,0.5551 3.33033,6.6607 6.10563,0 2.22022,6.1056 4.99551,1.1101 4.44045,-1.6652 9.99102,5.5506 2.77529,7.7708 7.77079,-1.6652 1.66517,-2.7753 0.55505,-4.4404 4.99551,1.6651 6.66068,4.9956 3.8854,16.0966 7.77079,15.5416 8.32585,6.6607 4.44045,13.8764 9.43596,-5.5506 1.66517,-7.2157 3.33034,-5.5506 8.88091,-3.3303 0,-3.3304 12.7663,-3.3303 14.43147,3.8854 6.10562,6.1056 12.21124,-0.555 6.10563,3.3303 0,8.8809 -3.33034,4.4404 -1.11012,9.9911 5.55057,2.2202 1.11011,7.2157 9.99102,-6.1056 c 0,0 3.8854,-6.1056 7.21574,-11.1011 3.33034,-4.9955 7.77079,-6.1056 7.77079,-6.1056 l 9.43596,2.2202 5.55057,-6.6607 0,-8.8809 -7.21574,-7.2157 5.55057,-6.1057 -0.55506,-22.7573 -5.55057,0 -8.32584,-3.3303 -13.32136,0 -4.99551,4.4404 -7.77079,-2.2202 -2.22023,-2.7753 -8.8809,-4.4404 -11.65619,0 -13.32136,-3.8854 -7.77079,-5.5506 -9.99102,0 -6.10562,-4.4404 -0.55506,-6.6607 4.44045,-3.3304 -1.11011,-13.8764 -3.33034,-4.9955 1.66517,-5.5506 7.77079,-9.991 0.55506,-9.4359 -4.99551,-4.9955 2.22023,-8.3259 5.55056,-6.6607 -1.11011,-6.1056 -8.88091,-7.2157 1.11012,-6.1056 3.88539,-3.3304 4.99551,-13.8764 0.55506,-11.1011 -4.99551,-8.8809 1.11011,-4.9955 -5.55056,0 -1.66517,9.4359 -3.8854,-3.8854 2.77528,-11.6562 -3.88539,-4.4404 -8.88091,-6.1056 -1.11011,-7.7708 -3.33034,-4.9955 3.33034,-9.9911 3.8854,-1.1101 1.66517,-6.6607 3.33034,-2.7752 -1.66517,-8.8809 -4.99551,-6.6607 -1.11012,-11.6562 -5.55056,-19.982 3.33034,-21.6473 1.11011,-9.4359 -3.33034,-4.4405 4.99551,-2.2202 5.55057,2.2202 0,6.1057 7.77079,-3.3304 3.88539,1.6652 1.11012,11.1011 4.99551,3.8854 12.7663,0 5.55056,-4.4404 -1.11011,-11.1012 -1.66517,-7.7708 4.99551,-6.1056 4.99551,-0.555 11.10113,-5.5506 2.77528,-8.3259 6.66068,-8.8809 6.66068,-2.7752 8.32585,-14.9866 0,-4.9955 -3.33034,-3.3303 0.55506,-2.7753 7.21573,-3.3303 0,-4.4405 3.8854,-4.9955 -1.66517,-6.6607 -3.33034,-3.3303 6.66068,-3.8854 10.54607,2.2202 6.10562,-3.8854 16.09664,0.5551 4.44046,6.1056 4.99551,-1.1101 2.77528,-4.9955 10.54607,-2.2203 4.99551,3.8854 2.22023,-3.8854 14.43147,1.1102 7.21573,3.3303 4.44046,-4.4405 11.65618,1.6652 11.10114,11.6562 11.10113,0.5551 11.65619,8.8809 12.7663,-0.5551 6.10562,-8.3258 8.8809,-2.2203 3.8854,-7.7708 2.22023,-12.7663 6.10562,-11.1011 -3.8854,-7.2157 5.55057,-6.6607 12.7663,-3.8854 0,-5.5506 -7.21574,-4.44042 c 0,0 7.21574,-7.77079 8.32585,-10.54608 1.11012,-2.77528 -2.22022,-12.21124 -2.22022,-12.21124 l 4.9955,-1.11011 7.21574,10.54607 12.7663,0 11.65619,6.66068 5.55055,-7.77079 -1.1101,-7.77079 -6.66068,-4.44046 -0.55505,-7.21573 -7.7708,-8.32585 -2.77528,-9.43596 -4.99551,-6.10562 4.99551,-8.88091 4.44045,-4.44045 1.66517,-9.43596 -1.66517,-10.54608 4.99551,-7.21573 6.66065,-2.77529 7.7708,-6.10562 4.4405,1.66517 3.3303,7.21574 5.5506,0 5.5505,-7.7708 -1.1101,-4.9955 -12.2112,-2.22023 -5.5506,-6.66068 2.2203,-4.99551 9.991,-1.11011 1.6651,-4.44045 4.9955,-6.66068 0.5551,-4.44046 -3.8854,-3.33033 -2.2202,-5.55057 6.1056,-3.8854 -2.2202,-3.88539 3.8854,-5.55057 7.7708,5.55057 4.9955,-11.10113 4.9955,-1.66517 8.8809,0 0.555,-6.10563 -2.2202,-6.10562 0,-5.55056 5.5506,-6.10563 -3.8854,-6.10562 -8.3259,-2.77528 -4.4404,-10.54608 0,-16.09664 -2.2202,-7.21573 4.9955,-6.10562 7.2157,1.11011 6.1056,-2.22023 0,-6.66068 -8.8809,-7.77079 4.9955,-8.32585 6.6607,-6.10562 5.5506,-19.98203 12.7663,-6.10563 2.2202,-4.44045 4.4405,-2.77528 13.3213,2.22022 11.1011,-2.22022 c 0,0 2.2203,-3.33034 3.8854,-7.77079 1.6652,-4.44046 6.1057,-4.99551 6.1057,-4.99551 l 6.6606,-1.66517 3.3304,-7.21574 9.991,-12.21124 14.4315,-1.66517 4.4404,-2.77529 13.8764,2.22023 11.6562,-4.44045 3.3304,-16.6517 4.4404,-1.11011 1.1101,-9.99102 -2.7753,-6.66068 -7.2157,-2.77528 -7.7708,-6.66068 0,-6.10562 6.1056,-5.55057 -2.2202,-6.66068 8.8809,-8.8809 6.1056,-0.55506 5.5506,-5.55056 -1.1101,-7.21574 6.1056,-3.8854 8.3259,0.55506 9.4359,3.33034 12.7663,-8.32585 4.4405,0 7.7708,-7.21573 3.8854,-11.65619 0,-10.54608 8.3258,-6.66067 6.6607,1.66516 2.7753,-4.44045 1.6651,-7.77079 8.3259,-4.99551 0,-11.65619 4.9955,-8.32585 9.436,0 2.7753,-3.88539 0.555,-11.10113 4.9955,-5.55057 0,-6.10562 -10.5461,-5.55057 -0.555,-7.21573 -9.991,0.55506 -4.4405,8.8809 -11.1011,-4.44045 -1.1101,-4.99551 -8.3259,2.77528 -9.991,-3.33034 -4.4404,-7.77079 -0.5551,-6.66068 -6.6607,1.66517 -2.7753,8.88091 2.2203,6.66068 -3.8854,6.10562 -4.4405,-1.11012 -0.555,-5.55056 -4.4405,-6.10562 -1.6652,-10.54608 2.2203,-6.10562 -1.6652,-9.43596 -8.8809,-8.88091 -9.436,-0.55505 -8.8809,-11.10114 0.5551,-10.54607 7.2157,-8.88091 -3.3303,-19.42697 6.1056,-23.86744 2.7753,0 -1.1101,-5.55056 -5.5506,-4.44046 -2.7753,-6.10562 -8.8809,-0.55505 -6.6607,7.21573 -5.5505,0 -4.9955,-8.32585 3.3303,-7.21573 1.1101,-21.09215 12.2113,-12.21125 4.4404,-13.87641 -2.2202,-18.31687 -9.991,-9.99102 -9.436,-0.55505 -7.2157,11.65619 -1.6652,12.21124 -7.7708,0 -3.3303,-4.44045 -9.9911,-3.8854 -12.7663,0.55506 -9.4359,-1.66517 -7.7708,-11.10113 -6.1056,-2.22023 0,-3.33034 4.4404,-1.66517 -2.2202,-5.55056 -8.8809,-4.44046 0,-7.77079 6.1056,-8.32585 -3.8854,-16.09664 -5.5506,-3.33034 -2.7752,-15.54158 -12.7663,-1.66517 -4.4405,-5.55057 -21.6472,-2.77528 -1.6652,-3.33034 2.7753,-4.44045 -3.8854,-3.8854 -6.1056,-1.66517 0.5551,-8.8809 -6.6607,-10.54608 -3.3304,-3.88539 -2.7752,-10.54608 2.2202,-4.44045 -3.3304,-5.55056 -12.2112,-2.220231 -6.6607,-4.995509 -1.1101,-6.105623 -3.3303,-5.550565 -7.2158,0 -9.99099,-5.550566 -2.77528,-2.775283 -13.32136,1.66517 -9.99101,12.766301 0,8.325849 -5.55057,7.770787 -7.21574,1.11012 -8.32584,11.10113 -1.66517,11.65619 -9.99102,11.65618 -24.97755,9.99102 -13.32136,0 -17.76181,2.77529 -15.54158,-1.66517 -5.55056,-4.44046 -12.21125,-3.88539 -9.99102,-11.65619 -4.99551,-6.66068 -3.33034,-3.33034 -7.77079,2.22023 -2.77528,7.21573 -16.09664,6.66068 -8.88091,-3.33034 -13.32135,2.77529 -6.10563,10.54607 1.11012,7.21574 -4.44046,7.77079 -16.09664,7.21573 -6.10562,-0.55505 -7.21573,3.88539 0.55505,6.10562 -4.99551,1.66517 -12.7663,-0.55505 -4.44045,-7.77079 -4.44045,-0.55506 -12.21125,4.44045 -17.76181,-0.55506 -3.88539,-4.9955 -22.75732,-0.55506 -7.77079,5.55056 -11.10114,-5.55056 -4.9955,-7.21574 -3.8854,0 -7.77079,7.21574 -16.6517,2.22023 -16.09664,-4.99551 -3.33034,-5.55057 -10.54607,-4.44045 -16.6517,-0.55506 -3.33034,-3.33034 -7.21574,2.77529 -3.88539,6.66067 -16.6517,8.32585 -8.8809,-0.55505 -3.33034,3.33034 -7.77079,-0.55506 -3.33034,-4.44045 -4.99551,-1.11012 -4.44046,-3.33034 0,-6.10562 c 0,0 -5.55056,-6.10562 -8.32584,-9.99102 -2.77529,-3.88539 -11.10114,-6.10562 -11.10114,-6.10562 l -4.44045,-7.21573 -4.99551,2.77528 -3.88539,5.55056 -7.21574,7.21574 4.99551,12.7663 3.33034,3.33034 1.11011,16.6517 4.44046,6.66068 7.77079,1.66517 4.44045,9.43596 0,8.8809 -11.65619,7.21574 -13.32136,11.65619 -5.55056,14.43147 -4.99551,0.55505 -3.33034,3.33034 0,6.66068 12.7663,4.44045 2.22023,16.09664 8.8809,4.44046 3.8854,-1.66517 2.77528,-6.66068 11.65619,-2.77529 11.10113,-11.65618 6.66068,0 6.10562,7.21573 8.88091,-2.22022 4.44045,10.54607 16.09664,2.22023 6.66068,-5.55057 8.8809,0.55506 6.10563,4.99551 1.11011,12.7663 7.77079,2.77528 2.22023,8.32585 0,7.21573 10.54607,2.22023 4.44045,7.21574 8.88091,-0.55506 3.33034,-2.77528 6.66068,0 3.33034,6.10562 6.10562,6.66068 6.10562,0.55505 5.55057,11.10114 7.21573,0 6.10562,4.44045 -1.11011,8.8809 -3.88539,4.99551 -3.8854,-3.33034 -10.54607,18.31687 -0.55506,19.98204 4.99551,6.66068 -3.33034,7.21573 -6.66068,6.10562 -7.21574,0 -6.10562,-4.44045 -8.32585,3.33034 -6.10562,8.32585 -11.65619,2.22022 -6.66068,-2.22022 -13.32135,7.21573 -1.11012,8.88091 4.99551,14.43147 -4.44045,8.8809 -5.55057,3.8854 -12.7663,17.76181 -19.42698,6.10562 -3.88539,-3.33034 -8.32585,3.8854 0.55506,16.6517 7.21573,8.32584 -0.55506,12.76631 -6.98886,5.53142 -4.88184,2.44091 0,6.40741 3.35627,3.05115 0,5.79718 c 0,0 -3.9665,2.1358 -5.18695,2.74603 -1.22046,0.61023 -0.30512,5.49206 -0.30512,5.49206 l 3.35626,4.57672 -0.30511,0.91535 -8.84833,0 -1.52557,-3.35626 -10.98413,4.57672 -3.05114,6.71252 -5.49207,3.35626 -1.83069,5.79718 1.52558,9.45855 -2.74604,2.44092 -3.05114,-0.61023 -3.35626,2.44092 0,5.79718 -4.27161,3.35626 -3.05115,-1.22046 1.22046,-3.35626 -3.96649,-2.74603 -7.01763,1.22045 -4.27161,7.01764 -3.05115,0 -2.1358,-5.49206 -4.2716,2.1358 -3.66138,8.2381 -6.10229,0.91534 -7.01764,5.49206 -5.49206,7.32276 -7.93299,3.35626 0,5.18695 -3.35626,0 -7.01763,-3.66138 -3.05115,-11.89947 1.83069,-5.49207 -4.57672,-3.96649 -13.11993,1.22046 -1.83069,-1.83069 -4.27161,3.66138 2.13581,6.10229 3.05114,2.74604 -1.52557,4.57672 -3.35626,-0.61023 -0.91535,-3.35626 -3.66137,-2.74604 0,-1.52557 -4.27161,-1.22046 -3.66137,3.05115 -1.83069,7.01764 -6.40741,3.35626 -1.83069,6.10229 -3.96649,0.61023 -5.79718,-4.88184 -1.52557,-3.66137 0.61023,-7.62787 -2.74603,-1.22046 -5.79718,2.44092 -2.74603,6.40741 -7.93298,5.79718 -5.49207,0.61023 -5.79718,7.93298 3.35626,15.86596 3.05115,3.66138 -0.30511,17.39153 -1.52558,5.79718 -3.35626,4.27161 0.30512,5.49206 -4.88184,3.66138 -6.40741,1.83068 -3.05114,4.27161 -3.05115,-1.52557 -4.57672,2.44091 1.22046,6.1023 2.44092,3.05114 -2.44092,1.22046 -6.10229,6.71252 0.30511,6.71253 4.27161,4.57672 -2.44092,3.05114 -3.35626,1.83069 -3.66138,-0.91534 -3.66137,2.1358 1.22045,4.57672 5.49207,3.35626 0,3.66138 -3.66138,3.35626 1.52558,7.01764 -2.44092,3.66137 -6.71252,0 -2.74604,-14.03527 0.30512,-4.88184 -4.27161,-4.57672 -8.54321,0.91535 -5.49206,4.2716 -1.22046,6.71252 -3.66138,1.83069 -1.83068,4.88184 -0.61023,13.42504 -4.57672,6.71252 0,6.71253 -6.1023,6.10229 -5.18695,1.83069 0.30512,2.74603 2.44092,1.52557 c 0,0 0,5.79718 0,7.32276 0,1.52557 -3.35627,6.71252 -3.35627,6.71252 l 3.05115,8.54321 3.35626,3.35626 -1.22046,11.59436 -2.44091,1.22046 0,10.67901 -1.83069,4.2716 -3.96649,4.57672 -0.91535,5.79718 -4.57672,1.22046 -7.32275,-1.83069 -0.91534,-3.66137 -4.57672,0 -5.79718,5.49206 -4.27161,11.89947 c 0,0 0.61023,22.57849 0.61023,24.10406 0,1.52558 -2.44091,6.1023 -2.44091,6.1023 l -0.61023,20.13756 5.79718,11.28925 -1.52558,15.56084 -1.52557,8.54321 -8.2381,7.62787 0.30512,14.6455 -3.35626,1.52558 -2.13581,5.18695 -3.96649,4.88183 0,3.66138 5.49207,5.49206 -3.96649,7.01768 -4.57672,1.2204 -2.13581,7.3228 -9.45855,11.5943 -6.10229,1.5256 -9.76367,6.7125 -12.20459,1.2205 -10.3739,8.8483 -5.79718,0.3051 -10.068781,11.5944 0,4.2716 3.661376,2.1358 0,3.3562 -1.830688,0.9154 -0.305115,10.9841 5.492068,3.6614 -4.271609,12.2046 -5.492064,3.3562 0,6.1023 5.186949,4.8819 1.525574,11.2892 8.2381,5.7972 15.56084,0.9153 4.88184,6.1023 4.2716,18.612 -0.0636,11.0276 -5.41982,2.1679 -0.72265,6.5038 3.97454,10.4784 2.89057,3.2518 3.61322,15.1756 5.0585,3.2519 -3.61321,4.3358 -3.61322,-0.7226 -8.3104,3.6132 -5.41982,4.3358 -6.14247,0 -6.14247,7.5878 0,6.1425 6.14247,8.3104 12.28494,-0.3614 12.64625,-8.3104 3.97454,0 3.97454,2.168 4.69718,0 0.72264,9.3943 -2.52925,4.3359 0,9.3944 -4.33586,20.9566 -3.61322,3.6132 3.2519,5.7812 -0.72264,9.3943 -5.78115,3.2519 0.36132,4.3359 6.14247,3.2519 1.44529,7.5877 2.52925,1.084 -1.08397,7.9491 -2.52925,3.2519 -5.78114,-1.4453 -5.41983,4.3358 -5.78114,0.3614 -4.33586,4.6971 1.08396,2.5293 -2.89057,3.2519 -7.58776,2.5292 -6.50378,-2.5292 -9.39437,3.9745 -1.445282,2.5293 -9.755684,3.2519 -3.251894,-1.8066 -6.503789,2.5292 0.361322,2.8906 3.974537,0.7226 -0.39284,5.4958 5.513658,1.1028 1.102732,4.0433 -2.205464,4.7785 -4.410926,0.3676 -0.735155,5.8812 -2.57304,1.4703 0,3.6758 8.454276,2.573 2.205463,5.1461 9.557008,-1.1027 2.205458,-5.1461 8.0867,0 2.94062,6.2488 6.98397,0 5.51366,4.7785 1.10273,11.3949 4.04335,2.5731 -2.57304,6.9839 -2.20547,1.8379 0,5.1461 1.47031,11.3949 2.57304,2.573 -0.73515,6.984 -6.24881,5.5137 0,5.5136 -6.98397,3.3082 -6.98397,-2.2055 -2.20546,-6.6163 -4.77851,-1.8379 -1.10273,-1.4703 -3.308192,0 -5.513658,4.0433 -3.308195,0 -3.308195,4.7785 1.102732,7.7191 8.821853,4.0434 8.821855,0 4.41092,-3.3082 6.98397,3.3082 0,5.1461 -8.0867,6.6164 0.73516,2.9406 4.04335,2.573 0,3.6758 -3.67578,1.4703 -4.7785,-1.8379 -7.71912,4.4109 -0.367578,2.5731 -7.719121,1.4703 -2.573041,-1.4703 -3.308195,1.4703 0,3.6758 9.557008,0.7351 7.719121,-1.4703 4.043346,3.6758 2.94062,2.573 4.04335,0 0,-5.1461 -3.30819,-3.6757 2.57304,-2.5731 4.41092,-1.4703 3.67578,-4.4109 7.35154,0.7351 4.04335,4.0434 0,9.9246 2.94062,7.7191 10.29216,8.0867 13.96793,6.6164 3.67577,0 5.14609,3.6758 1.10273,10.6597 -0.36758,7.7191 -3.3082,4.0434 4.41093,5.8812 5.51366,1.8379 3.67577,-1.8379 6.24881,0.7352 12.49763,7.3515 2.20546,6.984 7.71912,1.1027 5.14609,-1.4703 4.41092,3.6758 3.3082,6.2488 9.557,2.9406 7.35155,6.2488 0.73515,8.4543 2.57304,2.2054 0,5.1461 -4.41092,3.6758 -2.57304,-0.3676 -2.82878,1.356 -6.67337,1.4829 -5.93187,-1.1122 -5.93188,1.483 -1.85371,3.7074 -4.81965,0.3707 -0.74149,5.9319 5.93188,2.5952 0.37074,5.5611 6.30262,5.9319 4.44891,0.3708 -2.22445,5.5611 -7.78559,6.6734 -4.07817,0 -5.93188,5.5611 -1.48297,3.3367 -8.15633,4.8196 -4.07816,0 -4.44891,2.966 -5.19039,-1.1123 -2.96594,-3.3366 -1.48297,-5.9319 2.22445,-4.0782 -1.85371,-3.7074 -3.70742,0 -5.93188,2.9659 -1.85371,5.5612 -3.70743,1.8537 -5.56113,0 -3.33668,-3.7075 0,-5.9318 -2.22446,-3.7075 -3.33668,0 1.48297,-9.2685 3.33668,-1.1122 -0.37074,-4.4489 -6.67336,-6.6734 -5.19039,3.3367 -4.07817,0 -5.56114,5.1904 0.37075,9.6393 -4.44891,4.0781 -4.81965,0.7415 -2.96594,-2.2244 -6.30262,4.0781 -3.70742,10.7516 0,3.3366 -1.85372,7.7856 -10.01004,3.3367 -7.414847,0.3708 -5.190393,5.9318 -0.370742,4.8197 4.819651,7.7856 -2.965939,4.8196 -5.931878,1.1122 -11.863755,11.1223 0,7.4149 5.190393,8.8978 0,4.8196 -8.156332,5.5612 -4.078166,-0.3708 -1.482969,4.4489 0.741485,10.0101 -5.561136,2.9659 -4.81965,7.0441 2.224454,15.5712 7.414847,4.4489 6.673362,9.2686 5.190393,10.01 6.673362,7.4149 -3.336681,7.7855 -9.268558,5.5612 -5.190393,0.3707 -2.224454,5.1904 -8.527074,4.8197 -4.819651,0 -0.741485,5.5611 5.931878,2.9659 8.897816,11.1223 4.819651,9.2686 7.785589,21.1323 4.819651,6.3026 4.81965,-4.0782 4.448908,-0.3707 5.561136,4.0782 2.595196,-0.3708 2.224454,-5.9319 9.268559,-5.9318 14.088208,0 5.93188,2.9659 2.5952,8.8978 9.26855,7.4149 2.5952,-2.2245 13.71747,12.976 5.93187,2.2244 2.5952,4.449 0.37074,8.8978 5.93188,4.4489 6.67336,2.5952 4.44891,7.0441 0,6.3026 3.33668,3.7074 5.1904,1.8537 0,13.7175 6.30262,9.2686 0.74148,13.3467 8.89782,8.5271 3.70742,0 2.5952,2.5952 -2.5952,4.8196 -8.52707,5.1904 -5.56114,1.8537 -1.11223,11.493 1.11223,7.0441 11.86376,2.5952 4.03914,-3.6491 4.92099,-0.703 5.27248,-3.515 -0.703,-5.624 -2.46049,-5.624 2.10899,-2.109 1.406,-4.5695 3.86648,-0.703 1.0545,3.1635 7.38147,4.921 0.3515,4.5695 -5.62398,1.0545 -1.0545,4.5695 0.703,7.3815 3.86649,1.406 1.40599,5.9754 -2.10899,2.812 11.24796,0 8.43597,-5.624 4.21799,-7.0299 3.51498,0.3515 1.406,4.5694 6.67847,0.3515 2.81199,-2.8119 1.406,5.6239 -8.08447,2.812 -1.0545,8.0845 -4.21798,2.109 -1.7575,6.327 5.97548,4.9209 2.10899,21.09 4.21799,7.0299 1.40599,14.763 6.67848,8.0845 0.3515,19.3324 -0.703,3.8665 0,3.1635 4.56949,2.109 1.40599,5.6239 0.3515,3.515 7.73297,1.7575 7.02998,1.406 6.32697,-5.2725 0,-3.8664 9.49047,-3.8665 3.16349,-4.5695 5.27248,-2.109 1.40599,-4.218 7.73298,-0.3515 5.97548,6.327 12.65395,6.6785 17.22344,-0.703 12.30246,0.3515 1.40599,2.109 12.30246,1.0545 2.46049,-1.0545 -2.46049,-5.9755 3.16349,-10.1935 0.35149,-7.3815 6.67848,-3.8664 3.16349,3.8664 5.97548,-1.7575 -0.703,-14.7629 4.56948,-7.3815 6.67848,-2.812 1.0545,-9.4904 -3.51499,-16.5205 2.81199,-4.218 4.56948,-1.406 2.81199,-4.2179 1.0545,-8.7875 -2.10899,-4.921 1.40599,-3.8665 c 0,0 2.10899,-0.703 3.16349,-2.4605 1.0545,-1.7575 2.10899,-5.9754 2.10899,-5.9754 l -5.97548,-5.9755 0,-8.0845 5.27249,-6.327 1.40599,-13.3569 4.56948,-4.5695 2.81199,3.1635 5.62398,-2.812 4.92099,-9.4905 8.78746,-2.109 2.81199,2.109 6.67848,-3.8665 3.86649,-7.0299 10.19346,-2.109 3.86649,2.109 9.49046,-0.3515 7.38148,-5.624 -2.109,-4.921 1.406,-8.7875 8.11157,-12.7375 11.16608,-5.583 8.83981,-9.3051 c 0,0 0,-7.4441 1.39576,-9.3051 1.39576,-1.861 11.63133,-13.0271 11.63133,-13.0271 l 9.77032,-1.3957 6.51354,-4.1873 0,-4.6525 -6.51354,-4.6526 -11.16608,-1.3957 -1.39576,-3.722 6.9788,-0.9306 4.18728,-3.722 -7.90931,-5.1178 2.79152,-3.2567 0.93051,2.7915 12.09658,6.5135 3.25677,-2.3262 -1.86101,-8.3746 10.70083,-12.5618 13.49234,-6.0483 8.83981,2.7915 7.90931,-2.3263 -1.86102,-3.722 3.25678,-7.9093 9.77031,0 9.30507,-6.9788 4.18728,-14.4229 -2.32627,-11.6313 6.9788,-12.5618 7.44405,-2.7915 4.65253,1.861 5.11779,-1.861 -2.32627,-16.2839 0.46526,-11.6313 -4.18728,-11.1661 -6.51355,-2.3263 -5.11778,-9.7703 1.39576,-7.4441 3.72202,-1.3957 0.93051,-6.5136 -3.72203,-4.6525 -7.9093,-1.861 -0.46525,-6.5135 5.58303,-3.2568 0,-7.9093 -7.44405,-4.6526 -1.39576,-13.4923 -0.46525,-9.7703 7.44405,-11.6314 4.18728,-1.3957 0,-4.1873 -13.49234,-6.5135 -0.46526,-3.2568 4.65254,-3.722 4.18727,0.9305 6.51355,-5.5831 -6.04829,-3.2567 4.18728,-2.7916 0.46525,-3.722 -4.65253,-2.7915 -6.04829,3.2568 -10.70083,-3.2568 -1.39576,-5.583 -4.18728,-2.3263 z"
       id="path3899"
       inkscape:connector-curvature="0" />
    <path
       style="fill:none;stroke:#646464;stroke-width:1;stroke-linecap:butt;stroke-linejoin:miter;stroke-opacity:1;stroke-miterlimit:4;stroke-dasharray:none"
       d="m 649.77657,458.05311 -5.37079,-5.8445 -4.02809,-9.8907 2.23783,-4.04619 0,-4.49577 -10.74157,-6.74366 -1.79026,-9.44111 1.79026,-4.94535 -7.16104,-9.44112 -3.58053,-2.69747 -1.21685,-5.29724"
       id="path3933"
       inkscape:connector-curvature="0"
       sodipodi:nodetypes="ccccccccccc" />
    <path
       style="fill:none;stroke:#646464;stroke-width:1;stroke-linecap:butt;stroke-linejoin:miter;stroke-opacity:1;stroke-miterlimit:4;stroke-dasharray:none"
       d="m 754.21894,440.17814 -4.95999,-0.99645 -1.27543,-1.42352 -2.40914,-0.42705 -1.84227,2.13527 -9.63656,0.14234 -3.40114,2.56233 -11.47884,7.82931 -2.69257,-0.28471 -8.50285,-9.53752 -9.77827,0 -17.00569,2.98937 -4.39313,6.83286 -4.53485,8.39871 -22.67425,-0.42705"
       id="path3935"
       inkscape:connector-curvature="0" />
    <path
       style="fill:none;stroke:#646464;stroke-width:1;stroke-linecap:butt;stroke-linejoin:miter;stroke-opacity:1;stroke-miterlimit:4;stroke-dasharray:none"
       d="m 724.88577,683.09414 -3.38409,1.32196 -3.38411,-2.26621 -4.32412,-1.13309 0.36074,-13.76476 -6.01618,-9.44253 -7.52021,-1.13309 -1.50405,-2.45506 -3.19609,-0.3777 -16.73249,7.17632 -3.94811,4.15471 -6.39219,1.1331 -1.88005,-3.21045 -7.89624,-1.13311 -3.00808,1.8885 -9.58828,-1.51079 -8.27223,-5.28782 0,-4.72127 -3.1961,-2.45505 0,-4.91012 6.9562,-7.17631 2.44407,-0.56656 0,-3.21045 -4.32412,-3.02161 -7.70822,0.18885 -7.70823,-7.74287 -0.94002,-5.09897 2.44407,-3.02161 0.94002,-21.90665 4.13612,-6.23207 6.95621,-3.58816 3.00809,0.37771 0.75201,2.07734 7.89623,0.56657 4.70014,-6.04323 3.76011,-0.37769 1.88005,-4.91012 -2.25607,-3.02161 -0.18799,-3.3993 4.13611,-2.26621 -0.56401,-8.49827 -23.12467,-1.13311 -4.32413,-5.47666 0.18801,-5.28781 2.25606,-5.28783 -0.56401,-4.72125 -10.1523,-7.93173 0.188,-3.96585 3.1961,-2.64392 4.51213,-7.17631 0.94002,-3.96586 -2.63207,-3.02162 -5.64016,-5.85435 -1.50405,-6.79862 1.31604,-7.36517 1.50405,-1.69967 1.31603,-5.47665 6.58019,-9.25368 9.58829,-6.60976 4.51212,-6.60977"
       id="path3937"
       inkscape:connector-curvature="0"
       sodipodi:nodetypes="cccccccccccccccccccccccccccccccccccccccccccccccccccccccccccc" />
    <path
       style="fill:none;stroke:#646464;stroke-width:1;stroke-linecap:butt;stroke-linejoin:miter;stroke-opacity:1;stroke-miterlimit:4;stroke-dasharray:none"
       d="m 863.14306,713.29908 -6.40018,-2.71523 -3.10312,-2.90918 -6.98202,0 -28.50991,5.23652 -2.52128,0.96972 -3.68495,0.38789 -2.71523,2.90918 -2.90918,7.75779 -5.04256,6.0123 -1.93945,0.38789 -3.49101,-3.10312 -18.23083,-10.66697 -3.68495,-10.08514 0,-7.56385 2.52128,-4.26679 2.90918,-10.27908 1.93945,-1.55156 -0.58184,-4.65468 -1.35761,-0.77578 -1.35762,-2.90917 -7.3699,-0.96973 -6.0123,4.26679 -4.65468,8.92147 -6.78807,0.96972 -5.6244,-2.71523 -2.52129,-3.49101 -18.25449,-1.57523 -1.89211,2.29426"
       id="path3939"
       inkscape:connector-curvature="0"
       sodipodi:nodetypes="ccccccccccccccccccccccccccccc" />
    <path
       style="fill:none;stroke:#646464;stroke-width:1;stroke-linecap:butt;stroke-linejoin:miter;stroke-opacity:1;stroke-miterlimit:4;stroke-dasharray:none"
       d="m 732.00822,855.03487 -4.24424,-10.18619 -13.01569,-8.48849 -9.90324,-0.28295 -12.16684,-14.71339 -6.22489,-13.29864 -1.1318,-10.18619 -5.94195,-8.48849 -0.84885,-14.71338 4.5272,-5.94195 2.2636,-19.24058 1.98065,-4.52719 2.54654,-11.60094 3.67835,-11.03504 4.5272,-3.11245 5.37604,-4.52719 6.79079,-0.5659 9.54316,-3.2583 1.98065,-5.09309 0,-5.37605 5.09309,-3.96129 1.41475,-5.94195 -2.54654,-3.39539 -0.84885,-3.9613"
       id="path3941"
       inkscape:connector-curvature="0"
       sodipodi:nodetypes="cccccccccccccccccccccccc" />
    <path
       style="fill:none;stroke:#646464;stroke-width:1;stroke-linecap:butt;stroke-linejoin:miter;stroke-opacity:1;stroke-miterlimit:4;stroke-dasharray:none"
       d="m 543.72451,769.52094 0,-19.33503 3.80841,-2.92955 0,-10.83934 -2.92955,-3.2225 0,-4.39433 9.66752,-4.39432 1.46477,-10.54638 -8.78865,-14.64775 -0.58591,-15.52662 -2.63659,-6.73796 -10.54638,-5.56615 -2.92955,-9.37456 3.80841,-7.03092 2.34364,-17.28435 -5.27319,-11.7182 -8.20274,-10.25342 -5.8591,-5.27319"
       id="path3945"
       inkscape:connector-curvature="0"
       transform="translate(-107.81721,0)" />
    <path
       style="fill:none;stroke:#646464;stroke-width:1;stroke-linecap:butt;stroke-linejoin:miter;stroke-opacity:1;stroke-miterlimit:4;stroke-dasharray:none"
       d="m 839.61296,854.51719 c -0.77384,0 -22.24781,-0.96729 -22.24781,-0.96729 l -2.32151,2.90189 -22.24781,-0.77384 -11.22063,-9.4795 -3.28881,0.96729 -1.35421,3.09535 -5.41686,0.19346 0.19346,-6.19069 -10.4468,-14.89636 -12.57485,-2.51497 -23.02164,-10.64026 -5.80378,0 -23.40856,10.25334 -5.2234,4.64302 -4.64302,0.38692 -3.09535,-1.74113 -11.60755,-2.32152"
       id="path3949"
       inkscape:connector-curvature="0"
       transform="translate(-107.81721,0)" />
    <path
       style="fill:none;stroke:#646464;stroke-width:1;stroke-linecap:butt;stroke-linejoin:miter;stroke-opacity:1;stroke-miterlimit:4;stroke-dasharray:none"
       d="m 543.79173,769.5037 6.44813,0.58619 3.32176,2.14938 1.95397,3.12636 8.20671,0.58619 16.218,-0.58619 7.03432,4.10335 1.75858,3.32176 9.57449,2.14937 9.96528,-0.39079 8.59749,0.97699 8.5975,8.79289 0.5862,6.64352 3.71255,12.70085 5.86193,5.08034 6.83892,-0.78159 6.64352,-5.66653 2.93097,-0.3908 1.56318,2.73557 13.48244,6.64352 5.08034,6.44813"
       id="path3951"
       inkscape:connector-curvature="0"
       transform="translate(-107.81721,0)" />
    <path
       style="fill:none;stroke:#646464;stroke-width:1;stroke-linecap:butt;stroke-linejoin:miter;stroke-opacity:1;stroke-miterlimit:4;stroke-dasharray:none"
       d="m 707.90659,821.74301 -7.37107,-8.22158 1.98452,-5.38655 -0.56701,-3.40204 -8.78858,-2.55152 -9.3556,-9.9226 -2.55152,-6.80407 0.85051,-8.22158 -2.26803,-3.11853 -5.38655,-1.41752 -5.67006,-5.38655 -1.70101,-10.77311 -3.40204,-2.55153 -3.68554,-0.567 -3.96904,-5.95356 0,-6.52057 -4.81954,-7.93808 -17.29368,-18.42768 -9.9226,-5.95356 -3.11853,1.13401 -3.40203,-1.13401 -5.10305,-7.08757 -6.80407,-1.41752 -0.56701,-3.96904 1.41752,-1.98452 -1.13401,-8.22158 -4.25255,-2.83503 0,-2.55152 17.29368,0.85051 3.68553,3.96904 13.32464,0.85051 5.10305,-2.55153 5.95356,-7.65458 10.77311,-1.13401 5.38655,-5.38655 1.70102,-6.80407 0,-12.75763 -11.05661,-12.47412 c 0,0 -1.70102,-12.19063 -2.83503,-12.75763 -1.13401,-0.56701 -5.95356,-2.26802 -5.95356,-2.26802 l -8.22158,0.567 -7.08758,-7.93808 -5.10305,-2.26802 -1.98452,-3.96904 1.70102,-12.75763 -8.22158,-5.67005 -0.56701,-9.3556 -4.81955,-5.67006 -4.53604,1.98452 -3.68554,-1.70101 -6.52056,-9.6391 -0.85051,-3.11853 0,-4.81955"
       id="path3953"
       inkscape:connector-curvature="0"
       transform="translate(-107.81721,0)" />
    <path
       style="fill:none;stroke:#646464;stroke-width:1;stroke-linecap:butt;stroke-linejoin:miter;stroke-opacity:1;stroke-miterlimit:4;stroke-dasharray:none"
       d="m 445.39058,868.86865 11.7866,-6.07189 23.93037,-8.57207 2.85736,-2.50019 0.35717,-8.2149 16.78697,-11.07226 5.35755,-3.21452 3.21453,-6.42906 -1.42868,-14.28679 4.28603,-3.21452 7.85774,-1.07151 5.35754,-6.78623 0,-12.50093 4.28604,-6.07189 6.78622,-6.42905 6.78622,-3.5717"
       id="path3955"
       inkscape:connector-curvature="0"
       transform="translate(-107.81721,0)" />
    <path
       style="fill:none;stroke:#646464;stroke-width:1;stroke-linecap:butt;stroke-linejoin:miter;stroke-opacity:1;stroke-miterlimit:4;stroke-dasharray:none"
       d="m 327.52459,825.29395 1.78585,2.85736 6.42905,3.21452 12.85811,0.35717 4.28604,2.14302 8.57207,3.92887 12.85811,2.85736 2.50019,2.14301 0,4.64321 2.85735,6.42905 9.64359,8.21491 6.07188,2.50018 19.64433,1.78585 2.50019,1.78585 7.14339,0 3.21453,-3.5717 7.50056,0 1.42868,2.50019 8.2149,2.14302"
       id="path3957"
       inkscape:connector-curvature="0"
       transform="translate(-107.81721,0)" />
    <path
       style="fill:none;stroke:#646464;stroke-width:1;stroke-linecap:butt;stroke-linejoin:miter;stroke-opacity:1;stroke-miterlimit:4;stroke-dasharray:none"
       d="m 227.97828,1384.9337 8.93271,-1.9418 7.3792,-0.7768 10.09784,-3.8838 12.42812,-12.4281 23.30272,-12.0397 7.3792,-3.1071 25.63299,-29.9051 10.09784,-5.4373 9.32109,-13.2049 19.41894,-12.0397 13.98163,-2.3303"
       id="path3959"
       inkscape:connector-curvature="0"
       transform="translate(-107.81721,0)" />
    <path
       style="fill:none;stroke:#646464;stroke-width:1;stroke-linecap:butt;stroke-linejoin:miter;stroke-opacity:1;stroke-miterlimit:4;stroke-dasharray:none"
       d="m 445.08196,869.16687 -9.70947,10.09784 -6.99081,1.9419 -3.49541,3.49541 -1.16514,10.8746 -5.4373,16.3119 -4.66054,11.65136 0.38838,6.21406 3.49541,4.66055 3.10703,11.26298 -0.77676,13.20487 -2.33027,1.55352 0,3.49541 5.82568,6.99081 1.16513,8.54433 -0.38838,12.42812 -1.94189,1.16514 2.33027,5.4373 -0.38838,17.86543 -3.4954,7.3792 -1.9419,13.2049 3.49541,8.1559 8.54433,5.8257 1.16514,10.0978 -3.88379,3.4954 -6.99082,1.5536 -2.33027,5.0489 -2.71865,17.477 -3.49541,12.0398 -5.82568,-1.1652 -12.03974,9.3211 -10.09784,4.2722 -10.48623,-1.5535 -3.88378,4.2721 -1.55352,11.263 -2.71865,1.9419 0,2.3303 8.93271,8.1559 1.94189,14.7584 -6.60243,3.107 -10.87461,16.7003 -17.08866,8.5444 -10.48622,1.9419 -13.20488,15.9235 -2.71865,11.263 0,12.8165 5.4373,1.9419 4.27217,5.4373 5.82568,0.3883 6.21406,-4.6605 8.54433,0 3.49541,4.6605 7.37919,0 5.04893,-4.2721 5.4373,-0.3884 1.16513,5.0489 13.20488,10.8746 1.94189,8.5443 -5.04892,5.049 -5.4373,1.1651 -3.88379,6.2141 6.21406,10.0978 0.77676,3.107 -0.77676,9.7095"
       id="path3961"
       inkscape:connector-curvature="0"
       transform="translate(-107.81721,0)" />
    <path
       style="fill:none;stroke:#646464;stroke-width:1;stroke-linecap:butt;stroke-linejoin:miter;stroke-opacity:1;stroke-miterlimit:4;stroke-dasharray:none"
       d="m 502.05862,1251.18 -16.91944,0 -15.19297,7.2512 -11.39473,7.2512 -1.38118,13.4665 -2.07177,12.7759 -33.49359,11.3947 -16.57415,-3.1077 -10.01355,-5.1794 -4.83413,-6.5606 -15.53827,-1.0359"
       id="path3963"
       inkscape:connector-curvature="0"
       transform="translate(-107.81721,0)" />
    <path
       style="fill:none;stroke:#646464;stroke-width:1;stroke-linecap:butt;stroke-linejoin:miter;stroke-opacity:1;stroke-miterlimit:4;stroke-dasharray:none"
       d="m 658.82245,1392.7508 -6.90589,-2.7623 -5.87001,-4.4888 -12.43061,-2.7624 -4.48884,-5.1794 -1.38118,-6.9059 -12.43061,-8.6324"
       id="path3965"
       inkscape:connector-curvature="0"
       transform="translate(-107.81721,0)" />
    <path
       style="fill:none;stroke:#646464;stroke-width:1;stroke-linecap:butt;stroke-linejoin:miter;stroke-opacity:1;stroke-miterlimit:4;stroke-dasharray:none"
       d="m 502.02402,1251.1433 4.7331,7.2574 0.31554,5.0487 6.94188,2.8398 3.47094,3.471 5.04864,0.3155 12.93713,-6.3108 14.51484,0 3.1554,0.9466 5.36418,1.2622 6.3108,-3.7865 12.93713,-0.9466 2.20878,-1.8933 5.67972,0 2.20878,2.8399 10.41282,3.7865 0,3.4709 -2.83986,10.0973 -1.5777,3.1554 -0.63108,7.2574 4.10202,3.1554 3.47094,13.2527 0.94662,16.0925 4.10202,3.471 6.94188,2.2087 2.52432,10.0973 -1.26216,6.6264 1.5777,9.4662 0,7.5729"
       id="path3967"
       inkscape:connector-curvature="0"
       transform="translate(-107.81721,0)" />
    <path
       style="fill:none;stroke:#646464;stroke-width:1;stroke-linecap:butt;stroke-linejoin:miter;stroke-opacity:1;stroke-miterlimit:4;stroke-dasharray:none"
       d="m 560.32303,1102.3488 -1.4114,12.2321 -15.52532,14.1139 -7.52743,5.1752 -5.17511,9.4092 -0.94093,51.7511 -2.35232,16.9367 -10.82068,19.7595 -15.52532,19.2891"
       id="path3969"
       inkscape:connector-curvature="0"
       transform="translate(-107.81721,0)" />
    <path
       style="fill:none;stroke:#646464;stroke-width:1;stroke-linecap:butt;stroke-linejoin:miter;stroke-opacity:1;stroke-miterlimit:4;stroke-dasharray:none"
       d="m 413.53815,1099.9965 7.52743,8.4684 6.11604,-0.941 3.29325,-5.1751 8.93882,0.941 4.23418,1.8818 10.82068,0.4705 10.35022,-6.5865 2.35232,0 4.23418,2.3523 9.87975,-0.4705 2.35232,-3.7637 7.99789,-3.2932 4.70465,0 5.64557,8.9388 0,17.4072 -5.17511,9.8797 -0.47046,5.6456 6.5865,4.2342 1.41139,9.4093 2.82279,1.8818 2.82278,-4.2341 4.70465,0 1.41139,3.2932 8.93882,2.8228 5.17511,0"
       id="path3971"
       inkscape:connector-curvature="0"
       transform="translate(-107.81721,0)" />
    <path
       style="fill:none;stroke:#646464;stroke-width:1;stroke-linecap:butt;stroke-linejoin:miter;stroke-opacity:1;stroke-miterlimit:4;stroke-dasharray:none"
       d="m 545.26817,993.20112 -10.82068,-6.11604 -9.40929,0 -10.35021,-3.76372 -6.58651,-7.52743 -10.35021,-6.5865 1.41139,-5.64557 2.82279,-2.35232 2.35232,-10.35022 -6.5865,-10.82067 -10.35022,-0.47047 -7.99789,-6.5865 -5.64557,-0.47046 -7.52743,-7.52743 -6.11604,4.23418 -5.17511,0.94092 2.82279,6.11604 -4.70464,2.82279 -13.173,-1.88186 -6.5865,4.23418 -13.17301,2.35232"
       id="path3973"
       inkscape:connector-curvature="0"
       transform="translate(-107.81721,0)" />
    <path
       style="fill:none;stroke:#646464;stroke-width:1;stroke-linecap:butt;stroke-linejoin:miter;stroke-opacity:1;stroke-miterlimit:4;stroke-dasharray:none"
       d="m 560.45662,1101.3538 -4.23131,-6.924 0.76933,-12.3093 11.92461,-4.6159 0.76933,-7.6933 -6.92397,-15.002 -26.15721,-15.0019 -0.76933,-11.9246 5.76998,-17.6946 3.84664,-17.69455"
       id="path3975"
       inkscape:connector-curvature="0"
       transform="translate(-107.81721,0)" />
    <path
       style="fill:none;stroke:#646464;stroke-width:1;stroke-linecap:butt;stroke-linejoin:miter;stroke-opacity:1;stroke-miterlimit:4;stroke-dasharray:none"
       d="m 671.24009,827.47245 -2.30799,13.84793 -8.84729,7.6933 -20.7719,3.46198 -10.77062,-1.92332 -9.23195,6.15463 0,9.61662 -1.154,7.6933 -8.84729,8.07796 -6.5393,8.07796 0,9.61662 -5.00064,11.15528 -16.15592,19.23324 -14.61727,12.69394 -9.61662,11.92461 0,6.92396 -5.3853,18.46391 -6.53931,13.07861"
       id="path3977"
       inkscape:connector-curvature="0"
       transform="translate(-107.81721,0)" />
    <path
       style="fill:none;stroke:#646464;stroke-width:1;stroke-linecap:butt;stroke-linejoin:miter;stroke-opacity:1;stroke-miterlimit:4;stroke-dasharray:none"
       d="m 697.46018,1407.3266 -4.47408,-4.9712 0,-9.9424 -4.97121,-6.4625 0,-3.4799 10.93665,-6.4626 3.47985,-6.9596 16.40498,-9.4453 0.99424,-5.4684 -4.47409,-9.4453 2.48561,-7.4568 4.47408,-4.9712 0.99424,-7.9539 -2.98272,-2.9827 -7.45681,0.9942 -8.94817,-4.4741 -5.46833,-11.4337 0.99424,-11.4338 1.49137,-8.9482 -0.99425,-12.428 -8.94817,-9.9424 -2.98272,-11.9309 3.97696,-5.9655 0.49713,-4.474 -7.95393,-8.9482 -0.49712,-9.9424 -7.45681,-6.4626 0,-5.4683 2.98272,-5.4683 -2.98272,-5.9655 -7.95393,-2.9827 -13.42226,0.4971 0,-7.4568 4.47409,-11.4338 -0.49712,-3.9769 -5.46833,-7.954 -5.96545,-15.4107 2.98273,-7.9539 2.98272,-2.4856 0,-12.9252 -3.47984,-1.9885 -10.43954,5.9655 -7.45681,0 -6.95968,-5.9655 -3.47985,-14.9136 -6.95969,-5.4683 -7.95393,-0.4971 -10.43953,3.9769 -26.34739,0 -10.43953,-6.4625"
       id="path3979"
       inkscape:connector-curvature="0"
       transform="translate(-107.81721,0)" />
    <path
       style="fill:none;stroke:#646464;stroke-width:1;stroke-linecap:butt;stroke-linejoin:miter;stroke-opacity:1;stroke-miterlimit:4;stroke-dasharray:none"
       d="m 495.11218,1650.3668 11.34511,-1.1636 6.3998,2.909 3.7817,4.6544 13.96322,8.727 4.0726,0.2909 7.8543,-2.6181 7.56341,-4.3635 10.18151,-0.8727 6.3998,5.818 4.07261,-0.5818 2.6181,-3.7817 6.3998,0 0.5818,2.3272 6.39981,1.4545 2.6181,-1.7454 -1.7454,-3.4908 -12.50871,-4.0726 0,-15.1268 4.6544,-6.9816 4.07261,-0.2909 3.4908,2.0363 16.87221,2.0363 8.43611,-4.0726 6.9816,0 4.36351,-6.3998 0.5818,-9.3088 -3.49081,-10.4724 3.19991,-8.4361 8.727,-0.5818 1.1636,2.0363 3.78171,0 1.4545,-7.2725 -3.4908,-2.909 1.4545,-2.909 0.2909,-3.2 -6.10891,-7.5634 0.5818,-4.3635 3.78171,-3.1999 4.0726,-0.8727 2.3272,2.6181 13.09051,1.7454 3.1999,-2.0363 11.63601,-0.8727 6.10891,4.3635 2.3272,6.6907 1.7454,2.6181 9.01791,2.0363"
       id="path3981"
       inkscape:connector-curvature="0"
       transform="translate(-107.81721,0)" />
    <path
       style="fill:none;stroke:#646464;stroke-width:1;stroke-linecap:butt;stroke-linejoin:miter;stroke-opacity:1;stroke-miterlimit:4;stroke-dasharray:none"
       d="m 487.58639,1503.9006 5.90298,-6.4933 c 0,0 3.54179,0.5903 3.54179,-0.5903 0,-1.1806 0,-5.6078 0,-5.6078 l -5.31268,-4.4272 -2.06605,-23.9071 -19.77499,-16.8235 -1.77089,-10.3302 0,-5.0176 3.24664,-7.0836 10.03507,-7.6738 8.55932,-1.4758 5.90299,-5.3127 3.83693,-13.5768 11.21567,-13.5769 8.85448,-5.6078 12.10111,-10.0351 11.21567,-5.6078 22.72648,-1.4758 7.96903,7.0836 4.72239,4.1321 9.44477,0.8854 c 0,0 7.08358,-1.4757 8.26418,-1.7709 1.18059,-0.2951 15.0526,-2.066 15.0526,-2.066 l 4.13209,-5.3127"
       id="path3983"
       inkscape:connector-curvature="0"
       transform="translate(-107.81721,0)" />
    <path
       style="fill:none;stroke:#646464;stroke-width:1;stroke-linecap:butt;stroke-linejoin:miter;stroke-opacity:1;stroke-miterlimit:4;stroke-dasharray:none"
       d="m 524.77518,1693.0912 3.83694,-6.4933 2.65634,-12.1011 -5.01753,-1.4757 -4.72239,4.7224 -2.65634,0 -1.47575,-2.3612 -14.16716,0 -9.14962,-7.3788 0,-4.1321 1.7709,-3.8369 -0.5903,-11.806 -3.83694,-4.4272 -1.1806,-5.3127 3.54179,-7.3787 7.67388,-1.1806 2.95149,-10.9205 -4.13209,-5.3127 0,-5.0175 6.19814,-3.837 5.31268,4.7224 1.1806,5.0175 6.49328,1.4758 3.83694,-3.5418 0,-12.3963 -10.92052,-10.3302 -2.95149,-8.8545 4.13208,-4.132 4.42724,-9.74 0.88545,-13.5768 -2.06604,-4.7224 5.90298,-7.0836 0.88545,-4.1321 10.62536,-1.7709 1.1806,-5.903 -6.19813,-2.6563 -7.67388,-5.903 0.88545,-5.3127 2.36119,-1.7709 0.88545,-7.3787 -4.13209,-4.4272 -6.19813,2.066 -2.06604,5.3127 -17.11866,5.903 -2.65634,-2.0661 -1.77089,-5.3127 -4.13209,-4.132"
       id="path3985"
       inkscape:connector-curvature="0"
       transform="translate(-107.81721,0)" />
    <path
       style="fill:none;stroke:#646464;stroke-width:1;stroke-linecap:butt;stroke-linejoin:miter;stroke-opacity:1;stroke-miterlimit:4;stroke-dasharray:none"
       d="m 245.07214,1507.403 8.25243,-8.0024 7.75228,-3.0009 3.00088,1.5005 5.7517,-0.7503 10.25301,-15.2545 c 0,0 10.25302,-8.0023 11.25332,-8.0023 1.00029,0 8.75257,-0.7502 8.75257,-0.7502 l 0.75022,2.0006 3.25096,-0.5002 6.50191,-5.0015 -0.75022,-4.7514 -11.00324,-4.5013 -5.25154,0.7502 -7.00206,4.7514 -7.25214,0.7503 -3.25095,-3.5011 2.75081,-4.0012 3.00088,0 19.50574,-6.0017 9.00265,-5.0015 13.50398,-2.5007 c 0,0 10.75316,-5.2516 11.75346,-5.5016 1.00029,-0.2501 11.00323,-2.5008 11.00323,-2.5008 l 6.75199,2.5008 6.25184,2.7508 2.25066,3.0008 -0.25007,14.5043 5.75169,9.0027 13.50398,5.5016 2.50074,4.0012 -1.0003,4.5013 c 0,0 -1.25037,7.7523 -1.25037,8.7526 0,1.0003 5.00147,6.7519 5.00147,6.7519 l 10.00295,0 3.25096,0.7503 14.75434,0.7502 5.25155,6.752 2.00058,5.0015 9.00265,5.7516 9.00265,0 6.25184,-4.5013 0.50015,-14.2542 11.25331,-2.2506 7.00207,4.7514 6.75198,2.2506 8.50251,2.5008 8.5025,-2.0006"
       id="path3987"
       inkscape:connector-curvature="0"
       transform="translate(-107.81721,0)" />
    <path
       style="fill:none;stroke:#646464;stroke-width:1;stroke-linecap:butt;stroke-linejoin:miter;stroke-opacity:1;stroke-miterlimit:4;stroke-dasharray:none"
       d="m 524.61535,1693.0819 -18.21779,-0.2847 -8.25494,-5.4084 -2.56187,0 -6.26237,3.4158 -6.83167,-0.5693 -4.8391,-3.7005 -21.63362,-0.8539 -5.97771,4.2698 1.13861,9.1089 -5.69306,7.9703 -5.12375,3.7004 -23.05689,0.2847 -28.18064,-8.5396 -6.54702,-6.547 -3.70048,0.2846 -5.69306,6.8317 -11.38612,3.4158 -9.10889,-3.1311 -7.97029,-11.3862 -5.4084,-12.8093 -4.26979,-1.708 -6.83167,-0.5693 -4.2698,-3.9851 -2.56188,-4.5544 -6.54701,-1.9926 -5.40841,3.1312 -3.41583,9.6782 -5.69306,0 0,-5.1238 2.84653,-7.1163 4.26979,-1.7079 3.13118,-6.547 -0.28465,-2.5619 -4.26979,-4.8391"
       id="path3989"
       inkscape:connector-curvature="0"
       transform="translate(-107.81721,0)" />
    <path
       style="fill:none;stroke:#646464;stroke-width:1;stroke-linecap:butt;stroke-linejoin:miter;stroke-opacity:1;stroke-miterlimit:4;stroke-dasharray:none"
       d="m 440.38454,1710.2861 0.9584,14.376 4.3128,13.8968 4.79199,5.2712 -5.27119,5.7504 -13.4176,5.7504 -2.87519,6.2296 2.87519,6.7088 14.85519,4.792 1.4376,8.1464 -4.79199,14.376 -6.7088,18.2096 4.792,14.8552 -0.9584,20.6056 -11.0216,13.8967 -2.39599,13.8968 1.9168,7.188 3.35439,0.9584 8.6256,-6.7088 3.3544,1.4376 4.79199,13.4176 -0.4792,9.584 -6.22959,1.9168 -6.7088,-4.3128 -15.33439,0 -10.06319,-1.4376 -17.25119,4.792 -8.6256,7.188 -12.45919,1.9168 -8.1464,9.1048 -2.39599,14.8552 -14.376,11.98 -2.87519,8.1464 4.31279,5.2712 8.6256,0 10.06319,0 7.188,4.3128 1.4376,9.1048 -5.7504,11.98 0.9584,9.584 6.2296,11.0216 c 0,0 2.87519,3.3544 -1.4376,6.7088 -4.3128,3.3544 -5.2712,4.3128 -5.2712,4.3128"
       id="path3991"
       inkscape:connector-curvature="0"
       transform="translate(-107.81721,0)" />
    <path
       id="path3995"
       transform="translate(-107.81721,0)"
       style="fill:none;stroke:#646464;stroke-width:1;stroke-linecap:butt;stroke-linejoin:miter;stroke-opacity:1;stroke-miterlimit:4;stroke-dasharray:none"
       d="m 670.38543,1849.4593 -6.62927,-12.0156 -2.90031,-14.9158 -7.87226,-3.729 -6.62928,0 -5.38629,3.729 -7.0436,-4.1433 -10.77257,-3.3147 -5.38629,3.729 -15.74453,-2.486 -3.72896,-2.9003 0,-13.6729 -9.94392,-7.8722 -30.66039,0.4143 -5.80062,1.8645 -20.71648,-16.366 4.55762,-3.729 0.41433,-7.0436 -18.2305,-2.486 -8.70093,-8.2866 2.48598,-4.9719 0,-13.2586 8.70093,-7.0436 6.21494,-2.9003 2.48598,-7.8723 -4.55763,-27.76"
       inkscape:connector-curvature="0"
       sodipodi:nodetypes="cccccccccccccccccccccccccc" />
    <path
       style="fill:none;stroke:#646464;stroke-width:1;stroke-linecap:butt;stroke-linejoin:miter;stroke-opacity:1;stroke-miterlimit:4;stroke-dasharray:none"
       d="m 578.81857,1861.4749 33.56071,1.243 9.94391,-6.215 9.11525,-1.6573 14.91587,-12.0156 0,-8.7009 -9.11525,-3.729 -14.50154,4.5577 -20.30216,1.6573 -13.67288,3.729 -8.70092,5.8006 -6.21494,1.243 -4.1433,4.9719 0.82866,3.729 z"
       id="path4000"
       inkscape:connector-curvature="0"
       transform="translate(-107.81721,0)" />
    <path
       style="fill:none;stroke:#646464;stroke-width:1;stroke-linecap:butt;stroke-linejoin:miter;stroke-opacity:1;stroke-miterlimit:4;stroke-dasharray:none"
       d="m 448.79828,1902.5978 6.98679,6.1648 2.87691,6.9868 4.93185,3.6989 5.75382,0 3.69889,4.5208 0.41099,6.1648 6.98678,2.8769 10.27469,-4.9318 2.05494,-10.2747 4.93185,0 8.21975,-3.6989 2.87691,-0.411 3.2879,-9.0417 -4.93185,-5.3428 2.05494,-12.7406 2.05493,-4.5209 1.23296,-5.3428 4.93185,-2.055 1.64395,-6.1648 11.09666,-2.8769 4.10988,4.1099 5.34284,-1.233 2.46592,-7.3978 -3.69889,-4.5208 0.41099,-3.2879 4.52086,-2.4659 -0.41099,-8.2198 3.2879,-9.4527 4.93185,-0.411 6.16482,-4.9318 7.39777,-1.233 0.82197,3.6989 6.98679,0.822 3.69889,5.3428 0,5.3428 5.75382,5.3429"
       id="path4002"
       inkscape:connector-curvature="0"
       transform="translate(-107.81721,0)" />
    <path
       style="fill:none;stroke:#646464;stroke-width:1;stroke-linecap:butt;stroke-linejoin:miter;stroke-opacity:1;stroke-miterlimit:4;stroke-dasharray:none"
       d="m 637.44152,1829.442 4.52086,-7.8088"
       id="path4004"
       inkscape:connector-curvature="0"
       transform="translate(-107.81721,0)" />
    <path
       style="fill:none;stroke:#646464;stroke-width:1;stroke-linecap:butt;stroke-linejoin:miter;stroke-opacity:1;stroke-miterlimit:4;stroke-dasharray:none"
       d="m 839.01943,854.9714 7.55873,1.59131 9.15005,-2.78479 7.1609,-0.39783 4.37611,3.58045 10.34353,1.59131 8.75222,0 18.30009,7.55874 7.16091,4.37611 9.54787,-0.79566 13.52615,-9.9457 18.69792,-1.98914 9.94571,-4.77394 7.55873,-0.79566 5.96742,1.19349"
       id="path4006"
       inkscape:connector-curvature="0"
       transform="translate(-107.81721,0)" />
    <path
       style="fill:none;stroke:#646464;stroke-width:1;stroke-linecap:butt;stroke-linejoin:miter;stroke-opacity:1;stroke-miterlimit:4;stroke-dasharray:none"
       d="m 1071.7489,974.71765 -5.9675,-7.55873 -21.0849,-11.13919 -5.1717,0 -7.5588,5.96742 -7.9565,-1.98914 0,-14.71963 -18.3001,-15.5153 -11.93485,-2.7848 -8.75222,3.18263 -6.36525,5.96742 -11.93484,-0.79566 -5.56959,-4.77393 -0.39783,-21.48272 11.93484,-11.53701 1.19349,-7.16091 -2.7848,-8.75222 4.77394,-8.35439 1.19348,-15.11746 0,-4.77394"
       id="path4008"
       inkscape:connector-curvature="0"
       transform="translate(-107.81721,0)" />
    <path
       style="fill:none;stroke:#646464;stroke-width:1;stroke-linecap:butt;stroke-linejoin:miter;stroke-opacity:1;stroke-miterlimit:4;stroke-dasharray:none"
       d="m 785.85996,1135.5637 -2.77812,-8.6816 -7.29256,-2.7782 -13.89059,9.3762 -8.33435,-1.0418 -2.43085,-10.0707 2.77812,-6.598 -7.98709,-5.9035 -9.72341,2.0836 -3.81991,-3.1254 -4.16718,-19.0996 -18.75229,-15.6269 -8.33435,-1.0418 -4.86171,1.3891 -3.47265,-8.3344 -5.9035,-2.7781 -8.33435,-0.6945 0.34727,-5.5562 7.29255,-12.5016 -2.08358,-8.6816 -2.43086,-4.1672 18.7523,-36.81002 12.15426,-2.08359 15.62691,-7.63983 20.83588,-17.01596 5.9035,-2.08359 5.20897,0 1.73632,4.51444 -9.02888,11.45973 0.34727,7.98709 5.55623,4.86171 19.44682,0 4.16718,2.43085 2.77812,4.16717 4.16717,0 1.0418,-2.08358 12.84879,-4.16718 3.12538,-2.77812 3.47265,0 2.43085,2.43086 7.98709,1.04179 12.50153,-11.45973 14.58511,-6.25077 9.02888,-1.04179 9.37615,-5.20897 12.15426,-0.69453 7.98709,1.38906 11.45974,-4.86171 3.47264,-12.50153 1.0418,-18.40502 -7.29256,-12.50153 1.04179,-5.9035 5.55624,-3.12538 17.36323,1.38905 3.47265,0.69453 10.7652,-2.77811 10.41794,-6.59803 4.51444,-2.77812 3.47265,3.12538 3.47265,-1.04179 5.9035,1.73632"
       id="path4010"
       inkscape:connector-curvature="0"
       transform="translate(-107.81721,0)" />
    <path
       style="fill:none;stroke:#646464;stroke-width:1;stroke-linecap:butt;stroke-linejoin:miter;stroke-opacity:1;stroke-miterlimit:4;stroke-dasharray:none"
       d="m 621.2565,1109.8661 4.16718,0.6945 5.20897,-1.0418 5.9035,-5.209 10.7652,-3.8199 11.11247,-6.9453 3.81991,-6.598 1.0418,-8.3343 3.12538,-4.5145 7.29256,-5.2089 4.8617,-6.5981"
       id="path4012"
       inkscape:connector-curvature="0"
       transform="translate(-107.81721,0)" />
    <path
       style="fill:none;stroke:#646464;stroke-width:1;stroke-linecap:butt;stroke-linejoin:miter;stroke-opacity:1;stroke-miterlimit:4;stroke-dasharray:none"
       d="m 734.89596,980.05269 -11.7649,-2.46242 -9.57608,4.10404 -6.56646,0 -2.46242,-8.75528 1.91522,-4.37764 -2.18882,-6.56645 -12.31211,-1.64162 -4.10403,-5.19844 0,-2.73603 -11.76491,-9.84968 -9.02887,0.5472 -5.19845,-2.18882 0,-8.20807 3.28323,-3.28323 0.82081,-9.57608 -6.29286,-2.73602 -5.74565,3.00962 -6.56646,-0.2736 -14.50092,-10.67049 -15.59534,-1.36801 -6.84005,4.37763 -6.56646,0 -5.74565,-1.64161"
       id="path4014"
       inkscape:connector-curvature="0"
       transform="translate(-107.81721,0)" />
    <path
       style="fill:none;stroke:#646464;stroke-width:1;stroke-linecap:butt;stroke-linejoin:miter;stroke-opacity:1;stroke-miterlimit:4;stroke-dasharray:none"
       d="m 1008.6948,534.21253 -12.65705,-0.35158 -3.86743,1.40634 -4.57059,5.97693 -5.27376,2.1095 -2.46109,-1.40634 -11.60227,-5.97693 -0.35159,-15.11811 -10.8991,-9.84436 -4.21901,1.05476 -5.27377,5.97693 -5.97693,-2.10951 -10.8991,-8.08643 -1.05475,-10.19594 -12.30545,-5.62535 -14.06336,-0.70317 -18.98554,4.92218 -6.32852,-2.81267 -9.49277,-8.7896 -1.40633,-14.06337 4.21901,-8.7896 -1.05476,-13.3602 -8.08643,-8.7896"
       id="path4016"
       inkscape:connector-curvature="0"
       transform="translate(-107.81721,0)" />
    <path
       style="fill:none;stroke:#646464;stroke-width:1;stroke-linecap:butt;stroke-linejoin:miter;stroke-opacity:1;stroke-miterlimit:4;stroke-dasharray:none"
       d="m 822.35521,172.78408 -2.10951,6.32852 0.35158,4.92217 4.92218,4.5706 8.08644,0.35158 12.65702,7.03168 3.86743,9.14119 -1.05475,10.19594 -5.62535,5.62534 0,4.5706 4.92218,4.57059 1.05475,13.00861 13.3602,18.63396 1.40633,15.82128 -1.40633,9.14119 0.70316,6.6801 5.97693,5.62534 25.66564,7.38327 1.75792,5.97693 -1.05475,18.28237 -2.81267,2.81267 2.81267,7.03169 -1.40633,7.73485 -10.19594,5.62534 -8.43802,2.10951 -5.62535,7.03168 0.35159,7.38326 -2.81268,8.78961 -5.27376,2.46109 -3.16425,5.97693 0.70316,13.00861 1.40634,14.76653 5.27376,9.49277 -0.35158,7.38327 -4.21901,8.7896"
       id="path4018"
       inkscape:connector-curvature="0"
       transform="translate(-107.81721,0)" />
    <path
       style="fill:none;stroke:#646464;stroke-width:1;stroke-linecap:butt;stroke-linejoin:miter;stroke-opacity:1;stroke-miterlimit:4;stroke-dasharray:none"
       d="m 976.30604,853.75766 9.40927,-5.64556 11.29113,-5.26919 9.78566,0.75274 7.151,-4.51645 6.022,0.75274 4.8928,6.77468 18.4422,5.64556 6.7746,-4.89282 17.3131,-1.50548 0,-4.14008 -1.8819,-4.89282 -7.151,-5.64557 -1.5055,-4.51645 1.1291,-4.89282 -4.1401,-1.50548 -4.8928,3.01096 -7.151,-6.3983 0.7527,-13.54935 -1.5055,-6.02194 -19.1949,-20.70039 -9.0329,0 -2.2582,3.38733 -5.2692,-0.75274 -6.02194,-10.91475 -3.38734,-16.56032 -6.77467,-2.6346 -7.90379,-0.75274 -9.40927,-10.91475 -1.50549,-25.21685"
       id="path4020"
       inkscape:connector-curvature="0"
       transform="translate(-107.81721,0)" />
    <path
       style="fill:none;stroke:#646464;stroke-width:1;stroke-linecap:butt;stroke-linejoin:miter;stroke-opacity:1;stroke-miterlimit:4;stroke-dasharray:none"
       d="m 971.33614,712.41369 8.8747,-14.19953 1.33121,-11.98084 8.43096,-9.31844 3.54989,-8.43097 -2.66242,-12.86832 7.09977,-25.73663 12.42455,-11.53711 2.2187,-7.09977 -0.8875,-10.64964 4.8811,-15.08699 0,-11.98085 -7.5435,-8.8747 -1.3312,-7.5435 3.1062,-6.21229 -3.1062,-9.31844 0.4438,-8.43096"
       id="path4022"
       inkscape:connector-curvature="0"
       transform="translate(-107.81721,0)" />
    <path
       style="fill:none;stroke:#646464;stroke-width:1;stroke-linecap:butt;stroke-linejoin:miter;stroke-opacity:1;stroke-miterlimit:4;stroke-dasharray:none"
       d="m 1238.4819,673.77328 -11.4392,-9.91396 -8.3887,-12.9644 -8.3887,0 -12.9645,4.57567 -12.9644,-6.10089 -16.0148,-16.77747 1.5252,-37.36799 -4.5757,-2.28783 -26.6914,12.9644 -13.727,-3.81306 -16.2018,-24.40358 9.1514,-9.91396 1.5252,-12.20179"
       id="path4024"
       inkscape:connector-curvature="0"
       transform="translate(-107.81721,0)"
       sodipodi:nodetypes="cccccccccccccc" />
    <path
       style="fill:none;stroke:#646464;stroke-width:1;stroke-linecap:butt;stroke-linejoin:miter;stroke-opacity:1;stroke-miterlimit:4;stroke-dasharray:none"
       d="m 1307.117,371.77893 -10.6766,-0.76262 -12.9644,9.15135 -31.2671,-19.0653 -20.5905,2.28783 -35.0802,-1.52522 -9.9139,13.72702 -19.8279,10.67656 -12.2018,12.2018 0,6.10089 9.1513,3.05045 1.5252,6.1009 -6.1009,22.11575 -6.8635,11.43918 6.1009,16.01485 1.5253,16.01485 25.1662,6.86351 2.2878,10.67657 17.5401,8.38873 0,5.33828 -3.8131,8.38873 3.0505,17.54008 11.4391,20.59052 0,7.62612 -11.4391,1.52523 -18.3027,-19.0653 -17.5401,-0.76261 -7.6261,-6.1009 -15.2523,3.81306 -12.2018,9.15134 -14.6765,3.81306"
       id="path4026"
       inkscape:connector-curvature="0"
       transform="translate(-107.81721,0)"
       sodipodi:nodetypes="ccccccccccccccccccccccccccccccc" />
    <path
       style="fill:none;stroke:#646464;stroke-width:1;stroke-linecap:butt;stroke-linejoin:miter;stroke-opacity:1;stroke-miterlimit:4;stroke-dasharray:none"
       d="m 1007.7665,533.63454 10.967,-10.25171 6.9139,-2.86094 7.8676,1.43047 17.1657,-0.95365 13.5894,-5.96029 12.159,-1.19206 4.5299,2.14571 13.8278,0.23841 11.9206,9.53647 0.7153,9.05965 -0.4769,10.72853 12.6889,11.20535"
       id="path4028"
       inkscape:connector-curvature="0"
       transform="translate(-107.81721,0)"
       sodipodi:nodetypes="ccccccccccccc" />
    <path
       style="fill:none;stroke:#646464;stroke-width:1;stroke-linecap:butt;stroke-linejoin:miter;stroke-opacity:1;stroke-miterlimit:4;stroke-dasharray:none"
       d="m 931.04373,497.02188 3.88114,-7.33106 7.76229,-16.38706 12.93715,-21.56192 15.95583,-7.76229 -1.29372,-7.33105 -15.09334,-2.15619 -12.93716,-6.46858 0.43124,-3.44991 11.2122,-2.58743 c 0,0 1.72495,-1.72495 3.44991,-2.15619 1.72495,-0.43124 18.11201,0 18.11201,0 0,0 3.44991,4.31239 5.17486,4.31239 1.72496,0 15.52459,0 15.52459,0 l 6.89977,-3.44991 6.4686,-0.86248 5.6061,4.74362 5.1749,-2.58743 -2.1562,-7.76229 -2.1562,-3.88114 6.4686,-4.74363 11.6434,-0.86247 4.3124,-1.72496 -6.0373,-12.50591 -0.4313,-9.48724 6.0374,-10.34973 7.7622,0.43124 3.8812,3.01867 9.056,-0.43124 5.1749,-3.01867 6.0373,7.33106 4.3124,9.48724 10.7809,4.31239 9.056,-3.44991 1.725,-20.69945 0,-12.93715 9.056,-7.33105 4.3124,-0.43124 2.5874,6.46858 7.3311,3.01867 12.9371,0.86247 12.5059,6.03734 4.3124,7.76229 0.8625,11.64344 2.5874,8.62477 2.1562,6.89981"
       id="path4030"
       inkscape:connector-curvature="0"
       transform="translate(-107.81721,0)" />
    <path
       style="fill:none;stroke:#646464;stroke-width:1;stroke-linecap:butt;stroke-linejoin:miter;stroke-opacity:1;stroke-miterlimit:4;stroke-dasharray:none"
       d="m 1063.8652,370.66902 -3.45,-4.74362 -13.3683,-1.72495 -2.5875,-14.66211 3.0187,-12.50591 -3.8811,-8.19353 8.6247,-6.89982 7.7623,0 c 0,0 1.2937,2.58743 4.7436,2.58743 3.4499,0 15.5246,0 15.5246,0 l 0,-4.74362 -5.1748,-8.19353 3.0186,-8.62477 9.9185,-3.4499 0,-3.88115 -3.8811,-4.31238 -0.4313,-7.7623 3.0187,-3.88114 -1.725,-11.64344 -12.5059,11.2122 -10.3497,1.72495 -2.1562,-10.34972 3.8812,-5.17486 0.8624,-6.46857 -4.7436,-4.74363 -12.0747,3.44991 -9.9184,0 -5.6061,2.15619 -5.6061,-4.74362 5.1748,-9.91848 0,-10.34973 -6.4686,-4.74362 3.0187,-6.89981 0,-14.23087 -3.0187,-1.72495 3.4499,-6.46858 -4.7436,-3.88115 -6.8998,4.74363 -11.2122,0 -9.91847,-6.46858 -9.05601,0.86248 -11.64344,-9.48725 -4.74362,-7.76229 -3.44991,-1.72495 -1.29371,-7.33106 -3.01867,-1.72495 -7.33106,9.05601 -14.6621,2.58743 -6.03734,-9.48725 -9.05601,0 -0.86247,-8.19353 -6.89982,-7.33105 -21.99316,0.86248 -10.34972,-2.58743 -9.48724,-6.46858"
       id="path4032"
       inkscape:connector-curvature="0"
       transform="translate(-107.81721,0)" />
    <path
       inkscape:connector-curvature="0"
       id="path1050"
       d="m 603.90154,1598.3396 -2.77528,-11.6562 -6.10562,-4.9955 -4.99551,6.1056 -8.32585,0 0,-4.4405 4.99551,-3.8854 0,-9.4359 -2.22023,-3.3304 0,-7.7707 7.21574,-3.8854 -1.66517,-17.7619 -3.8854,-3.3303 -0.55505,-11.6562 2.22022,-11.6562 4.99551,-4.4404 -1.66517,-11.6562 -3.88539,-1.6652 -16.09664,1.6652 -4.99551,-3.3303 -2.77529,-9.9911 0,-4.4404 -2.22022,-3.8854 -7.77079,-1.1101 -9.43597,-7.7708 -6.66067,-0.5551 -7.7708,-5.5505 -6.10562,-11.6562 0.55506,-6.6607 3.88539,-7.7708 -1.66517,-8.8809 4.44046,-6.1056 7.77079,-3.8854 12.21124,-14.4315 0.55506,-5.5506 9.43596,1.1102 9.43596,16.0966 8.32585,1.6652 3.33034,9.991 3.33034,-0.5551 3.8854,-7.2157 0,-5.5506 6.66068,0.5551 3.33033,6.6607 6.10563,0 2.22022,6.1056 4.99551,1.1101 4.44045,-1.6652 9.99102,5.5506 2.77529,7.7708 7.77079,-1.6652 1.66517,-2.7753 0.55505,-4.4404 4.99551,1.6651 6.66068,4.9956 3.8854,16.0966 7.77079,15.5416 8.32585,6.6607 4.44045,13.8764 9.43596,-5.5506 1.66517,-7.2157 3.33034,-5.5506 8.88091,-3.3303 0,-3.3304 12.7663,-3.3303 14.43147,3.8854 6.10562,6.1056 12.21124,-0.555 6.10563,3.3303 0,8.8809 -3.33034,4.4404 -1.11012,9.9911 5.55057,2.2202 1.11011,7.2157 9.99102,-6.1056 c 0,0 3.8854,-6.1056 7.21574,-11.1011 3.33034,-4.9955 7.77079,-6.1056 7.77079,-6.1056 l 9.43596,2.2202 5.55057,-6.6607 0,-8.8809 -7.21574,-7.2157 5.55057,-6.1057 -0.55506,-22.7573 -5.55057,0 -8.32584,-3.3303 -13.32136,0 -4.99551,4.4404 -7.77079,-2.2202 -2.22023,-2.7753 -8.8809,-4.4404 -11.65619,0 -13.32136,-3.8854 -7.77079,-5.5506 -9.99102,0 -6.10562,-4.4404 -0.55506,-6.6607 4.44045,-3.3304 -1.11011,-13.8764 -3.33034,-4.9955 1.66517,-5.5506 7.77079,-9.991 0.55506,-9.4359 -4.99551,-4.9955 2.22023,-8.3259 5.55056,-6.6607 -1.11011,-6.1056 -8.88091,-7.2157 1.11012,-6.1056 3.88539,-3.3304 4.99551,-13.8764 0.55506,-11.1011 -4.99551,-8.8809 1.11011,-4.9955 -5.55056,0 -1.66517,9.4359 -3.8854,-3.8854 2.77528,-11.6562 -3.88539,-4.4404 -8.88091,-6.1056 -1.11011,-7.7708 -3.33034,-4.9955 3.33034,-9.9911 3.8854,-1.1101 1.66517,-6.6607 3.33034,-2.7752 -1.66517,-8.8809 -4.99551,-6.6607 -1.11012,-11.6562 -5.55056,-19.982 3.33034,-21.6473 1.11011,-9.4359 -3.33034,-4.4405 4.99551,-2.2202 5.55057,2.2202 0,6.1057 7.77079,-3.3304 3.88539,1.6652 1.11012,11.1011 4.99551,3.8854 12.7663,0 5.55056,-4.4404 -1.11011,-11.1012 -1.66517,-7.7708 4.99551,-6.1056 4.99551,-0.555 11.10113,-5.5506 2.77528,-8.3259 6.66068,-8.8809 6.66068,-2.7752 8.32585,-14.9866 0,-4.9955 -3.33034,-3.3303 0.55506,-2.7753 7.21573,-3.3303 0,-4.4405 3.8854,-4.9955 -1.66517,-6.6607 -3.33034,-3.3303 6.66068,-3.8854 10.54607,2.2202 6.10562,-3.8854 16.09664,0.5551 4.44046,6.1056 4.99551,-1.1101 2.77528,-4.9955 10.54607,-2.2203 4.99551,3.8854 2.22023,-3.8854 14.43147,1.1102 7.21573,3.3303 4.44046,-4.4405 11.65618,1.6652 11.10114,11.6562 11.10113,0.5551 11.65619,8.8809 12.7663,-0.5551 6.10562,-8.3258 8.8809,-2.2203 3.8854,-7.7708 2.22023,-12.7663 6.10562,-11.1011 -3.8854,-7.2157 5.55057,-6.6607 12.7663,-3.8854 0,-5.5506 -7.21574,-4.44042 c 0,0 7.21574,-7.77079 8.32585,-10.54608 1.11012,-2.77528 -2.22022,-12.21124 -2.22022,-12.21124 l 4.9955,-1.11011 7.21574,10.54607 12.7663,0 11.65619,6.66068 5.55055,-7.77079 -1.1101,-7.77079 -6.66068,-4.44046 -0.55505,-7.21573 -7.7708,-8.32585 -2.77528,-9.43596 -4.99551,-6.10562 4.99551,-8.88091 4.44045,-4.44045 1.66517,-9.43596 -1.66517,-10.54608 4.99551,-7.21573 6.66065,-2.77529 7.7708,-6.10562 4.4405,1.66517 3.3303,7.21574 5.5506,0 5.5505,-7.7708 -1.1101,-4.9955 -12.2112,-2.22023 -5.5506,-6.66068 2.2203,-4.99551 9.991,-1.11011 1.6651,-4.44045 4.9955,-6.66068 0.5551,-4.44046 -3.8854,-3.33033 -2.2202,-5.55057 6.1056,-3.8854 -2.2202,-3.88539 3.8854,-5.55057 7.7708,5.55057 4.9955,-11.10113 4.9955,-1.66517 8.8809,0 0.555,-6.10563 -2.2202,-6.10562 0,-5.55056 5.5506,-6.10563 -3.8854,-6.10562 -8.3259,-2.77528 -4.4404,-10.54608 0,-16.09664 -2.2202,-7.21573 4.9955,-6.10562 7.2157,1.11011 6.1056,-2.22023 0,-6.66068 -8.8809,-7.77079 4.9955,-8.32585 6.6607,-6.10562 5.5506,-19.98203 12.7663,-6.10563 2.2202,-4.44045 4.4405,-2.77528 13.3213,2.22022 11.1011,-2.22022 c 0,0 2.2203,-3.33034 3.8854,-7.77079 1.6652,-4.44046 6.1057,-4.99551 6.1057,-4.99551 l 6.6606,-1.66517 3.3304,-7.21574 9.991,-12.21124 14.4315,-1.66517 4.4404,-2.77529 13.8764,2.22023 11.6562,-4.44045 3.3304,-16.6517 4.4404,-1.11011 1.1101,-9.99102 -2.7753,-6.66068 -7.2157,-2.77528 -7.7708,-6.66068 0,-6.10562 6.1056,-5.55057 -2.2202,-6.66068 8.8809,-8.8809 6.1056,-0.55506 5.5506,-5.55056 -1.1101,-7.21574 6.1056,-3.8854 8.3259,0.55506 9.4359,3.33034 12.7663,-8.32585 4.4405,0 7.7708,-7.21573 3.8854,-11.65619 0,-10.54608 8.3258,-6.66067 6.6607,1.66516 2.7753,-4.44045 1.6651,-7.77079 8.3259,-4.99551 0,-11.65619 4.9955,-8.32585 9.436,0 2.7753,-3.88539 0.555,-11.10113 4.9955,-5.55057 0,-6.10562 -10.5461,-5.55057 -0.555,-7.21573 -9.991,0.55506 -4.4405,8.8809 -11.1011,-4.44045 -1.1101,-4.99551 -8.3259,2.77528 -9.991,-3.33034 -4.4404,-7.77079 -0.5551,-6.66068 -6.6607,1.66517 -2.7753,8.88091 2.2203,6.66068 -3.8854,6.10562 -4.4405,-1.11012 -0.555,-5.55056 -4.4405,-6.10562 -1.6652,-10.54608 2.2203,-6.10562 -1.6652,-9.43596 -8.8809,-8.88091 -9.436,-0.55505 -8.8809,-11.10114 0.5551,-10.54607 7.2157,-8.88091 -3.3303,-19.42697 6.1056,-23.86744 2.7753,0 -1.1101,-5.55056 -5.5506,-4.44046 -2.7753,-6.10562 -8.8809,-0.55505 -6.6607,7.21573 -5.5505,0 -4.9955,-8.32585 3.3303,-7.21573 1.1101,-21.09215 12.2113,-12.21125 4.4404,-13.87641 -2.2202,-18.31687 -9.991,-9.99102 -9.436,-0.55505 -7.2157,11.65619 -1.6652,12.21124 -7.7708,0 -3.3303,-4.44045 -9.9911,-3.8854 -12.7663,0.55506 -9.4359,-1.66517 -7.7708,-11.10113 -6.1056,-2.22023 0,-3.33034 4.4404,-1.66517 -2.2202,-5.55056 -8.8809,-4.44046 0,-7.77079 6.1056,-8.32585 -3.8854,-16.09664 -5.5506,-3.33034 -2.7752,-15.54158 -12.7663,-1.66517 -4.4405,-5.55057 -21.6472,-2.77528 -1.6652,-3.33034 2.7753,-4.44045 -3.8854,-3.8854 -6.1056,-1.66517 0.5551,-8.8809 -6.6607,-10.54608 -3.3304,-3.88539 -2.7752,-10.54608 2.2202,-4.44045 -3.3304,-5.55056 -12.2112,-2.220231 -6.6607,-4.995509 -1.1101,-6.105623 -3.3303,-5.550565 -7.2158,0 -9.99099,-5.550566 -2.77528,-2.775283 -13.32136,1.66517 -9.99101,12.766301 0,8.325849 -5.55057,7.770787 -7.21574,1.11012 -8.32584,11.10113 -1.66517,11.65619 -9.99102,11.65618 -24.97755,9.99102 -13.32136,0 -17.76181,2.77529 -15.54158,-1.66517 -5.55056,-4.44046 -12.21125,-3.88539 -9.99102,-11.65619 -4.99551,-6.66068 -3.33034,-3.33034 -7.77079,2.22023 -2.77528,7.21573 -16.09664,6.66068 -8.88091,-3.33034 -13.32135,2.77529 -6.10563,10.54607 1.11012,7.21574 -4.44046,7.77079 -16.09664,7.21573 -6.10562,-0.55505 -7.21573,3.88539 0.55505,6.10562 -4.99551,1.66517 -12.7663,-0.55505 -4.44045,-7.77079 -4.44045,-0.55506 -12.21125,4.44045 -17.76181,-0.55506 -3.88539,-4.9955 -22.75732,-0.55506 -7.77079,5.55056 -11.10114,-5.55056 -4.9955,-7.21574 -3.8854,0 -7.77079,7.21574 -16.6517,2.22023 -16.09664,-4.99551 -3.33034,-5.55057 -10.54607,-4.44045 -16.6517,-0.55506 -3.33034,-3.33034 -7.21574,2.77529 -3.88539,6.66067 -16.6517,8.32585 -8.8809,-0.55505 -3.33034,3.33034 -7.77079,-0.55506 -3.33034,-4.44045 -4.99551,-1.11012 -4.44046,-3.33034 0,-6.10562 c 0,0 -5.55056,-6.10562 -8.32584,-9.99102 -2.77529,-3.88539 -11.10114,-6.10562 -11.10114,-6.10562 l -4.44045,-7.21573 -4.99551,2.77528 -3.88539,5.55056 -7.21574,7.21574 4.99551,12.7663 3.33034,3.33034 1.11011,16.6517 4.44046,6.66068 7.77079,1.66517 4.44045,9.43596 0,8.8809 -11.65619,7.21574 -13.32136,11.65619 -5.55056,14.43147 -4.99551,0.55505 -3.33034,3.33034 0,6.66068 12.7663,4.44045 2.22023,16.09664 8.8809,4.44046 3.8854,-1.66517 2.77528,-6.66068 11.65619,-2.77529 11.10113,-11.65618 6.66068,0 6.10562,7.21573 8.88091,-2.22022 4.44045,10.54607 16.09664,2.22023 6.66068,-5.55057 8.8809,0.55506 6.10563,4.99551 1.11011,12.7663 7.77079,2.77528 2.22023,8.32585 0,7.21573 10.54607,2.22023 4.44045,7.21574 8.88091,-0.55506 3.33034,-2.77528 6.66068,0 3.33034,6.10562 6.10562,6.66068 6.10562,0.55505 5.55057,11.10114 7.21573,0 6.10562,4.44045 -1.11011,8.8809 -3.88539,4.99551 -3.8854,-3.33034 -10.54607,18.31687 -0.55506,19.98204 4.99551,6.66068 -3.33034,7.21573 -6.66068,6.10562 -7.21574,0 -6.10562,-4.44045 -8.32585,3.33034 -6.10562,8.32585 -11.65619,2.22022 -6.66068,-2.22022 -13.32135,7.21573 -1.11012,8.88091 4.99551,14.43147 -4.44045,8.8809 -5.55057,3.8854 -12.7663,17.76181 -19.42698,6.10562 -3.88539,-3.33034 -8.32585,3.8854 0.55506,16.6517 7.21573,8.32584 -0.55506,12.76631 -6.98886,5.53142 -4.88184,2.44091 0,6.40741 3.35627,3.05115 0,5.79718 c 0,0 -3.9665,2.1358 -5.18695,2.74603 -1.22046,0.61023 -0.30512,5.49206 -0.30512,5.49206 l 3.35626,4.57672 -0.30511,0.91535 -8.84833,0 -1.52557,-3.35626 -10.98413,4.57672 -3.05114,6.71252 -5.49207,3.35626 -1.83069,5.79718 1.52558,9.45855 -2.74604,2.44092 -3.05114,-0.61023 -3.35626,2.44092 0,5.79718 -4.27161,3.35626 -3.05115,-1.22046 1.22046,-3.35626 -3.96649,-2.74603 -7.01763,1.22045 -4.27161,7.01764 -3.05115,0 -2.1358,-5.49206 -4.2716,2.1358 -3.66138,8.2381 -6.10229,0.91534 -7.01764,5.49206 -5.49206,7.32276 -7.93299,3.35626 0,5.18695 -3.35626,0 -7.01763,-3.66138 -3.05115,-11.89947 1.83069,-5.49207 -4.57672,-3.96649 -13.11993,1.22046 -1.83069,-1.83069 -4.27161,3.66138 2.13581,6.10229 3.05114,2.74604 -1.52557,4.57672 -3.35626,-0.61023 -0.91535,-3.35626 -3.66137,-2.74604 0,-1.52557 -4.27161,-1.22046 -3.66137,3.05115 -1.83069,7.01764 -6.40741,3.35626 -1.83069,6.10229 -3.96649,0.61023 -5.79718,-4.88184 -1.52557,-3.66137 0.61023,-7.62787 -2.74603,-1.22046 -5.79718,2.44092 -2.74603,6.40741 -7.93298,5.79718 -5.49207,0.61023 -5.79718,7.93298 3.35626,15.86596 3.05115,3.66138 -0.30511,17.39153 -1.52558,5.79718 -3.35626,4.27161 0.30512,5.49206 -4.88184,3.66138 -6.40741,1.83068 -3.05114,4.27161 -3.05115,-1.52557 -4.57672,2.44091 1.22046,6.1023 2.44092,3.05114 -2.44092,1.22046 -6.10229,6.71252 0.30511,6.71253 4.27161,4.57672 -2.44092,3.05114 -3.35626,1.83069 -3.66138,-0.91534 -3.66137,2.1358 1.22045,4.57672 5.49207,3.35626 0,3.66138 -3.66138,3.35626 1.52558,7.01764 -2.44092,3.66137 -6.71252,0 -2.74604,-14.03527 0.30512,-4.88184 -4.27161,-4.57672 -8.54321,0.91535 -5.49206,4.2716 -1.22046,6.71252 -3.66138,1.83069 -1.83068,4.88184 -0.61023,13.42504 -4.57672,6.71252 0,6.71253 -6.1023,6.10229 -5.18695,1.83069 0.30512,2.74603 2.44092,1.52557 c 0,0 0,5.79718 0,7.32276 0,1.52557 -3.35627,6.71252 -3.35627,6.71252 l 3.05115,8.54321 3.35626,3.35626 -1.22046,11.59436 -2.44091,1.22046 0,10.67901 -1.83069,4.2716 -3.96649,4.57672 -0.91535,5.79718 -4.57672,1.22046 -7.32275,-1.83069 -0.91534,-3.66137 -4.57672,0 -5.79718,5.49206 -4.27161,11.89947 c 0,0 0.61023,22.57849 0.61023,24.10406 0,1.52558 -2.44091,6.1023 -2.44091,6.1023 l -0.61023,20.13756 5.79718,11.28925 -1.52558,15.56084 -1.52557,8.54321 -8.2381,7.62787 0.30512,14.6455 -3.35626,1.52558 -2.13581,5.18695 -3.96649,4.88183 0,3.66138 5.49207,5.49206 -3.96649,7.01768 -4.57672,1.2204 -2.13581,7.3228 -9.45855,11.5943 -6.10229,1.5256 -9.76367,6.7125 -12.20459,1.2205 -10.3739,8.8483 -5.79718,0.3051 -10.068781,11.5944 0,4.2716 3.661376,2.1358 0,3.3562 -1.830688,0.9154 -0.305115,10.9841 5.492068,3.6614 -4.271609,12.2046 -5.492064,3.3562 0,6.1023 5.186949,4.8819 1.525574,11.2892 8.2381,5.7972 15.56084,0.9153 4.88184,6.1023 4.2716,18.612 -0.0636,11.0276 -5.41982,2.1679 -0.72265,6.5038 3.97454,10.4784 2.89057,3.2518 3.61322,15.1756 5.0585,3.2519 -3.61321,4.3358 -3.61322,-0.7226 -8.3104,3.6132 -5.41982,4.3358 -6.14247,0 -6.14247,7.5878 0,6.1425 6.14247,8.3104 12.28494,-0.3614 12.64625,-8.3104 3.97454,0 3.97454,2.168 4.69718,0 0.72264,9.3943 -2.52925,4.3359 0,9.3944 -4.33586,20.9566 -3.61322,3.6132 3.2519,5.7812 -0.72264,9.3943 -5.78115,3.2519 0.36132,4.3359 6.14247,3.2519 1.44529,7.5877 2.52925,1.084 -1.08397,7.9491 -2.52925,3.2519 -5.78114,-1.4453 -5.41983,4.3358 -5.78114,0.3614 -4.33586,4.6971 1.08396,2.5293 -2.89057,3.2519 -7.58776,2.5292 -6.50378,-2.5292 -9.39437,3.9745 -1.445282,2.5293 -9.755684,3.2519 -3.251894,-1.8066 -6.503789,2.5292 0.361322,2.8906 3.974537,0.7226 -0.39284,5.4958 5.513658,1.1028 1.102732,4.0433 -2.205464,4.7785 -4.410926,0.3676 -0.735155,5.8812 -2.57304,1.4703 0,3.6758 8.454276,2.573 2.205463,5.1461 9.557008,-1.1027 2.205458,-5.1461 8.0867,0 2.94062,6.2488 6.98397,0 5.51366,4.7785 1.10273,11.3949 4.04335,2.5731 -2.57304,6.9839 -2.20547,1.8379 0,5.1461 1.47031,11.3949 2.57304,2.573 -0.73515,6.984 -6.24881,5.5137 0,5.5136 -6.98397,3.3082 -6.98397,-2.2055 -2.20546,-6.6163 -4.77851,-1.8379 -1.10273,-1.4703 -3.308192,0 -5.513658,4.0433 -3.308195,0 -3.308195,4.7785 1.102732,7.7191 8.821853,4.0434 8.821855,0 4.41092,-3.3082 6.98397,3.3082 0,5.1461 -8.0867,6.6164 0.73516,2.9406 4.04335,2.573 0,3.6758 -3.67578,1.4703 -4.7785,-1.8379 -7.71912,4.4109 -0.367578,2.5731 -7.719121,1.4703 -2.573041,-1.4703 -3.308195,1.4703 0,3.6758 9.557008,0.7351 7.719121,-1.4703 4.043346,3.6758 2.94062,2.573 4.04335,0 0,-5.1461 -3.30819,-3.6757 2.57304,-2.5731 4.41092,-1.4703 3.67578,-4.4109 7.35154,0.7351 4.04335,4.0434 0,9.9246 2.94062,7.7191 10.29216,8.0867 13.96793,6.6164 3.67577,0 5.14609,3.6758 1.10273,10.6597 -0.36758,7.7191 -3.3082,4.0434 4.41093,5.8812 5.51366,1.8379 3.67577,-1.8379 6.24881,0.7352 12.49763,7.3515 2.20546,6.984 7.71912,1.1027 5.14609,-1.4703 4.41092,3.6758 3.3082,6.2488 9.557,2.9406 7.35155,6.2488 0.73515,8.4543 2.57304,2.2054 0,5.1461 -4.41092,3.6758 -2.57304,-0.3676 -2.82878,1.356 -6.67337,1.4829 -5.93187,-1.1122 -5.93188,1.483 -1.85371,3.7074 -4.81965,0.3707 -0.74149,5.9319 5.93188,2.5952 0.37074,5.5611 6.30262,5.9319 4.44891,0.3708 -2.22445,5.5611 -7.78559,6.6734 -4.07817,0 -5.93188,5.5611 -1.48297,3.3367 -8.15633,4.8196 -4.07816,0 -4.44891,2.966 -5.19039,-1.1123 -2.96594,-3.3366 -1.48297,-5.9319 2.22445,-4.0782 -1.85371,-3.7074 -3.70742,0 -5.93188,2.9659 -1.85371,5.5612 -3.70743,1.8537 -5.56113,0 -3.33668,-3.7075 0,-5.9318 -2.22446,-3.7075 -3.33668,0 1.48297,-9.2685 3.33668,-1.1122 -0.37074,-4.4489 -6.67336,-6.6734 -5.19039,3.3367 -4.07817,0 -5.56114,5.1904 0.37075,9.6393 -4.44891,4.0781 -4.81965,0.7415 -2.96594,-2.2244 -6.30262,4.0781 -3.70742,10.7516 0,3.3366 -1.85372,7.7856 -10.01004,3.3367 -7.414847,0.3708 -5.190393,5.9318 -0.370742,4.8197 4.819651,7.7856 -2.965939,4.8196 -5.931878,1.1122 -11.863755,11.1223 0,7.4149 5.190393,8.8978 0,4.8196 -8.156332,5.5612 -4.078166,-0.3708 -1.482969,4.4489 0.741485,10.0101 -5.561136,2.9659 -4.81965,7.0441 2.224454,15.5712 7.414847,4.4489 6.673362,9.2686 5.190393,10.01 6.673362,7.4149 -3.336681,7.7855 -9.268558,5.5612 -5.190393,0.3707 -2.224454,5.1904 -8.527074,4.8197 -4.819651,0 -0.741485,5.5611 5.931878,2.9659 8.897816,11.1223 4.819651,9.2686 7.785589,21.1323 4.819651,6.3026 4.81965,-4.0782 4.448908,-0.3707 5.561136,4.0782 2.595196,-0.3708 2.224454,-5.9319 9.268559,-5.9318 14.088208,0 5.93188,2.9659 2.5952,8.8978 9.26855,7.4149 2.5952,-2.2245 13.71747,12.976 5.93187,2.2244 2.5952,4.449 0.37074,8.8978 5.93188,4.4489 6.67336,2.5952 4.44891,7.0441 0,6.3026 3.33668,3.7074 5.1904,1.8537 0,13.7175 6.30262,9.2686 0.74148,13.3467 8.89782,8.5271 3.70742,0 2.5952,2.5952 -2.5952,4.8196 -8.52707,5.1904 -5.56114,1.8537 -1.11223,11.493 1.11223,7.0441 11.86376,2.5952 4.03914,-3.6491 4.92099,-0.703 5.27248,-3.515 -0.703,-5.624 -2.46049,-5.624 2.10899,-2.109 1.406,-4.5695 3.86648,-0.703 1.0545,3.1635 7.38147,4.921 0.3515,4.5695 -5.62398,1.0545 -1.0545,4.5695 0.703,7.3815 3.86649,1.406 1.40599,5.9754 -2.10899,2.812 11.24796,0 8.43597,-5.624 4.21799,-7.0299 3.51498,0.3515 1.406,4.5694 6.67847,0.3515 2.81199,-2.8119 1.406,5.6239 -8.08447,2.812 -1.0545,8.0845 -4.21798,2.109 -1.7575,6.327 5.97548,4.9209 2.10899,21.09 4.21799,7.0299 1.40599,14.763 6.67848,8.0845 0.3515,19.3324 -0.703,3.8665 0,3.1635 4.56949,2.109 1.40599,5.6239 0.3515,3.515 7.73297,1.7575 7.02998,1.406 6.32697,-5.2725 0,-3.8664 9.49047,-3.8665 3.16349,-4.5695 5.27248,-2.109 1.40599,-4.218 7.73298,-0.3515 5.97548,6.327 12.65395,6.6785 17.22344,-0.703 12.30246,0.3515 1.40599,2.109 12.30246,1.0545 2.46049,-1.0545 -2.46049,-5.9755 3.16349,-10.1935 0.35149,-7.3815 6.67848,-3.8664 3.16349,3.8664 5.97548,-1.7575 -0.703,-14.7629 4.56948,-7.3815 6.67848,-2.812 1.0545,-9.4904 -3.51499,-16.5205 2.81199,-4.218 4.56948,-1.406 2.81199,-4.2179 1.0545,-8.7875 -2.10899,-4.921 1.40599,-3.8665 c 0,0 2.10899,-0.703 3.16349,-2.4605 1.0545,-1.7575 2.10899,-5.9754 2.10899,-5.9754 l -5.97548,-5.9755 0,-8.0845 5.27249,-6.327 1.40599,-13.3569 4.56948,-4.5695 2.81199,3.1635 5.62398,-2.812 4.92099,-9.4905 8.78746,-2.109 2.81199,2.109 6.67848,-3.8665 3.86649,-7.0299 10.19346,-2.109 3.86649,2.109 9.49046,-0.3515 7.38148,-5.624 -2.109,-4.921 1.406,-8.7875 8.11157,-12.7375 11.16608,-5.583 8.83981,-9.3051 c 0,0 0,-7.4441 1.39576,-9.3051 1.39576,-1.861 11.63133,-13.0271 11.63133,-13.0271 l 9.77032,-1.3957 6.51354,-4.1873 0,-4.6525 -6.51354,-4.6526 -11.16608,-1.3957 -1.39576,-3.722 6.9788,-0.9306 4.18728,-3.722 -7.90931,-5.1178 2.79152,-3.2567 0.93051,2.7915 12.09658,6.5135 3.25677,-2.3262 -1.86101,-8.3746 10.70083,-12.5618 13.49234,-6.0483 8.83981,2.7915 7.90931,-2.3263 -1.86102,-3.722 3.25678,-7.9093 9.77031,0 9.30507,-6.9788 4.18728,-14.4229 -2.32627,-11.6313 6.9788,-12.5618 7.44405,-2.7915 4.65253,1.861 5.11779,-1.861 -2.32627,-16.2839 0.46526,-11.6313 -4.18728,-11.1661 -6.51355,-2.3263 -5.11778,-9.7703 1.39576,-7.4441 3.72202,-1.3957 0.93051,-6.5136 -3.72203,-4.6525 -7.9093,-1.861 -0.46525,-6.5135 5.58303,-3.2568 0,-7.9093 -7.44405,-4.6526 -1.39576,-13.4923 -0.46525,-9.7703 7.44405,-11.6314 4.18728,-1.3957 0,-4.1873 -13.49234,-6.5135 -0.46526,-3.2568 4.65254,-3.722 4.18727,0.9305 6.51355,-5.5831 -6.04829,-3.2567 4.18728,-2.7916 0.46525,-3.722 -4.65253,-2.7915 -6.04829,3.2568 -10.70083,-3.2568 -1.39576,-5.583 -4.18728,-2.3263 z"
       style="display:inline;fill:none;stroke:#646464;stroke-width:3;stroke-linecap:butt;stroke-linejoin:round;stroke-miterlimit:4;stroke-opacity:1;stroke-dasharray:none" />
    <path
       style="fill:none;stroke:#646464;stroke-width:1px;stroke-linecap:butt;stroke-linejoin:miter;stroke-opacity:1"
       d="m 627.10766,593.4115 -4.00447,-3.08733 -4.98521,-1.83644 -3.79486,-3.1456 -5.15107,-0.14196 -5.65402,1.94281 0.24136,4.00593 2.17164,4.91995 -0.0119,3.68006 -6.60311,-0.60028 -6.86268,1.26618 -10.13706,0.76419 -6.42563,-2.77194 -4.48779,-4.66098 -4.50212,-8.40396 -8.94213,-2.19334 -9.57199,1.65378 -6.89946,3.18585 -8.80254,-2.04601 -16.79561,10.13234"
       id="path1052"
       inkscape:connector-curvature="0"
       sodipodi:nodetypes="cccccccccccccccccccc" />
  </g>
  
  <g
     inkscape:groupmode="layer"
     id="layer3"
     inkscape:label="Limits"
     style="display:inline"
     transform="translate(107.81721,0)">
    <path
       style="fill:none;stroke:#646464;stroke-width:3;stroke-linecap:butt;stroke-linejoin:round;stroke-miterlimit:4;stroke-opacity:1;stroke-dasharray:none"
       d="m 50.583828,1840.457 -19.416015,6.6423 -9.708007,0 -4.59853,-4.0876 -4.59853,0.5109 L 0,1851.6978 l -6.1313731,-1.0219 -14.3065369,-15.3284 -14.817485,-11.7518 -9.708008,-0.511 -11.751798,-7.1532 -5.620425,-11.2409 8.686111,-3.5766 5.109478,-17.3722 -2.554739,-25.5474 -2.554739,-3.0657 -1.021895,-21.9708 -5.620425,-2.5547 -8.175164,6.1314 -7.153269,-2.0438 -2.043791,-11.7518 0,-13.7956 7.664216,-3.5766 6.131373,0 11.240851,-8.6862 -1.532843,-9.708 -5.109478,-3.5766 0,-17.3722 8.686112,-10.219 2.554739,-22.4817 3.576634,-2.5547 0,-20.4379 -8.686112,-6.1314 1.021896,-6.6423 -9.19706,-11.2409 -10.729903,1.5329 -15.328432,-12.7737 -6.642321,-13.7956 -9.197063,2.0438 -6.64232,-3.5767"
       id="path3901"
       inkscape:connector-curvature="0" />
    <path
       style="fill:none;stroke:#646464;stroke-width:3;stroke-linecap:butt;stroke-linejoin:round;stroke-miterlimit:4;stroke-opacity:1;stroke-dasharray:none"
       d="m 422.54527,2219.0038 1.75768,-5.6245 2.10921,-1.4062 2.10921,-7.3822 -10.54605,-2.1092 0.70307,-3.5154 7.38224,-3.1638 8.43684,-11.6007 4.92149,-4.2184 4.56996,-7.3822 -2.46075,-10.1945 3.51535,-5.9761 4.21843,-0.3516 9.13991,-8.4368 12.65527,-2.1092 8.78838,-4.57 5.97609,-8.0853 12.30374,-8.7884 6.67916,1.0546 4.56996,-2.1092 0.35154,-5.9761 -7.73378,-3.1638 -0.70307,-4.9215 1.05461,-8.4368"
       id="path3903"
       inkscape:connector-curvature="0" />
    <path
       style="fill:none;stroke:#646464;stroke-width:3;stroke-linecap:butt;stroke-linejoin:round;stroke-miterlimit:4;stroke-opacity:1;stroke-dasharray:none"
       d="m 165.33847,991.45288 -3.93663,3.57875 -12.16776,0 -5.72601,-1.78938 -2.86301,-5.36813 -6.08388,-1.4315 -7.51538,-6.44176 -6.44176,-8.94689 -14.31502,0.35788 -3.22088,-3.93663 -3.936631,-0.35788 1.073631,4.29451 -3.57876,5.36813 -11.809891,1.07363 -0.71575,-6.44176 -2.863004,-5.01026 0.357875,-2.50512 4.294506,0 4.294506,-5.36814 0,-3.93663 -4.652382,-2.50513 -6.799634,-8.94688 -0.357875,-9.66264 -5.368132,-8.23114 -4.652382,-0.35787 -5.010257,-2.14726 0,-6.44175 -3.578754,-4.65239 -5.726008,-1.07362 -9.662638,-12.88352 -11.452016,-1.07363 -8.231136,-5.36813 -3.93663,0 -8.589012,8.94689 -6.4417583,0 -2.5051284,-1.4315 -4.2945057,1.78937 0,4.65239 -10.3783886,6.44175 -2.863004,5.72601 -5.010257,2.86301 -4.652381,-3.22088 -6.799635,2.50513 -2.147252,2.863 -5.726008,2.863 -5.368132,-8.58901 -10.020514,-0.71575 -6.799634,5.36813 -0.357876,6.08389 -5.726007,2.863 -5.010257,-4.29451 -14.672895,0 -5.726008,-8.58901 -6.799634,-4.65238 -3.936631,-9.66264 -5.72601,-2.863"
       id="path3905"
       inkscape:connector-curvature="0" />
    <path
       style="fill:none;stroke:#646464;stroke-width:3;stroke-linecap:butt;stroke-linejoin:round;stroke-miterlimit:4;stroke-opacity:1;stroke-dasharray:none"
       d="m 815.31505,122.12515 0.68977,-10.34664 -4.13865,-3.44888 -8.96709,-1.03466 -3.10399,-5.51821 2.41422,-4.828431 3.10399,-0.689775 2.7591,-8.967086 -0.68978,-2.759104 -9.65686,0.689776 -11.72619,-2.759103 -0.68977,-5.518207 5.5182,-2.414215 4.13866,-7.932423 -5.51821,-4.138655 -4.82843,-0.344888 -8.27731,5.173319 -6.55287,-3.448879 6.55287,-6.207983 3.79377,0.344888 2.7591,-3.793767 7.58754,3.103992 5.86309,-1.034664 4.82843,-7.242647 -2.41421,-6.55287 5.17331,-13.105741 -5.86309,-3.448879 -0.68978,-7.587535 5.51821,-6.207982 3.79377,-1.379552 1.03466,-10.32321046"
       id="path3907"
       inkscape:connector-curvature="0"
       sodipodi:nodetypes="ccccccccccccccccccccccccccccccc" />
    <path
       style="fill:none;stroke:#646464;stroke-width:3;stroke-linecap:butt;stroke-linejoin:round;stroke-miterlimit:4;stroke-opacity:1;stroke-dasharray:none"
       d="m 987.52678,72.982424 0,-9.875268 3.1185,-3.638257 2.59876,-7.796264 -2.59876,-7.276513 1.55925,-13.513524 3.11851,-7.276513 2.079,0 3.63826,-4.677759 0.5198,-5.71726 -6.23706,-1.559253 -2.079,-5.7172599 0,-5.19750933"
       id="path3909"
       inkscape:connector-curvature="0" />
    <path
       style="fill:none;stroke:#646464;stroke-width:3;stroke-linecap:butt;stroke-linejoin:round;stroke-miterlimit:4;stroke-opacity:1;stroke-dasharray:none"
       d="m 1183.3448,595.56335 2.9164,4.0101 5.4683,4.0101 8.7493,0.72911 10.2076,6.92654 0.7291,2.91644 9.4784,2.55188 3.6456,5.46832 -1.8228,3.281 0,8.38476 4.0101,5.83287 4.3746,1.82278 3.6456,7.29109 10.9366,2.55188 6.562,-3.64554 4.7392,0 3.6456,7.29109 12.7594,5.83288 9.843,-2.91644 20.7796,0.72911 9.4784,-2.18733 2.1873,-4.37466 8.7494,-3.28099 3.6455,-9.47842 7.2911,-4.01011 c 0,0 5.8329,1.45822 7.6557,1.45822 1.8227,0 11.6657,-0.36455 11.6657,-0.36455 l 3.281,-4.0101 17.4986,-4.37466 6.562,0.72911 1.8228,5.10377 15.6758,4.0101 13.4886,-0.72911 8.3847,-4.37466 6.562,0 5.4683,-4.0101 14.5822,0 3.281,2.91644 9.843,0 2.1873,5.10376 4.3747,0 4.7392,-5.83287 8.7493,-6.56199 1.4582,4.0101 2.5519,0 4.7392,-4.37465 8.0202,-2.91644 3.6456,-0.36456 1.4582,2.55189"
       id="path3911"
       inkscape:connector-curvature="0" />
    <path
       style="fill:none;stroke:#646464;stroke-width:3;stroke-linecap:butt;stroke-linejoin:round;stroke-miterlimit:4;stroke-opacity:1;stroke-dasharray:none;display:inline"
       d="m 387.76699,2130.9008 5.82014,2.1826 5.82014,-5.4564 9.82149,-2.5463 2.54631,4.7289 12.73157,3.2738 2.18255,-3.6376 16.73291,-3.6376 2.18255,3.2738 8.0027,0.7276 12.73156,-9.094 0,-6.5477 6.54766,-5.0926 4.72887,5.4564 6.54766,0.7275 8.36645,-7.6389 9.45773,-7.2752 7.27518,-1.4551 6.1839,-12.004 16.36915,-5.8201 5.09263,0 26.5544,-7.639 10.91276,-11.2765 4.72887,-9.094 14.1866,-3.2738 5.45638,2.1825 12.3678,1.4551 3.27383,4.0013 11.27653,5.4564 8.36645,7.2752 7.27518,0 5.82014,6.9114 7.27518,-8.3664 0.36376,-5.8202 -2.54631,-4.7288 2.54631,-6.184 7.27518,-1.455 2.91007,5.8202 8.36645,0 5.82015,-8.0027 0,-7.639 -4.36511,-5.0926 -0.36376,-6.5477 4.72887,0 4.3651,-2.91 -1.09127,-6.5477 -10.91277,-1.0913 -4.36511,-4.3651 0,-7.6389 7.63894,-4.7289 1.09128,-5.8201 -2.91008,-2.9101 1.09128,-5.8201 14.55036,-5.0927 2.18255,-9.0939 -4.36511,-3.2739 -5.09262,2.9101 -4.00135,-0.3638 -1.09128,-7.6389 5.82015,-4.7289 6.91142,-1.0912 1.81879,-11.2766 -4.72887,-2.5463 -2.18255,-7.2751 4.72887,-2.5464 4.3651,-9.0939 11.27653,-7.639 9.09397,-18.5517 5.45639,-2.1825 0,5.4564 5.09262,4.0013 8.73021,1.0913 0,6.9114 -2.54631,7.6389 1.45504,6.9115 7.27518,2.91 1.09127,4.3651 -3.63759,2.5463 1.09128,4.3652 11.64028,2.91 5.82015,4.7289 2.91007,8.0027 -1.45504,6.5476 -5.82014,3.6376 1.09128,7.639 4.3651,11.6403 4.72887,2.1825 1.09128,3.6376 4.3651,1.455 0.72752,-4.7288 6.54766,-10.9128 7.63894,-3.2738 c 0,0 8.00269,-6.1839 9.45773,-6.9114 1.45503,-0.7276 12.73156,-4.0014 12.73156,-4.0014 l 6.54766,-7.6389 -2.18255,-5.0927 6.54766,-8.0026 -1.45504,-5.0927 -4.00135,-2.91 7.63894,-8.7303 5.82014,0 2.54632,5.8202 18.91546,3.6376 1.45503,4.3651 -2.54631,1.8188 0,6.5476 8.73022,6.1839 14.18659,-2.1825 5.45639,1.455 5.45638,-2.5463 1.81879,-5.8201 5.09263,-1.8188 2.18255,4.0013 6.1839,0 6.1839,-9.094 -2.18255,-6.5476 -10.18525,-2.5463 -2.18255,-5.0927 1.45503,-4.7288 6.18391,-1.0913 7.27517,-9.094 1.8188,-14.1866 -6.54766,2.5463 -5.45639,-6.5476 -0.72751,-6.9114 4.00134,-2.5463 -3.27383,-4.3652 -9.09397,1.0913 -2.54631,-9.0939 1.09128,-5.8202 6.1839,-0.7275 7.27518,-7.6389 3.63758,-0.7276 1.8188,-9.4577 6.54766,-6.1839 5.45638,-0.3638 4.00135,-2.1825 0.36376,-8.3665 6.91142,-6.5476 9.82149,-0.7275 1.09128,4.3651 6.54766,2.91 2.18255,7.639 3.27383,0 2.18255,-6.5477 c 0,0 5.45639,0 6.1839,-1.8188 0.72752,-1.8188 1.09128,-7.2752 1.09128,-7.2752 l 12.00404,-7.6389 2.54632,1.8188 17.46042,-3.2738 2.91007,-4.7289 7.27518,-2.9101 4.36733,-4.4572 -1.06339,-8.5071 -11.69726,-13.2924 -5.84862,-2.1267 0,-4.7853 6.91201,-0.5317 0,-6.912 -11.69726,-5.3169 -2.65846,-6.3804 6.38032,-1.0633 2.12677,-7.4437 5.84863,-1.0634 12.76065,7.9754 5.31691,0 7.4437,11.1655 4.7853,0 -5.317,-9.0388 3.7219,-7.4437 10.1022,-1.0634 6.3803,-2.1267 -10.6339,-6.912 -4.7852,-4.7853 1.0634,-4.7852 7.9754,2.6584 12.7606,-1.0633 4.2536,4.7852 -0.5317,5.8486 3.1901,-3.7218 0,-9.0388 5.8487,-2.1268 2.6584,4.2536 5.317,-6.3804 -1.5951,-9.0388 5.3169,-6.912 9.0388,0 4.7852,8.5071 0,9.0388 6.3804,11.6973 12.7606,5.8486 0,15.4191 10.1022,7.4437 0,10.6339 6.3803,4.2535 3.7219,-8.5071 -4.2536,-2.1267 -3.1901,-15.9508 5.3169,-6.9121 7.4437,-1.0633 1.5951,13.824 6.3803,6.3803 4.2535,13.2923 -1.0633,9.0388 2.1267,6.9121 6.9121,2.6584 5.3169,11.1656 7.4437,4.2535 5.8486,-1.595 11.1656,4.2535 3.1901,-2.1268 9.0388,-2.1267 8.5071,3.1901 7.4437,10.1022 5.8487,8.5071 13.824,-1.5951 4.7852,-8.5071 12.7607,-4.2535 6.912,4.2535 3.1902,-3.7218 3.7218,0 2.1268,2.6584 10.6339,0 6.912,-5.3169 7.4437,3.1901 4.7852,-1.0633 4.7853,-11.6973 -1.5951,-11.1656 4.7852,-6.912 3.7219,2.6585 2.1268,-5.8486 6.912,0.5317 4.7852,-5.317 3.1902,-10.6338 3.7218,-6.9121 -0.5317,-5.8486 -3.7218,-6.3803 0,-7.9754 4.2535,0 1.0634,5.3169 8.5071,4.2536 2.6585,-0.5317 9.0388,-10.1022 2.6584,-5.8486 12.229,-2.1268 9.5705,-2.6585 -1.0634,-7.4437 -1.0634,-7.4437 6.912,-5.8486 6.3803,2.1268 0.5317,10.6338 13.2924,2.1268 0,2.1268 6.3803,1.5951 10.1022,-3.1902 1.595,-7.9754 6.9121,-2.6585 4.7852,1.5951 3.1902,7.4437 2.1267,0.5317"
       id="path3913"
       inkscape:connector-curvature="0" />
      <g
         transform="translate(-393.85858,-1.8285014)"
         style="display:inline"
         inkscape:label="clipped"
         id="g636" />
      <g
         transform="translate(-393.85858,-1.8285014)"
         style="display:inline"
         inkscape:label="clipped"
         id="g679" />
      <g
         transform="translate(-393.85858,-1.8285014)"
         style="display:inline;fill:none;stroke:#ff0000;stroke-width:1"
         inkscape:label="qgisviewbox"
         id="qgisviewbox" />
  </g>
</svg>
