<?xml version="1.0" encoding="UTF-8" standalone="no"?>
<!-- Created with Inkscape (http://www.inkscape.org/) -->

<svg
   xmlns:dc="http://purl.org/dc/elements/1.1/"
   xmlns:cc="http://creativecommons.org/ns#"
   xmlns:rdf="http://www.w3.org/1999/02/22-rdf-syntax-ns#"
   xmlns:svg="http://www.w3.org/2000/svg"
   xmlns="http://www.w3.org/2000/svg"
   xmlns:sodipodi="http://sodipodi.sourceforge.net/DTD/sodipodi-0.dtd"
   xmlns:inkscape="http://www.inkscape.org/namespaces/inkscape"
   width="800.95508"
   height="862.5"
   id="svg4255"
   version="1.1"
   inkscape:version="0.48.4 r9939"
   sodipodi:docname="India Dadra_Nagar and Haveli_location map.svg">
  <defs
     id="defs4257" />
  <sodipodi:namedview
     id="base"
     pagecolor="#ffffff"
     bordercolor="#666666"
     borderopacity="1.0"
     inkscape:pageopacity="0.0"
     inkscape:pageshadow="2"
     inkscape:zoom="0.57855072"
     inkscape:cx="400.47754"
     inkscape:cy="431.25"
     inkscape:document-units="px"
     inkscape:current-layer="layer1"
     showgrid="false"
     fit-margin-top="0"
     fit-margin-left="0"
     fit-margin-right="0"
     fit-margin-bottom="0"
     inkscape:window-width="1366"
     inkscape:window-height="716"
     inkscape:window-x="-8"
     inkscape:window-y="-8"
     inkscape:window-maximized="1" />
  <metadata
     id="metadata4260">
    <rdf:RDF>
      <cc:Work
         rdf:about="">
        <dc:format>image/svg+xml</dc:format>
        <dc:type
           rdf:resource="http://purl.org/dc/dcmitype/StillImage" />
        <dc:title />
      </cc:Work>
    </rdf:RDF>
  </metadata>
  <g
     inkscape:label="Layer 1"
     inkscape:groupmode="layer"
     id="layer1"
     transform="translate(197.84131,161.74496)"
     style="display:inline">
    <rect
       style="fill:#e6e6e6;fill-opacity:1;fill-rule:nonzero;stroke:none;display:inline"
       id="rect3400"
       width="800"
       height="862.5"
       x="-197.84131"
       y="-161.74496" />
    <path
       id="path3396"
       style="fill:#fefee9;stroke:#646464;stroke-width:2.5;stroke-linecap:butt;stroke-linejoin:miter;stroke-miterlimit:4;stroke-opacity:1;stroke-dasharray:none;stroke-dashoffset:0;display:inline"
       d="m -27.84131,83.25504 c 14.8565,0.1399 23.5121995,5.2378 33.7499995,-5 2.5863,-2.5863 -0.1011,3.9522 2.5,-1.25 4.6884005,-9.3768 -1.5508,-29.3984 5.0000005,-42.5 1.1861,-2.37219 -1.803,-9.44696 0,-11.25 0.5173,-0.51729 8.6284,2.5 10,2.5 2.6592,0 3.2443,0.74904 6.25,1.25 3.2186,0.53643 15.272,-2.22804 17.5,0 4.273,4.27303 13.8804,3.88041 17.5,7.5 1.77,1.77004 7.3523,-1.25 8.75,-1.25 3.8266,0 2.7805,-12.09161 3.75,-15 1.4572,-4.37145 0.3774,-32.8774 1.25,-33.75 2.8933,-2.89327 1.4131,2.3369 5,-1.25 0,-3.2896 1.1825,-2.85644 5,-2.5 9.6111,6.12901 6.2934,27.6200298 6.25,38.75 0,1.81023 -0.7922,5.91568 0,7.5 1.5792,3.15837 8.8664,5.11642 11.25,7.5 1.2951,1.29512 11.9199,0 13.75,0 1.0915,0 9.0398,0.96022 10,0 0.3836,-0.38363 11.0509,-10.85178 11.25,-11.25 1.0842,-2.16838 -0.445,-8.30499 1.25,-10 3.5027,-3.5027402 3.75,-12.91758024 3.75,-20.0000002 0,-4.0714098 -3.4549,-13.0901498 -2.5,-14.9999998 1.2924,-2.58482 3.038,-6.60865 6.25,-8.75 1.0963,-0.73088 2.8183,-0.31831 3.75,-1.25 1.5437,-1.54367 0.8385,-8.33854 2.5,-10 3.7566,-3.7566 6.1856,-6.18562 10,-10 2.9566,-2.95662 38.6689,-6.27705 46.25,-3.75 2.6467,0.88223 3.9051,2.65506 5,3.75 0.5778,0.57783 2.9953,-0.37736 3.75,0 4.4447,2.22237 17.6986,11.05139 22.5,6.25 0.991,-0.99104 3.141,-8.14098 3.75,-8.75 10.3689,-10.36892 0.7759,-19.05185 5,-27.5 4.0803,-8.1605 13.0176,-23.01756 20,-30 0.9686,-0.96862 1.7478,-6.74781 3.75,-8.75 0.8333,-0.83333 -0.8333,-4.16667 0,-5 3.4641,-3.46412 12.4765,4.9765 13.75,6.25 0.5893,0.58926 1.7546,-0.37268 2.5,0 3.1598,1.5799 7.2077,8.31157 10,12.5 1.9723,2.95841 11.1868,40.12641 10,42.5 -3.5259,7.05174 -16.7609,58.2391398 -12.5,62.4999998 3.8398,3.8398 21.8691,1.24999996 28.75,1.24999996 3.423,0 17.4687,3.78128004 20,1.25 0.8333,-0.83333 -0.8333,-4.16666996 0,-4.99999996 1.6982,-1.69815 6.7975,-4.57121 8.75,-7.4999998 0.4623,-0.69338 -0.5893,-1.91074 0,-2.5 0.5893,-0.58926 1.9107,0.58926 2.5,0 0.2806,-0.28056 2.0421,-8.29209 2.5,-8.75 5.0933,-5.0933 36.3995,-0.53894 41.25,0 2.9788,0.33098 9.6877,-1.40617 12.5,0 5.755,2.87752 13.6989,8.69889 17.5,12.5 1.25,1.2499998 5,0 6.25,1.2499998 0.3784,0.3784 0,24.5481202 0,27.5000002 0,6.29409 1.7602,9.26021 5,12.5 0.4163,0.4163 2.0837,-0.41631 2.5,0 3.0569,3.0569 -2.7855,9.3211 -3.75,11.25 -1.4666,2.9333 -2.0616,4.5616 -3.75,6.25 -2.0872,2.0872 1.5641,8.4359 -1.25,11.25 -0.4167,0.4167 -3.3333,0.8333 -3.75,1.25 -0.6588,0.6588 -0.4748,1.9832 -1.25,2.5 -2.2723,1.5148 -4.7079,-0.1461 -7.5,1.25 -1.1389,0.5695 -5.8494,2.7003 -8.75,1.25 -9.1616,-4.5808 -5.0655,-13.881 -8.75,-21.25 -1.1729,-2.3458 -4.0238,-1.7975 -5,-3.75 -0.1244,-0.2487 -2.5,-3.15358 -2.5,-2.5 0,0.58926 1.6667,0.83333 1.25,1.25 -0.5893,0.5893 -1.7546,-0.37268 -2.5,0 -1.2241,0.612 -7.2156,8.1812 -8.75,11.25 -0.6557,1.3114 -0.2998,5.2998 -1.25,6.25 -2.5863,2.5863 0.1011,-3.9522 -2.5,1.25 -1.2807,2.5614 0.5562,5.6938 -1.25,7.5 -1.7754,1.7754 -3.8182,2.5341 -6.25,3.75 -1.3601,0.68 -10.322,10.322 -11.25,11.25 -0.5893,0.5893 0.5893,1.9107 0,2.5 -1.7766,1.7766 -9.3966,3.7931 -11.25,7.5 -2.1011,4.2023 -5.784,5.784 -8.75,8.75 -1.5046,1.5047 -0.2367,5.4734 -1.25,7.5 -1.5525,3.1049 -1.0056,1.1278 -3.75,2.5 -0.4308,0.2154 -2.0668,4.5668 -2.5,5 -1.2481,1.2481 -5.8101,0.6867 -7.5,1.25 -1.8846,0.6282 -18.3882,8.0264 -18.75,8.75 -0.6667,1.3333 0.6667,3.6667 0,5 -1.9201,3.8403 -0.705,-2.0674 -3.75,2.5 -0.4622,0.6934 0.5893,1.9107 0,2.5 -0.5893,0.5893 -1.9107,-0.5893 -2.5,0 -0.5893,0.5893 0.4623,1.8066 0,2.5 -0.6508,0.9762 -3.2515,3.2515 -3.75,3.75 -0.5893,0.5893 -1.9107,-0.5893 -2.5,0 -0.5893,0.5893 0.3727,1.7546 0,2.5 -0.9892,1.9784 -4.1608,4.1608 -5,5 -0.9985,0.9985 -1.566,6.566 -2.5,7.5 -0.5893,0.5893 -1.9107,-0.5893 -2.5,0 -0.5893,0.5893 0.3727,1.7546 0,2.5 -0.6719,1.3437 -2.9167,1.25 -3.75,2.5 -0.8368,1.2553 -2.7858,7.0179 -3.75,7.5 -0.7454,0.3727 -1.7546,-0.3727 -2.5,0 -0.7086,0.3543 -0.3836,9.1336 -1.25,10 -0.5893,0.5893 -1.7546,-0.3727 -2.5,0 -1.8157,0.9079 -3.2839,2.8919 -5,3.75 -2.038,1.019 -2.6854,3.9354 -3.75,5 -1.5858,1.5858 -7.5356,5.6428 -8.75,6.25 -5.4065,2.7033 -16.0507,3.9493 -20,0 -1.25,-1.25 -5.5178,-3.75 -3.75,-3.75 0.4167,0 0.4167,1.25 0,1.25 -1.5023,0 -2.2769,-2.2054 -3.75,-2.5 -3.9249,-0.785 -16.3055,-4.9723 -18.75,-3.75 -2.7873,1.3936 -5.7852,3.2852 -7.5,5 -1.499,1.499 -0.1963,4.1425 -1.25,6.25 -0.8945,1.789 -3.1375,4.3875 -3.75,5 -0.5778,0.5778 0.3774,2.9953 0,3.75 -1.1681,2.3361 -2.4923,3.7423 -3.75,5 -0.4363,0.4363 0.5189,3.4906 0,3.75 -0.7454,0.3727 -1.9107,-0.5893 -2.5,0 -0.5893,0.5893 0.3727,1.7546 0,2.5 -0.3727,0.7454 -1.9107,-0.5893 -2.5,0 -1.6213,1.6213 -5.8787,5.8787 -7.5,7.5 -1.073,1.073 -4.0923,0.6845 -5,2.5 -1.0251,2.0501 -3.2768,13.2768 -3.75,13.75 -2.5863,2.5863 0.1011,-3.9522 -2.5,1.25 -1.9504,3.9007 -1.1341,9.8841 -3.75,12.5 -1.25,1.25 1.25,6.25 0,7.5 -0.2345,0.2345 -3.0205,8.2295 -1.25,10 0.1592,0.1592 10.0211,2.5211 11.25,3.75 0.8195,0.8195 0.6237,4.3737 1.25,5 5.9974,5.9974 7.2322,16.9645 11.25,25 2.1452,4.2903 -2.2689,25.2311 0,27.5 5.3274,5.3274 0.08,23.83 3.75,27.5 0.9495,0.9495 9.1636,10 11.25,10 5.4004,0 6.6134,3.3866 11.25,-1.25 1.7508,-1.7508 1.4556,-6.6612 2.5,-8.75 5.0516,-10.1032 2.5862,-23.75 17.5,-23.75 1.758,0 4.5966,-0.5511 6.25,0 2.4504,0.8168 8.2366,1.9866 10,3.75 1.8337,1.8337 3.3234,13.3234 3.75,13.75 1.0417,1.0417 1.4583,2.7083 2.5,3.75 0.5893,0.5893 2.1273,-0.7454 2.5,0 0.8661,1.7321 4.162,11.6619 5,12.5 0.5893,0.5893 1.9107,-0.5893 2.5,0 0.2712,0.2712 1.0063,2.3781 1.25,2.5 4.3313,2.1656 11.4254,1.0746 13.75,-1.25 0.7427,-0.7427 14.2006,-1.0247 16.25,0 2.7473,1.3736 -0.1396,3.6104 1.25,5 3.1977,3.1977 9.1909,10.8091 12.5,7.5 0.5893,-0.5893 -0.5893,-1.9107 0,-2.5 0.625,-0.625 1.875,-0.625 2.5,-1.25 2.4306,-2.4306 -1.9441,-18.0558 2.5,-22.5 1.4583,-1.4583 -1.4583,-7.2917 0,-8.75 0.5893,-0.5893 1.9107,0.5893 2.5,0 1.3638,-1.3638 1.6095,-2.6797 3.75,-3.75 2.3013,-1.1506 0.1987,-2.5994 2.5,-3.75 2.8217,-1.4108 30.5321,-1.25 36.25,-1.25 1.1111,0 2.9405,2.0595 3.75,1.25 1.0417,-1.0417 0.2083,-3.9583 1.25,-5 0.5893,-0.5893 1.9107,0.5893 2.5,0 1.0822,-1.0822 -0.7271,-4.7957 0,-6.25 3.7019,-7.4037 -1.4558,-19.3673 -3.75,-26.25 -0.2357,-0.707 0.5021,-3.248 0,-3.75 -2.8716,-2.8717 -8.8988,1.1012 -10,0 -0.4093,-0.4093 0.535,-34.8201 1.25,-36.25 4.41,-8.82 5.5776,-11.25 17.5,-11.25 0.7628,0 4.513,-0.487 5,0 2.5863,2.5863 -3.9522,-0.1011 1.25,2.5 1,0.5 2.75,-0.5 3.75,0 0.1548,0.077 1.4561,3.228 2.5,3.75 4.3755,2.1878 8.5925,-4.9212 11.25,-6.25 5.0013,-2.5006 11.1591,7.4546 11.25,7.5 4.2369,2.1184 8.4731,-2.2231 11.25,-5 0.6263,-0.6263 0.4305,-4.1805 1.25,-5 0.4167,-0.4167 2.0833,0.4167 2.5,0 0.4186,-0.4186 -0.4186,-2.0814 0,-2.5 1.1037,-1.1037 10.3893,-2.3053 12.5,-1.25 3.9116,1.9558 3.7561,15.0061 6.25,17.5 3.3209,3.3209 16.0715,-4.107 20,3.75 2.8898,5.7795 -1.5143,13.4857 3.75,18.75 0.5893,0.5893 -0.5893,1.9107 0,2.5 2.1681,2.1681 11.0978,-6.0978 13.75,-8.75 0.7152,-0.7152 5.298,0 6.25,0 1.4123,0 5.7187,-0.3593 7.5,-1.25 0.8333,-0.4167 3.1588,-1.9088 2.5,-1.25 -0.6588,0.6588 -3.4317,1.25 -2.5,1.25 11.9208,0 -1.8876,-3.1376 1.25,0 0.5893,0.5893 1.9107,-0.5893 2.5,0 0.8415,0.8415 0.6593,1.5796 2.5,2.5 5.5591,2.7795 14.4045,-1.8455 21.25,5 1.1817,1.1817 6.4543,0.2043 7.5,1.25 4.2243,4.2243 19.1761,6.6761 21.25,8.75 3.0261,3.0261 3.406,6.4679 5,11.25 3.1574,9.4721 -0.4514,-0.4514 2.5,2.5 1.3885,1.3885 -3.9863,11.7227 -5,13.75 -0.8147,1.6293 -4.437,3.187 -6.25,5 -1.9153,1.9153 -2.6349,7.6349 -3.75,8.75 -0.9148,0.9148 -3.5187,2.2687 -5,3.75 -0.4167,0.4167 -0.8333,3.3333 -1.25,3.75 -1.1143,1.1143 -3.6725,0.5862 -5,1.25 -4.2646,2.1323 -14.1225,6.6225 -16.25,8.75 -2.479,2.479 -25.4961,-4.5039 -28.75,-1.25 -0.5893,0.5893 0.3727,1.7546 0,2.5 -0.8662,1.7323 -3.0549,3.0549 -3.75,3.75 -1.0876,1.0876 -2.2346,7.2346 -3.75,8.75 -1.8267,1.8267 -3.75,31.9053 -3.75,36.25 0,8.0735 -1.25,16.3842 -1.25,23.75 0,0.5147 -0.3309,3.4191 0,3.75 0.8839,0.8839 2.632,-0.559 3.75,0 0.223,0.1115 2.3159,3.5659 2.5,3.75 0.9239,0.9239 20.9624,2.2124 22.5,3.75 0.911,0.911 1.2671,3.7671 2.5,5 1.5351,1.5351 7.7108,2.7108 8.75,3.75 0.5893,0.5893 -0.5893,1.9107 0,2.5 1.0309,1.0309 13.7488,4.9988 13.75,5 1.2785,1.2785 1.5911,2.6706 3.75,3.75 0.7547,0.3774 3.1722,-0.5778 3.75,0 0.5893,0.5893 -0.5893,1.9107 0,2.5 0.625,0.625 3.125,-0.625 3.75,0 0.911,0.911 2.5171,2.5171 3.75,3.75 1.2,1.2 -0.7891,5.9219 0,7.5 5.0765,10.1531 3.4198,28.1603 -1.25,37.5 -0.9126,1.8252 0.3597,4.6403 -1.25,6.25 -0.625,0.625 -3.125,-0.625 -3.75,0 -0.2946,0.2946 0,0.8333 0,1.25 -0.8333,0 -1.7546,-0.3727 -2.5,0 -0.3727,0.1863 0.4167,1.25 0,1.25 -0.4167,0 0,-1.6667 0,-1.25 0,6.5561 0.2665,26.1167 0,26.25 -0.7454,0.3727 -1.9107,-0.5893 -2.5,0 -1.0055,1.0055 -7.1142,11.7283 -7.5,12.5 -1.5285,3.057 0.205,6.045 -2.5,8.75 -1.25,1.25 -6.25,-1.25 -7.5,0 -3.1234,3.1234 -5.9814,0.4907 -10,2.5 -2.8279,1.414 -9.4948,4.4948 -11.25,6.25 -0.4163,0.4163 -2.0837,-0.4163 -2.5,0 -0.5893,0.5893 0.5893,1.9107 0,2.5 -0.6588,0.6588 -1.8412,0.5912 -2.5,1.25 -0.625,0.625 0.625,3.125 0,3.75 -3.3011,3.3011 -6.2218,27.5282 -2.5,31.25 1.6667,1.6667 5.8333,0.8333 7.5,2.5 1.4116,1.4116 4.8634,11.3866 2.5,13.75 -0.8661,0.8661 -5.3839,0.3839 -6.25,1.25 -3.1806,3.1806 -6.9425,1.4808 -10,2.5 -1.4267,0.4756 -4.2561,2.7531 -6.25,3.75 -7.3417,3.6709 -18.3951,-3.3951 -21.25,-6.25 -0.5778,-0.5778 -2.9953,0.3774 -3.75,0 -1.8088,-0.9044 -6.2972,-3.7972 -7.5,-5 -0.511,-0.511 -3.7018,-4.9518 -6.25,-7.5 -1.0417,-1.0417 1.0417,-5.2083 0,-6.25 -1.6763,-1.6763 -5.4744,-2.9744 -7.5,-5 -1.25,-1.25 1.25,-6.25 0,-7.5 -1.6668,-1.6668 -8.115,2.1925 -12.5,0 -3.5565,-1.7782 -6.0373,-3.5373 -8.75,-6.25 -1.4051,-1.4051 -2.3344,-4.8344 -5,-7.5 -1.875,-1.875 1.875,-9.375 0,-11.25 -0.6263,-0.6263 -4.1805,-0.4305 -5,-1.25 -1.2743,-1.2743 1.3764,-2.4368 -1.25,-3.75 -2.6954,-1.3477 -5.398,3.0493 -7.5,3.75 -1.4087,0.4696 -12.702,1.048 -13.75,0 -3.0092,-3.0092 -7.9337,-4.1837 -10,-6.25 -1.3978,-1.3978 -2.8205,-5.6411 -3.75,-7.5 -0.8759,-1.7519 -6.575,-6.575 -7.5,-7.5 -0.6367,-0.6367 -6.7204,0 -7.5,0 -6.3438,0 -16.3851,-1.1149 -21.25,3.75 -1.4837,1.4837 -2.0864,3.5432 -5,5 -2,1 -3,4 -5,5 -3.5979,1.7989 -15.6748,1.3938 -16.25,1.25 -7.3151,-1.8288 2.8304,-0.4598 -1.25,-2.5 -1.118,-0.559 -3.191,1.118 -3.75,0 -3.2187,-6.4373 -0.074,-0.074 -2.5,-2.5 -2.0379,-2.0379 1.4832,-14.8834 -3.75,-17.5 -2.3381,-1.169 -3.632,0.059 -6.25,-1.25 -0.8333,-0.4167 -0.5912,-1.8412 -1.25,-2.5 -0.6588,-0.6588 -2.5,-0.3183 -2.5,-1.25 0,-0.4167 1.6227,0.1863 1.25,0 -13.1831,-6.5916 -9.3718,-4.6244 -23.75,-7.5 -3.8637,-0.7727 -8.8151,-3.263 -11.25,-3.75 -4.7724,-0.9545 -8.8477,-2.5 -13.75,-2.5 -2.5,0 -7.5,2.5 -7.5,0 0,-0.4167 1.5446,0.2946 1.25,0 -2.9218,-2.9218 -6.3579,-3.4391 -10,-5 -6.1375,-2.6304 -16.1209,-7.5 -13.75,-7.5 0.4167,0 0.4167,1.25 0,1.25 -0.5893,0 -0.723,-0.9865 -1.25,-1.25 -2.9874,-1.4937 -12.5674,0 -16.25,0 -2.8797,0 -7.9955,-0.7545 -10,1.25 -1.2398,1.2398 4.6916,2.1916 5,2.5 1.4192,1.4192 1.25,3.2755 1.25,6.25 0,10.0915 -1.25,22.0219 -1.25,33.75 0,1.9311 1.4195,12.3305 0,13.75 -2.2199,2.2199 -3.8503,17.6003 -5,18.75 -0.6263,0.6263 -1.6805,2.9305 -2.5,3.75 -0.8195,0.8195 -4.3737,0.6237 -5,1.25 -4.2807,4.2807 -3.9713,3.75 -11.25,3.75 -1.1742,0 -9.072,0.928 -10,0 -1.5442,-1.5442 -5.9772,-4.1816 -6.25,-5 -1.3335,-4.0004 -0.7477,-3.2477 -3.75,-6.25 -0.8333,-0.8333 0.8333,-4.1667 0,-5 -1.6452,-1.6452 -3.746,-9.996 -3.75,-10 -0.8333,-0.8333 -2.9167,-0.4167 -3.75,-1.25 -0.8661,-0.8661 -0.3839,-5.3839 -1.25,-6.25 -1.2743,-1.2743 -2.4368,1.3764 -3.75,-1.25 -1.2099,-2.4198 -1.0298,-4.5595 -2.5,-7.5 -1.0714,-2.1428 -3.9432,-3.0796 -5,-6.25 -0.2635,-0.7906 0.4623,-1.8066 0,-2.5 -0.069,-0.1032 -6.9573,-4.4573 -7.5,-5 -1.9916,-1.9916 -1.7584,-9.2584 -3.75,-11.25 -2.5749,-2.5749 -5.7911,-5.3322 -7.5,-8.75 -0.3727,-0.7454 0.5893,-1.9107 0,-2.5 -1.3466,-1.3466 -1.5484,-0.1492 -3.75,-1.25 -1.9572,-0.9786 -3.302,-5.802 -5,-7.5 -0.6263,-0.6263 -2.9305,-1.6805 -3.75,-2.5 -0.8751,-0.8751 -1.8562,-4.9624 -2.5,-6.25 -2.4759,-4.9517 -6.4134,-6.4134 -10,-10 -0.4167,-0.4167 -0.8333,-3.3333 -1.25,-3.75 -0.8065,-0.8065 -10.4623,-3.8868 -11.25,-6.25 -0.7068,-2.1204 0.9911,-5.5178 0,-7.5 -2.6011,-5.2022 0.086,1.3363 -2.5,-1.25 -0.2071,-0.2071 -4.6406,-11.4219 -5,-12.5 0.4672,-2.7231 -2.0833,-0.4167 -2.5,-1.25 -2.6846,-5.3691 10.2741,-6.5241 11.25,-7.5 2.4005,-2.4005 3.3553,-7.1053 6.25,-10 2.6558,-2.6558 11.7027,-5.4527 12.5,-6.25 0.5893,-0.5893 -0.3727,-1.7546 0,-2.5 0.8699,-1.7397 4.7987,-7.7013 2.5,-10 -2.5435,-2.5435 -18.6357,-1.2214 -23.75,-2.5 -3.0073,-0.7518 -5.7855,-1.5118 -8.75,-2.5 -0.7906,-0.2635 -2.5,0.8333 -2.5,0 0,-1.5738 4.2504,-2.2507 5,-3.75 0.3646,-0.7292 0.499,-8.251 0,-8.75 -2.2751,-2.2751 -8.4409,2.9704 -10,3.75 -2.8948,1.4474 -0.1569,5.3138 -1.25,7.5 -0.1219,0.2437 -2.2288,0.9788 -2.5,1.25 -2.2827,2.2827 0.483,14.0339 -1.25,17.5 -0.9203,1.8407 -1.6585,1.6585 -2.5,2.5 -0.5778,0.5778 0.3774,2.9953 0,3.75 -0.9442,1.8883 -3.9377,7.6877 -5,8.75 -1.7382,1.7382 -4.0244,2.7744 -6.25,5 -0.8333,0.8333 -0.4167,2.9167 -1.25,3.75 -0.4177,0.4177 -2.0823,-0.4177 -2.5,0 -2.6532,2.6532 -8.0219,6.7719 -10,8.75 -0.9986005,0.9986 -4.7655005,-0.4948 -6.2500005,0 -2.9315,0.9772 -10.5606,2.8447 -13.75,1.25 -1.0153995,-0.5077 -9.4301995,-5.6802 -9.9999995,-6.25 -1.5225,-1.5225 -0.5855,-2.7928 -2.5,-3.75 -0.7454,-0.3727 -1.9107,0.5893 -2.5,0 -0.8333,-0.8333 0.8333,-4.1667 0,-5 -1.9268,-1.9268 -4.7401,-4.7401 -6.25,-6.25 -3.5497,-3.5497 -10.4788,-39.0425 -7.5,-45 4.6989,-9.3977 21.0473,-18.5473 29.9999995,-27.5 2.0833,-2.0833 -0.8333,-9.1667 1.25,-11.25 1.969,-1.969 0.1653,-4.2458 1.25,-7.5 0.3749,-1.1248 3.4279,-3.4279 3.75,-3.75 2.14690004,-2.1469 -1.374,-21.374 -2.5,-22.5 -1.9785,-1.9785 0.9371,-10.9386 0,-13.75 -1.2905,-3.8716 -4.2916,-3.3124 -6.2499995,-6.25 -2.0244,-3.0366 -3.9782,-7.7282 -6.25,-10 -2.5,-2.5 -12.5,2.5 -15,0 -2.3218,-2.3218 1.25,-10.3001 1.25,-12.5 0,-3.0377 1.6953,-8.3905 2.5,-10 1.6965,-3.3931 0,-35.9764 0,-42.5 0,-2.3744 -2.1623,-9.0877 -1.25,-10 1.0262,-1.0262 3.75,-6.0278 3.75,-7.5 0,-1.8641 4.0527,-6.5527 5,-7.5 0.5822,-0.5822 0.1904,-8.75 1.25,-8.75 0.4167,0 0.2946,1.5446 0,1.25 -1.8316,-1.8316 -4.7036,-5.1803 -6.25,-7.5 -4.5372,-6.8058 -6.5329,-16.6332 -15,-18.75 -3.287,-0.8218 -8.3522,-6.7045 -10,-10 -0.3727,-0.7454 0.5893,-1.9107 0,-2.5 -5.3611,-5.3611 -16.3801,-7.6301 -21.25,-12.5 -1.1785,-1.1785 -3.3435,0.1841 -5,0 -2.519,-0.2799 -4.973,-1.0556 -7.5,-1.25 -3.923,-0.3018 -23.009,0.741 -26.25,-2.5 -0.625,-0.625 0.625,-3.125 0,-3.75 -4.875,-4.875 -8.0043,-8.5085 -11.25,-15 -1.0533,-2.1065 -0.1496,-5.2991 -1.25,-7.5 -2.5787,-5.1575 -7.4022,-4.8044 -10,-10 -1.4501,-2.9002 2.2042,-11.5458 0,-13.75 -2.1198,-2.1198 -4.7868,-2.0736 -6.25,-5 -1.8333,-3.6667 1.8333,-10.0833 0,-13.75 -2.0221,-4.0442 -6.7907,-4.8314 -7.5,-6.25 -1.0147,-2.0294 6.8139,-6.8139 8.75,-8.75 3.4569,-3.4569 7.7419,-5.2419 10,-7.5 8.6433,-8.6433 16.2386,-18.73855 23.75,-26.25 1.2329,-1.2329 5.339,-0.33903 6.25,-1.25 0.625,-0.625 0.625,-1.875 1.25,-2.5 1.2641,-1.26406 10.3591,-2.32044 12.5,-1.25 4.9708,2.4854 11.2735,7.52347 15,11.25 0.4363,0.43632 3.4906,-0.51887 3.75,0 1.1212,2.24247 3.9402,7.6902 6.25,10 0.4167,0.4167 3.3333,0.8333 3.75,1.25 3.0585,3.0585 4.0021,7.7521 7.5,11.25 1.8398,1.8398 5.1835,3.9335 7.5,6.25 1.2017,1.2017 0.8956,4.6456 2.5,6.25 0.8333,0.8333 4.1667,-0.8333 5,0 0.8518,0.8518 3.6069,9.0887 4.375,10.625 m 6.2993,-152.59984 c -1.4731,0.58926 -3.0589,0.95146 -4.4194,1.76777 -0.1637,0.0982 -0.705,2.47276 -0.8839,2.65165 -0.4166,0.41667 -1.3511,-0.41667 -1.7677,0 -0.6736,0.67361 -2.2971,4.00658 -3.5356,4.41942 -1.118,0.37268 -2.4175,-0.37268 -3.5355,0 -3.6076,1.20252 -7.0074,4.35572 -8.8388,6.18718 -0.4167,0.41667 -1.3511,-0.41666 -1.7678,0 -0.9484,0.9484 0,8.41519 0,9.72272 0,4.30031 -3.1065,13.23246 -0.8839,17.67767 0.2946,0.58926 1.4731,0.29463 1.7678,0.88388 0.5327,1.06535 0.1,2.75171 0.8839,3.53554 0.5934,0.59342 2.836,2.13662 3.5355,3.53553 0.7369,1.47377 2.1052,5.64078 2.6516,6.18719 0.4167,0.41666 1.3511,-0.41667 1.7678,0 1.8963,1.89627 4.7496,2.3748 7.0711,3.5355298 0.5892,0.29463 0.2946,1.47314 0.8839,1.76777 3.5158,1.75794 4.8917,-0.41152 7.9549,2.65165 3.0931,3.09304 3.3476,4.04345 5.3033,7.95495 0.4619,0.9237 3.5684,2.68454 4.4194,3.53553 0.4429,0.44283 0.3045,2.95608 0.8839,3.53554 0.1378,0.13774 3.3977995,0.13774 3.5355995,0 0.4166,-0.41667 -0.3269,-1.27748 0,-1.76777 0.6933,-1.04006 2.2563,-1.4658 2.6516,-2.65165 1.02,-3.06002 0.975,-7.2533 2.6517,-10.6066 1.63430004,-3.26874 3.2654,-5.3768798 4.4194,-8.8388398 0.9075,-2.72266 3.2333,-4.69899 4.4194,-7.07107 0.273,-0.54606 0.5562,-3.2079 0.8839,-3.53553 1.8288,-1.82879 -0.072,2.79463 1.7677,-0.88388 0.8576005,-1.71515 0.2702,-4.34597 0.8839005,-6.18719 0.4392,-1.31745 3.1736,-5.82526 3.5356,-6.18718 0.3718,-0.37183 -0.1619,-3.21179 0,-3.53554 0.6846,-1.3693 0.2353,-2.4737 0.8838,-4.41941 0.2636,-0.79057 1.3951,-1.02241 1.7678,-1.76777 0.7569,-1.51383 0.01,-7.94501 -0.8839,-8.83884 -0.4419,-0.44194 -1.3258,-0.44194 -1.7677,-0.88388 -1.1345,-1.13446 -0.9181,-3.56967 -1.7678,-4.41942 -0.7502,-0.75018 -4.3654005,-4.83433 -5.3033005,-5.3033 -3.1534,-1.57671 -4.2828,-1.6311 -6.18719996,-3.53553 -0.8251,-0.82508 -20.82809954,0.4533 -22.98099954,0.88388 z"
       inkscape:connector-curvature="0" />
    <path
       style="fill:#e6e6e6;fill-opacity:1;stroke:#646464;stroke-width:2.5;stroke-linecap:butt;stroke-linejoin:miter;stroke-miterlimit:4;stroke-opacity:1;stroke-dasharray:none;display:inline"
       d="m 11.15869,169.50504 c -5.5608005,5.5608 -22.7764,13.3292 -25,20 -0.4358,1.3075 1.8631,1.8394 2.5,3.75 3.3324995,9.9974 6.8072995,8.0573 12.4999995,13.75 2.2046,2.2046 3.1358,5.6358 5,7.5 1.4219,1.4219 6.5107005,4.2713 7.5000005,6.25 0.3727,0.7454 -0.3727,1.7546 0,2.5 0.3727,0.7454 1.7546,-0.3727 2.5,0 1.3657,0.6829 4.3652,4.3652 5,5 1.3612,1.3612 6.7561,-0.6646 8.75,0 4.5491,1.5164 7.1009,1.383 11.25,0 3.4369,-1.1456 11.0628,0.1872 13.75,-2.5 2.5259,-2.5259 4.6197,-9.6197 7.5,-12.5 0.5893,-0.5893 -0.5893,-1.9107 0,-2.5 1.773,-1.773 5.9186,-2.1686 7.5,-3.75 3.0662,-3.0662 4.836,-21.5779 2.5,-26.25 -1.183,-2.366 -8.0689,-3.0689 -10,-5 -1.7094,-1.7094 -5.2687,-7.6343 -7.5,-8.75 -2.7867,-1.3933 -5.2171,-1.4671 -7.5,-3.75 -0.9977,-0.9977 -4.9386,0.6557 -6.25,0 -6.580398,-3.2902 -11.594081,-2.80157 -17.650288,2.67699 -3.266674,3.17691 -10.646812,1.87011 -12.349712,3.57301 z"
       id="path3398"
       inkscape:connector-curvature="0"
       sodipodi:nodetypes="sccsscscscssssssscsscs" />
    
    
  </g>
</svg>
