<?xml version="1.0" encoding="UTF-8" standalone="no"?>
<!-- Created with Inkscape (http://www.inkscape.org/) -->

<svg
   xmlns:dc="http://purl.org/dc/elements/1.1/"
   xmlns:cc="http://creativecommons.org/ns#"
   xmlns:rdf="http://www.w3.org/1999/02/22-rdf-syntax-ns#"
   xmlns:svg="http://www.w3.org/2000/svg"
   xmlns="http://www.w3.org/2000/svg"
   xmlns:sodipodi="http://sodipodi.sourceforge.net/DTD/sodipodi-0.dtd"
   xmlns:inkscape="http://www.inkscape.org/namespaces/inkscape"
   version="1.1"
   id="svg966"
   inkscape:version="0.92.4 (5da689c313, 2019-01-14)"
   sodipodi:docname="Himachal_Pradesh_location_map.svg"
   width="1000"
   height="900"
   viewBox="0 0 1041.1467 1056.3067">
  <g
     style="overflow:visible"
     id="g1868"
     transform="translate(-1481.6432,-33.973274)">
    <path
       id="path1327"
       d="m 2351.709,375.74339 c 1.1027,1.31579 2.3269,2.33069 3.6465,3.12305 1.3508,0.81109 2.7931,1.41 4.2813,1.92187 2.9762,1.02375 6.1352,1.70102 9.1152,3.04102 1.5175,0.6825 2.927,1.50078 4.2305,2.45312 1.3034,0.95235 2.5005,2.03844 3.5918,3.25782 1.0912,1.21937 2.078,2.57109 2.9589,4.05468 0.881,1.4836 1.6557,3.09875 2.3282,4.84375 0.4875,1.265 1.0521,2.70735 1.7129,4.14063 0.6607,1.43328 1.4187,2.85781 2.2968,4.08594 0.8782,1.22812 1.8761,2.26062 3.0157,2.91015 0.5697,0.32477 1.1749,0.55397 1.8183,0.66406 0.6434,0.1101 1.3244,0.10047 2.0469,-0.0508 1.7075,-0.3575 3.3164,-0.55679 4.8359,-0.54492 1.5196,0.0119 2.9507,0.23516 4.2989,0.72266 1.3481,0.4875 2.6133,1.23922 3.8066,2.30859 1.1933,1.06938 2.3141,2.45539 3.3691,4.21289 1.11,1.85 1.9446,3.51938 2.5625,5.11719 0.618,1.59781 1.0193,3.12406 1.2637,4.69531 0.2444,1.57125 0.3311,3.18672 0.3203,4.95703 -0.011,1.77032 -0.1201,3.69563 -0.2676,5.89063 -0.071,1.0675 -0.021,2.04097 0.1329,2.93164 0.1534,0.89066 0.41,1.69859 0.75,2.4375 0.3399,0.73891 0.7636,1.40926 1.2519,2.02148 0.4883,0.61223 1.0422,1.16711 1.6406,1.67774 1.1969,1.02125 2.5758,1.86359 3.9844,2.6289 1.4086,0.76532 2.8452,1.45407 4.1602,2.16407 0.48,0.26 0.6901,0.98187 0.8789,1.73437 0.1887,0.7525 0.3569,1.53602 0.7519,1.91602 0.43,0.41 1.3766,0.59312 2.3516,0.70312 0.975,0.11 1.9776,0.14586 2.5176,0.25586 0.8175,0.16 1.5655,0.38187 2.2441,0.6836 0.6786,0.30171 1.2888,0.68414 1.8281,1.16601 0.5394,0.48188 1.0084,1.0632 1.4082,1.76367 0.3999,0.70047 0.7303,1.51908 0.9903,2.47656 0.2362,0.86875 0.3567,1.75364 0.3808,2.64844 0.024,0.89481 -0.047,1.80032 -0.1972,2.70703 -0.2997,1.81344 -0.9096,3.63586 -1.6758,5.41211 -0.7663,1.77625 -1.69,3.50492 -2.6172,5.13086 -0.9272,1.62594 -1.8581,3.14922 -2.6406,4.51172 -0.68,1.2 -1.3803,2.41086 -2.0703,3.63086 -0.465,1.1075 -0.7631,2.14016 -0.9629,3.13672 -0.1999,0.99656 -0.3012,1.95617 -0.3731,2.91992 -0.1437,1.9275 -0.168,3.86781 -0.623,6.13281 -0.24,1.19 -0.5287,2.16493 -0.8887,3.10743 -0.36,0.9425 -0.7923,1.85211 -1.3223,2.9121 -0.475,0.95 -0.6064,2.11524 -0.6914,3.30274 -0.085,1.1875 -0.1232,2.3975 -0.4082,3.4375 -0.3275,1.1925 -0.8639,1.98415 -1.4961,2.57226 -0.6322,0.58813 -1.3604,0.97266 -2.0742,1.34766 -0.7137,0.375 -1.4122,0.7418 -1.9844,1.29492 -0.5722,0.55313 -1.0171,1.29352 -1.2246,2.41602 -0.455,2.43 -1.2133,4.87203 -1.5371,7.20703 -0.1619,1.1675 -0.2154,2.3075 -0.068,3.40625 0.147,1.09875 0.4948,2.15625 1.1348,3.15625 0.98,1.535 2.4445,2.97305 3.6758,4.56055 0.6156,0.79375 1.1731,1.62375 1.582,2.52343 0.4089,0.89969 0.6689,1.86805 0.6914,2.93555 0.02,0.98 -0.065,2.06733 -0.035,3.1211 0.03,1.05375 0.1763,2.07492 0.6563,2.91992 0.225,0.3975 0.5453,0.71062 0.916,0.97656 0.3706,0.26594 0.7904,0.4832 1.2129,0.68945 0.845,0.4125 1.7014,0.77781 2.1914,1.38281 0.7,0.86752 1.206,1.81782 1.6269,2.80469 0.421,0.98688 0.7556,2.00985 1.1094,3.02735 0.3537,1.0175 0.7281,2.0289 1.2266,2.98828 0.4984,0.95937 1.1215,1.86719 1.9765,2.67968 0.3788,0.36127 0.7655,0.60864 1.1582,0.76758 0.3927,0.15895 0.7914,0.2293 1.1953,0.23633 0.808,0.0141 1.6358,-0.22437 2.4727,-0.51562 0.8369,-0.29125 1.6831,-0.63469 2.5273,-0.82813 0.8443,-0.19344 1.6857,-0.23719 2.5157,0.0703 0.36,0.9175 0.5657,1.87024 0.6953,2.83789 0.1295,0.96766 0.184,1.94961 0.2422,2.92774 0.058,0.97812 0.1198,1.95148 0.2656,2.90039 0.1458,0.94891 0.3751,1.87391 0.7676,2.75391 0.4075,0.9125 0.9618,1.61695 1.6093,2.18945 0.6475,0.5725 1.3886,1.01289 2.1661,1.40039 1.555,0.775 3.2588,1.33578 4.6738,2.30078 0.9037,0.615 1.5165,1.27241 1.8887,1.95898 0.3721,0.6866 0.5049,1.40079 0.4511,2.13086 -0.054,0.73008 -0.2939,1.47522 -0.6679,2.22071 -0.3741,0.74549 -0.882,1.49179 -1.4707,2.22461 -1.1775,1.46562 -2.6796,2.87859 -4.0821,4.125 -1.4025,1.2464 -2.7058,2.3264 -3.4883,3.1289 -1.42,1.455 -2.8293,3.11328 -4.2793,4.70703 -1.45,1.59375 -2.9414,3.12227 -4.5214,4.32227 -0.8225,0.6275 -1.6192,1.09219 -2.4004,1.48047 -0.7813,0.38828 -1.5467,0.70031 -2.3067,1.02344 -0.76,0.32312 -1.5147,0.65781 -2.2734,1.08984 -0.7588,0.43203 -1.5213,0.96273 -2.2988,1.67773 -1.305,1.2 -2.7693,1.95727 -3.9981,2.97852 -0.6144,0.51063 -1.1704,1.08758 -1.6172,1.81836 -0.4467,0.73078 -0.7848,1.61469 -0.9648,2.74219 -0.165,1.0325 -0.1376,2.00726 0.022,2.94336 0.159,0.93609 0.4507,1.83406 0.8144,2.71093 0.7275,1.75375 1.7443,3.42602 2.5743,5.16602 1.8,0.01 3.0495,-0.51305 4.2382,-0.68555 0.5944,-0.0862 1.174,-0.0838 1.7989,0.11524 0.6248,0.19906 1.2947,0.59578 2.0722,1.30078 1.455,1.325 3.1027,2.61945 4.6289,4.06445 0.7632,0.7225 1.4969,1.48274 2.1602,2.30274 0.6633,0.82 1.2572,1.6996 1.7422,2.6621 0.5225,1.035 0.8662,1.93891 1.0566,2.76954 0.1905,0.83062 0.2265,1.58898 0.1309,2.33398 -0.096,0.745 -0.3224,1.47578 -0.6582,2.25391 -0.3358,0.77812 -0.7806,1.6032 -1.3106,2.5332 -1.215,2.135 -2.225,4.18227 -3.1425,6.29102 -0.9175,2.10875 -1.741,4.2782 -2.586,6.6582 -0.69,1.945 -1.3762,3.90984 -1.6562,5.83984 -0.14,0.965 -0.1789,1.92266 -0.066,2.86328 0.1125,0.94063 0.3768,1.86508 0.8418,2.76758 0.445,0.8625 0.7299,1.80125 0.9277,2.78516 0.1978,0.9839 0.3095,2.01211 0.4082,3.05273 0.099,1.04063 0.1842,2.0943 0.332,3.12696 0.1478,1.03265 0.3562,2.0439 0.7012,3.0039 0.36,0.995 1.6675,2.62594 3.125,3.99219 0.6604,0.61905 1.3444,1.14902 1.9922,1.57617 l 3.1894,0.72461 c 0.5029,-0.0546 1.0025,-0.11022 1.5059,-0.14062 0.89,-0.0538 1.7741,-0.0205 2.6191,0.26953 0.995,0.34 2.0308,0.82351 3.0821,1.16601 1.0512,0.3425 2.1179,0.5425 3.1679,0.3125 0.3775,-0.99 0.7215,-1.77398 1.086,-2.39648 0.3645,-0.6225 0.748,-1.08383 1.2012,-1.42383 0.4531,-0.34 0.9758,-0.55867 1.6191,-0.70117 0.6433,-0.1425 1.4087,-0.20828 2.3437,-0.23828 0.635,-0.02 1.2122,0.34367 1.7364,0.93164 0.5242,0.58797 0.9941,1.39992 1.416,2.27929 0.8437,1.75875 1.4916,3.7836 1.9766,4.8086 0.017,0.0351 0.021,0.0874 0.037,0.12304 0.5715,1.23614 1.4755,2.17712 2.4726,2.95704 2.17,-3.5 0.6999,-5.74969 1.9199,-9.42969 0.52,-1.57 2.0101,-2.43125 2.8301,-3.78125 1.04,-1.71 1.6198,-3.90828 2.5098,-5.73828 1.45,-2.99 3.049,-6.54031 5.039,-9.07032 2.84,-3.61 4.0715,0.61874 7.5215,0.21876 3.95,-0.46002 3.3886,3.74078 5.8086,6.05078 2.62,2.5 6.2215,1.17953 8.0215,-1.48047 3.78,-5.56 -2.2504,-14.09039 0.3496,-20.40039 1.05,-2.56 2.1895,-6.4893 4.4395,-8.0293 3.21,-2.21 6.1496,-3.90016 8.5996,-7.16016 2.58,-3.45 4.2613,-3.80898 7.3613,-0.95898 V 329.11839 c -1.58,-1.28 -3.2403,-2.37984 -5.0703,-2.58984 -3.17,-0.36 -5.7712,2.47015 -8.2012,4.41015 -2.81,2.25 -5.289,2.03844 -8.709,2.39844 -4.02,0.42 -2.9009,4.53039 -5.9609,6.65039 -2.19,1.51 -5.1488,-0.80984 -7.2988,-1.83984 -3.39,-1.61 -6.7797,-3.25008 -10.1797,-4.83008 -2.82,-1.3 -3.9914,-5.0193 -6.4414,-7.0293 -3.04,-2.49 -4.2387,-5.46047 -6.1387,-9.23047 -1.29,-2.57 -4.9,-1.60984 -7,-2.33984 -3.6,-1.26 -6.4307,-2.77922 -9.2207,-5.94922 -2.05,-2.32 -3.7291,-5.37117 -5.5391,-7.95117 -1.98,-2.83 -5.1509,-3.23984 -6.2109,-7.08984 -1.88,-6.83 1.2291,-14.96041 -1.7109,-21.65039 -0.99,-2.24001 -2.9896,-6.58024 -1.2696,-8.99024 1.84,-2.58 4.5014,-5.35 3.6914,-9 -0.8,-3.59 -2.1909,-7.52852 -2.4609,-11.22852 -0.29,-4.11 -0.2102,-8.52117 -1.4102,-12.45117 -0.81,-2.65 -3.0293,-6.63875 -5.5293,-7.46875 -3.31,-1.1 -5.7199,3.36891 -8.1699,5.12891 -5.54,3.99 -12.1008,5.6607 -17.3808,10.2207 -2.11,1.82 -3.6407,7.17977 -4.8907,9.75977 -2.1,4.34 -3.6984,4.57945 -7.8984,5.18945 -6.01,0.87 -12.7105,-4.30922 -18.8105,-2.19922 -6.96,2.4 -11.1909,6.97953 -16.3809,12.76953 -1.22,1.36 -5.6287,-2.41921 -7.3887,-2.19922 -3.26,0.40001 -4.9999,3.39922 -7.9199,4.94922 -4.37,2.33 -5.5099,2.49047 -7.4199,7.48047 -1.42,3.71 0.8092,5.63953 1.6992,9.01953 0.064,0.24194 0.031,0.54127 0.084,0.79102 0.3156,0.0894 0.7446,0.0605 1.0234,0.18945 0.9172,0.42422 1.6408,1.05985 2.2071,1.88672 0.5662,0.82688 0.9765,1.84469 1.2636,3.03516 0.2872,1.19047 0.4513,2.55336 0.5313,4.06836 0.045,0.8225 0.3046,1.37664 0.6816,1.77539 0.3771,0.39875 0.872,0.64234 1.3926,0.83984 0.5206,0.1975 1.0652,0.34961 1.541,0.56836 0.4758,0.21875 0.8825,0.5043 1.125,0.9668 0.76,1.44 1.6999,2.54351 2.7149,3.57226 1.015,1.02875 2.106,1.98219 3.166,3.11719 0.75,0.805 1.1744,1.91227 1.5469,3.07227 0.3725,1.16 0.6924,2.37172 1.2324,3.38672 0.87,1.62999 1.6149,2.67781 1.8574,3.69531 0.1213,0.50875 0.1166,1.00945 -0.061,1.57226 -0.1772,0.56282 -0.5257,1.18836 -1.0957,1.94336 -0.775,1.025 -1.2783,2.24406 -1.832,3.38281 -0.2769,0.56938 -0.5672,1.11907 -0.9102,1.61329 -0.343,0.49422 -0.7385,0.9332 -1.2285,1.2832 -0.5175,0.365 -0.9252,0.80461 -1.2168,1.29101 -0.2916,0.48641 -0.4677,1.01969 -0.5215,1.57032 -0.054,0.55062 0.015,1.12008 0.211,1.67773 0.1959,0.55766 0.519,1.10383 0.9765,1.61133 1.3375,1.485 2.4015,2.68313 3.1856,3.76562 0.784,1.0825 1.2885,2.05032 1.5097,3.07032 0.2213,1.02 0.1596,2.09312 -0.1914,3.39062 -0.3509,1.2975 -0.9913,2.81938 -1.9238,4.73438 1.205,0.9275 2.1419,1.90375 2.8769,2.94531 0.735,1.04156 1.268,2.14719 1.668,3.33594 0.4,1.18875 0.6672,2.45906 0.8672,3.82812 0.2,1.36906 0.3338,2.83742 0.4688,4.41992 0.12,1.39 0.4648,3.16907 0.7148,4.94532 0.25,1.77625 0.4045,3.54883 0.1445,4.92383 -0.205,1.06749 -0.4854,1.74484 -0.83,2.19921 -0.3447,0.45438 -0.7542,0.68578 -1.2129,0.86329 -0.4588,0.1775 -0.9665,0.30218 -1.5137,0.53906 -0.5472,0.23687 -1.1322,0.58625 -1.7422,1.21875 -0.4229,0.44003 -0.9011,1.0486 -1.3633,1.5957 z"
       style="fill:#e6e6e6"
       inkscape:connector-curvature="0" />
    <g
       style="display:inline"
       inkscape:label="districts"
       id="layer4"
       transform="translate(1484.3614,10.467993)">
      <path
         sodipodi:nodetypes="ccsccccccccccccccccccccccccccccccccccsccccccccccccccccccccccccccccccccccccccccccccccccccccccccccccccccccccc"
         style="fill:#ffffd0;fill-opacity:1;stroke:none;stroke-width:5"
         inkscape:connector-curvature="0"
         d="m 944.53997,475.54 c -1.86,4.43 -1.05,7.66 -1.96,12.19 -0.48,2.38 -1.15,3.9 -2.21,6.02 -0.95,1.9 -0.53,4.66 -1.1,6.74 -1.31,4.77 -5.95,3.14 -6.78,7.63 -0.91,4.86 -3.03,9.77 -0.47,13.77 1.96,3.07 5.86,5.75 5.95,10.02 0.04,1.96 -0.34,4.35 0.62,6.04 0.9,1.59 3.34,1.84 4.32,3.05 2.8,3.47 2.52,8.25 5.94,11.5 3.03,2.89 6.55,-1.5 9.87,-0.27 1.44,3.67 0.4,7.9 1.97,11.42 1.63,3.65 5.62,3.96 8.45,5.89 7.23,4.92 -4.24,12.58 -7.37,15.79 -2.84,2.91 -5.64,6.63 -8.8,9.03 -3.29,2.51 -6.17,2.41 -9.28,5.27 -2.61,2.4 -5.86,3.03 -6.58,7.54 -0.66,4.13 1.75,7.34 3.41,10.82 3.6,0.02 5,-2.09 8.11,0.73 2.91,2.65 6.59,5.18 8.53,9.03 2.09,4.14 1.34,6.17 -0.78,9.89 -2.43,4.27 -4.04,8.19 -5.73,12.95 -1.38,3.89 -2.74,7.86 -0.88,11.47 1.78,3.45 0.99,8.13 2.37,11.97 0.72,1.99 5.23,6.52 7.15,6.4 1.75,-0.11 3.59,-0.56 5.28,0.02 1.99,0.68 4.15,1.94 6.25,1.48 1.51,-3.96 2.51,-4.64 6.25,-4.76 2.54,-0.08 4.16,5.97 5.12999,8.02 m 0,0 c 1.42,3 1.27,8.38 1.76,11.77 0.44,3.11 2.33,5.81 3.63,8.55 3.34,7.01 6.16,13.01 8.57,20.61 1.04,3.28 2.46,6.39 3.7301,9.55 1.63004,4.07 -2.1401,6.59 -4.4001,7.96 l 1.73,4.57 c -7.83,4.14 -20.78999,-0.49 -28.60999,-4.22 -1.45,-0.69 -5.52,-1.65 -6.35,-3.16 -1.66,-3.02 -3.31,-6.04 -4.97,-9.07 -1.99,-3.63 -2.04,-11.81 -3.02,-16.23 -5.53,0 -10.51,-0.39 -15.86,1.36 -5.42,1.78 -9.74,2.57 -15.34,2.3 -4.26,-0.2 -12,1.02 -14.68,-3.47 -2.22,-3.73 -3.25,-5.25 -6.59,-7.43 -3.36,-2.19 -3.98,-0.58 -7.68,0.28 -3.28,0.76 -4.05997,-0.13 -6.38997,2.75 -2.19,2.7 -4.26,5.03 -6.75,7.34 -3.9,3.62 -10.57,-0.28 -13.92,-3.61 -4.38,-4.36 -7.99,-8.86 -11.17,-14.5 -0.92,-1.64 -5.82,-2.25 -7.25,-1.24 -2.95,2.09 -4.38,1.97 -7.84,1.9 -1.15,-2.92 -2.29,-5.61 -3.74,-8.33 -1.62,-3.04 -3.9,-3.16 -6.8,-4.23 l -4.49,5.19 c -2.16,-3.16 -3.48,-4.86 -4.06,-8.84 -0.64,-4.44 -1.64,-5.96 -4.79,-8.75 -5.38,-4.75 -12.2,-4.88 -18.75,-6.3 -6.05,-1.31 -10.31,-9.55 -13.98,-14.75 -4.17,-5.9 -9.34,-8.28 -15.54,-9.54 -6.7,-1.36 -11.97,-0.13 -18.54,1.67 -5.35,1.47 -12.13,-0.06 -17.51,-1.01 -7.04,-1.24 -12.87,-2.48 -18.2,-8.3 -4.63,-5.06 -7.89,-10.76 -11.47,-16.9 -5.04,-8.63 -10.15,-17.12 -16.33,-24.69 -3.06,-3.74 -5.98,-8.22 -9.46,-11.42 -4.16,-3.81 -7.36,-5.47 -8.59,-11.44 -0.67,-3.24 -1.33,-6.49 -2,-9.73 -0.45,-2.21 0.87,-3.63 1.08,-5.79 0.2,-2.01 -0.8,-4.18 -0.44,-6.18 0.52,-2.82 1.09,-5.6 1.7,-8.4 1.15,-5.26 3.58,-9.01 7.01,-12.43 2.64,-2.63 8.92,-2.89 12.33,-3.83 l 3.71,5.44 c 5.19,-5.63 8.12,-8.81 15.57,-8.34 6.49,0.41 12.97,0.98 19.45,1.46 6.32,0.46 12.75,-1.14 18.96,-0.52 3.22,0.33 6.73,1.76 9.4,-0.55 3.55,-3.06 4.2,-5.21 5.99,-10.04 1.75,-4.71 3.53,-16.41 7.56,-18.23 3.13,-1.42 6.12,-2.61 9.36,-3.63 4.39,-1.38 5.48,-2.73 8.7,-6.67 1.7,-2.08 2.6,-4.97 4.63,-6.57 2.18,-1.71 6.02,-6.31 8.69,-6.2 3.2,0.13 6.39,0.25 9.58,0.52 3.36,0.28 5.48,-3.7 7.87,-6.29 8.87,-9.62 17.13,0.01 26.51,0.81 5.7,0.49 8.17,-5.33 10.55,-10.67 2.09,-4.69 -1.05,-10.6 -1.97,-15.71 -1,-5.59 -2.81,-11.42 -1.26,-16.92 0.97,-3.44 1.83,-4.17 4.27,-6.53 2.47,-2.39 3.15,0.18 5.95,-0.47 5.26,-1.21 9.9,-2.26 14.8,-4.74 4.99,-2.53 8.96,-2.75 14.44997,-3.15 C 884.21,404.57 878.94,397.49 873.2,390.43 c -3.19,-3.16 -8.47,-6.7 -10.15,-11.49 -1.65,-4.71 1.27,-10.53 4.1,-13.88 4.49,5.45 11.17,5.48 17.13,8.16 6.07,2.73 10.41997,7.63 13.10997,14.61 1.95,5.06 5.11,12.96 10.89,11.75 6.83,-1.43 12.09,-0.33 16.31,6.7 4.44,7.4 4.47,11.88 3.88,20.66 -0.57,8.54 6.66,11.02 11.92,13.86 0.96,0.52 0.84,2.89 1.63,3.65 0.86,0.82 3.79,0.74 4.87,0.96 3.27,0.64 5.43,2.26 6.47,6.09 1.89,6.95 -3.62,14.96 -6.75,20.41 -0.68,1.2 -1.38,2.41 -2.07,3.63"
         id="_x33_55" />
      <path
         style="fill:#ffffd0;fill-opacity:1;stroke:none;stroke-width:5"
         inkscape:connector-curvature="0"
         d="m 169.41,507.35 c 1.08,-1.7 3.68,-7.73 5.38,-8.13 3.86,-0.9 6.77,-1.17 10.7,-0.92 5.86,0.37 11.81,3.18 17.5,4.71 12.35,3.32 25.59,7.25 36.65,14.76 6.21,4.22 11.86,8.51 17.61,13.53 4.91,4.28 8.78,10.13 13.69,14.46 4.77,4.21 8.94,9.25 12.53,14.85 4.4,6.87 6.65,11.58 5.29,20.18 -1.66,10.5 5.81,21.52 10.85,29.52 6.11,9.7 12.98,18.08 20.13,26.72 -3.29,3.95 -5.41,9.22 -8.77,12.82 -4.24,4.53 -7.56,7.69 -10.37,13.63 0.41,-5.35 0.73,-10.54 1.69,-15.8 -4.26,-3.92 -8.22,-5.22 -13.35,-7.12 -5.57,8.03 -7.4,18.41 -10.19,28.07 -2.5,8.66 -7.2,17.01 -11.98,24.16 -2.11,-2.04 -4.04,-5.04 -6.84,-5.17 -3.7,-0.17 -7.11,-0.35 -10.73,-1.19 -5.63,-1.31 -13.94,-0.45 -18.16,-6.08 -1.58,-2.11 -4.13,-5.35 -2.14,-8.46 2.52,-3.93 3.93,-6.62 5.25,-11.24 1.53,-5.37 -1.37,-14.91 -4.53,-18.83 -4.03,-5 -7.47,-10.68 -10.19,-16.79 -1.36,-3.05 -3.52,-6.42 -4.15,-9.8 -0.76,-4.08 -1.31,-7.86 -2.84,-11.62 -2.85,-6.98 -7.33,-12.7 -11.66,-18.51 -2.14,-2.87 -3.97,-5.85 -5.85,-8.97 -1.45,-2.4 -0.49,-6.87 -1.43,-9.67 -1.89,-5.64 -3.11,-10.6 -6.57,-15.07 -4.25,-5.5 -5.4,-8.2 -7.2,-15.36 -1.15,-4.6 -2.71,-9.77 -4.85,-13.83 -2.75,-5.22 -5.25,-8.73 -5.47,-14.85"
         id="_x35_" />
      <path
         style="fill:#ffffd0;fill-opacity:1;stroke:none;stroke-width:5"
         inkscape:connector-curvature="0"
         d="m 368.83,500.48 c 6.23,-4.65 9.61,-8.64 12.12,-16.85 2.11,-6.9 -1.5,-13.47 -1.58,-20.7 -0.06,-5.62 0.32,-16.94 3.52,-21.22 4.12,-5.51 12.54,-6.02 18.36,-5.02 2.86,0.49 5.6,0.69 8.2,-0.88 1.85,-1.12 6.58,-5.37 8.37,-4.99 6.7,1.45 12.75,5.22 19.38,7.42 3.5,1.17 15.39,0.13 17.01,3.31 3.34,6.59 7.03,13.43 8.39,20.92 1.37,7.52 2.4,13.09 6.21,19.6 4.07,6.96 8.27,10.8 14.33,15.3 5.93,4.39 11.48,5.98 18.11,8.3 6.72,2.35 12.19,6.26 17.45,11.62 2.35,2.39 4.88,4.52 7.35,6.72 2.35,2.09 4.08,6.14 5.72,9 3.67,6.39 6.9,13.06 9.59,20.08 2.62,6.81 5.89,13.17 7.82,20.33 2.04,7.57 4.22,15.08 6.06,22.72 1.67,6.93 3.96,13.68 6.39,20.28 2.39,6.49 2.12,13 3.62,19.65 3.21,14.18 6.8,28.96 6.17,43.56 l -2.64,-7.22 c -7.34,4.25 -17.54,5.3 -22,14.51 -2.24,4.65 -4.47,9.23 -6.96,13.71 -2.73,4.91 -5.71,3.77 -9.9,6.42 -8.6,5.45 -16.97,6.56 -26.62,7.47 -3.81,0.36 -8.02,-1.33 -11.86,-1.7 -4.83,-0.46 -9.46,-0.7 -14.3,-0.63 -1.9,-6.04 -2.25,-6.05 -7.45,-8.09 -3.09,-1.21 -6.38,-1.72 -9.45,-2.99 -2.68,-1.11 -7.25,-2.74 -8.99,-5.42 -2.13,-3.29 -3.16,-7.49 -5.66,-10.34 -4.26,-4.85 -10.36,-13.46 -16.77,-13.46 -3.03,0 -8.37,-1.04 -9.21,-5.01 -0.93,-4.36 0.53,-8.45 0.06,-12.88 -6.25,-3.1 -11.8,-2.91 -13.08,-11.74 -1.07,-7.4 -3.02,-14.52 -4.62,-21.79 -1.56,-7.06 -4.09,-13.97 -5.79,-21.03 -0.72,-2.99 -2.39,-6 -3.17,-9.25 -0.96,-4.04 -1.52,-6.98 -1.56,-11.13 -0.06,-6.44 1.35,-14.72 -1.24,-20.4 -3.47,-7.61 -6.98,-13.64 -11.59,-20.37 -3.68,-5.39 -8.19,-10.08 -10.42,-16.68 -2.51,-7.45 -0.74,-13.66 0.63,-21.13"
         id="_x34_" />
      <path
         style="fill:#ffffd0;fill-opacity:1;stroke:none;stroke-width:5;stroke-opacity:1"
         inkscape:connector-curvature="0"
         d="m 487.04,318.02 c 6.83,-0.89 12.84,-1.36 19.69,-0.81 6.34,0.5 12.41,4.29 18,7.46 5.41,3.07 11.01,4.96 15.68,9.64 5.4,5.42 10.48,10.14 15,16.6 4.02,5.73 6.96,12.46 11.01,18.27 3.1,4.45 9.21,13.12 14.9,10.43 4.91,-2.32 8.12,-13.06 14.88,-8.6 6.29,4.15 12.25,7.89 18.92,11.07 9.37,4.46 17.34,11.56 25.2,18.94 8.1,7.61 16.15,15.2 23.96,23.11 8.21,8.31 6.9,22.53 7.51,34.35 0.25,4.92 -0.06,12.35 5.31,13.7 5.68,1.42 9.81,2.96 15.4,0.59 1.73,6.18 2.33,8.77 1.35,15.1 -0.68,4.35 -3.13,8.86 -3.05,13.19 0.19,10.53 0.69,21.06 1.14,31.58 l -3.71,-5.44 c -6.07,1.68 -13.26,1.81 -16.55,9.01 -3.22,7.05 -4.78,13.87 -4.06,21.84 l -2.76,-3.51 c -5.55,2.2 -12.36,3.49 -14.75,11 -2.42,7.61 -0.85,15.16 -0.62,23.24 0.2,6.84 0.56,15.3 -0.49,22.02 -0.61,3.89 -2.17,7.85 -3.21,11.61 -0.88,3.2 -3.7,5.43 -5.52,7.96 -4.42,6.15 -7.87,12.23 -11.14,19.26 -2.95,6.35 -8.58,12.1 -12.73,17.32 -1.24,1.56 -5.53,1.36 -7.54,2.61 -3.36,2.11 -6.58,3.71 -10.16,5.29 -2.31,1.02 -5.65,2.48 -8.07,2.28 -3.07,-0.26 -5.84,-2.52 -9.07,-2.74 -4.24,-0.29 -6.76,2.52 -10.37,5.13 0.65,-15.08 -3.77,-29.07 -6.22,-43.81 -1.26,-7.6 -1.73,-14.41 -4.39,-21.63 -2.6,-7.07 -4.69,-14.37 -6.47,-21.78 -3.64,-15.05 -8.84,-28.54 -14.29,-42.71 -2.45,-6.38 -5.78,-12.55 -9.23,-18.25 -4.24,-7 -9.27,-11.26 -14.76,-16.85 -8.2,-8.34 -18.75,-9.04 -28.31,-13.88 -9.78,-4.96 -16.62,-13.68 -21.75,-24.28 -2.64,-5.46 -3,-11.74 -4.11,-17.86 -0.95,-5.22 -4.83,-10.78 -6.95,-15.58 -1.27,-2.88 -0.65,-5.39 -1.66,-8.07 -0.69,-1.83 -3.08,-6.6 -2.51,-8.38 1.29,-3.98 1.87,-5.8 4.59,-8.54 1.25,-1.26 5.67,3.11 7.05,3.75 3.1,-3.35 3.01,-8.08 1.62,-12.2 -1.82,-5.43 -2.41,-5.87 -0.16,-11.37 3.16,-7.73 7.87,-17.95 8.36,-26.63 0.6,-10.56 2.31,-20.45 4.43,-30.72 0.86,-4.17 2.09,-8.22 3.49,-12.18 0.99,-2.78 1.97,-5.56 2.96,-8.33 0.79,-2.32 2.06,-1.84 4.16,-2.2"
         id="_x33_" />
      <path
         style="fill:#ffffd0;fill-opacity:1;stroke:none;stroke-width:5;stroke-opacity:1"
         inkscape:connector-curvature="0"
         d="m 319.44,637.8 c 0.17,-2.76 0.23,-8.01 2.25,-9.96 3.09,-3 6.43,0 9.23,1.63 5.77,3.35 12.65,4.19 18.72,6.99 2.03,0.94 5.01,4.35 6.97,3.59 4.82,-1.86 6.26,-1.3 7.42,-7.05 0.75,-3.73 1,-7.57 1.41,-11.37 0.37,-3.46 1.88,-6.64 2.93,-9.88 2.77,-8.55 6.61,-11.48 13.05,-16.1 4.41,-3.17 13.07,-2.69 14.79,4.44 3.69,15.3 8.48,29.94 10.77,45.68 0.78,5.36 9.02,6.49 12.57,8.25 0.44,4.13 -2.15,10.82 0.26,14.38 2.92,4.31 8.23,2.66 11.9,4.39 7.41,3.48 14.13,11.81 17.57,20.06 -3.68,-3.07 -13.86,12.35 -16.07,15.62 -4.09,6.06 -12.84,9.51 -19.21,8.36 -4,-0.72 -7.97,-1.33 -11.99,-1.83 -3.36,-0.42 -6.21,3.05 -9.23,4.6 -3.74,1.91 -7.24,3.38 -11.16,4.7 -3.6,1.2 -6.73,-0.27 -10.38,-1.21 l -5.66,7.37 c -0.98,-4.6 -1.04,-7.93 -5.28,-9.55 -4.12,-1.58 -6.1,-2.69 -9.14,-6.3 -3.01,-3.57 -5.16,-7.44 -7.92,-11.24 -3.3,-4.55 -5.39,-2.38 -9.77,-3.86 -4.13,-1.4 -8.25,-1.55 -12.31,-3.15 -3.64,-1.44 -6.21,-6.42 -8.27,-10 -1.97,-3.43 -6.15,-4.93 -7.75,-8.69 -1.95,-4.58 -1.92,-9.48 -4.8,-13.22 2.68,-5.69 5.6,-8.59 9.64,-12.94 3.68,-3.97 5.93,-9.4 9.46,-13.71"
         id="_x37_" />
      <path
         style="fill:#ffffd0;fill-opacity:1;stroke:none;stroke-width:5"
         inkscape:connector-curvature="0"
         d="m 449.28,692.79 c 4,6.16 10.14,8.07 16.38,9.96 2.97,0.9 5.85,2.08 8.76,3.22 1.85,0.72 3.03,7.35 3.88,9.65 2.25,6.08 -1.97,14.68 4.64,18.6 5.7,3.38 13.34,0.5 19.58,-0.04 2.57,-0.22 5.88,-1.76 8.22,-0.45 4.18,2.35 4.83,4.1 7.13,8.89 2,4.17 -1.26,16.99 -1.85,21.57 -0.68,5.22 -1.54,17.07 1.14,21.66 3.73,6.37 8.4,11.4 15.02,13.48 3.29,1.03 6.39,1.86 9.76,2.43 3.21,0.54 4.89,3.73 7.15,6.39 -0.95,-0.49 -4.5,-3.1 -5.33,-2.51 -2.16,1.52 -4.32,3.04 -6.49,4.56 -3.07,2.16 -6.01,5.49 -8.58,8.45 -3.57,4.11 -7.01,8.48 -10.75,12.37 -3.25,3.38 -7.17,6 -10.28,9.55 -6.61,7.57 -12.4,16.98 -18.67,25 -2.79,3.57 -5.38,7.34 -8.01,11.07 -2.22,3.15 -8.22,1.29 -11.21,0.82 -0.4,-1.99 -2.11,-6.38 -1.49,-8.26 1.66,-5.01 2.02,-5.36 -0.19,-10.01 -2.85,-5.99 -8.41,-6.63 -13.66,-7.8 -0.27,-4.46 -0.51,-8.78 -0.4,-13.24 0.08,-3.29 -6.76,-6.16 -8.6,-7.17 -3.11,-1.71 -5.58,-3.65 -9.03,-3.79 -4.62,-0.19 -5.84,-1.06 -9.67,-4.21 1.07,-6.12 1.46,-8.42 -0.39,-14.23 -4.91,-0.79 -8.91,-0.84 -13.79,0.23 -3.44,0.75 -7.83,7.55 -10.24,10.14 -5.07,-17.32 -20.7,-25.08 -33.4,-33.29 0,-5.48 -0.71,-11.06 0.01,-16.48 0.78,-5.86 1.26,-13.12 -2.68,-17.76 -1.85,-2.18 -4.03,-4.25 -5.53,-6.79 -2.54,-4.29 -1.97,-4.37 -0.07,-9.17 1.1,-2.78 3.03,-3.21 4.98,-5.15 2.09,-2.07 3.82,-4.98 5.66,-7.37 3,0.77 6.41,2.54 9.41,1.53 4.01,-1.34 7.67,-2.73 11.49,-4.69 2.26,-1.16 6.2,-5.39 8.48,-5.1 4.13,0.51 8.2,1.07 12.31,1.81 6.43,1.16 15.56,-1.17 19.87,-7.55 2.23,-3.29 12.61,-19.28 16.44,-16.32"
         id="_x39_" />
      <path
         style="fill:#ffffd0;fill-opacity:1;stroke:none;stroke-width:5;stroke-opacity:1"
         inkscape:connector-curvature="0"
         id="path116"
         d="m 677.92,942.62 c -2.65,-3.18 -7.78,-5.62 -10.92,-8.39 -2.97,-2.62 3.28,-9.92 4.41,-12.12 2.91,-5.68 2.2,-8.22 -0.13,-14 -0.91,-2.26 -1.64,-4.43 -2.99,-6.35 -0.98,-1.4 -3.42,-3.72 -3.67,-5.53 -0.92,-6.39 -2.84,-8.95 -6.28,-14.07 -2.77,-4.12 -3.74,-8.49 -3.09,-13.38 0.67,-5.01 4.03,-8.09 6.91,-11.73 l 2.25,2.54 c -1.22,-3.4 -1.54,-6.9 -4.56,-8.19 -3,-1.28 -5.49,-3.01 -8.24,-4.93 -6.17,-4.28 -9.56,-1.39 -14.5,3.43 -4.63,4.52 -8.36,7.76 -14.59,7.64 -6.34,-0.13 -11.29,-2.43 -17.02,-5.47 -3.44,-1.82 -9.2,-10.59 -10.62,-14.48 -2.66,-7.25 -3.84,-12.77 -4.76,-20.6 -0.39,-3.3 -1.67,-6.54 -1.88,-9.85 -0.22,-3.44 0.43,-7.22 0.64,-10.66 0.41,-6.9 -2.63,-12.41 -5.56,-17.9 -4.46,0.86 -7.14,1.21 -10.78,4.28 -2.6,2.18 -5.01,4.49 -7.1,7.32 -2.72,3.69 -5.78,6.12 -9.18,8.96 -2.69,2.25 -4.9,6.13 -7.16,8.98 -0.95,-0.49 -4.5,-3.09 -5.33,-2.51 -2.16,1.52 -4.32,3.04 -6.49,4.56 -2.7,1.9 -5.49,4.9 -7.75,7.5 -6.17,7.1 -12.16,13.87 -18.92,20.15 -5.49,5.1 -9.4,12.1 -14.12,18.15 -5.59,7.15 -11.02,14.31 -16.29,21.78 l 0.06,0.24 c 3.46,0.12 6.88,0.49 10.38,2.09 3.82,1.74 6.99,3.21 10.32,5.97 2.68,2.22 4.43,6.74 6.18,10.03 2.66,5.01 3.55,7.11 3.96,12.97 0.25,3.58 2.32,8.62 0.29,11.46 -5.01,7.01 -9.79,14.23 -14.68,21.35 l 0.06,0.22 c 0.11,0.06 0.2,0.13 0.31,0.2 6.36,2.1 15.87,3.49 20.33,9.44 1.29,1.72 3.08,3.36 3.6,5.6 0.69,3.01 0.72,4.37 2.79,6.2 3.52,3.11 7.12,3.28 11.46,4.19 1.69,0.35 2.49,-1.82 4.44,-1.04 2.4,0.96 4.8,1.92 7.19,2.89 3.59,1.44 4.98,6.18 9.04,6.37 3.66,0.17 8.1,-0.33 11.37,1.67 3.63,2.23 7.52,3.97 10.79,6.82 3.47,-2.94 4.49,-5.44 7.13,-9.25 2.59,-3.73 4.31,-3.83 8.17,-4.27 0.59,5.3 1.38,6.36 -1.91,9.94 -2.53,2.75 -4.64,5.43 -6.82,8.57 5.04,2.34 8.52,2.85 13.83,1.27 1.19,-5.96 2.93,-10.22 6.05,-15.09 8.75,4.33 13.17,13.89 17.84,23.28 3.53,-7.68 5.72,-12.91 12.71,-16.29 5.77,-2.79 10.72,-7.26 16.5,-9.99 2.99,-1.41 6.36,-1.86 9.28,-3.44 2.68,-1.45 5.57,-3.7 8.44,-4.51 3.19,-0.9 6.32,-1.83 9.46,-2.96 3.28,-1.18 4.62,-3.52 6.96,-6.52 -2.37,-5.15 -4.36,-8.41 -7.81,-12.54 z" />
      <path
         style="fill:#ffffd0;fill-opacity:1;stroke:none;stroke-width:5;stroke-opacity:1"
         inkscape:connector-curvature="0"
         d="m 571.34,679.67 c 1.76,-1.27 5.63,-5.46 7.64,-5.32 3.89,0.27 6.57,0.75 10.22,2.27 4.71,1.96 12.73,-2.47 16.91,-5.08 3.59,-2.25 5.67,-3.36 9.69,-3.87 2.16,-0.28 5.82,-6.93 7.33,-8.83 4.37,-5.5 6.69,-11.57 10.17,-17.7 3.4,-5.97 9.34,-11.06 12.27,-17.23 3.34,-7.01 3.66,-15.41 3.92,-23.16 0.23,-6.81 0.48,-13.89 -0.16,-20.68 -0.36,-3.84 -1.26,-7.52 -0.1,-11.16 1.38,-4.32 3.68,-6.94 6.29,-10.41 1.52,-2.02 7.24,-2.92 9.48,-3.81 l 2.77,3.51 c -1.16,3.91 -1.25,4.94 -0.44,8.92 0.57,2.76 0.8,9.67 2.78,11.48 5.87,5.37 10.75,10.79 15.91,17.1 9.14,11.19 16.23,24.2 23.75,36.88 7.48,12.61 20.79,14.55 32.91,15.1 6.75,0.31 12.8,-1.6 19.43,-3.04 4.79,-1.04 13.56,2.32 17.4,5.54 4.17,3.5 7.04,8.54 10.39,13 3.98,5.31 7.6,6.85 13.41,8 5.72,1.13 10.45,1.46 14.87,6.27 2.85,3.09 3.02,3.75 3.75,8.1 0.63,3.77 1.92,5.41 3.99,8.44 -3.37,-1.21 -5.24,-2.37 -8.55,-0.71 -3.21,1.61 -5.5,3.4 -8.93,4.43 -2.61,0.79 -5.81,2.84 -7.97,4.71 -2.26,1.97 -4.26,6.92 -7.19,7.07 -3.4,0.19 -6.74,0.51 -10.12,0.91 -3.88,0.45 -5.31,2.13 -8.57,4.77 -1.88,1.53 -5.3,5.38 -7.55,5.62 -3.61,0.38 -7.1,0.94 -10.67,1.64 -5.95,1.17 -9.9,7.17 -15.31,8.98 -6.6,2.21 -12.45,2.19 -19.23,2.85 -13.48,1.29 -21.59,16.37 -29.89,27.48 -2.27,3.05 -6.58,4.74 -8.43,7.71 -1.14,1.82 -2.84,9.84 -2.09,11.94 1.54,4.36 3.06,8.63 4.89,12.83 1.65,3.79 0.72,8.59 0.62,12.78 -2.61,-1.13 -5.35,-0.64 -7.78,-1.63 -3.41,-1.39 -4.04,-4.08 -7.91,-4.27 -1.57,3.18 -3.43,9.86 -0.75,12.76 3.08,3.34 6.86,4.61 10.21,7.62 -0.96,1.22 -1.97,3.14 -3.16,4.01 -1.16,0.87 -2.99,0.63 -4.1,1.58 -2.13,1.81 -3.99,6.67 -5.07,9.56 -1.66,4.47 -0.68,7.61 0.02,12.44 0.37,2.53 -3.11,8.13 -4.07,10.53 -0.84,-2.35 -1.48,-6.88 -3.61,-7.78 -3.05,-1.3 -5.48,-2.76 -8.28,-4.7 -6.62,-4.59 -9.89,-2.6 -15.42,2.79 -4.28,4.18 -8.02,7.77 -13.85,7.65 -6.66,-0.13 -11.72,-2.29 -17.75,-5.48 -3.16,-1.67 -9.11,-10.34 -10.42,-13.92 -2.74,-7.45 -4.02,-13.11 -4.96,-21.16 -0.38,-3.23 -1.23,-6.45 -1.84,-9.62 -0.58,-3 0.37,-7.22 0.56,-10.29 0.43,-7.21 -2.44,-12.73 -5.52,-18.49 -3.87,0.75 -6.79,0.91 -9.96,3.58 -2.87,2.41 -5.61,4.88 -7.93,8.01 -2.61,3.55 -5.47,5.86 -8.74,8.59 -2.89,2.41 -5.19,6.3 -7.6,9.35 -1.23,-1.44 -3.74,-5.81 -5.42,-6.09 -3.03,-0.51 -5.96,-0.99 -8.91,-1.91 -4.1,-1.29 -11.63,-4.07 -14.16,-8.4 -3.72,-6.35 -5.17,-11.2 -4.9,-19.07 0.24,-6.96 1.27,-13.55 1.82,-20.46 0.52,-6.49 1.2,-14 -4.8,-17.37 -4.82,-2.71 -12.15,-0.9 -17.46,0.04 -5.27,0.94 -12.1,2.64 -15.14,-3.89 -2.75,-5.9 -0.83,-12.69 -3.11,-18.85 8.8,-0.14 17.3,2.12 26.01,2.34 8.94,0.23 18.22,-2.06 26.02,-7.01 3.58,-2.27 7.76,-1.69 10.06,-5.84 2.6,-4.67 4.96,-9.41 7.3,-14.26 4.64,-9.6 14.58,-10.58 22.24,-15.02 l 2.79,7.33"
         id="_x32_28" />
      <path
         style="fill:#ffffd0;fill-opacity:1;stroke:none;stroke-width:5"
         inkscape:connector-curvature="0"
         d="m 368.83,500.48 c -1.65,8.76 -3.35,15.75 0.71,24 3.97,8.09 9.72,14.88 14.7,22.17 2.26,3.32 3.73,7.26 5.44,11 2.11,4.62 1.84,7.18 1.68,12.53 -0.3,9.73 0.94,17.21 3.15,26.51 -3.98,-2.23 -7.89,-4.6 -12.09,-1.58 -4.39,3.15 -8.09,5.48 -11.46,10.11 -2.26,3.11 -4.34,10.85 -5.22,14.8 -1.2,5.34 -1.2,11.16 -2.3,16.59 -0.44,2.21 -4.2,2.58 -5.9,3.23 -2.42,0.93 -3.88,-0.95 -6.06,-2.42 -3.81,-2.57 -8.42,-3.92 -12.68,-5.06 -2.01,-0.54 -4.31,-0.77 -6.17,-1.85 -1.82,-1.06 -4.85,-3.85 -6.86,-3.99 -5.4,-0.38 -5.94,6.77 -6.22,11.38 -5.7,-6.93 -11.45,-13.6 -16.53,-21.17 -5.21,-7.77 -9.17,-16.38 -13.74,-24.67 -1.35,-2.46 -1.02,-8.81 -0.59,-11.55 0.89,-5.71 0.45,-8.82 -2,-13.92 -3.74,-7.78 -9.66,-15.02 -15.66,-20.37 3.77,-4.88 5.68,-7.38 7.24,-13.62 0.34,-1.38 0.75,-5.99 2.03,-6.47 2.8,-1.06 5.61,-2.11 8.41,-3.17 4.83,-1.82 9.07,-1.93 14.18,-2.19 4.62,-0.24 8.5,-1.16 13.05,-2.46 4.94,-1.41 9.31,-2.65 13.9,-5.15 3.53,-1.92 7.31,-4.96 11.22,-5.13 5.14,-0.23 10.28,-0.32 15.39,-0.9 2.73,-0.31 3.77,-1.84 5.91,-3.93 2.2,-2.2 3.52,-2.25 6.47,-2.72"
         id="_x36_" />
      <path
         style="fill:#ffffd0;fill-opacity:1;stroke:none;stroke-width:5"
         inkscape:connector-curvature="0"
         d="m 156.94,301.81 c -0.13,-5.51 -0.71,-7 -4.63,-10.02 -2.51,-1.93 -6.03,-6.47 -9.11,-4.42 1.37,-3.72 2.75,-7.43 4.12,-11.15 1.17,-3.18 3.81,-4.59 5.27,-7.48 3.19,-6.32 6,-13.27 10.82,-18.09 5,-5.01 10.12,-11.97 2.07,-16.99 -2.35,-1.47 -6.19,-3.48 -4.73,-7.53 1.41,-3.92 2.48,-7.52 3.45,-11.59 3.52,-14.65 -6.89,-30.54 -15.44,-40.22 -3.71,-4.21 -13.26,-5.22 -11.57,-12.89 0.43,-1.95 0.38,-3.55 1.83,-4.62 1.07,-0.79 2.61,-1.34 2.92,-2.84 0.69,-3.44 0.61,-8.8 3.81,-10.42 5.68,-2.87 12.67,2.39 17.23,5.55 5.07,3.51 9.8,9.13 16.34,7.76 5.63,-1.18 11.48,-7.71 15.5,-12.02 5.09,-5.44 10.31,-10.41 15.91,-15.13 5.54,-4.67 11.1,-9.29 16.77,-13.74 4.87,-3.82 13.35,-4.19 18.96,-5.23 4.41,-0.82 12.88,-7.19 14.9,-12.28 0.62,-1.55 0.09,-3.79 0.52,-5.44 0.49,-1.9 1.59,-3.8 2.33,-5.57 1.34,-3.18 3.49,-5.99 5.57,-8.56 7.47,-9.24 16.31,-16.86 25.05,-24.32 1.23,-1.05 4.98,-2.37 6.49,-2.36 1.25,0.01 2.47,1.19 3.72,1.27 1.5,0.09 3.41,-0.77 4.88,-1.1 5.26,-1.18 10.59,-1.82 15.9,-2.69 2.53,-0.42 5.08,-0.5 7.63,-0.67 2.37,-0.15 4.55,-2.71 6.94,-2.77 3.07,-0.08 4.72,0.25 7.6,1.51 1.98,0.86 3.72,6.01 5.01,6.27 4.52,0.92 10.73,3.16 15.28,2.42 5.81,-0.95 11.4,-2.06 17.12,-3.58 2.45,3.83 2.66,4.92 2.8,9.72 0.12,4.02 0.42,8.03 0.69,12.04 0.49,7.4 -0.17,14.27 -0.92,21.59 -0.78,7.57 -2.86,14.89 -4,22.42 -1.22,8.08 -5.25,13.78 -9.31,20.11 -2.79,4.35 -10.7,8.22 -14.97,9.91 -6.28,2.49 -12.2,3.82 -18.73,5.14 -13.45,2.71 -26.73,4.58 -40.37,4.58 -6.24,0 -13.41,-1.38 -18.98,2.43 -4.15,2.84 -0.39,16.65 0.96,20.68 4.79,14.33 10.9,28.79 21.9,38.13 2.8,2.37 6.33,4 9.37,5.92 2.33,1.47 4.42,3.8 6.87,4.88 6.09,2.7 11.82,5.44 18.35,5.91 6.82,0.49 12.7,3.15 19.36,4.65 3.13,0.71 6.19,0.98 9.37,1.28 4.44,0.41 5.82,0.97 9.59,3.83 5.43,4.11 11.14,5.94 15.73,11.51 3.55,4.3 10.07,11.66 15.34,12.38 7.43,1.02 12.46,-0.53 16.06,8.69 1.24,3.18 1.35,7.58 4.65,8.85 3.91,1.5 4.21,3.89 6.07,8.23 -4.63,0.25 -5.97,0.57 -9.76,3.7 -2.58,2.13 -5.55,4.15 -7.79,6.73 -4.59,5.29 -11.38,12.11 -13.44,19.53 -2.62,9.47 -3.47,16.84 -0.85,26.51 1.06,3.92 0.77,8.65 1.03,12.74 0.23,3.63 1.88,7.49 2.81,10.95 -9.82,12.05 -20.85,15.73 -35,14.13 -6.22,-0.7 -12.14,-3.19 -17.77,-6.17 -3.56,-1.89 -15.74,-6.09 -17.42,-10.15 -2.03,-4.92 -2.49,-4.52 -7.09,-5.55 -3.12,-0.71 -5.31,-1.21 -8.06,-2.96 -5.86,-3.73 -10.76,-8.52 -16.4,-12.59 -1.34,-0.97 -3,-1.83 -4.2,-3.03 -1.09,-1.09 -1.89,-3.47 -3.15,-4.22 -2.76,-1.63 -7.85,-1.18 -10.93,-1.64 -6.09,-0.92 -10.97,-7.4 -14.99,-12.13 1.5,-1.92 3.35,-3.53 3.41,-6.35 -12.57,-6.36 -25.73,-1.21 -35.01,10.15 -3.41,4.17 -0.54,16.46 0.82,21.25 1.04,3.65 1.51,7.33 2.08,11.13 0.27,1.82 -0.45,9.7 -1.72,10.24 -4.12,1.75 -5.2,0.24 -9.09,-2.17 -2.59,-1.61 -5.24,-2.98 -7.75,-4.77 -5.1,-3.63 -11.27,-7.62 -15.23,-12.91 -2.5,-3.35 -5,-6.69 -7.51,-10.03 -1.12,-1.5 -1.13,-8.31 -1.45,-10.41 -0.9,-6.01 -4.01,-14.76 -8.25,-18.63 -5.36,-4.89 -10.69,-10.02 -16.74,-13.64 -3.23,-1.93 -6.3,-3.38 -9.73,-4.78 -3.3,-1.38 -5.73,0.06 -9.11,1.13"
         id="_x31_" />
      <path
         style="fill:#ffffd0;fill-opacity:1;stroke:none;stroke-width:5"
         inkscape:connector-curvature="0"
         d="m 156.94,301.81 c 2.62,-0.86 5.43,-2.67 8.05,-1.59 3.35,1.38 6.5,2.69 9.65,4.57 5.88,3.52 11.07,8.15 16.27,12.9 4.11,3.74 8.45,11.44 9.37,17.52 0.6,4 1.19,7.89 1.43,11.94 0.17,2.8 5.38,7.61 6.95,9.72 3.88,5.19 9.27,9.25 14.29,12.82 3.48,2.47 13.01,10.69 16.69,9.13 5.6,-2.38 3.85,-14.5 2.27,-20.04 -1.73,-6.1 -4.53,-16.17 -2.11,-22.61 1.66,-4.41 12.45,-12.82 16.43,-12.97 3.63,-0.13 7.08,-0.69 10.68,-1.32 2.46,-0.43 6.35,2.18 8.58,3.31 -0.06,2.83 -1.91,4.43 -3.41,6.35 3.82,4.49 8.76,11.19 14.58,12.07 3.6,0.54 7.19,1.08 10.79,1.62 1.51,0.23 5.2,5.38 6.95,6.64 5.64,4.07 10.55,8.95 16.39,12.66 2.87,1.82 4.71,2.6 7.91,3.32 4.97,1.12 6.04,0.53 8.22,5.81 1.62,3.91 12.86,7.74 16.36,9.59 6.26,3.32 11.94,4.97 18.69,6.69 5.17,1.33 13.48,0.78 18.55,-1.24 6.89,-2.76 11.58,-6.71 16.59,-12.86 -2,-7.43 -2.96,-13.38 -3.45,-21.16 -0.42,-6.66 -3.08,-12.26 -2.21,-19.35 1.79,-14.55 12.33,-25.99 21.82,-34.2 1.84,-1.59 4.06,-4.29 6.18,-5.14 2.28,-0.91 5.78,-0.32 8.26,-0.55 4.58,-0.44 5.05,-0.23 8.73,3.03 2.52,2.22 5.21,3.86 7.97,5.64 4.97,3.19 10.97,4.25 16.48,5.36 3.12,0.63 6.08,1.42 9.14,2.38 3.34,1.04 4.71,3.31 7.14,6.26 -1.21,0.26 -3.04,0.03 -3.55,1.46 -1.02,2.87 -2.04,5.75 -3.06,8.62 -1.34,3.79 -2.65,7.69 -3.47,11.68 -2.12,10.27 -3.99,20.19 -4.59,30.75 -0.51,8.9 -4.85,18.94 -8.11,26.89 -2.22,5.42 -2.31,6.26 -0.3,11.68 1.57,4.24 1.75,9.17 -1.47,12.65 -4.76,-2.18 -7.93,-6.68 -10.55,1.4 -1.92,5.94 1.6,10.69 1.6,16.94 -6.15,-0.1 -12.23,-0.52 -18.17,-2.5 -3.14,-1.04 -6.08,-1.9 -8.97,-3.64 -1.94,-1.17 -6.89,-4.43 -9.03,-3.07 -2.91,1.85 -5.81,3.68 -8.75,5.45 -2.67,1.61 -6.64,0.45 -9.49,-0.04 -6.39,-1.09 -13.36,1.64 -17.51,7.19 -2.02,2.69 -2.47,17.03 -2.07,20.31 0.44,3.55 0.82,7.05 1.54,10.54 1.1,5.29 0.74,6.64 -0.85,11.84 -1.81,5.91 -6.76,13.57 -12.5,14.48 -3.94,0.63 -5.46,2.6 -8.56,5.63 -1.74,1.7 -5.46,1.17 -7.76,1.28 -3.82,0.17 -8.39,-0.48 -12.12,0.53 -3.48,0.94 -7.22,3.83 -10.5,5.62 -6.46,3.52 -15.37,6.94 -22.47,6.94 -8.89,0 -15.57,1.53 -23.97,4.69 -4.11,1.55 -3.86,6.33 -5.05,11.05 -1.02,4.07 -3.87,6.7 -6.28,9.82 -7.65,-6.78 -14.19,-15 -21.9,-21.78 -6.93,-6.09 -16.73,-11.44 -24.91,-14.48 -10.07,-3.75 -20.18,-6.66 -30.41,-9.73 -4.52,-1.35 -9.06,-2.72 -13.79,-2.39 -6.1,0.43 -7.37,4.03 -10.8,9.45 -0.43,-5.33 -0.75,-10.62 -2.3,-15.7 -1.85,-6.05 -1.79,-11.59 -2.07,-17.99 -4.15,-2.44 -7.52,-3.04 -12.12,-3.52 -1.44,-0.15 -3.85,-0.79 -5.07,-1.66 -1.73,-1.23 -2.53,-4.89 -4.36,-5.84 -1.46,-0.76 -3.75,0.73 -5.27,-0.39 -1.71,-1.26 -3.63,-2.33 -5.05,-4.03 -2.26,-2.68 -6.34,-9.64 -9.25,-10.79 -3.75,-1.49 -7.45,-3.16 -11.25,-4.47 -5.02,-1.74 -7.56,-4.82 -12.09,-7.71 -5.81,-3.7 -16.9,-8.86 -23.33,-7.37 0.82,-2.44 1.27,-6.59 2.38,-8.74 1.36,-2.66 5.66,-4.93 7.84,-6.47 2.67,-1.89 4.78,-3.9 7.14,-6.32 2.37,-2.43 2.74,-6.31 3.69,-9.79 1.44,-5.25 -4.34,-12.8 -1.79,-18.53 1.35,-3.03 2.21,-6.38 4.68,-8.26 2.91,-2.21 5.63,-3.98 8.77,-5.68 5.07,-2.74 10.3,-3.93 15.05,-7.47 6.15,-4.58 9.78,-8.12 14.47,-14.66 1.82,-2.54 2.98,-6.27 4.34,-9.18 1.38,-2.94 4.43,-4.61 6.71,-6.55 1.69,-1.44 5.87,-0.81 7.95,-1.22 3.01,-0.59 6,-1.49 8.99,-2.24 -2.19,-8.14 -5.39,-14.95 -10.47,-20.98"
         id="_x32_" />
      <path
         style="fill:#ffffd0;fill-opacity:1;stroke:none;stroke-width:5;stroke-opacity:1"
         inkscape:connector-curvature="0"
         d="m 598.55,149.8 c 11.13,-7.39 22.31,-14.66 33.27,-22.37 2.66,-1.88 5.53,-4.03 8.46,-5.22 3.9,-1.59 5.71,0.38 9.38,1.83 3.39,1.33 5.69,1.84 8.7,4.12 2.96,2.23 4.32,5.26 6.72,8.23 2,2.48 4.41,4.65 6.52,7.02 1.56,1.75 -1.57,7.51 -1.94,9.52 -0.55,3 0.55,6.82 1.37,9.66 1.44,4.99 3.72,3.32 7.54,5.01 6.03,2.66 9.65,8.76 12.49,15.26 1.35,3.08 4.71,3.54 7.33,5.62 2.04,1.62 5.02,5.24 6.11,7.88 1.01,2.46 1.32,7.16 1.14,9.8 -0.28,4.13 0.77,7.55 1.62,11.55 1.19,5.61 8.77,11.96 13.25,13.94 2.74,1.21 5.36,2.5 8.18,3.45 2.83,0.96 6.74,-0.58 9.72,-0.89 5.59,-0.59 12.03,-5.69 17.19,-8.2 6.12,-2.97 11.96,-7.17 18.51,-8.77 6.28,-1.53 12.62,-1.85 18.88,-3.72 3.83,-1.14 11.72,-8.6 14.29,-12.07 2.8,-3.78 10.54,-14.02 15.4,-9.37 4.38,4.2 2.78,8.56 2.1,14.57 -0.34,3.03 4.05,10.94 4.72,14.19 0.88,4.27 1.62,10.09 0.43,14.35 -1.58,5.65 -4.28,9.48 -7.16,14.34 -0.94,1.59 -3.23,2.93 -4.75,3.71 -2.8,1.43 -3.27,2.08 -4.93,5.09 -1.7,3.07 -2.16,3.67 -5.03,5.12 -2.03,1.03 -3.16,2.24 -3.95,4.76 -1.58,5.04 -1.38,10.39 -2.1,15.69 -0.83,6.11 2.47,7.94 6.02,11.46 2.28,-1.56 3.67,-2.29 4.98,-4.9 1,-1.99 2.39,-6.71 4.09,-7.9 2.34,-1.63 4.4,-2.9 6.21,-5.27 1.09,-1.43 2.61,-4.28 4.28,-4.3 6.71,-0.08 13.43,-0.17 20.14,-0.25 5.36,-0.07 7.05,3.55 7.37,9.61 0.18,3.29 3.77,2.3 4.74,4.15 1.52,2.88 3.76,4.42 5.88,6.69 1.5,1.61 1.7,4.43 2.78,6.46 1.74,3.26 2.98,4.19 0.7,7.21 -1.55,2.05 -2.01,4.88 -3.97,6.28 -2.07,1.46 -2.38,4.12 -0.55,6.15 5.35,5.94 6.31,7.3 2.58,14.96 4.82,3.71 5.34,8.2 5.88,14.53 0.24,2.78 1.38,7.12 0.86,9.87 -0.82,4.27 -2.86,2.29 -5.3,4.82 -2.96,3.08 -7.4,9.06 -6.06,14.06 1.51,5.64 6.9,9.33 10.54,12.93 5.74,7.06 11.01,14.14 17.8,19.77 -3.06,0.23 -6.67,-0.16 -9.63,0.71 -3.21,0.94 -6.45,3.26 -9.49,4.81 -2.83,1.43 -6.63,1.56 -9.65,2.26 -1.25,0.29 -2.55,-0.33 -3.78,-0.64 -1.87,-0.47 -3.01,1.57 -4.44,2.95 -5.24,5.08 -2.64,13.75 -1.45,20.41 0.69,3.87 1.52,7.5 2.52,11.28 1.2,4.5 -0.82,6.86 -2.68,11.03 -3.54,7.96 -10.93,5.77 -16.52,2.81 -3.34,-1.77 -5.3,-2.31 -8.97,-2.63 -3.18,-0.28 -6.1,2.47 -8.89,4.12 -2.31,1.37 -3.85,5.8 -6.27,6.71 -2.2,0.83 -7.3,-0.51 -9.67,-0.61 -6.34,-0.26 -10.23,6.67 -14.12,11.41 -1.59,1.95 -3.39,5.25 -5.38,6.57 -2.19,1.47 -5.64,1.77 -8.08,2.54 -2.23,0.7 -4.38,1.89 -6.53,2.87 -1.87,0.85 -2.28,4.89 -2.97,6.99 -1.81,5.57 -3.76,11.02 -5.79,16.48 -2.4,6.45 -7.62,5.51 -12.47,5.02 -4.49,-0.45 -9,1.22 -13.47,0.9 -5.09,-0.37 -10.17,-0.74 -15.26,-1.16 -4.45,-0.38 -9.25,-1.35 -13.66,-0.59 -1.78,0.31 -4.91,0.04 -6.28,1.53 -2.04,2.21 -4.08,4.42 -6.12,6.64 -0.46,-10.52 -0.95,-21.06 -1.14,-31.58 -0.08,-4.33 2.38,-8.84 3.06,-13.19 0.98,-6.33 0.38,-8.92 -1.35,-15.1 -5.19,2.2 -12.72,2.02 -17.3,-2.12 -4.54,-4.1 -3.42,-13.29 -3.8,-19.75 -0.36,-6.23 0.27,-17.68 -3.6,-22.44 -4.72,-5.8 -10.27,-10.1 -15.04,-15.92 -4.27,-5.22 -10.3,-9.5 -15.12,-14.04 -5.13,-4.82 -10.42,-8.99 -16.05,-12.91 -4.99,-3.47 -10.79,-4.94 -15.84,-8.27 -5.52,-3.64 -12.29,-10.42 -18.07,-4.23 -1.52,1.62 -4.82,6.42 -6.69,6.55 -4.12,0.28 -5.75,-0.45 -9.04,-3.68 -4.44,-4.36 -8.74,-10.57 -11.79,-16.33 -7.01,-13.2 -16.48,-25.1 -28.69,-31.8 -10.89,-5.97 -22.68,-12.63 -35.05,-11.03 -1.57,0.2 -8.5,2.27 -9.56,0.98 -3.36,-4.07 -4.56,-5.29 -9.17,-6.72 -6.28,-1.95 -12.64,-2.7 -18.85,-5.01 -3.84,-1.43 -7.76,-3.48 -11,-6.34 -1.13,-1 -4.28,-4.94 -5.67,-4.8 -2.39,0.23 -4.79,0.46 -7.18,0.69 -1.45,-3.38 -1.96,-6.66 -5.08,-7.85 -3.69,-1.42 -4.4,-4.73 -5.53,-8.83 -2.57,-9.35 -8.35,-8.01 -15.09,-8.94 -5.69,-0.79 -12.06,-7.25 -15.94,-11.95 -4.64,-5.63 -9.94,-7.33 -15.42,-11.49 -3.02,-2.29 -4.69,-3.9 -8.19,-4.23 -3.49,-0.32 -7,-0.45 -10.44,-1.23 -6.6,-1.49 -12.62,-4.34 -19.35,-4.83 -13.46,-0.97 -24.02,-9.41 -35.59,-16.72 -5.1,-3.23 -9.4,-10.87 -12.68,-16.36 -4.2,-7.02 -6.52,-13.41 -9.21,-21.45 -1.11,-3.34 -1.69,-7.02 -2.5,-10.47 -0.41,-1.75 -0.61,-9.23 0.56,-10.03 5.81,-3.98 12.15,-3.01 18.68,-3.01 13.75,0 27.11,-1.68 40.67,-4.41 6.44,-1.3 12.47,-2.49 18.67,-4.95 4.4,-1.74 12.73,-5.35 15.61,-9.85 2.62,-4.08 5.85,-7.94 7.3,-12.79 1.63,-5.46 2.68,-10.39 3.54,-16.09 1.46,-9.65 4.15,-18.779998 3.88,-28.779998 -0.15,-5.32 -0.56,-10.580001 -0.82,-15.890001 -0.15,-3.03 -1.39,-11.98 0.44,-14.51 2.96,-4.08 7.08,-5.83 7.08,-11.79 0,-2.32 -0.47,-3.76 -0.08,-6.14 0.3,-1.87 2.82,-3.25 3.75,-4.92 2.48,0.1 3.1,3.66 6.18,3.66 2.88,0 4.9,0.27 7.56,1.53 -3.13,6.81 -3.57,13.81 -5.94,20.95 -2.35,7.06 5.01,14.07 8.17,19.33 1.51,2.510001 4.31,3.570001 6.63,4.700001 4.1,2 4.03,3.56 5.58,8.54 1.93,6.19 5.61,13.799998 9.9,18.119998 2.68,2.7 4.8,5.05 8.04,6.62 2.57,1.25 5.98,2.08 8.13,4.09 1.51,1.41 3.02,2.82 4.54,4.23 0.81,0.75 3.01,-0.51 4.03,-0.44 3.21,0.24 6.32,2.22 9.13,3.83 2.63,1.5 4.74,3.21 7,5.35 2.2,2.07 7.52,-1.95 9.34,-3.06 1.25,-0.76 6.08,-0.24 7.29,0.42 2.67,1.44 2.15,8.5 2.01,11.17 -0.28,5.5 4.98,11.56 9.89,10.55 3.15,-0.65 5.34,-1.14 8.46,-0.48 3.22,0.69 3.74,4.56 5.16,7.88 1.33,3.1 1.59,5.58 4.21,7.26 3.09,1.98 4.4,1.49 7.76,0.63 5.78,-1.47 9.02,7.88 13.57,10.6 2.25,1.34 4.74,3.25 7.34,1.67 3.83,-2.32 3.25,-2.41 4.38,-6.79 1.11,-4.31 4.84,-17.05 10.21,-14.01 2.44,1.38 4.69,4.24 7.06,5.38 2.87,1.37 6.33,-0.17 9.07,-1.05 5.22,-1.64 9.71,-6.22 14.6,-8.97"
         id="_x32_27" />
      <path
         inkscape:connector-curvature="0"
         id="path1450"
         d="m 453.05,434.82 c -0.69,-1.83 -3.08,-6.6 -2.51,-8.38 1.29,-3.98 1.87,-5.8 4.59,-8.54 1.25,-1.26 5.67,3.11 7.05,3.75 3.1,-3.35 3.01,-8.08 1.62,-12.2 -1.82,-5.43 -2.41,-5.87 -0.16,-11.37 3.16,-7.73 7.87,-17.95 8.36,-26.63 0.6,-10.56 2.31,-20.45 4.43,-30.72 0.86,-4.17 2.09,-8.22 3.49,-12.18 0.99,-2.78 1.97,-5.56 2.96,-8.33 0.79,-2.32 2.06,-1.84 4.16,-2.2"
         style="fill:none;stroke:#646464;stroke-width:2;stroke-miterlimit:4;stroke-dasharray:none;stroke-opacity:1" />
      <path
         inkscape:connector-curvature="0"
         id="path1536"
         d="m 156.94,301.81 c 2.62,-0.86 5.43,-2.67 8.05,-1.59 3.35,1.38 6.5,2.69 9.65,4.57 5.88,3.52 11.07,8.15 16.27,12.9 4.11,3.74 8.45,11.44 9.37,17.52 0.6,4 1.19,7.89 1.43,11.94 0.17,2.8 5.38,7.61 6.95,9.72 3.88,5.19 9.27,9.25 14.29,12.82 3.48,2.47 13.01,10.69 16.69,9.13 5.6,-2.38 3.85,-14.5 2.27,-20.04 -1.73,-6.1 -4.53,-16.17 -2.11,-22.61 1.66,-4.41 12.45,-12.82 16.43,-12.97 3.63,-0.13 7.08,-0.69 10.68,-1.32 2.46,-0.43 6.35,2.18 8.58,3.31 -0.06,2.83 -1.91,4.43 -3.41,6.35 3.82,4.49 8.76,11.19 14.58,12.07 3.6,0.54 7.19,1.08 10.79,1.62 1.51,0.23 5.2,5.38 6.95,6.64 5.64,4.07 10.55,8.95 16.39,12.66 2.87,1.82 4.71,2.6 7.91,3.32 4.97,1.12 6.04,0.53 8.22,5.81 1.62,3.91 12.86,7.74 16.36,9.59 6.26,3.32 11.94,4.97 18.69,6.69 5.17,1.33 13.48,0.78 18.55,-1.24 6.89,-2.76 11.58,-6.71 16.59,-12.86 -2,-7.43 -2.96,-13.38 -3.45,-21.16 -0.42,-6.66 -3.08,-12.26 -2.21,-19.35 1.79,-14.55 12.33,-25.99 21.82,-34.2 1.84,-1.59 4.06,-4.29 6.18,-5.14 2.28,-0.91 5.78,-0.32 8.26,-0.55"
         style="fill:none;stroke:#646464;stroke-width:2;stroke-miterlimit:4;stroke-dasharray:none;stroke-opacity:1" />
      <path
         inkscape:connector-curvature="0"
         id="path1524"
         d="m 169.35,507.37 c -0.43,-5.33 -0.75,-10.62 -2.3,-15.7 -1.85,-6.05 -1.79,-11.59 -2.07,-17.99 -4.15,-2.44 -7.52,-3.04 -12.12,-3.52 -1.44,-0.15 -3.85,-0.79 -5.07,-1.66 -1.73,-1.23 -2.53,-4.89 -4.36,-5.84 -1.46,-0.76 -3.75,0.73 -5.27,-0.39 -1.71,-1.26 -3.63,-2.33 -5.05,-4.03 -2.26,-2.68 -6.34,-9.64 -9.25,-10.79 -3.75,-1.49 -7.45,-3.16 -11.25,-4.47 -5.02,-1.74 -7.56,-4.82 -12.09,-7.71 -5.81,-3.7 -16.9,-8.86 -23.33,-7.37 0.82,-2.44 1.27,-6.59 2.38,-8.74 1.36,-2.66 5.66,-4.93 7.84,-6.47 2.67,-1.89 4.78,-3.9 7.14,-6.32 2.37,-2.43 2.74,-6.31 3.69,-9.79 1.44,-5.25 -4.34,-12.8 -1.79,-18.53 1.35,-3.03 2.21,-6.38 4.68,-8.26 2.91,-2.21 5.63,-3.98 8.77,-5.68 5.07,-2.74 10.3,-3.93 15.05,-7.47 6.15,-4.58 9.78,-8.12 14.47,-14.66 1.82,-2.54 2.98,-6.27 4.34,-9.18 1.38,-2.94 4.43,-4.61 6.71,-6.55 1.69,-1.44 5.87,-0.81 7.95,-1.22 3.01,-0.59 6,-1.49 8.99,-2.24 -2.19,-8.14 -5.39,-14.95 -10.47,-20.98"
         style="fill:none;stroke:#646464;stroke-width:3.5;stroke-miterlimit:4;stroke-dasharray:none;stroke-opacity:1" />
      <path
         inkscape:connector-curvature="0"
         id="path1446"
         d="m 451.25,695.69 c -2.13,-3.29 -3.16,-7.49 -5.66,-10.34 -4.26,-4.85 -10.36,-13.46 -16.77,-13.46 -3.03,0 -8.37,-1.04 -9.21,-5.01 -0.93,-4.36 0.53,-8.45 0.06,-12.88 -6.25,-3.1 -11.8,-2.91 -13.08,-11.74 -1.07,-7.4 -3.02,-14.52 -4.62,-21.79 -1.56,-7.06 -4.09,-13.97 -5.79,-21.03 -0.72,-2.99 -2.39,-6 -3.17,-9.25 -0.96,-4.04 -1.52,-6.98 -1.56,-11.13 -0.06,-6.44 1.35,-14.72 -1.24,-20.4 -3.47,-7.61 -6.98,-13.64 -11.59,-20.37 -3.68,-5.39 -8.19,-10.08 -10.42,-16.68 -2.51,-7.45 -0.74,-13.66 0.63,-21.13"
         style="fill:none;stroke:#646464;stroke-width:2;stroke-miterlimit:4;stroke-dasharray:none;stroke-opacity:1" />
      <path
         inkscape:connector-curvature="0"
         id="path1502"
         d="m 319.55,637.9 c -5.7,-6.93 -11.45,-13.6 -16.53,-21.17 -5.21,-7.77 -9.17,-16.38 -13.74,-24.67 -1.35,-2.46 -1.02,-8.81 -0.59,-11.55 0.89,-5.71 0.45,-8.82 -2,-13.92 -3.74,-7.78 -9.66,-15.02 -15.66,-20.37 3.77,-4.88 5.68,-7.38 7.24,-13.62 0.34,-1.38 0.75,-5.99 2.03,-6.47 2.8,-1.06 5.61,-2.11 8.41,-3.17 4.83,-1.82 9.07,-1.93 14.18,-2.19 4.62,-0.24 8.5,-1.16 13.05,-2.46 4.94,-1.41 9.31,-2.65 13.9,-5.15 3.53,-1.92 7.31,-4.96 11.22,-5.13 5.14,-0.23 10.28,-0.32 15.39,-0.9 2.73,-0.31 3.77,-1.84 5.91,-3.93 2.2,-2.2 3.52,-2.25 6.47,-2.72"
         style="fill:none;stroke:#646464;stroke-width:2;stroke-miterlimit:4;stroke-dasharray:none;stroke-opacity:1" />
      <path
         inkscape:connector-curvature="0"
         id="path1530"
         d="m 453.67,440.18 c -6.15,-0.1 -12.23,-0.52 -18.17,-2.5 -3.14,-1.04 -6.08,-1.9 -8.97,-3.64 -1.94,-1.17 -6.89,-4.43 -9.03,-3.07 -2.91,1.85 -5.81,3.68 -8.75,5.45 -2.67,1.61 -6.64,0.45 -9.49,-0.04 -6.39,-1.09 -13.36,1.64 -17.51,7.19 -2.02,2.69 -2.47,17.03 -2.07,20.31 0.44,3.55 0.82,7.05 1.54,10.54 1.1,5.29 0.74,6.64 -0.85,11.84 -1.81,5.91 -6.76,13.57 -12.5,14.48"
         style="fill:none;stroke:#646464;stroke-width:2;stroke-miterlimit:4;stroke-dasharray:none;stroke-opacity:1" />
      <path
         inkscape:connector-curvature="0"
         id="path1307"
         d="m 814.41016,471.73438 c 2.5e-4,0.002 -2.6e-4,0.004 0,0.006 1.15818,-1.23182 2.22531,-2.72728 3.34179,-3.94921 -0.47267,0.33689 -0.92959,0.73521 -1.35547,1.25781 -0.50703,0.62219 -0.99234,1.33305 -1.48046,2.02929 -0.16486,0.23515 -0.33923,0.42835 -0.50586,0.65626 z"
         style="fill:#e6e6e6" />
      <path
         inkscape:connector-curvature="0"
         id="path1368"
         d="m 691.93,532.64 c -0.46,-10.52 -0.95,-21.06 -1.14,-31.58 -0.08,-4.33 2.38,-8.84 3.06,-13.19 0.98,-6.33 0.38,-8.92 -1.35,-15.1 -5.19,2.2 -12.72,2.02 -17.3,-2.12 -4.54,-4.1 -3.42,-13.29 -3.8,-19.75 -0.36,-6.23 0.27,-17.68 -3.6,-22.44 -4.72,-5.8 -10.27,-10.1 -15.04,-15.92 -4.27,-5.22 -10.3,-9.5 -15.12,-14.04 -5.13,-4.82 -10.42,-8.99 -16.05,-12.91 -4.99,-3.47 -10.79,-4.94 -15.84,-8.27 -5.52,-3.64 -12.29,-10.42 -18.07,-4.23 -1.52,1.62 -4.82,6.42 -6.69,6.55 -4.12,0.28 -5.75,-0.45 -9.04,-3.68 -4.44,-4.36 -8.74,-10.57 -11.79,-16.33 -7.01,-13.2 -16.48,-25.1 -28.69,-31.8 -10.89,-5.97 -22.68,-12.63 -35.05,-11.03 -1.57,0.2 -8.5,2.27 -9.56,0.98"
         style="fill:none;stroke:#646464;stroke-width:2;stroke-miterlimit:4;stroke-dasharray:none;stroke-opacity:1" />
      <path
         inkscape:connector-curvature="0"
         id="path1366"
         d="m 486.86,317.78 c -3.36,-4.07 -4.56,-5.29 -9.17,-6.72 -6.28,-1.95 -12.64,-2.7 -18.85,-5.01 -3.84,-1.43 -7.76,-3.48 -11,-6.34 -1.13,-1 -4.28,-4.94 -5.67,-4.8 -2.39,0.23 -4.79,0.46 -7.18,0.69"
         style="fill:none;stroke:#646464;stroke-width:2;stroke-miterlimit:4;stroke-dasharray:none;stroke-opacity:1" />
      <path
         inkscape:connector-curvature="0"
         id="path1364"
         d="m 434.99,295.6 c -1.45,-3.38 -1.96,-6.66 -5.08,-7.85 -3.69,-1.42 -4.4,-4.73 -5.53,-8.83 -2.57,-9.35 -8.35,-8.01 -15.09,-8.94 -5.69,-0.79 -12.06,-7.25 -15.94,-11.95 -4.64,-5.63 -9.94,-7.33 -15.42,-11.49 -3.02,-2.29 -4.69,-3.9 -8.19,-4.23 -3.49,-0.32 -7,-0.45 -10.44,-1.23 -6.6,-1.49 -12.62,-4.34 -19.35,-4.83 -13.46,-0.97 -24.02,-9.41 -35.59,-16.72 -5.1,-3.23 -9.4,-10.87 -12.68,-16.36 -4.2,-7.02 -6.52,-13.41 -9.21,-21.45 -1.11,-3.34 -1.69,-7.02 -2.5,-10.47 -0.41,-1.75 -0.61,-9.23 0.56,-10.03 5.81,-3.98 12.15,-3.01 18.68,-3.01 13.75,0 27.11,-1.68 40.67,-4.41 6.44,-1.3 12.47,-2.49 18.67,-4.95 4.4,-1.74 12.73,-5.35 15.61,-9.85 2.62,-4.08 5.85,-7.94 7.3,-12.79 1.63,-5.46 2.68,-10.39 3.54,-16.09 1.46,-9.65 4.15,-18.779998 3.88,-28.779998 -0.15,-5.32 -0.56,-10.580001 -0.82,-15.890001 -0.15,-3.03 -1.39,-11.98 0.44,-14.51"
         style="fill:none;stroke:#646464;stroke-width:2;stroke-miterlimit:4;stroke-dasharray:none;stroke-opacity:1" />
      <path
         inkscape:connector-curvature="0"
         id="path1406"
         d="m 571.34,679.67 c 1.76,-1.27 5.63,-5.46 7.64,-5.32 3.89,0.27 6.57,0.75 10.22,2.27 4.71,1.96 12.73,-2.47 16.91,-5.08 3.59,-2.25 5.67,-3.36 9.69,-3.87 2.16,-0.28 5.82,-6.93 7.33,-8.83 4.37,-5.5 6.69,-11.57 10.17,-17.7 3.4,-5.97 9.34,-11.06 12.27,-17.23 3.34,-7.01 3.66,-15.41 3.92,-23.16 0.23,-6.81 0.48,-13.89 -0.16,-20.68 -0.36,-3.84 -1.26,-7.52 -0.1,-11.16 1.38,-4.32 3.68,-6.94 6.29,-10.41 1.52,-2.02 7.24,-2.92 9.48,-3.81"
         style="fill:none;stroke:#646464;stroke-width:2;stroke-miterlimit:4;stroke-dasharray:none;stroke-opacity:1" />
      <path
         inkscape:connector-curvature="0"
         id="path1404"
         d="m 665,554.69 2.77,3.51 c -1.16,3.91 -1.25,4.94 -0.44,8.92 0.57,2.76 0.8,9.67 2.78,11.48 5.87,5.37 10.75,10.79 15.91,17.1 9.14,11.19 16.23,24.2 23.75,36.88 7.48,12.61 20.79,14.55 32.91,15.1 6.75,0.31 12.8,-1.6 19.43,-3.04 4.79,-1.04 13.56,2.32 17.4,5.54 4.17,3.5 7.04,8.54 10.39,13 3.98,5.31 7.6,6.85 13.41,8 5.72,1.13 10.45,1.46 14.87,6.27 2.85,3.09 3.02,3.75 3.75,8.1 0.63,3.77 1.92,5.41 3.99,8.44"
         style="fill:none;stroke:#646464;stroke-width:2;stroke-miterlimit:4;stroke-dasharray:none;stroke-opacity:1" />
      <path
         inkscape:connector-curvature="0"
         id="path1476"
         d="m 549,808.13 c -1.23,-1.44 -3.74,-5.81 -5.42,-6.09 -3.03,-0.51 -5.96,-0.99 -8.91,-1.91 -4.1,-1.29 -11.63,-4.07 -14.16,-8.4 -3.72,-6.35 -5.17,-11.2 -4.9,-19.07 0.24,-6.96 1.27,-13.55 1.82,-20.46 0.52,-6.49 1.2,-14 -4.8,-17.37 -4.82,-2.71 -12.15,-0.9 -17.46,0.04 -5.27,0.94 -12.1,2.64 -15.14,-3.89 -2.75,-5.9 -0.83,-12.69 -3.11,-18.85"
         style="fill:none;stroke:#646464;stroke-width:2;stroke-miterlimit:4;stroke-dasharray:none;stroke-opacity:1" />
      <path
         inkscape:connector-curvature="0"
         id="path1400"
         d="m 476.92,712.13 c 8.8,-0.14 17.3,2.12 26.01,2.34 8.94,0.23 18.22,-2.06 26.02,-7.01 3.58,-2.27 7.76,-1.69 10.06,-5.84 2.6,-4.67 4.96,-9.41 7.3,-14.26 4.64,-9.6 14.58,-10.58 22.24,-15.02 l 2.79,7.33"
         style="fill:none;stroke:#646464;stroke-width:2;stroke-miterlimit:4;stroke-dasharray:none;stroke-opacity:1" />
      <path
         inkscape:connector-curvature="0"
         id="path1554"
         d="m 480.2,877.75 0.06,0.24"
         style="fill:none;stroke:#646464;stroke-width:5;stroke-opacity:1" />
      <path
         inkscape:connector-curvature="0"
         id="path1420"
         d="m 662.16,857.05 2.25,2.54 c -1.22,-3.4 -1.54,-6.9 -4.56,-8.19 -3,-1.28 -5.49,-3.01 -8.24,-4.93 -6.17,-4.28 -9.56,-1.39 -14.5,3.43 -4.63,4.52 -8.36,7.76 -14.59,7.64 -6.34,-0.13 -11.29,-2.43 -17.02,-5.47 -3.44,-1.82 -9.2,-10.59 -10.62,-14.48 -2.66,-7.25 -3.84,-12.77 -4.76,-20.6 -0.39,-3.3 -1.67,-6.54 -1.88,-9.85 -0.22,-3.44 0.43,-7.22 0.64,-10.66 0.41,-6.9 -2.63,-12.41 -5.56,-17.9 -4.46,0.86 -7.14,1.21 -10.78,4.28 -2.6,2.18 -5.01,4.49 -7.1,7.32 -2.72,3.69 -5.78,6.12 -9.18,8.96 -2.69,2.25 -4.9,6.13 -7.16,8.98 -0.95,-0.49 -4.5,-3.09 -5.33,-2.51"
         style="fill:none;stroke:#646464;stroke-width:2;stroke-miterlimit:4;stroke-dasharray:none;stroke-opacity:1" />
      <path
         inkscape:connector-curvature="0"
         id="path1432"
         d="m 449.28,692.79 c 4,6.16 10.14,8.07 16.38,9.96 2.97,0.9 5.85,2.08 8.76,3.22 1.85,0.72 3.03,7.35 3.88,9.65"
         style="fill:none;stroke:#646464;stroke-width:2;stroke-miterlimit:4;stroke-dasharray:none;stroke-opacity:1" />
      <path
         inkscape:connector-curvature="0"
         id="path1440"
         d="m 549.09,808.15 c -0.95,-0.49 -4.5,-3.1 -5.33,-2.51 -2.16,1.52 -4.32,3.04 -6.49,4.56 -3.07,2.16 -6.01,5.49 -8.58,8.45 -3.57,4.11 -7.01,8.48 -10.75,12.37 -3.25,3.38 -7.17,6 -10.28,9.55 -6.61,7.57 -12.4,16.98 -18.67,25 -2.79,3.57 -5.38,7.34 -8.01,11.07"
         style="fill:none;stroke:#646464;stroke-width:2;stroke-miterlimit:4;stroke-dasharray:none;stroke-opacity:1" />
      <path
         sodipodi:nodetypes="cccccccc"
         inkscape:connector-curvature="0"
         id="path1436"
         d="m 365.62,730.48 c 2.09,-2.07 3.82,-4.98 5.98418,-7.26194 3.32419,0.87806 6.08582,2.43194 9.08582,1.42194 4.01,-1.34 7.67,-2.73 11.49,-4.69 2.26,-1.16 6.2,-5.39 8.48,-5.1 4.13,0.51 8.2,1.07 12.31,1.81 6.43,1.16 15.56,-1.17 19.87,-7.55 2.23,-3.29 12.61,-19.28 16.44,-16.32"
         style="fill:none;stroke:#646464;stroke-width:2;stroke-miterlimit:4;stroke-dasharray:none;stroke-opacity:1" />
      <path
         inkscape:connector-curvature="0"
         id="path1462"
         d="m 691.94,532.64 -3.71,-5.44 c -6.07,1.68 -13.26,1.81 -16.55,9.01 -3.22,7.05 -4.78,13.87 -4.06,21.84"
         style="fill:none;stroke:#646464;stroke-width:2;stroke-miterlimit:4;stroke-dasharray:none;stroke-opacity:1" />
      <path
         inkscape:connector-curvature="0"
         id="path1458"
         d="m 571.19,679.52 c 0.65,-15.08 -3.77,-29.07 -6.22,-43.81 -1.26,-7.6 -1.73,-14.41 -4.39,-21.63 -2.6,-7.07 -4.69,-14.37 -6.47,-21.78 -3.64,-15.05 -8.84,-28.54 -14.29,-42.71 -2.45,-6.38 -5.78,-12.55 -9.23,-18.25 -4.24,-7 -9.27,-11.26 -14.76,-16.85 -8.2,-8.34 -18.75,-9.04 -28.31,-13.88 -9.78,-4.96 -16.62,-13.68 -21.75,-24.28 -2.64,-5.46 -3,-11.74 -4.11,-17.86 -0.95,-5.22 -4.83,-10.78 -6.95,-15.58 -1.27,-2.88 -0.65,-5.39 -1.66,-8.07"
         style="fill:none;stroke:#646464;stroke-width:2;stroke-miterlimit:4;stroke-dasharray:none;stroke-opacity:1" />
      <path
         inkscape:connector-curvature="0"
         id="path1486"
         d="m 319.44,637.8 c 0.17,-2.76 0.23,-8.01 2.25,-9.96 3.09,-3 6.43,0 9.23,1.63 5.77,3.35 12.65,4.19 18.72,6.99 2.03,0.94 5.01,4.35 6.97,3.59 4.82,-1.86 6.26,-1.3 7.42,-7.05 0.75,-3.73 1,-7.57 1.41,-11.37 0.37,-3.46 1.88,-6.64 2.93,-9.88 2.77,-8.55 6.61,-11.48 13.05,-16.1 4.41,-3.17 13.07,-2.69 14.79,4.44"
         style="fill:none;stroke:#646464;stroke-width:2;stroke-miterlimit:4;stroke-dasharray:none;stroke-opacity:1" />
      <path
         inkscape:connector-curvature="0"
         id="path1512"
         d="m 319.74,637.03 c -3.29,3.95 -5.41,9.22 -8.77,12.82 -4.24,4.53 -7.56,7.69 -10.37,13.63"
         style="fill:none;stroke:#646464;stroke-width:2;stroke-miterlimit:4;stroke-dasharray:none;stroke-opacity:1" />
      <path
         inkscape:connector-curvature="0"
         id="path1528"
         d="m 271.16,546.3 c -7.65,-6.78 -14.19,-15 -21.9,-21.78 -6.93,-6.09 -16.73,-11.44 -24.91,-14.48 -10.07,-3.75 -20.18,-6.66 -30.41,-9.73 -4.52,-1.35 -9.06,-2.72 -13.79,-2.39 -6.1,0.43 -7.37,4.03 -10.8,9.45"
         style="fill:none;stroke:#646464;stroke-width:2;stroke-miterlimit:4;stroke-dasharray:none;stroke-opacity:1" />
      <path
         inkscape:connector-curvature="0"
         id="path1390"
         d="m 688.23,527.2 3.71,5.44 c 5.19,-5.63 8.12,-8.81 15.57,-8.34 6.49,0.41 12.97,0.98 19.45,1.46 6.32,0.46 12.75,-1.14 18.96,-0.52 3.22,0.33 6.73,1.76 9.4,-0.55 3.55,-3.06 4.2,-5.21 5.99,-10.04 1.75,-4.71 3.53,-16.41 7.56,-18.23 3.13,-1.42 6.12,-2.61 9.36,-3.63 4.39,-1.38 5.48,-2.73 8.7,-6.67 1.7,-2.08 2.6,-4.97 4.63,-6.57 2.18,-1.71 6.02,-6.31 8.69,-6.2 3.2,0.13 6.39,0.25 9.58,0.52 3.36,0.28 5.48,-3.7 7.87,-6.29 8.87,-9.62 17.13,0.01 26.51,0.81 5.7,0.49 8.17,-5.33 10.55,-10.67 2.09,-4.69 -1.05,-10.6 -1.97,-15.71 -1,-5.59 -2.81,-11.42 -1.26,-16.92 0.97,-3.44 1.83,-4.17 4.27,-6.53 2.47,-2.39 3.15,0.18 5.95,-0.47 5.26,-1.21 9.9,-2.26 14.8,-4.74 4.99,-2.53 8.96,-2.75 14.44997,-3.15 C 884.21,404.57 878.94,397.49 873.2,390.43 c -3.19,-3.16 -8.47,-6.7 -10.15,-11.49 -1.65,-4.71 1.27,-10.53 4.1,-13.88"
         style="fill:none;stroke:#646464;stroke-width:2;stroke-miterlimit:4;stroke-dasharray:none;stroke-opacity:1" />
    </g>
    <g
       style="display:inline"
       inkscape:label="States"
       id="layer2"
       transform="translate(1484.3614,10.467993)">
      <path
         sodipodi:nodetypes="ccccccccccccccccccccc"
         inkscape:connector-curvature="0"
         id="path1508"
         d="m 300.6,663.48 c -0.0412,0.5869 0.73,-10.54 1.69,-15.8 -4.26,-3.92 -8.22,-5.22 -13.35,-7.12 -5.57,8.03 -7.4,18.41 -10.19,28.07 -2.5,8.66 -7.2,17.01 -11.98,24.16 -2.11,-2.04 -4.04,-5.04 -6.84,-5.17 -3.7,-0.17 -7.11,-0.35 -10.73,-1.19 -5.63,-1.31 -13.94,-0.45 -18.16,-6.08 -1.58,-2.11 -4.13,-5.35 -2.14,-8.46 2.52,-3.93 3.93,-6.62 5.25,-11.24 1.53,-5.37 -1.37,-14.91 -4.53,-18.83 -4.03,-5 -7.47,-10.68 -10.19,-16.79 -1.36,-3.05 -3.52,-6.42 -4.15,-9.8 -0.76,-4.08 -1.31,-7.86 -2.84,-11.62 -2.85,-6.98 -7.33,-12.7 -11.66,-18.51 -2.14,-2.87 -3.97,-5.85 -5.85,-8.97 -1.45,-2.4 -0.49,-6.87 -1.43,-9.67 -1.89,-5.64 -3.11,-10.6 -6.57,-15.07 -4.25,-5.5 -5.4,-8.2 -7.2,-15.36 -1.15,-4.6 -2.71,-9.77 -4.85,-13.83 -2.75,-5.22 -5.25,-8.73 -5.47,-14.85"
         style="fill:none;stroke:#646464;stroke-width:3.5;stroke-miterlimit:4;stroke-dasharray:none;stroke-opacity:1" />
      <path
         sodipodi:nodetypes="csccccccccscccccccccccccccccc"
         style="fill:none;stroke:#646464;stroke-width:3.5;stroke-miterlimit:4;stroke-dasharray:none;stroke-opacity:1"
         inkscape:connector-curvature="0"
         id="path93"
         d="m 361.5658,1057.7251 c -0.17356,-1.0897 -1.35488,-4.9342 -1.78713,-5.6892 -1.25794,-2.197 -2.35233,-3.8819 -5.41867,-4.0159 -4.91,-0.21 -6.7,-0.13 -10.6,-3.54 0.29,-2.6 -0.07,-6.11 1.77,-7.75 3.02,-2.67 4.92,-2.95 8.7,-3.72 5.07,-1.04 12.06,-2.43 16.36,-5.61 2.17,-1.6 3.56,-4.58 5.7,-6.29 2.37,-1.89 4.73,-3.81 7.12,-5.68 4.91,-3.85 8.82,-7.7 13.06,-12.53 -0.79,-1.06 -5.92,-5.94 -5.92,-6.82 0,-5.69 0.43,-6.93 3.28,-11.53 2.23,0.66 7.31,3.28 9.45,2.63 4.02,-1.21 8.04,-2.38 12.09,-3.44 4.49,-1.17 6.86,0.47 10.55,3.42 1.81,1.45 8.69,1.47 10.14,-0.47 2.19,-2.93 5.79,-6.23 7.22,-9.73 1.26,-3.09 5.18,-9.13 4.46,-12.5 -1.07,-5.05 -1.66,-8.88 -5.22,-12.23 -3.48,-3.29 -5.21,-6.17 -6.88,-11.03 2.76,-0.19 5.2,-0.2 7.95,0.15 -4.27,-6.46 -9.46,-13.34 -11.36,-21.25 -0.9,-3.74 -2.39,-7.34 -3.61,-10.96 -1.71,-5.05 -3.78,-7.74 -8.28,-4.68 -0.64,-7.97 -0.67,-14.78 0.59,-22.66 1.28,-8.03 -0.9,-14.89 -3.64,-22.36 -1.17,-3.2 -2.42,-6.92 -4.16,-9.71 -1.88,-3.01 -4.83,-5.03 -6.63,-8.14 -4.15,-7.17 -3.63,-14.08 -4.26,-22.51" />
      <path
         style="fill:none;stroke:#646464;stroke-width:3.5;stroke-miterlimit:4;stroke-dasharray:none;stroke-opacity:1"
         inkscape:connector-curvature="0"
         id="path95"
         d="m 622.76,998.95 c 2.72,1.79 2.05,7.69 2.13,11.09 0.07,3.2 2.83,6 2.79,9.07 -0.07,4.89 0.58,7.59 -2.31,11.09 -4.46,5.41 -10.92,7.39 -15.66,12.39 -2.29,2.42 -4.6,4.83 -6.87,7.29 -2.13,2.3 -6.3,5.23 -7.34,8.45" />
      <path
         style="fill:none;stroke:#646464;stroke-width:3.5;stroke-miterlimit:4;stroke-dasharray:none;stroke-opacity:1"
         inkscape:connector-curvature="0"
         id="path97"
         d="m 622.76,998.95 c -0.16,-0.1 -0.32,-0.21 -0.48,-0.31 l 6.74,-7.32 c 8.22,6.16 16.81,11.47 25.14,17.4 4.06,2.89 8.04,5.92 12.04,8.93 3.75,2.83 9.37,3.68 13.55,5.9 4.37,2.32 8.48,5.26 12.65,8.04 4.16,2.76 8.91,4.44 13.15,7.24 4.02,2.65 8.05,4.69 11.82,7.94 3.17,2.73 8.99,6.77 10.41,11.13" />
      <path
         style="fill:none;stroke:#646464;stroke-width:3.5;stroke-miterlimit:4;stroke-dasharray:none;stroke-opacity:1"
         inkscape:connector-curvature="0"
         id="path99"
         d="m 143.18,287.33 c -4.74,-1.13 -4.84,-0.93 -8.47,2.8 -1.88,1.93 -3.91,4.42 -6.09,5.79 -2.64,1.66 -5.99,2.27 -8.77,3.84 -2.64,1.49 -4.74,3.09 -7.12,5.12 -1.78,1.53 -2.73,6.48 -4.77,7.28 -1.81,0.7 -7.11,1.55 -8.16,3.37 -3.49,6.05 -7.49,9.71 -13.99,10.43 -2.76,0.3 -5.89,-0.3 -8.68,-0.4 -3.16,-0.11 -4.73,2.93 -6.57,5.39 -3.49,4.65 -2.81,13.07 -4.81,18.64 -2.25,6.23 -5.13,13.64 -11.85,8.98 -4.29,-2.97 -4.68,-12.67 -5.63,-18.13 -3.15,-1.33 -4.12,1.7 -6.87,2.64 -1.44,0.5 -2.77,-0.06 -4.18,0.72 -1.07,0.58 -2.15,1.36 -3.29,1.73 l -4.588148,0.9881 -5.623855,4.15676 -7.335463,1.95612 H 8.0690094 l -12.2257718,4.40128" />
      <path
         style="fill:none;stroke:#646464;stroke-width:3.5;stroke-miterlimit:4;stroke-dasharray:none;stroke-opacity:1"
         inkscape:connector-curvature="0"
         id="path103"
         d="m 417.84,898.63 c -1.61,-1.62 -5.37,-1.3 -7.84,-2.18 -3.42,-1.21 -7.92,-1.73 -11.04,-3.39 -3.63,-1.92 -6.08,-6.75 -9.26,-9.38 -4.93,-4.09 -12.96,-6.99 -7.55,-14.03 2.72,-3.55 4.73,-7.55 7.2,-11.27 0.73,-1.1 2.42,-4.47 3.79,-4.74 1.55,-0.3 3.97,2.42 5.39,2.98 2,0.79 3.91,1.77 5.97,2.52 3.38,1.22 10.57,2.08 12.68,4.82" />
      <path
         inkscape:connector-curvature="0"
         id="path1396"
         d="m 982.19996,685.19 c 1.42,3 1.27,8.38 1.76,11.77 0.44,3.11 2.33,5.81 3.63,8.55 3.34,7.01 6.16,13.01 8.57,20.61 1.04,3.28 2.46,6.39 3.7301,9.55 1.63004,4.07 -2.1401,6.59 -4.4001,7.96 l 1.73,4.57 c -7.83,4.14 -20.78999,-0.49 -28.60999,-4.22 -1.45,-0.69 -5.52,-1.65 -6.35,-3.16 -1.66,-3.02 -3.31,-6.04 -4.97,-9.07 -1.99,-3.63 -2.04,-11.81 -3.02,-16.23 -5.53,0 -10.51,-0.39 -15.86,1.36 -5.42,1.78 -9.74,2.57 -15.34,2.3 -4.26,-0.2 -12,1.02 -14.68,-3.47 -2.22,-3.73 -3.25,-5.25 -6.59,-7.43 -3.36,-2.19 -3.98,-0.58 -7.68,0.28 -3.28,0.76 -4.05997,-0.13 -6.38997,2.75 -2.19,2.7 -4.26,5.03 -6.75,7.34 -3.9,3.62 -10.57,-0.28 -13.92,-3.61 -4.38,-4.36 -7.99,-8.86 -11.17,-14.5 -0.92,-1.64 -5.82,-2.25 -7.25,-1.24 -2.95,2.09 -4.38,1.97 -7.84,1.9 -1.15,-2.92 -2.29,-5.61 -3.74,-8.33 -1.62,-3.04 -3.9,-3.16 -6.8,-4.23 l -4.49,5.19 c -2.16,-3.16 -3.48,-4.86 -4.06,-8.84"
         style="fill:none;stroke:#646464;stroke-width:3.5;stroke-miterlimit:4;stroke-dasharray:none;stroke-opacity:1" />
      <path
         sodipodi:nodetypes="csccsccccccccccccccccccccccccccccccccccccccccccccccccccccccccsccccccc"
         inkscape:connector-curvature="0"
         id="path1352"
         d="m 388.5,50.940001 c 2.96,-4.08 7.08,-5.83 7.08,-11.79 0,-2.32 -0.47,-3.76 -0.08,-6.14 0.3,-1.87 2.82,-3.25 3.75,-4.92 2.48,0.1 3.1,3.66 6.18,3.66 2.88,0 4.9,0.27 7.56,1.53 -3.13,6.81 -3.57,13.81 -5.94,20.95 -2.35,7.06 5.01,14.07 8.17,19.33 1.51,2.510001 4.31,3.570001 6.63,4.700001 4.1,2 4.03,3.56 5.58,8.54 1.93,6.19 5.61,13.799998 9.9,18.119998 2.68,2.7 4.8,5.05 8.04,6.62 2.57,1.25 5.98,2.08 8.13,4.09 1.51,1.41 3.02,2.82 4.54,4.23 0.81,0.75 3.01,-0.51 4.03,-0.44 3.21,0.24 6.32,2.22 9.13,3.83 2.63,1.5 4.74,3.21 7,5.35 2.2,2.07 7.52,-1.95 9.34,-3.06 1.25,-0.76 6.08,-0.24 7.29,0.42 2.67,1.44 2.15,8.5 2.01,11.17 -0.28,5.5 4.98,11.56 9.89,10.55 3.15,-0.65 5.34,-1.14 8.46,-0.48 3.22,0.69 3.74,4.56 5.16,7.88 1.33,3.1 1.59,5.58 4.21,7.26 3.09,1.98 4.4,1.49 7.76,0.63 5.78,-1.47 9.02,7.88 13.57,10.6 2.25,1.34 4.74,3.25 7.34,1.67 3.83,-2.32 3.25,-2.41 4.38,-6.79 1.11,-4.31 4.84,-17.05 10.21,-14.01 2.44,1.38 4.69,4.24 7.06,5.38 2.87,1.37 6.33,-0.17 9.07,-1.05 5.22,-1.64 9.45065,-6.00388 14.47033,-8.86194 C 609.68,142.41 620.86,135.14 631.82,127.43 c 2.66,-1.88 5.53,-4.03 8.46,-5.22 3.9,-1.59 5.71,0.38 9.38,1.83 3.39,1.33 5.69,1.84 8.7,4.12 2.96,2.23 4.32,5.26 6.72,8.23 2,2.48 4.41,4.65 6.52,7.02 1.56,1.75 -1.57,7.51 -1.94,9.52 -0.55,3 0.55,6.82 1.37,9.66 1.44,4.99 3.72,3.32 7.54,5.01 6.03,2.66 9.65,8.76 12.49,15.26 1.35,3.08 4.71,3.54 7.33,5.62 2.04,1.62 5.02,5.24 6.11,7.88 1.01,2.46 1.32,7.16 1.14,9.8 -0.28,4.13 0.77,7.55 1.62,11.55 1.19,5.61 8.77,11.96 13.25,13.94 2.74,1.21 5.36,2.5 8.18,3.45 2.83,0.96 6.74,-0.58 9.72,-0.89 5.59,-0.59 12.03,-5.69 17.19,-8.2 6.12,-2.97 11.96,-7.17 18.51,-8.77 6.28,-1.53 12.62,-1.85 18.88,-3.72 3.83,-1.14 11.72,-8.6 14.29,-12.07 2.8,-3.78 10.54,-14.02 15.4,-9.37 4.38,4.2 2.78,8.56 2.1,14.57 -0.34,3.03 4.05,10.94 4.72,14.19 0.88,4.27 1.62,10.09 0.43,14.35 -1.58,5.65 -4.28,9.48 -7.16,14.34 -0.94,1.59 -3.23,2.93 -4.75,3.71 -2.8,1.43 -3.27,2.08 -4.93,5.09 -1.7,3.07 -2.16,3.67 -5.03,5.12 -2.03,1.03 -3.16,2.24 -3.95,4.76 -1.58,5.04 -1.38,10.39 -2.1,15.69 -0.83,6.11 2.47,7.94 6.02,11.46 2.28,-1.56 3.67,-2.29 4.98,-4.9 1,-1.99 2.39,-6.71 4.09,-7.9 2.34,-1.63 4.4,-2.9 6.21,-5.27 1.09,-1.43 2.61,-4.28 4.28,-4.3 6.71,-0.08 13.43,-0.17 20.14,-0.25"
         style="fill:none;stroke:#646464;stroke-width:3.5;stroke-miterlimit:4;stroke-dasharray:none;stroke-opacity:1" />
      <path
         inkscape:connector-curvature="0"
         id="path1416"
         d="m 825.92,693.99 c -3.37,-1.21 -5.24,-2.37 -8.55,-0.71 -3.21,1.61 -5.5,3.4 -8.93,4.43 -2.61,0.79 -5.81,2.84 -7.97,4.71 -2.26,1.97 -4.26,6.92 -7.19,7.07 -3.4,0.19 -6.74,0.51 -10.12,0.91 -3.88,0.45 -5.31,2.13 -8.57,4.77 -1.88,1.53 -5.3,5.38 -7.55,5.62 -3.61,0.38 -7.1,0.94 -10.67,1.64 -5.95,1.17 -9.9,7.17 -15.31,8.98 -6.6,2.21 -12.45,2.19 -19.23,2.85 -13.48,1.29 -21.59,16.37 -29.89,27.48 -2.27,3.05 -6.58,4.74 -8.43,7.71 -1.14,1.82 -2.84,9.84 -2.09,11.94 1.54,4.36 3.06,8.63 4.89,12.83 1.65,3.79 0.72,8.59 0.62,12.78 -2.61,-1.13 -5.35,-0.64 -7.78,-1.63 -3.41,-1.39 -4.04,-4.08 -7.91,-4.27 -1.57,3.18 -3.43,9.86 -0.75,12.76 3.08,3.34 6.86,4.61 10.21,7.62 -0.96,1.22 -1.97,3.14 -3.16,4.01 -1.16,0.87 -2.99,0.63 -4.1,1.58 -2.13,1.81 -3.99,6.67 -5.07,9.56 -1.66,4.47 -0.68,7.61 0.02,12.44 0.37,2.53 -3.11,8.13 -4.07,10.53 -0.84,-2.35 -1.48,-6.88 -3.61,-7.78"
         style="fill:none;stroke:#646464;stroke-width:3.5;stroke-miterlimit:4;stroke-dasharray:none;stroke-opacity:1" />
      <path
         inkscape:connector-curvature="0"
         id="path1552"
         d="m 480.26,877.99 c 3.46,0.12 6.88,0.49 10.38,2.09 3.82,1.74 6.99,3.21 10.32,5.97 2.68,2.22 4.43,6.74 6.18,10.03 2.66,5.01 3.55,7.11 3.96,12.97 0.25,3.58 2.32,8.62 0.29,11.46 -5.01,7.01 -9.79,14.23 -14.68,21.35 l 0.06,0.22 c 0.11,0.06 0.2,0.13 0.31,0.2 6.36,2.1 15.87,3.49 20.33,9.44 1.29,1.72 3.08,3.36 3.6,5.6 0.69,3.01 0.72,4.37 2.79,6.2 3.52,3.11 7.12,3.28 11.46,4.19 1.69,0.35 2.49,-1.82 4.44,-1.04 2.4,0.96 4.8,1.92 7.19,2.89 3.59,1.44 4.98,6.18 9.04,6.37 3.66,0.17 8.1,-0.33 11.37,1.67 3.63,2.23 7.52,3.97 10.79,6.82 3.47,-2.94 4.49,-5.44 7.13,-9.25 2.59,-3.73 4.31,-3.83 8.17,-4.27 0.59,5.3 1.38,6.36 -1.91,9.94 -2.53,2.75 -4.64,5.43 -6.82,8.57 5.04,2.34 8.52,2.85 13.83,1.27 1.19,-5.96 2.93,-10.22 6.05,-15.09 8.75,4.33 13.17,13.89 17.84,23.28 3.53,-7.68 5.72,-12.91 12.71,-16.29 5.77,-2.79 10.72,-7.26 16.5,-9.99 2.99,-1.41 6.36,-1.86 9.28,-3.44 2.68,-1.45 5.57,-3.7 8.44,-4.51 3.19,-0.9 6.32,-1.83 9.46,-2.96 3.28,-1.18 4.62,-3.52 6.96,-6.52 -2.37,-5.15 -4.36,-8.41 -7.81,-12.54 -2.65,-3.18 -7.78,-5.62 -10.92,-8.39 -2.97,-2.62 3.28,-9.92 4.41,-12.12 2.91,-5.68 2.2,-8.22 -0.13,-14 -0.91,-2.26 -1.64,-4.43 -2.99,-6.35 -0.98,-1.4 -3.42,-3.72 -3.67,-5.53 -0.92,-6.39 -2.84,-8.95 -6.28,-14.07 -2.77,-4.12 -3.74,-8.49 -3.09,-13.38 0.67,-5.01 4.03,-8.09 6.91,-11.73"
         style="fill:none;stroke:#646464;stroke-width:3.5;stroke-miterlimit:4;stroke-dasharray:none;stroke-opacity:1" />
      <path
         inkscape:connector-curvature="0"
         id="path1500"
         d="m 480.98,876.64 c -2.22,3.15 -8.22,1.29 -11.21,0.82 -0.4,-1.99 -2.11,-6.38 -1.49,-8.26 1.66,-5.01 2.02,-5.36 -0.19,-10.01 -2.85,-5.99 -8.41,-6.63 -13.66,-7.8 -0.27,-4.46 -0.51,-8.78 -0.4,-13.24 0.08,-3.29 -6.76,-6.16 -8.6,-7.17 -3.11,-1.71 -5.58,-3.65 -9.03,-3.79 -4.62,-0.19 -5.84,-1.06 -9.67,-4.21 1.07,-6.12 1.46,-8.42 -0.39,-14.23 -4.91,-0.79 -8.91,-0.84 -13.79,0.23 -3.44,0.75 -7.83,7.55 -10.24,10.14 -5.07,-17.32 -20.7,-25.08 -33.4,-33.29 0,-5.48 -0.71,-11.06 0.01,-16.48 0.78,-5.86 1.26,-13.12 -2.68,-17.76 -1.85,-2.18 -4.03,-4.25 -5.53,-6.79 -2.54,-4.29 -1.97,-4.37 -0.07,-9.17 1.1,-2.78 3.03,-3.21 4.98,-5.15"
         style="fill:none;stroke:#646464;stroke-width:3.5;stroke-miterlimit:4;stroke-dasharray:none;stroke-opacity:1" />
      <path
         sodipodi:nodetypes="ccccccccsc"
         inkscape:connector-curvature="0"
         id="path1520"
         d="m 365.58,730.46 c -0.98,-4.6 -1.04,-7.93 -5.28,-9.55 -4.12,-1.58 -6.1,-2.69 -9.14,-6.3 -3.01,-3.57 -5.16,-7.44 -7.92,-11.24 -3.3,-4.55 -5.39,-2.38 -9.77,-3.86 -4.13,-1.4 -8.25,-1.55 -12.31,-3.15 -3.64,-1.44 -6.21,-6.42 -8.27,-10 -1.97,-3.43 -6.15,-4.93 -7.75,-8.69 -1.77536,-4.16981 -3.74575,-8.00655 -4.09271,-12.18828 -0.21476,-2.58842 -0.18936,-1.69195 -0.44729,-2.00172"
         style="fill:none;stroke:#646464;stroke-width:3.5;stroke-miterlimit:4;stroke-dasharray:none;stroke-opacity:1" />
      <path
         inkscape:connector-curvature="0"
         id="path1544"
         d="m 156.94,301.81 c -0.13,-5.51 -0.71,-7 -4.63,-10.02 -2.51,-1.93 -6.03,-6.47 -9.11,-4.42 1.37,-3.72 2.75,-7.43 4.12,-11.15 1.17,-3.18 3.81,-4.59 5.27,-7.48 3.19,-6.32 6,-13.27 10.82,-18.09 5,-5.01 10.12,-11.97 2.07,-16.99 -2.35,-1.47 -6.19,-3.48 -4.73,-7.53 1.41,-3.92 2.48,-7.52 3.45,-11.59 3.52,-14.65 -6.89,-30.54 -15.44,-40.22 -3.71,-4.21 -13.26,-5.22 -11.57,-12.89 0.43,-1.95 0.38,-3.55 1.83,-4.62 1.07,-0.79 2.61,-1.34 2.92,-2.84 0.69,-3.44 0.61,-8.8 3.81,-10.42 5.68,-2.87 12.67,2.39 17.23,5.55 5.07,3.51 9.8,9.13 16.34,7.76 5.63,-1.18 11.48,-7.71 15.5,-12.02 5.09,-5.44 10.31,-10.41 15.91,-15.13 5.54,-4.67 11.1,-9.29 16.77,-13.74 4.87,-3.82 13.35,-4.19 18.96,-5.23 4.41,-0.82 12.88,-7.19 14.9,-12.28 0.62,-1.55 0.09,-3.79 0.52,-5.44 0.49,-1.9 1.59,-3.8 2.33,-5.57 1.34,-3.18 3.49,-5.99 5.57,-8.56 7.47,-9.24 16.31,-16.86 25.05,-24.32 1.23,-1.05 4.98,-2.37 6.49,-2.36 1.25,0.01 2.47,1.19 3.72,1.27 1.5,0.09 3.41,-0.77 4.88,-1.1 5.26,-1.18 10.59,-1.82 15.9,-2.69 2.53,-0.42 5.08,-0.5 7.63,-0.67 2.37,-0.15 4.55,-2.71 6.94,-2.77 3.07,-0.08 4.72,0.25 7.6,1.51 1.98,0.86 3.72,6.01 5.01,6.27 4.52,0.92 10.73,3.16 15.28,2.42 5.81,-0.95 11.4,-2.06 17.12,-3.58"
         style="fill:none;stroke:#646464;stroke-width:3.5;stroke-miterlimit:4;stroke-dasharray:none;stroke-opacity:1" />
    </g>
    <g
       style="display:inline"
       inkscape:label="intl"
       id="layer3"
       transform="translate(1484.3614,10.467993)">
      <path
         inkscape:connector-curvature="0"
         id="path1336"
         d="m 1039.2206,318.65039 c -1.58,-1.28 -3.2403,-2.37984 -5.0703,-2.58984 -3.17,-0.36 -5.7712,2.47015 -8.2012,4.41015 -2.81,2.25 -5.289,2.03844 -8.709,2.39844 -4.02,0.42 -2.9009,4.53039 -5.9609,6.65039 -2.19,1.51 -5.1488,-0.80984 -7.2988,-1.83984 -3.39,-1.61 -6.77969,-3.25008 -10.17969,-4.83008 -2.82,-1.3 -3.99141,-5.0193 -6.4414,-7.0293 -3.04,-2.49 -4.23868,-5.46047 -6.13868,-9.23047 -1.29,-2.57 -4.9,-1.60984 -7,-2.33984 -3.6,-1.26 -6.4307,-2.77922 -9.2207,-5.94922 -2.05,-2.32 -3.72906,-5.37117 -5.53906,-7.95117 -1.98,-2.83 -5.15094,-3.23984 -6.21094,-7.08984 -1.88,-6.83 1.22906,-14.9604 -1.71094,-21.65039 -0.99,-2.24001 -2.98953,-6.58024 -1.26953,-8.99024 1.84,-2.58 4.50141,-5.35 3.69141,-9 -0.8,-3.59 -2.19094,-7.52851 -2.46094,-11.22852 -0.29,-4.11 -0.21016,-8.52117 -1.41016,-12.45117 -0.81,-2.65 -3.02929,-6.63875 -5.52929,-7.46875 -3.31,-1.1 -5.71991,3.36891 -8.16993,5.12891 -5.53998,3.99 -12.10085,5.6607 -17.38085,10.2207 -2.11,1.82 -3.64063,7.17977 -4.89063,9.75977 -2.1,4.34 -3.69844,4.57945 -7.89844,5.18945 -6.01,0.87 -12.71054,-4.30922 -18.81054,-2.19922 -6.96,2.4 -11.19086,6.97953 -16.38086,12.76953 -1.22,1.36 -5.62868,-2.41922 -7.38868,-2.19922 -3.25999,0.40002 -4.99992,3.39922 -7.91992,4.94922 -4.37,2.33 -5.50992,2.49047 -7.41992,7.48047 -1.42,3.71 0.80922,5.63953 1.69922,9.01953 0.0467,0.17686 0.0216,0.39702 0.0625,0.57813 h 7e-5 c 0.31964,0.0899 0.75314,0.061 1.03516,0.19141 0.91718,0.42421 1.64078,1.05984 2.20703,1.88671 0.56625,0.82688 0.97453,1.84469 1.26172,3.03516 0.28718,1.19047 0.4532,2.55336 0.5332,4.06836 0.045,0.8225 0.30266,1.37859 0.67969,1.77734 0.37703,0.39875 0.8739,0.64039 1.39453,0.83789 0.52062,0.1975 1.06523,0.34961 1.54101,0.56836 0.47578,0.21875 0.8825,0.5043 1.125,0.9668 0.76,1.44 1.69985,2.54547 2.71485,3.57422 1.015,1.02875 2.10601,1.98023 3.16601,3.11523 0.75,0.805 1.17438,1.91227 1.54688,3.07227 0.3725,1.16 0.69242,2.37367 1.23242,3.38867 0.87,1.63 1.61492,2.67781 1.85742,3.69531 0.12125,0.50875 0.11664,1.00946 -0.0605,1.57227 -0.17719,0.56281 -0.52766,1.18641 -1.09766,1.94141 -0.775,1.02499 -1.27633,2.24601 -1.83008,3.38476 -0.27687,0.56938 -0.56719,1.11711 -0.91016,1.61133 -0.34296,0.49422 -0.73851,0.93515 -1.22851,1.28515 -0.5175,0.36501 -0.92524,0.80461 -1.2168,1.29102 -0.29156,0.48641 -0.46773,1.01969 -0.52148,1.57031 -0.0538,0.55063 0.015,1.11813 0.21093,1.67578 0.19594,0.55766 0.51907,1.10383 0.97657,1.61133 1.3375,1.485 2.40148,2.68508 3.18554,3.76758 0.78407,1.0825 1.28852,2.04836 1.50977,3.06836 0.22125,1.02 0.15953,2.09312 -0.19141,3.39062 -0.35093,1.29751 -0.99132,2.81938 -1.92382,4.73438 1.205,0.9275 2.14195,1.90375 2.87695,2.94531 0.735,1.04156 1.26797,2.14914 1.66797,3.33789 0.4,1.18875 0.66718,2.45907 0.86719,3.82813 0.2,1.36906 0.33375,2.83547 0.46874,4.41797 0.12001,1.39 0.46485,3.17101 0.71485,4.94726 0.25,1.77625 0.40453,3.54883 0.14453,4.92383 -0.205,1.0675 -0.48539,1.74484 -0.83008,2.19922 -0.34469,0.45437 -0.75414,0.68578 -1.21289,0.86328 -0.45875,0.1775 -0.96844,0.30024 -1.51562,0.53711 -0.54719,0.23687 -1.13219,0.5882 -1.74219,1.2207 l -1.43945,1.72852 c 1.1225,1.3625 2.38164,2.38617 3.73242,3.19726 1.35078,0.8111 2.79312,1.41 4.28125,1.92188 2.97625,1.02375 6.13718,1.70101 9.11718,3.04102 1.51752,0.6825 2.92704,1.50078 4.23047,2.45312 1.30344,0.95234 2.50055,2.03844 3.5918,3.25781 1.09125,1.21938 2.07609,2.57305 2.95703,4.05664 0.88094,1.4836 1.65758,3.09875 2.33008,4.84375 0.4875,1.265 1.05016,2.70735 1.71094,4.14063 0.66078,1.43328 1.41875,2.85586 2.29687,4.08398 0.87813,1.22813 1.8761,2.26063 3.01563,2.91016 0.56976,0.32476 1.17498,0.55396 1.81836,0.66406 0.64338,0.1101 1.32633,0.10239 2.04882,-0.0488 1.7075,-0.3575 3.31641,-0.55679 4.83594,-0.54492 1.51953,0.0119 2.94875,0.23516 4.29688,0.72266 1.34812,0.4875 2.61531,1.23922 3.80859,2.30859 1.19328,1.06938 2.31219,2.45539 3.36719,4.21289 1.11,1.85 1.94453,3.51742 2.5625,5.11524 0.61797,1.59781 1.0193,3.12601 1.26367,4.69726 0.24438,1.57125 0.33305,3.18477 0.32227,4.95508 -0.0108,1.77031 -0.12008,3.69758 -0.26758,5.89258 -0.0712,1.0675 -0.0206,2.04097 0.13281,2.93164 0.15342,0.89066 0.41008,1.69859 0.75,2.4375 0.33992,0.73891 0.76369,1.4073 1.25195,2.01953 0.48827,0.61223 1.04024,1.16906 1.63868,1.67969 1.19687,1.02125 2.57578,1.86359 3.98437,2.6289 1.40859,0.76532 2.84711,1.45211 4.16211,2.16211 0.48,0.26 0.69016,0.98383 0.87891,1.73633 0.18875,0.7525 0.35695,1.53406 0.75195,1.91406 0.43,0.41 1.37656,0.59508 2.35156,0.70508 0.975,0.11 1.97758,0.14586 2.51758,0.25586 0.8175,0.16 1.56555,0.37992 2.24414,0.68164 0.67859,0.30172 1.2868,0.68414 1.82617,1.16602 0.53938,0.48187 1.01031,1.0632 1.41016,1.76367 0.39984,0.70047 0.73023,1.52103 0.99023,2.47851 0.23625,0.86875 0.35676,1.75364 0.38086,2.64844 0.0241,0.89481 -0.0494,1.79836 -0.19922,2.70508 -0.29968,1.81344 -0.90953,3.63781 -1.67578,5.41406 -0.76625,1.77625 -1.68804,3.50492 -2.61523,5.13086 -0.92719,1.62594 -1.85813,3.14922 -2.64063,4.51172 -0.68,1.2 -1.38031,2.40891 -2.07031,3.62891 -0.465,1.1075 -0.76305,2.14015 -0.96289,3.13672 -0.19984,0.99656 -0.30117,1.95812 -0.37305,2.92187 -0.14375,1.9275 -0.17,3.86586 -0.625,6.13086 -0.24,1.19 -0.52672,2.16492 -0.88672,3.10742 -0.36,0.9425 -0.79226,1.85408 -1.32226,2.91406 -0.475,0.95 -0.60836,2.11524 -0.69336,3.30274 -0.085,1.1875 -0.12125,2.3975 -0.40625,3.4375 -0.3275,1.1925 -0.86391,1.98414 -1.49609,2.57226 -0.63219,0.58813 -1.36047,0.97266 -2.07422,1.34766 -0.71375,0.375 -1.41219,0.73984 -1.98438,1.29297 -0.57219,0.55313 -1.01906,1.29352 -1.22656,2.41602 -0.455,2.43 -1.21141,4.87203 -1.53516,7.20703 -0.16187,1.1675 -0.21535,2.30945 -0.0684,3.4082 0.14703,1.09875 0.49477,2.1543 1.13477,3.1543 0.98,1.535 2.44453,2.97304 3.67578,4.56054 0.61563,0.79375 1.17313,1.62571 1.58203,2.52539 0.40891,0.89969 0.66891,1.86805 0.69141,2.93555 0.02,0.98 -0.0652,2.06735 -0.0352,3.1211 0.03,1.05373 0.1743,2.07296 0.6543,2.91796 0.225,0.3975 0.54734,0.71063 0.91797,0.97657 0.37062,0.26593 0.79039,0.48515 1.21289,0.6914 0.845,0.4125 1.69945,0.77782 2.18945,1.38281 0.7,0.8675 1.20797,1.81586 1.62891,2.80274 0.42094,0.98687 0.75562,2.0118 1.10937,3.0293 0.35375,1.0175 0.72617,2.0289 1.22461,2.98828 0.49844,0.95937 1.12352,1.86718 1.97852,2.67968 0.37875,0.36127 0.76353,0.60864 1.15625,0.76758 0.39271,0.15895 0.79328,0.2293 1.19726,0.23633 0.80797,0.0141 1.63578,-0.22633 2.47266,-0.51758 0.83687,-0.29125 1.68117,-0.63468 2.52539,-0.82812 0.84422,-0.19344 1.68758,-0.23718 2.51758,0.0703 0.36,0.9175 0.56578,1.87023 0.69531,2.83789 0.12953,0.96766 0.18212,1.95156 0.24023,2.92969 0.0581,0.97812 0.1218,1.95148 0.26758,2.90039 0.14578,0.94891 0.37508,1.87195 0.76758,2.75195 0.4075,0.9125 0.96188,1.61696 1.60938,2.18946 0.6475,0.5725 1.38656,1.01484 2.16406,1.40234 1.555,0.775 3.26078,1.33383 4.67578,2.29883 0.90375,0.615 1.51453,1.2724 1.88672,1.95898 0.37219,0.68658 0.50492,1.40274 0.45117,2.13281 -0.0538,0.73008 -0.29391,1.47522 -0.66797,2.22071 -0.37406,0.74549 -0.88195,1.49179 -1.4707,2.22461 -1.1775,1.46562 -2.67758,2.87664 -4.08008,4.12304 -1.4025,1.24641 -2.70578,2.32836 -3.48828,3.13086 -1.42,1.455 -2.83125,3.11133 -4.28125,4.70508 -1.45,1.59375 -2.93953,3.12422 -4.51953,4.32422 -0.8225,0.6275 -1.61914,1.09219 -2.40039,1.48047 -0.78125,0.38828 -1.54664,0.70031 -2.30664,1.02344 -0.76,0.32312 -1.51469,0.65781 -2.27344,1.08984 -0.75875,0.43203 -1.52133,0.96078 -2.29883,1.67578 -1.305,1.2 -2.77125,1.95727 -4,2.97852 -0.61437,0.51062 -1.16851,1.08758 -1.61523,1.81836 -0.44672,0.73078 -0.78485,1.61664 -0.96485,2.74414 -0.165,1.0325 -0.1395,2.00726 0.0195,2.94336 0.15907,0.93609 0.45071,1.83211 0.81446,2.70898 0.7275,1.75375 1.74617,3.42797 2.57617,5.16797 1.8,0.01 3.04953,-0.51305 4.23828,-0.68555 0.59438,-0.0862 1.17399,-0.0858 1.79883,0.11328 0.62484,0.19907 1.29476,0.59577 2.07226,1.30079 1.455,1.325 3.10266,2.6214 4.62891,4.0664 0.76313,0.7225 1.49492,1.48078 2.1582,2.30078 0.66329,0.82 1.25719,1.70157 1.74219,2.66406 0.5225,1.035 0.86813,1.93696 1.05859,2.76758 0.19048,0.83063 0.22649,1.58899 0.13086,2.33399 -0.0956,0.745 -0.32242,1.47773 -0.6582,2.25586 -0.33578,0.77812 -0.78055,1.60125 -1.31055,2.53125 -1.215,2.135 -2.22507,4.18226 -3.14257,6.29101 -0.9175,2.10875 -1.74289,4.28016 -2.58789,6.66016 -0.69,1.945 -1.3743,3.90984 -1.6543,5.83984 -0.14,0.965 -0.17892,1.92071 -0.0664,2.86133 0.1125,0.94063 0.3768,1.86508 0.8418,2.76758 0.445,0.8625 0.72797,1.8032 0.92578,2.78711 0.19781,0.9839 0.30945,2.01211 0.4082,3.05273 0.0987,1.04063 0.18421,2.09235 0.33204,3.125 0.14781,1.03266 0.35812,2.04586 0.70312,3.00586 0.36,0.995 1.6675,2.62594 3.125,3.99219 0.66039,0.61905 1.34439,1.14902 1.99219,1.57617 l 3.1875,0.72266 c 0.50342,-0.0547 1.00375,-0.11019 1.50781,-0.14063 0.89,-0.0537 1.77219,-0.0205 2.61719,0.26953 0.995,0.34 2.03273,0.82547 3.08398,1.16797 1.05125,0.3425 2.11602,0.5425 3.16602,0.3125 0.3775,-0.99 0.72336,-1.77594 1.08789,-2.39843 0.36453,-0.62252 0.74804,-1.08188 1.20117,-1.42188 0.45313,-0.34 0.97586,-0.56062 1.61914,-0.70312 0.64328,-0.14252 1.4068,-0.20633 2.3418,-0.23633 0.635,-0.02 1.21211,0.34172 1.73633,0.92968 0.52421,0.58797 0.99609,1.40188 1.41796,2.28125 0.84375,1.75875 1.49157,3.7836 1.97657,4.8086 0.0166,0.0351 0.0209,0.0873 0.0371,0.12304 0.5715,1.23614 1.47554,2.17712 2.47265,2.95704 2.17,-3.5 0.69992,-5.74969 1.91992,-9.42969 0.52,-1.57 2.01008,-2.43125 2.83008,-3.78125 1.04,-1.71 1.61977,-3.90828 2.50977,-5.73828 1.45,-2.99 3.04906,-6.54031 5.03906,-9.07032 2.84,-3.61 4.07143,0.61875 7.52143,0.21876 3.95,-0.46002 3.3886,3.74078 5.8086,6.05078 2.62,2.5 6.2215,1.17953 8.0215,-1.48047 3.78,-5.56 -2.2504,-14.09039 0.3496,-20.40039 1.05,-2.56 2.1895,-6.4893 4.4395,-8.0293 3.21,-2.21 6.1496,-3.90016 8.5996,-7.16016 2.58,-3.45 4.2613,-3.80898 7.3613,-0.95898"
         style="fill:none;stroke:#646464;stroke-width:5;stroke-opacity:1" />
    </g>
    <path
       id="path1300"
       d="m 2466.709,695.92112 c -0.016,-0.0357 -0.02,-0.088 -0.037,-0.12304 -0.485,-1.025 -1.1328,-3.04985 -1.9765,-4.8086 -0.4219,-0.87937 -0.8918,-1.69132 -1.4161,-2.27929 -0.5242,-0.58797 -1.1013,-0.95164 -1.7363,-0.93164 -0.935,0.03 -1.7005,0.0958 -2.3437,0.23828 -0.6433,0.1425 -1.166,0.36117 -1.6192,0.70117 -0.4531,0.34 -0.8366,0.80133 -1.2011,1.42383 -0.3646,0.6225 -0.7085,1.40648 -1.086,2.39648 -1.05,0.23 -2.1167,0.03 -3.168,-0.3125 -1.0512,-0.3425 -2.087,-0.82601 -3.082,-1.16601 -0.845,-0.29 -1.7291,-0.32328 -2.6191,-0.26953 -0.5035,0.0304 -1.0031,0.086 -1.5059,0.14062 l 21.7637,4.94727 c 0.01,0.0161 0.02,0.027 0.027,0.043 z"
       style="fill:#e6e6e6"
       inkscape:connector-curvature="0" />
    <g
       id="mask">
</g>
</g>
</svg>
