<?xml version="1.0" encoding="UTF-8" standalone="no"?>
<svg
   xmlns:dc="http://purl.org/dc/elements/1.1/"
   xmlns:cc="http://creativecommons.org/ns#"
   xmlns:rdf="http://www.w3.org/1999/02/22-rdf-syntax-ns#"
   xmlns:svg="http://www.w3.org/2000/svg"
   xmlns="http://www.w3.org/2000/svg"
   xmlns:xlink="http://www.w3.org/1999/xlink"
   xmlns:sodipodi="http://sodipodi.sourceforge.net/DTD/sodipodi-0.dtd"
   xmlns:inkscape="http://www.inkscape.org/namespaces/inkscape"
   width="645.77179"
   height="669.14368"
   id="svg2"
   version="1.1"
   inkscape:version="0.92.4 (5da689c313, 2019-01-14)"
   sodipodi:docname="Nagaland.svg">
  <sodipodi:namedview
     pagecolor="#ffffff"
     bordercolor="#666666"
     borderopacity="1"
     objecttolerance="10"
     gridtolerance="10"
     guidetolerance="10"
     inkscape:pageopacity="0"
     inkscape:pageshadow="2"
     inkscape:window-width="1920"
     inkscape:window-height="1001"
     id="namedview292"
     showgrid="false"
     fit-margin-top="0"
     fit-margin-left="0"
     fit-margin-right="0"
     fit-margin-bottom="0"
     inkscape:zoom="2.414881"
     inkscape:cx="437.99183"
     inkscape:cy="389.18758"
     inkscape:window-x="-9"
     inkscape:window-y="-9"
     inkscape:window-maximized="1"
     inkscape:current-layer="svg2" />
  <!-- Arial(R) Trademark of The Monotype Corporation plc registered in the US Pat &amp; TM Off. and elsewhere. -->
  <g
     id="base"
     transform="scale(0.26982258,0.34216972)">
    <rect
       style="fill:#f5f5f5;fill-opacity:1"
       y="0"
       x="0"
       width="2393.3201"
       height="1955.59"
       id="svg_11" />
    <g
       id="other_state">
      <g
         id="svg_13" />
      <g
         id="svg_15" />
    </g>
  </g>
  <defs
     id="defs4">
    <radialGradient
       gradientUnits="userSpaceOnUse"
       r="22.837799"
       cy="4.25"
       cx="-4.5"
       id="XMLID_2_">
      <stop
         stop-color="#878787"
         offset="0"
         id="stop7" />
      <stop
         stop-color="#676767"
         offset="0.0827"
         id="stop9" />
      <stop
         stop-color="#474747"
         offset="0.1836"
         id="stop11" />
      <stop
         stop-color="#2D2D2D"
         offset="0.2937"
         id="stop13" />
      <stop
         stop-color="#191919"
         offset="0.4146"
         id="stop15" />
      <stop
         stop-color="#0B0B0B"
         offset="0.5516"
         id="stop17" />
      <stop
         stop-color="#030303"
         offset="0.7185"
         id="stop19" />
      <stop
         stop-color="#000000"
         offset="1"
         id="stop21" />
    </radialGradient>
    <radialGradient
       inkscape:collect="always"
       xlink:href="#XMLID_2_"
       id="radialGradient3564"
       gradientUnits="userSpaceOnUse"
       cx="-4.5"
       cy="4.25"
       r="22.837799" />
  </defs>
  <!-- Copyright: Copyright 2007 Adobe System Incorporated. All rights reserved. -->
  <metadata
     id="metadata23">image/svg+xmlWikiproject India MapGFDL / Creative Commons - Share Alikewikiproject indiaindia mapindian mapwikipediaindiaSVGhttp://en.wikipedia.org/wiki/User:PlanemadPart of Wikiproject India Maps for standardised SVG maps of India.

http://en.wikipedia.org/wiki/WP:INMAP
http://commons.wikimedia.org/wiki/Category:WikiProject_India_MapsAdobe Illustrator CS22007-04-17T17:34:08+05:302007-04-17T17:34:08+05:302007-04-17T17:34:08+05:30256212JPEG/9j/4AAQSkZJRgABAgEASABIAAD/7QAsUGhvdG9zaG9wIDMuMAA4QklNA+0AAAAAABAASAAAAAEA
AQBIAAAAAQAB/+4ADkFkb2JlAGTAAAAAAf/bAIQABgQEBAUEBgUFBgkGBQYJCwgGBggLDAoKCwoK
DBAMDAwMDAwQDA4PEA8ODBMTFBQTExwbGxscHx8fHx8fHx8fHwEHBwcNDA0YEBAYGhURFRofHx8f
Hx8fHx8fHx8fHx8fHx8fHx8fHx8fHx8fHx8fHx8fHx8fHx8fHx8fHx8fHx8f/8AAEQgA1AEAAwER
AAIRAQMRAf/EAaIAAAAHAQEBAQEAAAAAAAAAAAQFAwIGAQAHCAkKCwEAAgIDAQEBAQEAAAAAAAAA
AQACAwQFBgcICQoLEAACAQMDAgQCBgcDBAIGAnMBAgMRBAAFIRIxQVEGE2EicYEUMpGhBxWxQiPB
UtHhMxZi8CRygvElQzRTkqKyY3PCNUQnk6OzNhdUZHTD0uIIJoMJChgZhJRFRqS0VtNVKBry4/PE
1OT0ZXWFlaW1xdXl9WZ2hpamtsbW5vY3R1dnd4eXp7fH1+f3OEhYaHiImKi4yNjo+Ck5SVlpeYmZ
qbnJ2en5KjpKWmp6ipqqusra6voRAAICAQIDBQUEBQYECAMDbQEAAhEDBCESMUEFURNhIgZxgZEy
obHwFMHR4SNCFVJicvEzJDRDghaSUyWiY7LCB3PSNeJEgxdUkwgJChgZJjZFGidkdFU38qOzwygp
0+PzhJSktMTU5PRldYWVpbXF1eX1RlZmdoaWprbG1ub2R1dnd4eXp7fH1+f3OEhYaHiImKi4yNjo
+DlJWWl5iZmpucnZ6fkqOkpaanqKmqq6ytrq+v/aAAwDAQACEQMRAD8A9FYodirsVdirsVdirsVd
irsVdirsVdirsVdirsVdirsVdirsVdiq5Y3ZC4UlV6nwxVbiriQASTQDck4qtjfmvIAgHpXuPHCQ
qpHG8jBUFWOBUX9QEaK8p5HmqlR0ozBev04QLUql9ZoI/UjHEr1A7jAlKaeia0pC569lY/wJ/HJc
2PJVyKXYq7FXYq7FXYq7FXYq7FXYq7FXYq7FXYq7FXYq7FXYq7FXYq7FXYq2ASQAKk9BiqOh0yor
MaV6BT+uoxSjo4o404KKL4eOKpbc2JjDOGFC1ETepJOyjCBaCoNpd2GDSgSdwqbqpHzoSffDfctL
UQu6oOrEAfTkVTm3hWKNQFAanxEePzxSt/vLqh+xCAR/rtUdfZe3vkuQR1XzSpFGWfp2HifDIpSi
7m+tJ6RTjHQrwH+Vt2wg0godGYH05P7wd+nKnf8AriQq/ArsVdirsVdirsVdirsVdirsVdirsVdi
rsVdirsVdirsVdirsVdiqN063cyCYj4FrT3OKUyxV2KqEQM7pcMAIwKwrWv2h9o+9Nhkjtsgb7q+
RSt9OPly4jkO9N8VXYqo2/wtLG32wxcnxVyeJ+inH6MkUBu5h9aPh0qRv4ZFKksMbH0YxSFf7xv5
j/LX/iX3eOS5ISq+gdC6Lu6fFEem46ff0wRO6lpHV0V1NVYAqfY4kK3gV2KuxV2KuxV2KuxV2Kux
V2KuxV2KuxV2KuxV2KqXO5qaRpTtVz/BTkqCN2xLJWhhf3K8WH0b8j92Nea2qxgyU4AsT0AG+2Ah
KslncFk+AgMep7fPAlNoXV4kdRRWUEDwBHTCRShdgV2KoYxtbu0sYZoiCXjDEkGpJKqTTv0FPpyd
3sx5IkEEAg1B3BGQZOxV2KoVnlF7IsaBj6cZJY8VA5P3Abf6MnQpj1VPSuWHxzcf+MSgfi3P+GCx
3JoqqIqKEQUUdBkSUpXfXMczKFU/DX4jiqXrWFljO8bGkZ/l6nifbwyR3Y8lbIpdirsVdirsVdir
sVdirsVdirsVdirsVdirsVdiraqzMFUVY9BiqdQRCOJVoAQN6ePfFKwrJFK8iLzjkIaRR9oEDjUe
OwG2S5oVlZWUMpqp3BGRSpehIrH0peCMSWQgNQk1JXpQ/OoyV96KXQOxDI5/eRmje47N9IwEKF0c
sUoJjdXA2JUg0P0YkEJBXYFUbb4TJCPsxEBPZSAeP0fqpkpd6AquWCkqAWpsCaAn575FLUUiyIHW
oB7HqD0IwkUoU4/96pj1NEAI6Abnj896/SMJ5BA5q2RSgb+5dSI433P2gOv34qhVsrhoy4XbsD1P
yGKqEkYIKOPmOhBGEFCyJmPNWNWjbiW8dgQfuOJChfgV2KuxV2KuxV2KuxV2KuxV2KuxV2KuxVpm
CqWPQYVUw9xJtFERtXk+23jQVP0GmGgiymVtpd1G6yNdEH9oIqgU9uQY42O5NIv0J6/70vx7UVK/
SeNPwxsdy076sWP7yaVx2HIJ/wAmwhx4vJaaFmEB9GWSMkkmrFwSfEPy/CmPF3rS9JZA4jmUByCV
ZTVTTr13B9vxxI7ltdJBDIR6kavTpyANPvwAkKQsnjO00Y/fR9PFl7r9Pb3wg9FIU5tQtkid1cEq
pI68agVCk9AfbrhEDaDIK1uoClw4k9Uhy46GoAFOu1AMiUhUwJSz9K29nassgbjA6wLIFYoasETd
Q1PtCtR16YeLiPX8c2XAQOnzRtoF9EMrB+ZZiy9CWJJ+7pg4gdwxMSNirYqtaONmDFQWXcHviq7F
VjwxPy5IDy2Jpv8AfiqEgsbcm5Tj/uwfF+1/dp3yR5BAULqyMI5hgUrQV2ORShcUOxV2KuxV2Kux
V2KuxV2KuxV2KuxVVtoPWkA5hSu4Q9G9j4YQqYpLBHX906OfthY3YV9ioIw8K2rxyxyryjYMOhp2
PgR2OAikgrsCuxV2KqM39/By2SrUP+Xxoo/4EtkhyKCrZFLsVdiqgLVNuEjrEd/TVvh+g/aUeykZ
LiRSHPxXv1aY+rAAAgqftMGPGQftfCnf7u+VkCRPk2gmMQR1QesDkYIIlAE15aQotNqW7/WXoPDg
hH0Zk4hQ9wP27ONkN/Ej9aZuhgaSaMVVzzmjpuSAByWneg6ZikVuHJB4qB+CupDAMDUHcEdKZNrI
akkWNCzdBQbbmpNAMIFqo/WXSjTx+lG3R+QPH/X6U+gnDw9yLRGRSo2vxRmb/fzcx8qAL/woGSl3
IClqSVhDVoFPTxrtkUpXih2KuxV2KuxV2KuxV2Kr2hlVA7KQrdD2xVZiqpFbzSglFJA6nFVqxu32
VJ7bCuKo6ysWVhLLsR9le/04pR+KqckEUjciCH6clJVqeFVIOEEopb+8g3JaWL5cmXw6CpH44ea8
lSOWOVeSGoBoexBHYg9MBFJBWfWrbn6frJzrThyFa9KUrjwlFhUdFdSrCqnYjAClSgZg8kTHkY6F
W8VYbV9xTJHvQFVmCqWbYAVPyGRJZAWgZJLueOFWpbpOQP3bkvQgsRXivH4QdxkYXLc7BnLhidty
qSQW1rCZPrDW0UYoztJVQvv6vJRg4PM/j3r4neB8q+6kDe3+kx2EbtciKN5aR3MvIFn4k805AGSo
+wUqOnHL8ED0FtWafU7JTD5gsJr2yeVGij06MySSPFNzLyxkMscYQllWvxP/AFrmScMgDX8Xu/Hw
ccZASPJNZfN2kgcrYTX8IVWaezjM8a8vsqWTYMfDt3ynwJD6qj79mwZQeVy926Gt57q6Mkk7x6bG
SfStxdEyr4mVRWMH/IXp45TLwY7A38aH3uRHxiL4fss/cmdnZyli0lxJLD8HEH7LshJ5jlzYDp+1
uR4UyMTua5LPkAeaYYWCj9URf7kmDxEdOJ/2JBWvvTJcXeim3eG2gA6IgCotanbYDfATaUrmupZS
wY/ATsvhTAqjih2KuxV2KuxV2KqdwzCPin95JVUNaUNCa19qZKKCvVVVQqigHQYEpzZRFLdQxry+
L5VwJbazgaUyMKk9R2xVVVVUBVFAOgGKt0A6DFXYq7FXYq7FVOS2t5W5SIHPeoqDTpUdNu2ESIRS
/wBNOHp8RwpThTanhTG0qElrYpGzyxKyqCzu45mg3NSak4RIooOtIGiMrU4JIwZYuvGgA6j5dO2M
jagNalJHHYyvIwWNQC/LowqKp/s/s/TlcxYbMZqVpPf6lP6LanPcHTNPto3eWio1xwJoOXMMiszr
QJxJ8SDtluKJnsOrVlIhuejHNO1TX9eVZtC0gWyVJTWNWdpyKdDCrV4nr9iq5my0+LEfXKz3BxY5
8mQegUO8sm0TywbeWO/1e5bVNZQEC6k2SIMd1hj+ynzpX9WUZc9jhiOGP45tuPDW8jxS/HJMF1WI
6lcWm7rBHE5aNWkId2kDK3EGhAQH6cxDMOUMZU9N0nT7cSzRWywi4lacRUoFLAKWCn7LOFq2wwmR
nvLfu9y7Q9Mdu+up/H60xAAACigGwA6UwsG8Vdviq2RiiM1K8QTT5YqkskjSOXY1JxQsxV2KuxV2
KuxV2KuxVSbe5jHYK5p71UV/HJDkjqq5FKLTVkgjVZqbbKa0Jp0FMIBK2uXXYCaelJvsPgb+IAw8
K2mWRS7FWmPEE7mgrQbnFWopBInIAjcgg9QVNCNvcYSKULsCuxV2KuxVB3+qWlp+7l5yzMtVt4ka
R2BPEbAGgZvhBagr3wE0yjGzSX22qavJAottMPEVRPrEvB+KkgN8CyxkUp/uyp8Kb4zlvyKYwFcx
X4+KhrE6aXps2t65Ibg2u9vBCPRCMxCDgA7Eu1dyWNN6bVrPDhOWQj3sMuYYok/j7WF6T5e1XzXJ
DrWrTC2tDIz2Fo6mVOC1ZpZASvJSwCkkjl7CldhnyjAPCxfUeZcPDjOcnLk5DkOn4r7noS2etzIg
/ScMdvTraW3BytNuLSSzoP8AgM1ZjLqXPEojkPx9iF/R+oG/NhHrN76S25knelsXUyNxi4uYK78J
K+FB0wcHmUjJvdBEabps+ktHBHcmexkJBEyIJQ5BPIyRhA3IinxLWvfBXDXcyJEr23TfLGl2KuxV
ZJNHGAXYLXpirlkjlQ8GqDsSOoriqTzxGKVkPY7H2xQp4q7FXYq7FXYq7FXYqpTGkkTH7IYgkdiw
oK+3b7skORQXGsrsvIqiEA8TQk0B6jem4x5LzWvHHEv7lQjuyrVQK7nf8KnCDfNapUSN1NTIz+x4
/wAAMiSmmQRKVjUEkkDqeuBK7FVks0cQHM7n7KgFmNPBRUnCBaCVG2f94yIG9I8nq6MnFi1SPiAr
WpPtkpBAROQZOxVSlkcAtGUPCvqK54gbV3YA029sIpBU4r6E2Zu5njihXlykLjgApIqWIXASOh2Z
cJuiN0v0k/WtRvbkIRbSSRz2zspVpFMKxg8WowVWjenIb1qOxNd2fc2kcMfMplaHkjyDaKRy8Q/y
SBv/ALI1b6cuk0B595pjn82+dYPL0Ev+4vTFE2oEbr6lfiBoRU0IQb7fFmy05GHEZn6pcnX5gcuU
QH0x5svY2MU9jE08c0gf0YrWJU4heJ+zGORATgDUnYD6M1UsoMtuf2u1jiIibGyYvaWQLyyItN2b
nug7saH4V9zk+ItXCEDpiQSapdXtqSbN4YYo3BPpsyPKzcK9VAdaFfh/HAZWtJlNCssRjaoBpuNi
CNwR7g5GQsUzjLhNqP1EJIrwN6TUZZGI5uwYg15MeoptWuQ8OjYbPFsUd0NcyGCRRHI7yqau7sSD
UdOAov3DCIebE5L2oKLXtwAWaUgDcnoBk2pDPfQOeT3CMfEuP65LhPcjiCraXywy82WQRH9oLWv+
xHxfhjwraOllsryF3jcepGKkEFWHhVTQ79sBFJtL8CuxVa8iJTkQORCivcnsMIFra7ArsVdirsVU
JwXliRSAykyNUVFAKDb5nb5ZOOwQVWOMIDuWJNWY9SfoyJKQFK2QEB3JaZdn5Emjd6DoPbbpkpH5
ICIBIII6jpkEp1bzCWJX7nqPfFLcUvMNUcXQlXXwI/qN8JCAUDd3r2E8sslpLLbsA73cZi4RqBSj
hnV6ClahSBWvjh5qj45Fdar22I7g+BwEUldgV2KpLY+W9M0241C9eV3S6b1JRM59NURakNU8W35N
VvGvWpIItkJEckAtjpsuo/pmajW0MymJpSPSSAR8UcBtgTK3IH+QKey48PHLYbshMxgbO37fsVLv
VpNVMQ0FuaXBaGa7ljcW4CAsKFgPU77Jse5y/wAMY5XP5df2dWkT44ER6b+Xn+hAa21+lzFoltcX
esalMoeWNnFtBBGwI9WV4I4yQWBohb2+eTi4a4yBGPzJ91uNkJvhFyPyr5O0zR49A0NrLSYbiaea
Rf0pqIjHqBQ1JWRXrzZFqFVOW/8AMeuNqs5zS8nJ02AYRfVM9Ne3uFa70dYzG/7ltVuzI0p405oi
OAxVWHErzUK9fh2OU0ytXnt7GPgbuV9TmU1T6wUKL4H041ji5Cpo3Hl70ycYEoJTlGV1DruGFR9O
QS2cVS7UtSeCscNPUaiox3+Jvb264YhBKCJJJJ3J6nAqHWj3DLIhLJRkrQqBXYjfrt4ZM7DZHVXy
CXYq1xXlyp8VKE+2G1bwK2ysgqwKipFT0qOtD0xVbFbXEzJKY2C0rEtD3H2j9GSO2yOaPTTwLeRp
iEehKkmoWg6mmAc0lENaxTwoWT0nKg0HUVHQ4lKGbS5q/C6keJqP64FUH0uWWf0/U+BFrJxLLRjT
iKinav8AnTJDYMVddFjjB9NgCd2qNyfc1wE2kBv9FycPtjn4b0pgSpyaUBPbsX+JmKuQN6cGNK+F
RkhyLEoq7/RtvbBrqSO3hBCiWRlQVPQcmpuciyQ6azpcaiG3Mk0+9LSNHMwP/FiMF9Kp/ak4r74q
stbjW3WSRLGAB5XoJrlleitwHJY4ZUBAXsx+eSkgKGvTa6dE1AGztaG2mqfrUlaem3SsAH45Ashz
W2OuXaSk3tjOkVxwkSaNBIPij2+CN5JaH0zvwHuBg4jt3FmYDeuY/sR7aq8ykWdvKWFeUtzHJbxR
07t6qo7dD9hT78Qa5K2ADGpNd0yW4lSbVry8mhb4o7KOZY0J3NfqwWib0o8hYfzdcsjpskhf0jpd
bsTnxxNfUetXt8kl1bzv5Y0y64PZ3mpX8TA8bxpUWE0G8YnaR0bvUCvv0zJw9lymLkQ4+XtKMDUR
+PihJPPFvrJITR5ry6QkafpHH1LYcgP9JuKf3jEnYFaDx3rmXHR+EPqER1PX3BxZavxTyMj0HRH3
eiX95pXqeY9ee+LBVt9OsOKRk0JCsqIvJqA0HEdD9GFk1mMWMUd+/m5uLSZLBynb5bdfeynS9O0j
RLES6XFHDFecDE0btcy3BKkxqjO1K8akblRuelTmNlzZMh9RbseLHj+nf8fH9CJt7W7YCHVZQsRq
wtohSOTkSzLI5LNId9wOIbf4SNhj8YgPU2zHF6h/YlriOC+njhAgtZWBhtlHFA8Y4MV7VIA2G345
mYSJRsOMZb01BcRzGTgGHpOY25KV3HhXqN+uGGQSuujZkxGFX1Fsot3VrdHFApUGg6DbKTzUIG7v
mYvGlPT6V7nAqWn4rlR1Eakn2Ztl/CuS6MeqrkUrJIY5KFhuOjAkEfIjfCDSkLLfnykBYlVbiqsa
kU36+9cMkBWyKVsciyJzX7JrQ+NDSvyOEilBXYFT5WVt1IahINN9xsRjbIikPbyLFYW5IJJjRVUd
SSooBXDkNEohG3NcOUIktJeBFH/u22PXZXJP0DK+M9xbPDH84fb+pQj1azgtInvJfq4AVGluKxrz
pQgs1ADUHr1+7JSmLQMRrvXDXNIeF5YLyCcJQERSo3xMeKrserNsMYkE7FEoSjzDSanpkEkyXF7b
x3Fec0RlQFNgu4JB7DcjCZA7BHAQLIXxaxpM3L0L2CYpTkI5EcivTZSTvkTMDqyGOR5BFRypIgdD
UHxBBqOxB3GEG2MokGigNZvWgjVIEEt3vKkRPEBIt2Zm3Kr26GtaZOPNiVa108pL9ZuZDc3e4EhH
FEB/ZiSpCDxO7HuTtkUofVtT0m2khjvrmCFA9ZBM6qtOBA5cjTqy4PDMzQFsxPgiZE8Pd82OXfnf
ypaW8y2UA1W5SR+MNrFyBDMW5GTiVCitMzI9nGR3AiPNxZdoUNiZHytjV3+YnmZpXFn5f+rwOOSR
lLipWm7H0zGrfPjmVHszDW8vkaceXaWa/pv3i02kk8+W+kWzTxWum29vBHFRv30zrEnPk3xBQyiM
svQ8tswZDFAcP94P9LX3udEzmeL+7Pd9V9/UfLfZMbvypr+oRC31HVbiS0NPUihijiZgO3N55uNf
YYIZscDccZvzlayxzkKOQV/RjX6GR6Zpg06yjsrC3gs7eP7KqWkqe9dkJJ/mJymeSczZ5/j3M4Qx
wFC6+X61s+lFVaeNyZVU/ugicCBU8FVlfjX/ADrhBkeZUmI5RH2oDUbZUltpb2eZ9JZHEssLtGoJ
4ej6no8CI1HP4hQb/FlRiQfVu2idj0ivx3827CNfrVxJpkKMgNI9Tu5XmIVjRxECXkZPUjaoLoCd
xUb5ceTjhV0/TrawuZrmOQyz3waVn+yiNyHqelEPhjDkgmm7EVcsd8o1OQwh5pjzVbxj+6cmrLIK
Dx5Aq3vsrE/Rmm4iZA9bcmHI91JLFcRTXRgVgfq6l+NfiHI0Xl9BbN5pcv8AC4IxyERIj0m6KNjW
pqegzKlKgyAV+b8ePI8R0Wu33ZjsluKqVueQeT9mVuS/KgUH6aVyUu5AVcilDK9yZZJAecasU9IA
CoHdST1qaHJkCmO662cO0j7qxpWM7EUHVh4nGQpIXNSZ+HWNT+88Cf5foPXByXmq5FLsVVr3R/L9
wkvp21v9ZZ1V5olVZVZ3ALc4+Lg7+O+CIjI9C2EziOoUJbS106Vbeyvbz1VUCCxiC3XAHZeRlR2R
WIPxPIo67imwERdqZkiii7dtcukEN1JBZSAVlFu3qzMD0pzHGLpv/eex74bHJjRq1BtJ0yGa5iaH
6zJIgYyXEsjskTKY3/eyGR0FEP2T3+nDI7CuaYR6nkpWNrb32m2d3qFtHcXUjneaNXZo94gxqPhr
GA7dq5HHEEG2eWRiQAV+lxxXcUHDT1t7FZppLV4QkScVbhG5Q0cGRfiDKOnzy3LhiNr3DVjzS3Nc
00uNK0y4WNZ7WKT0qiIsikpXrwNKr9GVgUkkk2UOPL+ngsRJdgtuxF5d7mgFT+98BgMQyEyEu+qR
6ZfzW4M0ovkeRZ5JWlk9JFIeNjMx+GN3VkPL9ojtuPpkK3Zj1RN0Nu79SUeY/wAxl067h0+CBr3U
ZOIks7ZqMjHbg0hWSrn+VUqPHM7DoJ5AZSPBFws2thjPDEccm9N8kQ63dXOs+ZLH0ZbkxfVNO9Vm
9COMCvJl41MhqWHv4nLJanwoiGM7Dr3tQweLIzyDc9O5mTWVt9W+qovowUACQs0NADX4TGVI+jME
knm5YFMc1W9mtLyG10H6xdXqSqbwNM8sCxVAaJ2ndlDsWUAL8QrX7NawMm2OO+tI1NBu79muNWuG
BmFGsYeIjWM9Y2chmJI6lSvfDz5oMgNgnuFg7FXYqkV9JPHqEGmxy0NzzMTCgMQYsXZafyxKwWtf
iI7Yk2fczG0ff+ilW/jhs4be0tESOGKL0EhX4QkY48QoAI2CUAy3GGqSHiDPCWVxE8G6uenEmpDe
3w5ga8AEE8izx2dgg49dhmHqSK0L/F6EbENQA8TI3EnjWu3LtmFiwG+KQ9LsRgF8MSJd9fcoxSwP
eKyFWk4lZXBBop6V9+QH45ssUwDbXn0lkHcfcj4WFStanrtmRLIDsHEOCURZVMg1qU37ysA7geof
BTUfeaEZIbboPcq5FKnJKQeCANKdwteg8T7YQFJbijKKQTViSxIFBv4DfElQHSQxyEFl+IfZYVDC
vgRuMQSFIXKoUAAUA6DAreKuxVB3N9r0hkis7SKWS2lR4Zp5irPzNAOKq/whiOrKdunQlI5Eef3M
4Ebgnn+tdd+ZtN0HQbi4MU3rW0giuUlA9U3DgGsjAhXLAhvgNKdKDpLDCWWXDHn9yMpjjjxSO3l1
/Hmwa183fmFrmoerolq31ZXLLGEUrvsRJOwTr3+IewAGbWWh0+ONTO/f1dZHW55yuI9Pd0Tm28v/
AJlaxNNHqlxHo9nKKTCL05WkXeifCzsy/ER8b9PHKjLTYx6RxHzbf8IyH1HhHki4dQ856C0Iezh1
62mjVo54SIbuhWvEpVyQvHstPfKsUMWSA34DXwbc8ssMh24hZ96Gn89efLxZIbDy69nJyC+tcByE
5Gg+2sa1/wA6ZeNJhjuZ2451OWWwhXvRn6L/ADLls3U+ZLNpphxjCxou/fjIkakH/YnIeJpwfoLP
gzV9QQ2m6P8AmPpWrvdTajDqdYxGLSaaWkgO9VUIQpUj7TCnvgzajTyjw0QfIC04tPnEuKwR58lX
WNM/MZrc6hJcW5mjikQwWaM0ypJKjkIGBV+IQVC0YgbcjtmJxwErjHaup/QP1uXwkwoy3voP0nu9
yp5Z8uJYWdrf2NjP+k+TjUGlZVkZasCU9UceRK1CnpUhjXcRnq5z52R9n6Ex0sYdw+/9P2p62q6+
4kittOmEyj4HuUhRKmo+J0nNaU3KochxjuLLwz3j8e5RTRPMd7bsbzWZrRnJpFaokdB0PxMJHq3s
1B2piJX5fj4pNR5bn8e77VlrZ3Gh2UkQpLYQuGlkahmiNRIJGZET1Ywxq1V5Dc1bJTjYoMYTo2U7
hvGuqLERGKcvUBVww8YiCQR7n7t8qsk1y/HRs4QBf1fjr+PiqKZYZ442kaVZQwqwUEFRUfZC9q/5
1x3BrmpqQJqqRGTanYqkmnUuPMWqXbVKWqx2sLGtENOcy/TRG+73wR/H3M59B5ffuhppGklZ2NSx
rmUBTQgfrlzLa8VheFTJ8ZcoR+7f2J68fDNfqDxgEit2/LEYrqQO3S+o/asgYyxxwTDksJ9NSKrt
0G6kfsnfI8VHbq4+DNMER8wh3tore+t5YyyeqfSk3ryAViq71b8dqZI1zrd3wJ5WaTS3YCTfvsMM
Tu0Z43EorLnWKcsIZg/NoyoIJWm4671ByQKCFJbtByUt6vH7DrQhj/LUbcvbCYo4laKPgKtvI1Ob
eJ/p4ZElkAvwK7FXYq7FXYqkHnHX30PTjdQ0NxODbxoTtVt+RHcKAfpOZmjw+JKug3cbVZvDjfVD
+T9EvfNE0XmfzCY5YqsbOyWMKhZaIZX/AJvsUANenhl2onHDcMexPMtWCMstTny6B6NSgzWueo3E
jKoSMgSyVCHrTxYjwX+zIyPQc2cB1PIJa1t6FistufTMtxEaN8SsGnUKzA7147mhBJ674mPD9LKM
+P6t0XMl7JILcyxcWUtLSNulQAD8e3Lf7sIEhvY+X7WJMOVH5/sXtaySlhK0YVxxkKJR2H+sSaf5
74PV3puI5D5tWEVvF6yW6qsSvReNOvEV3HXfJmIDWZk80XgVQtdvWj/klbfx5/vP+N6ZCHUef7Wz
J0Pl+z9Cvk2tSnm4gpGQZ2B9NO/zI8MkB8kEtLar+89R2l9RQjc+I+EV2+EL/NjxLSRXNq2myxzU
YQKVa5EcjqgSvGSZQnHjQMDIn2f2gfhYMJnax0LPH1B6hOmtIiU9NaxMfjAJpShIdd9mrTcYmpDd
iCYnZZcm3s4xJJe/VYiQqmZ1Klz0HKWrb+AbK+HuLZx3zA+77kPquo3mnwBgIrieZhHbwisbM5IA
oCX5AVq24oMjKUoi+aYiBPUfb+prRIlg0KGOQkzurNckkFjNIxaWtO/MnIQ1EeESKc0KmQOX6OiT
3NwY0PprWQ/DHXerHp0y3Jnl0crDpI9VG4cxwhEBYRDiBShZugrQdSdspAMiA6nU5OOZICL0Kxii
R6qAyk1TsGclmO/vXMXNLg+nZuhklklxSNyGy6OMX13csVKJat6MNQAC3EFyKVrvQVyGPOY87/H4
+9z74AN7v7Px+pVS2MNOdOR75sMMoyFhpz5r2HJdlziqM37xxBU8SC0tO69ONe3I/qyQ23Qe5VVV
UcVAVfACg3wEpbwK7FXYq7FXYq7FWBeebFbzzFpNheXno2N27cZCoLRMeKkA7fCxC9ehrm20M+HH
KQHqDrtZDinGJOxep6Zp1tpun29hbAiC2RY4+W5IUUqaU3PU5rMkzKRkeZdhCAiAB0VppRFGXIrS
gVfFiaKPpJplcjQbIxs0hI/9IbfkyyL+9k4sq8QRRE5AbNU1P9lJRjw7nmiU72HJvUgZYpYeihK/
6ztURqPkwr92Rn9J82WL6x5KqIjX8koFSkax8h4kliP1ZM/S1dURkWSibOEkkF1qa0WR1FfkGAyX
EUU1b0SSSFalEoyncgcq1Wvt1+nGXeodbMDLdUINJQDTx9NMqjzPv/QG2fKPu/SW2nYuyQqJHXZ6
kqq7Vpyo2/tltd7VbdtCYkIYguzMzsopUsSfE9OmCRtQFRmVFLMQqqKsx2AA7k4EqMUbyMs8hZe8
cJoOIIp8W1eXiK0+6uSJrZASeys5RqN7bWd5NZ6dbmOKKGMxOPXKmSUKJo5CqhHjoqmg32GVxHNt
mdhfNGtaW9s/1nULyS5ChkiFx6QVeYo3FI0j5MQKbgmlQOpyVNRICV2f6Fjc3EVtDaO/SOOILxHu
VUVOYOp4pGh9KI5Y8yqS3VuPUkiuWip8XAhQhPj8Sk/cRmNDSyMubk4tRCRESGMfpqZdXlhnt2eK
JAVlRWB+IMS/pnfh8PAtXY+xbjnmNbyLsROzwxBr8e5NZ5boq08cK+nEpaFJH4FmC05Ns1NtuuZ/
DwQPDvJ08ank9W0Sfxs02pzyon1AEySKrPKKlVT2qVBO+3bK/Chk5oMOA2U402RGgAQARKAyfI77
/wBcwdbpRGuEb3TKEyea6WTm3sOmW4cQgKUm1PLmKlbbwq5+3J8Tn/KI/wA6ZKXNAVcil2KuxV2K
uxV2KuxVgFzqMeq/mPpMSQtItlM0MiKOZBjkYFzQbAEV9hvm3x4zDTy/pOtnkE88fJ69modmoMQb
s8zRYIw4r0q5YEn5BfxOQ5ybOUPefuVYzGUX0yClPhK9Ke1MsLWhJqzSqakJ6npxAEjdSfUao3Gy
kD+hyMNyT3M57CupRiIiKFQBVHQDYYSWCkbuPkVVXdgSPhRqVBoRyI4/jkuFFrTPOwIWIxEbl5eP
EDx+FjX5VGNBbWWs80k3EyRzRAEmWNSAGqKLXkw6VwyApAKT6D5ZFhFLJbXTg3ZD3Ebc6eotQzEq
6t6lSQ7V3oNtspjI1YpvmIgkG/mm6O1q4twjTKQWQqFDDf4uf2V77Hv+tMiDR3UQBFj0otHSRA6G
qnockDbWQQaKCinguZw0qkAf7zJItAwoG9Ra9TQ/MZaQQNmANo7K2ST2dr6er6jbq5UM0N+ki05B
pleFlPIEH+48O+CBokM57gH8bKetWFxtceo0yIKHnx+Gp7BQo3yGWz7nFyxPNI5y/AIh4tISof8A
l2Jr+GUAWC1QkIyBIvyT/SNEsVtIZZo2kuSvxyyE8ielaVoK+wzIgPSA5Yri4wOH9Cvd6XZSXEAV
OD/Fy4fD8HEiv/BFcEoiw5UM0hE7/wBv4tCv5csY2ShZySFgRzzCmhJPxcugFaCnSmXREe7l8WiW
WR68+7b504WImLzqwSqqwB/338RjO3+TRfoxxT9Nnrv+PgjKPVXdt+v7UMLOFSStVc9GUkUruaDp
ud6ZOWUlrEVrWzKnJGZpQwfd2APxcmFK09siJJpuSZXh+BiDzVGHRhVgCPEGhxAoqSrKqooVRRVA
AHsMiSlvArsVdirsVdirsVdirE/Il5w1vX+MSbX0rR3FBycO7VQt3AC1HzzYayPoh/VcLSH1T/rM
9h1ME0lWg/mXNe5yHnv7RtQMTOeEkamT4WIKLzqCadKuuQEhGRJ7m3gMoCu8pk91bR8fUmROQqvJ
gKj2rhMwOrEY5HkChoUjuI51UkIsrGGQVBBZQSyttX4nbp8scUudcrTmjyvnX4+xXimfk8cwCugB
5A/CwaoB36fZO34nLCO5qBWQyxxMYXYfE7MjAih5MWp7HfE77qFszT3MUscUa+m3KMyO1DUEqxCg
NUAjuRXCKCDui8gyQzSJayyPKwWGU8vUOyq1AtGPYGmxPf6MrvhO/ItoBmABzDVnLFLNcujrJR1U
MpB+EICBt/lFsYEEmlyRMQARX9rSWsElxcMUoQ4HIVVq8AT8S0NDy6ZOEiCWMxsPd+lVuDbRw8Ja
BCKKnQkjcBR47bUyYslrNLYJwlgk9wTGEiDzNJsV4rVi1fDGXMqOSXwzI+vtJbSCYugS5RDULD6Y
kgkJqQBzLqo/a5k9FOVR5ltlyH46/wBiYXYeZGtoyFZ1PNjuFU7fecmY2GmW+yT2WjONUpOA8cCF
iRupLkcQa/In/byuOOhu0xx+rdkGWOQh7dlYS3LGiufhY7UjTYH5HdvpyEN9+9sybUO5y1ll9Zqr
DGP3daCrbgv8qdPp9stOwahuUFEspsSqqSR6SsO4URIafQTkI/TH3M8n1y96FwsFOWUqyoo5SPUq
pqBQUqSaGnXJAKStig+MzShTMdttwoFaAEivfc4mXQckAK2RS7FXYq7FXYq7FXYq7FWNeSrmO90B
Z4IhHKtxIZD05sWqWJpuSj0zN1kTHJRPRxdLIShY72RxSpLGsiGqsKjMMijTlA2hZyYZvXZGKhxV
1FfgZQvGg+L7XxdMjPoe5nj6jv8A0fj7VZZ41r6MbknqFQrX6W4j8ckMYHcGJyE87KpFcBqqrFWH
2kNVI96fxxIpAK2b1zKJVPOikFWO/Wvw/PvX2wgiqQVK4uIeKEsBR15I2x6jrXpSoOGMSglWtLiS
skkUjKrmnAEilO5HYn9VMEu5IVVv5JlZVmLBCUYA0II7HIsljsoVi5+GnxV8MBUA3s3ZXstnbkt/
d1JWE/sg7Ki+/Tbx6YMcWeWW/wCN1W1uraeeV7uMKZCG9OT4vTooUkVFCKLUsOnfbpM3HcckD1gD
+Ifj5oua802yhFwZPUaWqwKHMjyH+WPkx+nsOpoBXHi4uTEx4Tug30h7xI4r2ab6xPEXvQk8yIC1
AY0SN0j4ipAqp6b1O5rkTdBsiABZR9na6bp1oq2kKxW53/dJsa71+Ee+TjCtmMpk83LI5tZJk2e6
+KBVNTVkAXw/lqfDLK3rua+iKjjjjXiihR1NO58T75Am2VKd2SYxEpIaZhGCNjQ7tQ9iEBplc+Vd
7Zj533fj71IUcF5GVLWJiFT7P92aVY1pQEHbLSRENYBkVx53QpRo7Y/aJoDIPChqQp+g5T9Xubdo
f1vu/aieK8i1ByIoT3oOn68sakmvWT6xIw2UHc9Og3xQg4PjLTHfkSE2p8AJpT59clLuQFbIpdir
sVdirsVdirsVdirsVYf5G1qFJJ/LbxenPp7SrG6/ZdUkIavg1T9ObHW4TQy3tKnC0mUWcfWLLGhJ
YskjR13YLxoT0/aBzAtzaUJpjHWKQi4DCjRqP3nEj+UdfwyMpR5FnCE+Y/UqWU4mtkepLAcXqCDy
XY7GhyMOQTkFSNKskUUgAdQ1OlR0Pt4ZMEhrIWejN09ZuPbZeX0kg/qw2O5FN25LRhzuW6N3Kgni
T8xvjJQ1bfYcdGEj8h3+0SPwpjJQh72yU8riO4ltZKVkaDgS9BQVWRXUnsNq5EyoWzjGzShYLfNP
cQXM4klt3UoWShMbqCrfCVQnlyXlx6jp2wADmUmXQckb6ltbTwtNG91NI/CJFCmRiVOy14KtBUk1
GTMmAC22ttcvb68AktLNLG4jRYvTluTyEUc5PqF7eo/eD9jIAno2cMaFqej2+tE6pIsFpdyTXE0R
vHeS3lIU8SnHhc/ArV4Dn098hAkE+9sycJA5jb39SioNZ1N7iUXWjTtLErxqLaWBkZQ3F2RpJIHY
EqP2du9DhF/UiQAHCD3H8fPvRNvqd9LALb9GXUEojTk7fVwAGqCVpKSD8JpUZPi61s18HSx9v6ld
b2B5oxHG7JboaxojHjKRQJUDjyUcgattXAMorrZZHCb6V7/wUR/uRTi7lJaUDxRjjsQakFiakGnc
bZD1Ddl6DsNvNK/MWparDpzPYWZ/SCEvCspUgBa8jRC1aqae1a9gCDPlYIZRxc6IPzTGytZzFHNf
Gty4SSeFSDEkoUA8dqkLTap9+uT4b5tXHXIUjckwWTyGOF3HVRtXFWO3MyyckH7yZjUqpFQetT4C
uTiOrElVWoUVNTTc9N8glvFXYq7FXYq7FXYq7FXYq7FWB6Jbi0/MzU43G80UkkR/4yFJKj8Rm1zS
4tNHy/a67FGtRL3fqZvI7tJ6UZ4kAM77EgE0FAe5oc1BJug7WIAFlfHGka8VFO5PcnxJwgUxlInm
sPwTg9paLTwZQTX6Rk+YYdVXIpcSAKnYDFUNDKFtlEfxseSwgb1CkgGvhSlTkyN92IOyvFHwTjWu
5JJ8WNT+vIk2yAU5ameJWH7s1I93G4B+gE5XLmO5tj9JI5/oQuoSLZXMeoElYaGK+ehZViVXdXNO
nB+/gxr7Ta0Toyveaql9Ihjt0jaO0VwQ7ByGd2U/ZrwTiDuN69aBVG+Uhz0Zbwg+pfSSXLkmpIZu
Mdff01WvvgDKfOl3l6RhFLaOf39s3+lAjifXkLPK4BpVJGPNCBShp2oIx5llPkD1RUVURJx8Q5yq
B4rLLVSp99qdsli5V+OqM31fAfcGnYsLpVJBlkEUbgkHdFDFSP5PiO3gct7mrvRcMSRKQtSWNWc7
ljSlSfoyBNpAX4EoaCJJY5jIORlZ43/1EZkC/Kn8criLBttnIgiulfrVLd2PqIx5NE3Dn4/CGBp/
sslEsZjke9VyTBK7+4EkgVDVV2J8TiqX2v8AcIe7Dk3+sxq34nJS5sRyVcil2KuxV2KuxV2KuxV2
KuxV2KsD1DUY7f8ANC18GiS3f5yKeP4subXHjvSn5uunOtQPdTNoDzkkm6An01HtGzAn6STmnjuS
fxs7aewA+PzVsm1LZI1kQqe/QjqCOhGEGlIahdnSrdQWU0/yWI/hiQoWzsCPRFGeQUp4KdiTSm2G
PegtRgidgTyKxoOR9y1fvpieSjmrZFKF1G5toIA80oiYmkBP2jJTZVUVZif5QN8hPk24rvlY6rbK
2uNbCvJEYNPA5elLs0xI+Hmo+yn+Sdz3ApQyibFsZx4SR3JlM9zA62Fow+u3FGaWlVhjNRy3FC54
txB8D1pQiRpYRv3IvSre3sNGt4kqIYYgdyWNCOR6798lL0/BRcj70HKskGoW9Pgnurab12XvIZoF
Uk/tCMytxr0GV7iPmf0tlgz8h9w/WmUqVMdvFRVUc/EDhTgD/st/oy6IADRIklC2s8dYBI9TVnNA
QPVkPTvTjzoa+Iw5JAfFYQMhY6It5Z3keOAKvpmju4qCSAeIAIPQ9f19qSSTQbREAWeqx7m79N+F
pJ6gB4VMXEtTb9sGlcBka5fd+tkIRsXIV8f1K8MQijVF3A6k9SSakn3J3ycRQa5Ss2sMcsTFoaMj
Es0TbbnqVb38KZGiOTKweay4uU+qsw2Y1TieoboRt4ZIG2Eo0lOFipRgxyelXkrAup79fir/AMFk
jvugKuRS7FXYq7FXYq7FXYq7FXYq7FXl3m++0yTz1aSLKUS2eFL2Ug0Vo5KtTuaLm80kJDAR33Tq
NTOJzDyq3pRJR/WjHqQyAFuFDv2ceNR1p7UzQEGJd5EiQq9+ivk2p2KqcKspkUj4eRKHxDbn/hic
kVC2YSiZDGPtKylj0B2IJ+44iq3QV8cfCpLF2PVmpXb5AYCUgJDNozy3Md1LHJJI0063CLI0dYHm
HpklGXkERBxT3J9jXIXs2wNWWRWWg6daqLqCxijbi/L0Y1RyKVAHEA7nDQAsBFmRAJTPT7NrSH06
8uKqBTvxWh8O+MRQpEzcie8rbKyaOaS5m3nlJLE0rvQdthQKAAOniSScABJsspEAUGrFXcKkm6Wt
UU0+0yOyBj7hVB+nJTFyYxNR83ajayS3WnzRoWEM59ehAPpMjeJFQJRGxHtgkLpMDV+5UnWf63H6
NVEqFJZKAhQpBU7992A+femSkdqYxAuyp2WmwxWcaHmJOKlmZizBgQxIDVA+LwGCcQSWUchAREES
QMymVneVuZ5kVrQDagG22CMaWc+KtqpWyTB2KuxVKtQYG4IXbYcqdzTrTxptgpJPRAztMoT0gGJY
Bga9KHw6ZMV1YlqCERoCwBmI/eOOpPfc79cZG0AKuRS7FXYq7FXYq7FXYq7FXYq7FXk3mK//ADLv
/wAxb/RNE+p2tlEkbWl3qOk3EsLD0I3cC8X90x5s1Bt0pkhOQ5FBiCnfkHXPOeu6G09/BLb3trPJ
a3BlK2CSMlGEkML2l03plXABMhqQciySiLVvzg13XdYttBmttJstJmFsf0xaSSGZxyDSW88SwJLG
StQfTFKjFVTULX/nICysLm8Os6JOLaJ5jBBY3Dyv6aluEa8xydqUUeOKp7+UvmLzN5g8rNf+Yonh
vvrMkaLJaPYkxKqFT6UjOaVJ+KuKs0xQ7FU9RAI0BFSoA/DFK7FXYq7FVOD7Lf67/wDEjiqpirsV
diqB1JWUxzKaFTQfPriqhJqNwwoKJ8v7cVVE1NljAZeT9z02xVER38Lxs3RlBJQ/wOKpW7s7lm6s
anFC3FXYq7FXYq7FXYq7FXYq7FXYq7FXYqmv+47/AIr/AAxS7/cd/wAV/hirv9x3/Ff4Yq7/AHHf
8V/hirv9x3/Ff4Yq7/cd/wAV/hiq+P6ny/d8OX+T1xVW29/xxV23v+OKu29/xxV23v8AjirS8OPw
/Z7UrTFW9vf8cVdt7/jirtvf8cVWS+hx/e041/a6V+nFVH/cd/xX+GKu/wBx3/Ff4Yq7/cd/xX+G
Ku/3Hf8AFf4Yq7/cd/xX+GKu/wBx3/Ff4Yq7/cd/xX+GKu/3Hf8AFf4Yq7/cd/xX+GKu/wBx3/Ff
4Yq7/cd/xX+GKu/3Hf8AFf4Yq7/cd/xX+GKu/wBx3/Ff4Yq7/cd/xX+GKu/3Hf8AFf4Yq//Zuuid:86BB6882BDECDB11B7AFF0C2772D9202uuid:64344DBFDBECDB11B7AFF0C2772D9202uuid:5d00a428-e653-4a58-be2d-9de8822e3f7cuuid:3F8BEF02D2E9DB1195549F4E8343323FFalsehttp://commons.wikimedia.org/wiki/Image:India_map_blank.svg#LicensePermission is granted to copy, distribute and/or modify this document under the terms of the GNU Free Documentation License, Version 1.2 or any later version published by the Free Software Foundation; with no Invariant Sections, no Front-Cover Texts, and no Back-Cover Texts. A copy of the license is included in the section entitled &quot;GNU Free Documentation License&quot;.

This file is licensed under the Creative Commons Attribution ShareAlike license versions 2.5, 2.0, and 1.0http://en.wikipedia.org/wiki/User:PlanemadUser:PlanemadSVG Maps of IndiaIndiaWikipediaINIndiaChennaihttp://en.wikipedia.org/wiki/User:Planemad<rdf:RDF>
  <cc:Work
     rdf:about="">
    <dc:format>image/svg+xml</dc:format>
    <dc:type
       rdf:resource="http://purl.org/dc/dcmitype/StillImage" />
  </cc:Work>
</rdf:RDF>
</metadata>
  <symbol
     viewBox="-11.31 -11.31 22.61 22.61"
     id="New_Symbol_1"
     transform="translate(-1119.7039,-843.77829)">
    <path
       id="svg_1"
       d="M 10.81,0 C 10.81,-5.97 5.969999,-10.81 0,-10.81 -5.969999,-10.81 -10.81,-5.969999 -10.81,0 -10.81,5.969999 -5.969999,10.81 0,10.81 5.969999,10.81 10.81,5.969999 10.81,0 z"
       inkscape:connector-curvature="0"
       style="fill:#f36f5f;stroke:#ffffff" />
  </symbol>
  <symbol
     viewBox="-9.75 -9.75 19.5 19.5"
     id="New_Symbol_10"
     transform="translate(-1119.7039,-843.77829)">
    <g
       id="svg_2">
      <g
         id="svg_3">
        <path
           id="svg_4"
           d="m -9.75,0 c 0,-5.38 4.37,-9.75 9.75,-9.75 5.38,0 9.75,4.37 9.75,9.75 C 9.75,5.38 5.38,9.75 0,9.75 -5.38,9.75 -9.75,5.38 -9.75,0 z"
           inkscape:connector-curvature="0"
           style="fill:url(#radialGradient3564)" />
      </g>
    </g>
  </symbol>
  <symbol
     viewBox="-1.67 -1.67 3.33 3.33"
     id="New_Symbol_11"
     transform="translate(-1119.7039,-843.77829)">
    <path
       id="svg_5"
       d="M 1.67,0 C 1.67,-0.92 0.93,-1.67 0,-1.67 -0.92,-1.67 -1.67,-0.92 -1.67,0 -1.67,0.92 -0.92,1.67 0,1.67 0.92,1.67 1.67,0.92 1.67,0 z"
       inkscape:connector-curvature="0"
       style="fill:#221e1f" />
  </symbol>
  <symbol
     viewBox="-16.15 -16.15 32.3 32.3"
     id="capital"
     transform="translate(-1119.7039,-843.77829)">
    <use
       id="svg_6"
       transform="matrix(1.6566,0,0,1.6566,1854.9015,1397.8031)"
       y="-9.75"
       x="-9.75"
       height="19.5"
       width="19.5"
       xlink:href="#New_Symbol_10" />
    <g
       id="svg_7">
      <g
         id="svg_8">
        <polygon
           id="svg_9"
           points="9.33,-12.97 0.04,-6.29 -9.21,-13.04 -5.72,-2.14 -15,4.58 -3.55,4.63 -0.04,15.52 3.55,4.65 15,4.68 5.77,-2.1 "
           clip-rule="evenodd"
           style="fill:#ffffff;fill-rule:evenodd" />
      </g>
    </g>
    <use
       id="svg_10"
       transform="matrix(1.6566,0,0,1.6566,1854.798,1397.5961)"
       y="-1.67"
       x="-1.67"
       height="3.3299999"
       width="3.3299999"
       xlink:href="#New_Symbol_11" />
  </symbol>
  <g
     id="districts"
     transform="translate(-1119.7039,-843.77829)">
    <g
       id="as">
      <path
         style="fill:#ffffff"
         inkscape:connector-curvature="0"
         d="m 498.07001,1152.16 c -0.73999,-4.9 -2.98001,-11.3399 -4.39002,-17.61 0.01,0.04 0.02,0.07 0.02,0.11 1.28998,5.7701 2.67999,11.7799 4.37,17.5 z"
         id="svg_22" />
      <path
         style="fill:#ffffff"
         inkscape:connector-curvature="0"
         d="m 493.62,1134.28 c -1.38001,-6.25 -1.88001,-12.31 0.79,-16.48 -3.02999,4.67 -1.92001,11.32 -0.79,16.48 z"
         id="svg_23" />
      <path
         style="fill:#ffffff"
         inkscape:connector-curvature="0"
         d="m 495.04999,1116.92 c -0.15,0.1801 -0.28,0.38 -0.41001,0.57 0.13001,-0.19 0.26001,-0.38 0.41001,-0.57 z"
         id="svg_24" />
      <path
         style="fill:#ffffff"
         inkscape:connector-curvature="0"
         d="m 495.82999,1116.0699 c -0.28,0.2701 -0.54001,0.5601 -0.78,0.85 0.24002,-0.2899 0.49002,-0.5799 0.78,-0.85 z"
         id="svg_25" />
      <path
         style="fill:#ffffff"
         inkscape:connector-curvature="0"
         d="m 498.29999,1154.28 c 0.10998,0.05 0.22,0.09 0.32998,0.14 l -0.37997,-0.8399 c 0.02,0.23 0.04,0.4699 0.05,0.6999 z"
         id="svg_26" />
      <path
         style="fill:#ffffff"
         inkscape:connector-curvature="0"
         d="m 494.64001,1117.49 c -0.07,0.1 -0.14999,0.1999 -0.22,0.31 0.06,-0.1101 0.13999,-0.21 0.22,-0.31 z"
         id="svg_27" />
      <path
         style="fill:#ffffff"
         inkscape:connector-curvature="0"
         d="m 498.98999,1155.23 c -0.08,-0.25 -0.14999,-0.51 -0.23001,-0.76 -0.05,-0.02 -0.09,-0.04 -0.13999,-0.06 l 0.37,0.82 z"
         id="svg_28" />
      <path
         style="fill:#ffffff"
         inkscape:connector-curvature="0"
         d="m 498.29999,1154.28 c -0.01,-0.23 -0.03,-0.4599 -0.05,-0.6999 l 0.37997,0.8399 c 0.05,0.02 0.09,0.04 0.14002,0.06 -0.23999,-0.76 -0.47,-1.5399 -0.69,-2.31 0.1,0.73 0.18002,1.44 0.22,2.11 z"
         id="svg_30" />
      <path
         style="fill:#ffffff"
         inkscape:connector-curvature="0"
         d="m 493.62,1134.28 c 0.02,0.09 0.04,0.1801 0.06,0.26 -0.02,-0.08 -0.04,-0.17 -0.06,-0.26 z"
         id="svg_32" />
      <path
         style="fill:#ffffff"
         inkscape:connector-curvature="0"
         d="m 1811.1,565.48999 c -0.83,3.66998 -4.02,5.19 -8.8101,6.52002 -0.1899,0.05 -0.36,0.12 -0.5399,0.17999 0.1799,-0.06 0.35,-0.13 0.5399,-0.17999 5.7901,-1.60004 8.1402,-1.86999 8.8101,-6.52002 z"
         id="svg_43" />
      <path
         style="fill:#ffffff"
         inkscape:connector-curvature="0"
         d="m 1810.99,560.22998 c 0.17,0.90002 0.27,1.72998 0.3199,2.48999 0.01,-0.27002 0.01,-0.54999 0.01,-0.83002 l -0.3299,-1.65997 z"
         id="svg_44" />
      <path
         style="fill:#ffffff"
         inkscape:connector-curvature="0"
         d="m 1801.14,572.44 c 0.09,-0.04 0.1701,-0.08 0.25,-0.11999 -0.09,0.04 -0.17,0.08 -0.25,0.11999 z"
         id="svg_45" />
      <path
         style="fill:#ffffff"
         inkscape:connector-curvature="0"
         d="m 1801.39,572.32001 c 0.12,-0.05 0.25,-0.08 0.37,-0.13001 -0.12,0.05 -0.25,0.08 -0.37,0.13001 z"
         id="svg_46" />
      <path
         style="fill:#ffffff"
         inkscape:connector-curvature="0"
         d="m 1801.14,572.44 c -4.13,1.81 -5.5799,6.33002 -7.72,10.04999 2.13,-3.71997 3.58,-8.23999 7.72,-10.04999 z"
         id="svg_47" />
      <path
         style="fill:#ffffff"
         inkscape:connector-curvature="0"
         d="m 1802.3,572.02002 c -0.1899,0.05 -0.3599,0.12 -0.54,0.17999 0.1799,-0.07 0.35,-0.13 0.54,-0.17999 5.7801,-1.60999 8.1301,-1.88 8.8101,-6.52002 -0.8401,3.66998 -4.0301,5.17999 -8.8101,6.52002 z"
         id="svg_48" />
      <path
         style="fill:#ffffff"
         inkscape:connector-curvature="0"
         d="m 1794.1899,581.06 c 1.7701,-3.38001 3.33,-7.03998 6.94,-8.63001 -3.6099,1.59003 -5.1699,5.25 -6.94,8.63001 z"
         id="svg_49" />
      <path
         style="fill:#ffffff"
         inkscape:connector-curvature="0"
         d="m 1811.08,560.78003 c 0.1099,1.25 0.28,2.48999 0.17,3.73999 0.06,-0.56 0.09,-1.14996 0.06,-1.79999 0.01,-0.27002 0.01,-0.54999 0.01,-0.83002 l -0.15,-0.76001 0.07,0.75 c -0.04,-0.34997 -0.1,-0.72998 -0.16,-1.09997 z"
         id="svg_50" />
      <path
         style="fill:#ffffff"
         inkscape:connector-curvature="0"
         d="m 1810.99,560.22998 c 0.04,0.19 0.05,0.35998 0.08,0.54999 -0.01,-0.07 -0.01,-0.14002 -0.02,-0.20996 l -0.06,-0.34003 z"
         id="svg_51" />
      <path
         style="fill:#ffffff"
         inkscape:connector-curvature="0"
         d="m 1811.17,561.13 -0.09,-0.96002 c -0.02,0 -0.04,0 -0.05,0.01 0.01,0.13001 0.02,0.26001 0.03,0.39002 l 0.1099,0.56 z"
         id="svg_52" />
      <path
         style="fill:#ffffff"
         inkscape:connector-curvature="0"
         d="m 1811.08,560.78003 c 0.06,0.36999 0.13,0.75 0.17,1.09997 l -0.07,-0.75 -0.11,-0.55999 c -0.01,0.07 0,0.14001 0.01,0.21002 z"
         id="svg_53" />
      <path
         style="fill:#ffffff"
         inkscape:connector-curvature="0"
         d="m 1810.99,559.22998 c 0,0.31 0.02,0.63 0.04,0.94 0.02,0 0.03,0 0.05,-0.01 l -0.09,-0.92999 z"
         id="svg_55" />
      <path
         style="fill:#ffffff"
         inkscape:connector-curvature="0"
         d="m 1811.1,565.5 0,0 c 0.07,-0.33002 0.12,-0.65002 0.14,-0.97998 -0.03,0.32996 -0.07,0.66998 -0.14,0.97998 0,-0.01 0,-0.01 0,0 z"
         id="svg_56" />
      <path
         style="fill:#ffffff"
         inkscape:connector-curvature="0"
         d="m 1811.33,561.57001 c 0,0.10998 0,0.21002 0,0.32 l 0,0.02 c 0,-0.12005 0,-0.23004 0,-0.34002 z"
         id="svg_58" />
      <path
         style="fill:#ffffff"
         inkscape:connector-curvature="0"
         d="m 1811.3101,562.71997 c -0.03,1.06 -0.09,1.98999 -0.2,2.77002 0.1799,-0.81 0.2499,-1.71997 0.2,-2.77002 z"
         id="svg_59" />
    </g>
    <g
       id="mg" />
    <g
       id="ap" />
    <g
       id="ng">
      <path
         style="fill:#fefee9;stroke:#646464;stroke-opacity:1"
         inkscape:connector-curvature="0"
         d="m 1577.76,953.77002 c 1.96,1.09998 3.4201,5.71997 1.25,4.08002 -5.6899,-4.29004 1.14,10.63 -3.0799,11.10998 -4.2201,0.47998 -5.4501,-0.5 -6.9801,3.91999 -0.74,2.15002 -0.28,0.89001 -1.97,2.15002 -2.26,1.69 -3.36,4.46997 -5.61,6.26001 -2.49,1.97998 -6.1799,1.83997 -8.36,3.92999 1.4,3.51996 10.12,3.07001 12.86,5.13001 3.4401,2.57995 2.65,3.86999 3.78,7.21997 0.84,2.48999 4.59,1.94 4.71,4.80999 0.16,3.77 -3.57,6.68 -2.9199,10.2 0.7099,3.83 -3.3401,6.32 -5.13,9.12 -1.2601,1.97 -9.1501,8.17 -6.1501,10.42 2.47,1.85 3.21,6.23 1.94,8.86 -2.0299,4.2001 -0.59,3.88 1.89,7.42 1.55,2.21 0.28,5.46 2,7.21 0.28,0.29 0.47,0.55 0.6,0.81 3.9801,-1.9799 10.6001,-5.07 14.62,-4.57 3.4801,0.44 2.77,3.53 3.55,5.77 0.78,2.24 3.89,2.4401 5.47,3.85 7.03,6.29 13.02,18.95 24.13,17.4601 3.8301,-0.5101 8.98,1.9399 12.2001,0.4499 1.4099,-0.65 2.1099,-0.5799 2.4199,-0.09 0.03,-4.6099 0.08,-7.5899 -2.7,-12.04 -2.23,-3.5699 -4.25,-5.99 -0.9,-9.49 1.64,-1.7099 0.67,-8.86 -1.21,-10.37 -3.81,-3.05 0.83,-7.99 -0.29,-11.25 -1.28,-3.72 -2.0699,-8.75 -2.5599,-13.12 -0.4001,-3.54 3.37,-2.37 0.9099,-6.15 -1.24,-1.9 -2.7999,-4.06 -3.73,-6.13 -1.55,-3.45 6.79,-5.84 3.99,-9.16 -2.02,-2.4 -3.6,-6.99998 -5.84,-1.97996 -3.4599,-2.11005 -7.1,-0.30005 -10.4599,-2.10004 -3.1401,-1.66998 -6.0701,-1.57 -9.1101,-2.90997 -4.53,-2 -6.67,-2.53003 -7.2599,-8.28003 -0.26,-2.51996 -1.75,-11.03998 0.7599,-12.08997 4.46,-1.86999 -3.06,-3.22003 -2.23,-5.61999 2.7201,-0.40002 3.4701,1.61999 5.32,3 1.54,1.14996 2.94,-1.02002 4.25,-1.40002 3.29,-0.96998 1.21,-2.40003 2.48,-4.16999 0.9,-1.25 2.62,-0.20001 3.65,-1.86999 2.31,-3.73004 -15.09,-16.63001 -8.79,-17.84003 -0.59,-1.64996 -3.56,-0.39996 -4.9499,-1.52002 1.7999,-1.81 4.6599,-1.22998 6.8599,-2.06 2.09,-0.78998 1.96,-3.81994 -0.5,-3.56994 -0.64,-5.06 -3.04,-4.35004 -6.9899,-4.29004 -2.8901,2.48999 -5.9101,4.79004 -9.0201,6.98999 -1.89,1.34002 -3.81,2.66003 -5.74,3.96002 -0.09,3.36999 -0.5,6.06 2.84,7.94 z"
         id="svg_86" />
      <path
         style="fill:#fefee9;stroke:#646464;stroke-opacity:1"
         inkscape:connector-curvature="0"
         d="m 1468.97,1134.0699 c -1.57,-3.52 -13.6501,-5 -13.35,-6.7299 0.28,-1.59 2.24,-1.98 3.1799,-3 1.4001,-1.5301 1.2301,-3.09 1.86,-4.74 0.9301,-2.48 2.2901,-1.0601 1.5501,-4.89 -0.8001,-4.1501 -1.5201,-8.4301 -2.1,-12.6 -0.3201,-2.27 1.6,-4.4 1.16,-6.16 -2.2201,-0.36 -4.55,2.4799 -3.0901,-2.74 0.8401,-3 2.4301,-4.5401 1.63,-7.9201 -0.76,-3.23 -2.1699,-4.99 -4.9299,-6.6999 -2.43,-1.5 -2.04,-3.3001 -3.5701,-5.1701 -1.24,-1.52 -4.37,-3.0399 -3.4299,-5.38 1.3099,-3.28 0.11,-3.5399 -2.8,-5.26 -4.55,-2.6999 2.04,-6.1499 2.53,-10.5299 -0.51,0.1899 -1.0601,0.33 -1.6701,0.3999 -0.4,0.04 -0.8099,0.07 -1.25,0.05 -6.88,-0.24 -10.0399,-10.8001 -11.1099,-16.1501 -0.6501,-3.28 -4.4001,-19.36 -9.72,-8.9 -4.65,9.14 -3.73,14.2301 -15.84,17.0501 -0.4801,6.17 -4.54,12.3399 -5.8501,18.4899 -1.6799,7.86 -1.23,15.3901 -2.3999,23.1801 -0.64,4.2999 -2.53,6.6499 -6.05,7.47 -0.57,0.13 -1.19,0.2299 -1.85,0.29 -6.0601,0.5099 -9.65,4.3899 -12.16,9.62 -2.0201,4.21 -3.48,8.9099 -6.74,12.38 -2.57,2.72 -4.22,1.45 -5.71,5.6 -1.49,4.1599 -4.7101,3.24 -6.76,6.4399 -3.3301,5.2101 1.9,10.6701 -3.4301,15.8301 -4.12,3.99 -9.9799,6.3999 -13.2099,11.2799 12.92,17.4501 -5.25,33.1701 -6.25,50.5901 -0.53,9.1999 2.85,15.3099 5.28,22.6899 0.63,1.9201 1.2,3.9201 1.62,6.08 0.23,1.2001 0.2899,2.28 0.22,3.28 3.4299,0.12 9.73,0.35 9.28,-3.64 2.08,-0.35 13.38,-1.9499 13.47,-3.96 0.08,-1.8399 7.0599,-5.7399 8.49,-5.66 0.9799,0.06 5.4399,0.2001 3.56,-2.02 -1.56,-1.83 1.71,-3.6699 2.57,-5.13 1.66,-2.84 8.3299,-1.5399 11.66,-2.24 5.5299,-1.1499 7.22,9.77 12.8099,3.9601 5.1,-5.3001 10.0201,-8.6701 11.12,-16.3101 2.47,-0.3099 4.1401,4.0401 5.0501,5.5401 1.85,3.0599 4.88,-1.5401 6.9499,0.63 2.2001,2.3099 5.47,-0.7801 7.9601,-0.86 2.06,-0.07 5.58,2.0799 7.11,2.02 0.9099,-1.4801 2.35,-1.9701 4.22,-4.41 1.53,0.9499 1.35,2.9699 2.01,4.41 0.87,1.8999 2.75,1.59 4.34,2.36 2.39,-2.3301 6.14,-6.0601 6.32,-9.5401 0.21,-3.9699 4.6699,-6.0799 4.36,-9.8499 -0.17,-2.1601 0.49,-5.0801 2.58,-6.64 3.25,-2.4201 2.69,-4.2801 0.93,-6.75 -2.76,-3.88 1.84,-5.2 0.81,-9.34 -0.23,-0.9301 -0.44,-2.99 -0.81,-3.89 -1.99,-0.05 -3.65,0.6599 -5.05,-1.2001 -1.24,-1.63 -3.25,-3.2699 -3.5501,-5.4199 1,-1.74 0.64,-3.0701 -1.0699,-3.99 -0.9401,-0.9801 -1.6901,-2.0901 -2.23,-3.3401 -0.6901,-1.63 -2.28,-0.71 -1.9201,-3.35 1.7001,-0.9699 2.9501,-1.3399 4.74,-2.1 1.74,-0.7299 3.38,-1.38 4.9501,-2.17 0.64,-3.2399 4.83,-8.1399 3.58,-10.96 z"
         id="svg_87" />
      <path
         style="fill:#fefee9;stroke:#646464;stroke-opacity:1"
         inkscape:connector-curvature="0"
         d="m 1577.76,953.77002 c -3.34,-1.88 -2.93,-4.57001 -2.79,-7.91998 -2.38,1.60998 -4.7799,3.21997 -7.1599,4.85998 -3.13,2.15998 -17.6501,13.10999 -30.0601,19.81 -8.52,4.59998 -16.0599,7.19 -18.25,3.56 -3.73,4.39001 -4.37,3.53003 -9.41,2.56 1.11,8.30999 -7.79,7.79998 -13.5299,7.91003 -10.99,0.20996 -7.2801,7.96997 -14.2601,13.21997 -10.19,7.66998 -10.71,9.47998 -6.8699,21.71998 3.14,9.99 -6.75,15.4601 -14.7601,17.73 -7.04,1.99 -6.79,12.7201 -13.03,15.04 -0.49,4.38 -7.0799,7.83 -2.53,10.53 2.9,1.72 4.11,1.98 2.8,5.26 -0.94,2.34 2.19,3.86 3.43,5.3801 1.53,1.8699 1.14,3.6699 3.57,5.1699 2.76,1.7 4.17,3.4701 4.93,6.7 0.8,3.3801 -0.79,4.91 -1.63,7.92 -1.46,5.2101 0.87,2.38 3.09,2.74 0.43,1.76 -1.4799,3.9 -1.16,6.16 0.58,4.16 1.3001,8.4401 2.1,12.6 0.74,3.83 -0.62,2.41 -1.5499,4.89 -0.62,1.66 -0.4501,3.2201 -1.8601,4.74 -0.94,1.02 -2.8999,1.41 -3.18,3 -0.3,1.7301 11.7801,3.2101 13.35,6.7301 1.26,2.8199 -2.9299,7.72 -3.5599,10.9599 1.5299,-0.78 2.9699,-1.69 4.3499,-2.9799 2.45,-2.2901 5.3,-1.63 7.56,-4.5401 1.66,0.75 9.42,4.74 10.2001,1.8101 0.8199,-3.0901 -0.9601,-5.7901 2.4799,-7.3001 2.33,-1.02 1.32,-8.9699 1.82,-11 0.92,-3.6999 2.27,-9.53 5.18,-12.19 1.7701,1.01 5.96,9.18 6.01,10.93 0.07,2.5501 8.32,9.52 4.71,10.5501 -4.73,1.3499 -5,6.2799 0.3101,6.23 3.62,-0.03 2.76,-0.06 5.2099,-1.7801 -0.05,0.04 6.5501,4.71 7.69,4.9101 2.39,0.4199 5.87,-1.2901 7.92,-3.7101 -0.39,-0.4099 -0.78,-0.7699 -1.17,-1.07 0.4,0.2901 0.79,0.6601 1.17,1.07 1.7,-2.01 2.4201,-4.5 0.6901,-6.6699 -1.9301,-2.4301 -2.9901,-3.9401 -5.0501,-6.3201 -3.12,-3.6 -3.4,-4.39 -2.64,-9.35 0.91,-5.9499 6.46,-1.22 7.2,-6 3.92,-0.49 4.7401,-2.98 4.67,-7.34 3.6801,-0.92 6.14,-4.4799 9.21,-5.33 3.34,-0.93 4.12,-1.24 6.8501,-4.07 2.7699,-2.88 3.2899,-8.24 1.25,-11.25 1.87,-0.35 4.3199,-0.91 5.8099,-1.88 2.73,-1.79 1.65,-7.51 4.4,-9.35 1.09,-0.7299 2.68,2.81 3.68,0.31 0.97,-2.4199 0.2401,-5.5199 0.15,-8.0399 -0.05,-1.3901 2.4701,-2.4501 1.5801,-4.24 -0.3301,0.1699 -0.6601,0.3299 -0.9501,0.4799 0.29,-0.15 0.62,-0.31 0.9501,-0.4799 -0.1301,-0.25 -0.3201,-0.5201 -0.6001,-0.8101 -1.72,-1.76 -0.45,-5 -2,-7.21 -2.48,-3.54 -3.92,-3.2199 -1.8899,-7.42 1.2699,-2.64 0.5299,-7.01 -1.9401,-8.86 -3,-2.25 4.89,-8.44 6.15,-10.42 1.7901,-2.8 5.83,-5.28 5.13,-9.12 -0.65,-3.52 3.08,-6.43 2.92,-10.2 -0.12,-2.86997 -3.8799,-2.32 -4.71,-4.80997 -1.13,-3.35004 -0.34,-4.64002 -3.78,-7.22003 -2.74,-2.06 -11.46,-1.60999 -12.86,-5.13001 2.18,-2.08996 5.87,-1.94995 8.36,-3.92999 2.25,-1.78998 3.3501,-4.57001 5.6101,-6.26001 1.6899,-1.25995 1.2199,0 1.9699,-2.14996 1.5201,-4.41999 2.76,-3.44001 6.98,-3.91999 4.22,-0.48004 -2.61,-15.40002 3.08,-11.11004 2.0801,1.61999 0.62,-3 -1.34,-4.09998 z"
         id="svg_88" />
      <path
         style="fill:#fefee9;stroke:#646464;stroke-opacity:1"
         inkscape:connector-curvature="0"
         d="m 1520.91,1139.6801 c -1.15,-0.2 -7.74,-4.87 -7.6899,-4.9101 -2.4501,1.73 -1.5901,1.75 -5.2101,1.78 -5.3099,0.05 -5.03,-4.89 -0.3099,-6.2299 3.61,-1.0301 -4.63,-8 -4.7101,-10.5501 -0.05,-1.75 -4.23,-9.9199 -6.01,-10.9299 -2.9199,2.6599 -4.2699,8.49 -5.18,12.1899 -0.5,2.0301 0.5101,9.98 -1.82,11 -3.45,1.51 -1.6599,4.2101 -2.48,7.3001 -0.7799,2.9299 -8.5399,-1.0601 -10.2,-1.8101 -2.26,2.9 -5.1099,2.25 -7.56,4.5401 -1.37,1.28 -2.82,2.1999 -4.35,2.9799 -0.04,0.1801 -0.07,0.37 -0.08,0.5401 0.01,-0.1701 0.04,-0.35 0.08,-0.5401 -1.5599,0.7901 -3.2099,1.4401 -4.9499,2.1701 -1.7901,0.75 -3.0401,1.13 -4.74,2.1 -0.36,2.64 1.23,1.7299 1.9199,3.3499 0.54,1.25 1.28,2.36 2.23,3.34 1.7101,0.92 2.07,2.25 1.07,3.9901 0.3001,2.1499 2.31,3.7899 3.5501,5.4199 1.4099,1.86 3.0599,1.1501 5.0499,1.2001 0.37,0.8999 0.58,2.96 0.8101,3.8899 1.0299,4.14 -3.5701,5.4701 -0.8101,9.3401 1.76,2.47 2.33,4.3299 -0.9299,6.75 -2.0901,1.5499 -2.75,4.48 -2.5801,6.64 0.3101,3.7699 -4.16,5.87 -4.36,9.85 -0.1799,3.49 -3.9299,7.2199 -6.3199,9.5399 -1.6001,-0.7699 -3.4701,-0.47 -4.3401,-2.36 -0.6599,-1.4299 -0.48,-3.46 -2.01,-4.4099 -1.87,2.4399 -3.32,2.9299 -4.22,4.4099 0.08,0 0.15,-0.01 0.22,-0.02 -0.07,0.02 -0.1399,0.02 -0.22,0.02 -0.48,0.79 -0.8099,1.8501 -0.97,3.65 -0.31,3.51 -0.9,5.37 -2.26,8.5301 -2.24,5.2099 5.13,9.01 -2.2099,12.87 -4.7801,2.51 -9.86,4.04 -14.5401,6.17 -3.63,1.6499 -2.8,11.2899 -5.7199,14.5399 -3.1601,3.52 -1.5401,0.7201 -0.05,5.37 0.87,2.7101 2.4401,0.08 3.5501,1.91 0.8199,1.35 -1.0801,1.72 0.6699,3.5601 0.93,0.85 1.65,1.84 2.17,2.99 1.33,2.1899 3.33,4.5 5.24,6.1899 3.0601,2.6901 3.27,-1.87 6.98,0.38 1.9401,1.1801 -0.98,5.59 -1.0599,7.13 -0.03,0.5601 -3.5401,8.34 -4.38,10.61 0.28,-0.5699 0.63,-1.03 1.14,-1.24 -0.5,0.21 -0.85,0.6701 -1.14,1.24 -0.1401,0.38 -0.21,0.61 -0.1801,0.62 4.0601,1.7101 8.8101,1.97 13.12,3.0801 2.99,0.7699 2.55,-2.77 5.0801,-3.91 2.73,-1.22 -1.99,-6.7801 0.1499,-9.62 2.4801,-3.2901 1.41,-7.5801 5.26,-9.9601 3.0701,-1.8999 8.3401,0.8501 9.0901,-4.07 1.3299,-0.2099 2.9299,-0.3 4.02,-1.2099 1.75,-1.4701 2.5599,-0.7001 4.8799,-1.51 2.9,-1.02 19.78,-9.6601 20.4901,-2.9 0.6799,6.38 4.5699,1.8299 8.6499,4.3599 0.7301,0.4501 7.41,7.87 7.24,4.5201 -0.11,-2.11 6.14,-1.1901 6.06,1.2299 3.08,-0.17 -0.24,5.73 -0.65,6.8001 -1.38,3.5699 -2.73,8.01 -3.04,11.7899 -0.5099,6.28 1.78,4.4801 6.39,5.0901 2.87,0.38 3.7001,6.71 6.91,1.7799 1.9,-2.9199 4.9201,-4.13 6.9,-7.0399 1.95,-2.85 3.5101,-9.2101 7.23,-4.9101 2.1,2.4301 7.2801,5.2601 9.51,1.2701 3.86,-6.9101 12.61,4.11 18.0501,4.9399 -0.1101,-3.49 -1.7401,-11.6899 -3.51,-13.0199 -3.9401,-2.9501 -7.5901,-4.03 -11.7201,-6 -4.72,-2.25 -12.46,2.1599 -16.74,-0.9801 -2.4399,-1.7899 4.3,-6.8099 2.2101,-10.75 -1.8501,-3.49 -4.37,-11.73 -8.01,-13.3199 -6.0401,-2.63 0.4,-7.33 2.2999,-11.49 2.28,-4.99 7.3201,-8.62 10.0901,-13.5401 3.0399,-5.39 6.0699,-11.2199 9.7999,-16.1699 1.28,-1.7001 2.5701,-3.53 3.9,-5.3601 -0.12,-0.21 -0.24,-0.4299 -0.3399,-0.6499 0.1,0.22 0.2099,0.4399 0.3399,0.6499 2.14,-2.9399 4.4001,-5.87 6.9101,-8.21 5.7999,-5.4 -0.6,-8.4 -0.3301,-13.5 0.1901,-3.5799 0.29,-7.16 0.2201,-10.75 -0.05,-2.6099 -1.77,-5.8199 -1.4,-8.29 0.65,-4.2999 8.9299,-8.1499 3.76,-13.08 -2.3301,-2.2299 -0.49,-4.2199 -1.9501,-6.26 -1.0399,-1.4499 -3.64,-1.52 -4.97,-3.3299 -3.5699,-4.86 -4.99,2.13 -9.14,-2.14 -5.01,-5.1701 -4.84,3.4299 -9.9,4.79 -4.56,1.23 -7.21,-4.16 -10.0399,-7.15 -2.0401,2.4199 -5.5201,4.1399 -7.9101,3.72 z"
         id="svg_89" />
      <path
         style="fill:#fefee9;stroke:#646464;stroke-opacity:1"
         inkscape:connector-curvature="0"
         d="m 1323.6801,1330.14 c -4.1,-0.85 -4.7801,-1.97 -7.5101,-4.89 -2.0599,-2.2 -2.26,-6.33 -5.91,-6.5599 -2.7799,-0.1701 -4.75,-1.12 -7.35,-1.5201 -4.7199,-0.7199 -11.9399,1.2 -16.39,2.33 -3.23,0.8201 -5.65,1.92 -9.0299,0.66 -2.16,-0.81 -3.14,-3.3499 -5.78,-2.87 -0.1701,1.26 -1.36,5.09 -0.8401,6.0201 0.4901,0.87 2.8101,2.51 1.75,3.8199 -1.6499,2.04 -4.47,-6.47 -7.0399,-4.28 -2.47,2.1001 -1.8101,-0.33 -3.3201,-1.1 -0.97,-0.49 -4.5299,1.09 -5.39,1.23 -4.37,0.69 -9.0399,1.02 -13.2899,1.82 -2.49,0.47 -3.87,3.45 -6.6901,1.9001 -2.1,-1.1501 -2.1499,-1.39 -4.6799,-0.3601 -2.8201,1.15 -9.51,-1.47 -10.7101,-4.32 -0.97,-2.29 -4.13,-7.0899 -6.8099,-7.48 -0.47,-0.07 -5.8001,-0.79 -7.7,-1.3399 -0.31,2.9699 0.21,6.49 -1.79,8.5999 -4.64,4.8901 -10.51,8.5101 -15.09,13.54 -3.0901,3.4 -6.9701,8.45 -12.25,7.1001 -5.29,-1.3601 -8.91,-0.08 -10.4901,5.4099 -3.74,12.99 -16.7999,11.2 -23.4399,19.81 -0.2,0.26 -0.3901,0.5201 -0.58,0.8 2.9499,1.82 6.6599,1.87 9.5399,3.89 4.0401,2.8301 1.5901,8.77 1.88,12.79 8.8101,3.27 8.0801,13.44 17.23,15.45 13.63,2.99 6.8401,13.25 14.67,20.67 9.5401,9.0501 -2.75,7.0601 -1.4599,17.38 0.35,2.8101 2.6999,10.98 -1.64,12.09 -7.7801,1.99 -2.5601,3.15 -2.46,8.48 6.25,1.12 16.47,-2.22 17.46,6.31 0.76,6.53 12.66,3.49 16.64,3.98 3.3199,0.41 7.4399,3.29 6.51,7.17 -1.0501,4.43 1.5699,4.7701 3.52,8.22 5.49,9.76 7.87,1.98 9.3799,-4.31 2.4501,-10.16 10.67,-20.42 15.7401,-29.45 2.22,-3.9399 3.6499,-9.24 6.74,-12.58 2.8099,-3.04 7.21,-3.53 10.5499,-5.7399 4.14,-2.74 5.7801,-8.6501 8.87,-12.4801 3.2001,-3.96 6.26,-8.0099 9.3201,-12.08 1.22,-1.63 8.61,-8.7 8.12,-10.5699 -0.8101,-3.0701 -1.6901,-6.6301 -2.76,-9.6601 -2.6601,-0.92 -5.46,-1.85 -8.4501,-1.55 -0.37,-5.84 -0.11,-15.14 7.4501,-15.57 4.5999,-0.26 2.9399,-3.55 5.9399,-5.51 2.77,-1.81 7.24,-0.65 10.3201,-0.64 6.39,0.03 13.1,-6.34 19.1999,-3.1799 4.51,2.3399 6.8001,3.9299 10.1501,4.61 -0.46,-1.6301 -1.71,-3.23 -0.99,-4.75 1.16,-2.4401 1.02,-8.0501 -1.75,-8.98 -2.74,-0.9301 -5.4401,-3 -5,-6.2201 0.3499,-2.62 2.52,-4.23 3.37,-6.63 0.79,-2.25 0.1999,-4.38 0.65,-6.6 -0.5901,-1.0601 -7.5202,-2.6801 -8.41,-2.86 z"
         id="svg_90" />
      <path
         style="fill:#fefee9;stroke:#646464;stroke-opacity:1"
         inkscape:connector-curvature="0"
         d="m 1348.83,1248.74 c -0.2901,-2.08 -1.96,-1.38 -3.3901,-1.41 -2.02,-0.04 -2.8499,-1.72 -3.4799,-3.32 -3.58,3.7 -9.74,5.58 -13.62,8.53 -3.21,2.44 -3.6,7.32 -7.35,9.19 -4.5801,2.29 -10.36,-0.87 -15.1901,-0.5501 -8.8399,0.6001 -12.3399,7.0601 -18.1799,12.3401 -8.15,7.37 -4.63,-9.8401 -4.38,-12.89 0.9099,-10.9401 4.15,-23.76 2.5,-34.63 -2.12,-0.12 -3.86,-0.05 -5.38,0.27 -3.3001,0.68 -5.5801,2.48 -8.4501,5.87 -4.1,4.84 -9.7999,0.6 -14.8099,1.48 -13.84,2.4399 -0.8001,18.86 0.9199,26.05 2.7201,11.37 -8.2599,13.41 -16.2999,16.8999 -4.6801,2.0301 -6.9501,6.62 -9.97,10.4001 -3.41,4.27 -12.55,4.9 -14.49,9.0899 -1.05,2.26 3.3099,10.3101 -1.53,10.7001 -3.25,0.26 -7.11,0.85 -8.34,4.48 -0.2101,0.61 -0.3201,1.27 -0.4,1.9599 1.9,0.5601 7.23,1.2801 7.6999,1.3401 2.6901,0.3899 5.84,5.19 6.8101,7.48 1.21,2.85 7.89,5.47 10.71,4.32 2.53,-1.0301 2.5799,-0.7901 4.68,0.3599 2.82,1.5501 4.2,-1.4299 6.69,-1.9 4.2399,-0.7999 8.92,-1.1299 13.29,-1.8199 0.86,-0.14 4.4199,-1.72 5.39,-1.23 1.5199,0.77 0.85,3.1999 3.32,1.1 2.5699,-2.19 5.39,6.32 7.04,4.28 1.0599,-1.3101 -1.27,-2.9501 -1.75,-3.8201 -0.52,-0.9299 0.6699,-4.76 0.84,-6.0199 2.64,-0.4901 3.62,2.06 5.78,2.87 3.39,1.26 5.8099,0.1599 9.0299,-0.66 4.4601,-1.12 11.6801,-3.05 16.39,-2.33 2.61,0.3999 4.5701,1.35 7.3501,1.5199 3.6399,0.2301 3.85,4.3501 5.9099,6.5601 2.73,2.92 3.4101,4.0499 7.51,4.89 0.89,0.1799 7.8101,1.81 8.4301,2.85 0.02,-0.1 0.03,-0.1901 0.05,-0.29 1.1001,-4.47 0.88,-5.7601 -2.74,-8.96 -1.14,-1.01 -7.2999,-9.33 -2.7799,-9.5 4.1599,-0.16 3.6699,-0.63 4.2,-4.77 0.65,-5.08 3.54,-4.68 7.74,-4.82 3.2099,-0.1001 4.25,-3.38 6.26,-5.26 4.27,-4 1.66,-4.0801 1.86,-8.85 0.13,-3.2201 3.4899,-6.4 2.5,-9.63 -0.6701,-2.2 -2.69,-8.55 -4.35,-9.8401 -4.9301,-3.8299 1.9599,-15.8999 5.25,-18.6099 3.38,-2.8 -1.01,-1.81 -1.27,-3.72 z"
         id="svg_91" />
      <path
         style="fill:#fefee9;stroke:#646464;stroke-opacity:1"
         inkscape:connector-curvature="0"
         d="m 1731.33,961.07001 c -1.32,-3.84998 -6.2701,-8.02002 -3.88,-12.28998 1.9899,-3.54004 7.0699,-7.54004 4.64,-12.10004 -2.01,-3.77997 -6.95,-5.54999 -10.6801,-7.02997 -0.1799,-3.23004 0.86,-6.59002 -0.01,-9.77002 -0.7999,-2.90997 -3.4199,-4.69 -2.08,-7.96002 2.73,-6.67999 11.45,-9.06994 12.71,-16.67999 1,-6.07001 -7.22,-7.15997 -7.36,-13.57001 -0.07,-3.09997 0.5601,-6.19 0.4,-9.27997 -0.28,-5.23999 -5.3499,-4.11999 -8.9399,-4.73999 -2.8501,-4.84002 -0.54,-10.61999 -2.74,-15.60003 -2.68,1.91003 -5.1101,4.59002 -6.93,6.36999 -11.6,11.33002 -26.7701,22.32001 -40.8101,30.45001 -6.36,3.68 -14.37,9.70002 -20.4499,2.94001 -3.82,-4.25 -15.83,-8.27997 -21.09,-4.39997 -5.74,4.23999 -6.5801,13.68 -11.38,18.97998 -6.1901,6.83997 -10.22,15.32001 -16.48,22.20001 -2.0601,2.26996 -4.25,4.33997 -6.53,6.31 3.9499,-0.06 6.3499,-0.77002 6.99,4.28998 2.4599,-0.25 2.5899,2.78003 0.5,3.57001 -2.2,0.83001 -5.0601,0.25 -6.86,2.06 1.39,1.10998 4.36,-0.13001 4.9499,1.52002 -6.2999,1.20996 11.1,14.10998 8.7901,17.83996 -1.0401,1.67005 -2.76,0.62 -3.6501,1.87 -1.27,1.77002 0.8101,3.20001 -2.4799,4.17004 -1.3101,0.38995 -2.71,2.56 -4.25,1.39996 -1.85,-1.38 -2.6,-3.39996 -5.3201,-3 -0.83,2.40003 6.6901,3.75 2.2301,5.62 -2.5,1.04999 -1.01,9.57001 -0.76,12.09003 0.59,5.75 2.72,6.27996 7.26,8.27996 3.0399,1.34003 5.97,1.24005 9.11,2.91004 3.36,1.78998 7,-0.01 10.4599,2.09997 2.24,-5.02996 3.8201,-0.42999 5.84,1.98001 2.8001,3.32 -5.5499,5.72 -3.99,9.16 0.9301,2.07 2.5,4.23 3.73,6.13 2.4601,3.78 -1.3099,2.61 -0.9099,6.15 0.49,4.37 1.2899,9.4001 2.5599,13.12 1.12,3.26 -3.52,8.21 0.2901,11.25 1.88,1.51 2.8499,8.6501 1.2099,10.37 -3.35,3.51 -1.3299,5.92 0.9,9.49 2.7701,4.45 2.72,7.43 2.7,12.0401 0.9901,1.5899 -2.0399,7.62 0.92,9.1399 2.5401,1.3 12.98,-0.02 12.0401,4.9901 -0.86,4.6298 -3.0501,7.9299 -5.53,11.8199 6.0899,0.78 10.7099,4.12 17.4899,4.24 3.0701,0.05 9.75,-9.0599 12.21,-11.39 3.9301,-3.72 11.42,-3.32 16.3201,-4.14 2.8299,-0.48 5.4299,-1.17 8.3099,-1.37 2.1801,-0.1501 4.66,-1.71 6.78,-1.71 -1.41,-5.59 -3.01,-10.9499 -0.76,-17.05 -3.61,-1.84 -5.48,-6.56 -10.0499,-6.21 1,-5.17 8.98,-7.0699 4.3099,-13.12 -3.87,-5.01 -12.6799,-1.03 -14.3099,-8.54 7.8899,-0.4001 8.5199,-0.59 10.3899,-8.36 1.26,-5.24 9.0901,-4.74 11.02,-10.07 1.9501,-5.38 -3.6599,-8.52 1.8401,-13.02 5.85,-4.79 9.5299,-5.94 7.61,-14.33 -0.3401,-1.47998 -0.15,-2.96002 0.39,-4.37 1.84,-4.77002 7.84,-8.79998 12.0199,-9.92999 5.42,-1.47003 7.04,-0.29999 9.79,-6.57001 1.12,-2.55999 3.34,-6.44 5.7901,-6.73999 -1.77,-3.71002 -2.9199,-7.57 -4.27,-11.51001 z"
         id="svg_92" />
      <path
         style="fill:#fefee9;stroke:#646464;stroke-opacity:1"
         inkscape:connector-curvature="0"
         d="m 1648.36,1247.17 c -1.33,-4.02 -6.13,-4.28 -9.6,-6.66 -1.3201,-0.9099 -4.09,-3.27 -3.49,-5.22 0.38,-1.26 1.9,-1.67 1.68,-3.1999 -0.78,-5.5 -5.56,-2.9601 -8.71,-2.3001 -4.47,0.9401 -13.33,-2.54 -16.34,1.8901 -0.87,1.27 -5.25,3.5 -3.3,0.7399 0.75,-1.06 1.99,-1.4699 2.69,-2.56 1.06,-1.6599 2.23,-5.62 2.37,-7.6399 0.2699,-3.9601 2.83,-8.6101 5.25,-11.91 1.2,-1.63 4.54,-2.9101 1.25,-4.6501 -2,-1.0599 -4.29,-1.67 -6.04,-3.1799 -4.0501,-3.5 -4.16,-8.14 -8.71,-2.29 -1.3,1.6699 -3.27,1.53 -5.19,1.5499 -4.5301,0.06 -1.06,2 -4.19,3.4 -4.9601,2.22 -6.51,1.3201 -10.89,-1.6799 -1.78,-1.2101 -3.51,-5.0701 -5.5801,-2.0901 -0.8999,1.3 -1.8399,3.03 -3.75,2.54 -4.6399,-1.17 -9.2799,-2.29 -13.2999,1.6801 -2.34,2.3099 -5.37,0.84 -6.85,-1.7201 -1.33,1.8301 -2.62,3.66 -3.9,5.3601 -3.73,4.9399 -6.76,10.7799 -9.8,16.1699 -2.7701,4.9101 -7.81,8.5401 -10.09,13.5401 -1.9,4.16 -8.34,8.8599 -2.3001,11.49 3.6501,1.5899 6.1701,9.8299 8.0101,13.3199 2.09,3.9501 -4.6501,8.9701 -2.21,10.75 4.29,3.14 12.02,-1.2699 16.74,0.9801 4.13,1.96 7.78,3.0399 11.72,6 1.78,1.33 3.41,9.5399 3.51,13.0199 0.12,0.02 0.2299,0.04 0.3399,0.05 5.2101,0.37 2.1101,5.1 2.64,8.72 0.6301,4.3301 3.6601,2.6601 2.11,-1.28 -2.3899,-6.08 2.75,-5.47 4.88,-9.84 2.7001,-5.53 4.74,-4.26 10.2101,-4.66 5.1699,-0.38 15.0299,3.26 17.15,8.7401 0.82,2.1299 2.42,4.3999 3.62,6.35 1.07,1.73 3.19,1.4699 3.85,3.5699 0.62,1.99 0.9099,4.3201 1.34,6.37 0.68,3.23 -0.94,11.27 -2.53,14.2101 -2.85,5.2799 0.45,5.49 0.47,10.48 0.01,1.51 -1.92,2.8299 0.19,4.0799 1.62,0.96 2.75,1.72 4.14,3.0401 2.84,2.73 7.25,2.0399 10.96,1.9099 -0.75,-1.25 -1.37,-2.62 -1.31,-4.1799 0.03,0.01 0.06,0.01 0.08,0.02 0.02,0 0.04,0.01 0.06,0.01 1.07,0.1999 8.2599,-3.28 8.94,-3.7101 4.47,-2.86 4.26,-10.4099 4.51,-14.98 0.35,-6.3399 5.46,-5.87 10.18,-7.54 6.24,-2.21 8.22,-9.73 10.62,-15.1499 2.66,-6.01 5.66,-6.3501 11.6,-5.5901 7.08,0.92 5.09,-6.0399 3.59,-9.8999 -2.32,-5.99 3.4499,-8.8601 3.67,-14.24 0.13,-3.1801 -2.65,-4.4701 -4.44,-6.54 -2.01,-2.3301 -0.7,-5.0501 -1.19,-7.75 -6.01,-2.49 -5.87,-7.6901 -4.79,-12.76 -3.01,0.3499 -6.4201,4.5799 -9.59,5.38 -5.34,1.3798 -8.14,4.3099 -10.28,-2.1401 z"
         id="svg_93" />
      <path
         style="fill:#fefee9;stroke:#646464;stroke-opacity:1"
         inkscape:connector-curvature="0"
         d="m 1690.76,1092.6 c -2.89,0.1999 -5.48,0.89 -8.31,1.37 -4.9,0.8299 -12.3899,0.43 -16.32,4.14 -2.46,2.3299 -9.14,11.4399 -12.21,11.39 -6.78,-0.12 -11.41,-3.4501 -17.4899,-4.24 2.4799,-3.89 4.6699,-7.1901 5.5299,-11.8201 0.93,-5.01 -9.5,-3.6899 -12.04,-4.9899 -2.96,-1.5201 0.06,-7.55 -0.92,-9.1401 0,0.4001 0,0.8201 0,1.25 0,-0.4299 0,-0.8399 0,-1.25 -0.3099,-0.5 -1.01,-0.5699 -2.42,0.09 -3.21,1.48 -8.36,-0.9701 -12.2,-0.45 -11.11,1.4799 -17.09,-11.17 -24.13,-17.46 -1.58,-1.4201 -4.6899,-1.61 -5.47,-3.85 -0.78,-2.24 -0.07,-5.3401 -3.55,-5.77 -4.02,-0.5 -10.64,2.58 -14.62,4.5699 0.89,1.7901 -1.63,2.85 -1.58,4.24 0.09,2.5201 0.82,5.61 -0.15,8.0401 -1,2.5 -2.59,-1.0401 -3.68,-0.31 -2.74,1.83 -1.67,7.56 -4.4,9.35 -1.4799,0.97 -3.94,1.5299 -5.81,1.88 2.05,3.01 1.52,8.38 -1.25,11.25 -2.73,2.84 -3.5,3.14 -6.85,4.07 -3.06,0.8499 -5.52,4.41 -9.2099,5.3299 0.08,4.3701 -0.75,6.8501 -4.6701,7.3401 -0.74,4.7899 -6.29,0.05 -7.1999,6 -0.7601,4.96 -0.4801,5.75 2.6399,9.35 2.06,2.38 3.1101,3.89 5.05,6.3199 1.73,2.1701 1.01,4.6601 -0.6899,6.6701 2.8299,2.99 5.4799,8.38 10.0399,7.15 5.05,-1.36 4.89,-9.96 9.9,-4.79 4.15,4.28 5.5701,-2.72 9.14,2.14 1.33,1.81 3.9301,1.88 4.97,3.3299 1.4601,2.0401 -0.38,4.0301 1.9501,6.26 5.1699,4.9301 -3.1101,8.7801 -3.7601,13.0801 -0.3699,2.47 1.35,5.6799 1.4,8.2899 0.07,3.5801 -0.02,7.1701 -0.22,10.75 -0.27,5.1001 6.13,8.1001 0.3301,13.5 -2.5101,2.3301 -4.7701,5.2701 -6.9101,8.2101 1.48,2.56 4.51,4.02 6.85,1.72 4.02,-3.97 8.66,-2.85 13.3,-1.6801 1.91,0.4801 2.85,-1.24 3.75,-2.5399 2.07,-2.99 3.8,0.87 5.58,2.09 4.38,3 5.9301,3.9 10.89,1.68 3.13,-1.4 -0.35,-3.3401 4.19,-3.4 1.92,-0.02 3.89,0.12 5.19,-1.55 4.55,-5.85 4.6601,-1.21 8.71,2.29 1.75,1.51 4.04,2.12 6.04,3.1799 3.2901,1.74 -0.05,3.0301 -1.25,4.6501 -2.43,3.3 -4.99,7.95 -5.25,11.91 -0.14,2.02 -1.31,5.98 -2.37,7.64 -0.69,1.09 -1.94,1.5 -2.69,2.5599 -1.95,2.75 2.44,0.5301 3.3,-0.7399 3.01,-4.43 11.88,-0.95 16.34,-1.8901 3.15,-0.6699 7.93,-3.1999 8.7101,2.3001 0.2199,1.53 -1.3001,1.9499 -1.6801,3.1999 -0.6,1.9501 2.1701,4.3201 3.49,5.2201 3.47,2.38 8.27,2.6499 9.6,6.6599 2.14,6.4501 4.94,3.5101 10.32,2.1401 3.16,-0.8 6.58,-5.0301 9.59,-5.38 0.1701,-0.8 0.36,-1.6 0.5601,-2.3901 0.3399,-1.3399 3.0799,-1.5 1.2299,-3.5 -1.94,-2.0899 -2.4799,-3.5299 -1.52,-6.6499 1.56,-5.05 6.4101,-8.4701 11.18,-10 6.21,-1.9901 10.1001,-6.31 14.28,-11.08 4.36,-4.98 10.12,-8.44 13.13,-14.5301 2.28,-4.61 0.2001,-11.76 5.74,-14.2999 5.13,-2.35 2.35,-8.17 -1.4199,-10.5801 -5.3101,-3.3899 -9.9301,-4.2799 -16.01,-5.25 -1.0301,-3.99 3.5299,-6.11 3.89,-9.7699 0.3899,-3.9 -1.1701,-8.45 -1.4301,-12.41 -0.5699,-8.5601 6.4,-13.46 -0.5,-20.3101 -4.88,-4.8499 1.65,-16.5699 1.64,-22.7699 -0.01,-3.3401 -0.7199,-6.45 -1.49,-9.5 -2.12,-0.02 -4.6001,1.54 -6.78,1.69 z"
         id="svg_94" />
      <path
         style="fill:#fefee9;stroke:#646464;stroke-opacity:1"
         inkscape:connector-curvature="0"
         d="m 1615.78,1344.35 c -1.38,-1.33 -2.52,-2.08 -4.14,-3.0401 -2.11,-1.25 -0.1799,-2.5799 -0.1899,-4.0799 -0.03,-5 -3.3201,-5.21 -0.4701,-10.48 1.5901,-2.9401 3.2001,-10.98 2.53,-14.2101 -0.4299,-2.0499 -0.72,-4.3799 -1.34,-6.37 -0.66,-2.1 -2.78,-1.8399 -3.8499,-3.5699 -1.2001,-1.95 -2.7901,-4.22 -3.62,-6.35 -2.11,-5.48 -11.9801,-9.12 -17.1501,-8.74 -5.4699,0.4 -7.52,-0.87 -10.2099,4.6599 -2.13,4.37 -7.28,3.76 -4.88,9.8401 1.5499,3.94 -1.4801,5.61 -2.1101,1.2799 -0.5299,-3.62 2.56,-8.35 -2.6399,-8.72 -0.1101,-0.01 -0.2301,-0.03 -0.3401,-0.05 0.01,0.43 0.01,0.7999 -0.03,1.06 0.04,-0.2601 0.04,-0.63 0.03,-1.06 -5.4399,-0.8301 -14.1899,-11.8501 -18.0499,-4.94 -2.23,3.9899 -7.4001,1.16 -9.51,-1.2701 -3.72,-4.2999 -5.2801,2.0601 -7.23,4.9101 -1.9801,2.9 -5,4.11 -6.9,7.04 -3.2101,4.9299 -4.0401,-1.4 -6.9101,-1.78 -4.61,-0.61 -6.9,1.18 -6.39,-5.09 0.3101,-3.79 1.66,-8.2201 3.04,-11.79 0.4101,-1.08 3.73,-6.97 0.6501,-6.8001 0.08,-2.4199 -6.1701,-3.3399 -6.0601,-1.23 0.1701,3.35 -6.5,-4.0699 -7.24,-4.52 -4.0799,-2.5299 -7.97,2.02 -8.65,-4.36 -0.72,-6.76 -17.6,1.88 -20.49,2.9001 -2.3099,0.82 -3.12,0.04 -4.88,1.51 -1.09,0.91 -2.6899,1 -4.02,1.2099 -0.74,4.9201 -6.01,2.1701 -9.09,4.0701 -3.85,2.38 -2.78,6.6699 -5.26,9.96 -2.14,2.8399 2.5701,8.41 -0.15,9.62 -2.5399,1.13 -2.09,4.67 -5.08,3.91 -4.3099,-1.11 -9.0599,-1.37 -13.12,-3.0801 -0.03,-0.01 0.04,-0.24 0.1801,-0.62 -0.6901,1.39 -0.9801,3.4701 -2.0801,4.4 -2.51,2.1401 -1.74,1.75 -2.87,4.85 -0.7999,2.1901 -3.91,3.88 -3.22,6.4101 0.49,1.8 -0.55,2.89 -0.5899,4.63 -0.05,1.94 -0.86,3.7099 -2.5701,4.81 -1.6899,1.09 -1.26,2 -1.89,4.12 -1.23,4.14 3.0901,6.9199 0.11,10.86 -2.23,2.9399 -0.63,3.6699 -0.11,6.36 0.3301,1.72 -1.39,2.91 -1.37,4.5799 0.03,2.35 0.87,2.48 -0.37,4.8301 -1.0599,2 -2.7,3.51 -3.23,5.7799 -0.62,2.6601 -2.4599,2.12 -2.3299,4.8601 0.06,1.17 -0.01,3.2699 -1.6601,3.42 -1.36,0.12 -2.36,3.1099 -3.9499,3.56 -0.12,1.1499 -0.2101,2.2999 -0.2801,3.45 0.61,0.67 1.18,1.4 1.72,2.0999 0.84,1.11 1.6,2.1901 2.26,2.98 4.46,5.3401 10.75,2.4801 16.6901,2.1901 7.3899,-0.36 14.7899,-0.48 22.1699,-1.0401 7.11,-0.5399 10.02,-2.4399 16.0401,-5.26 5,-2.3399 10.3199,-0.01 13.9,-5.5399 2.5399,-3.93 2.4199,-8.63 3.23,-13.05 1.2199,-6.74 17.9499,-9.63 23.26,-12.5301 3.77,-2.0599 8.8399,-4.6699 11.02,-8.5799 2.3199,-4.1701 2.5699,-8.26 5.8299,-12.02 1.5201,-1.75 6.81,-7.7801 9.4001,-4.26 2.27,3.0899 -1.1701,8.13 -0.5401,11.56 5.62,2.46 6.38,10.0499 -0.17,12.2799 -6.76,2.3001 -10.5399,5.2301 -7.0399,13.01 3.37,7.5 1.3499,9.74 -0.2201,17.0201 -1.34,6.2 7.39,8.16 11.77,8.06 1.13,3.84 -1.14,6.5399 1.5,10.13 1.5601,2.12 3.54,4.71 6.26,5.34 3.49,0.8099 6.78,-1.4401 10.15,-1.87 3.84,-0.49 7.51,0.61 11.21,1.4 0.5,-0.66 1.2201,-1.17 2.2201,-1.4501 2.8899,-0.8199 4.9299,0.9501 7.5199,-1.5899 3.18,-3.1 4.81,-6.44 8.94,-8.62 8.07,-4.24 7.3001,2.3399 15.56,3.27 9.3,1.04 8.7301,-11.11 10.17,-17.1801 1.84,-7.7999 9.11,-9.8199 15.6901,-12.3599 7.5199,-2.9001 4.48,-5.3901 2.4199,-8.82 -3.74,0.12 -8.14,0.8099 -10.98,-1.91 z"
         id="svg_95" />
      <path
         style="fill:#fefee9;stroke:#646464;stroke-opacity:1"
         inkscape:connector-curvature="0"
         d="m 1410,1364.05 c 1.65,-0.15 1.72,-2.2399 1.66,-3.42 -0.13,-2.74 1.71,-2.1899 2.33,-4.86 0.53,-2.27 2.17,-3.78 3.23,-5.78 1.25,-2.35 0.4,-2.48 0.37,-4.83 -0.02,-1.67 1.7,-2.86 1.37,-4.5799 -0.5201,-2.7001 -2.11,-3.4301 0.1099,-6.36 2.9902,-3.9401 -1.3399,-6.7201 -0.1099,-10.86 0.63,-2.1101 0.19,-3.03 1.89,-4.1201 1.7101,-1.1 2.52,-2.86 2.57,-4.8099 0.04,-1.74 1.08,-2.83 0.59,-4.6301 -0.6901,-2.53 2.4201,-4.2199 3.22,-6.41 1.13,-3.1 0.35,-2.7099 2.87,-4.85 1.1,-0.9299 1.39,-3.01 2.0801,-4.4 0.8499,-2.27 4.3499,-10.0499 4.38,-10.61 0.08,-1.54 3,-5.9499 1.0599,-7.13 -3.71,-2.25 -3.92,2.3201 -6.98,-0.38 -1.91,-1.6799 -3.91,-4 -5.24,-6.1899 -0.52,-1.15 -1.24,-2.14 -2.17,-2.99 -1.76,-1.8401 0.14,-2.2201 -0.6699,-3.5601 -1.1101,-1.8299 -2.6801,0.8001 -3.5501,-1.91 -1.49,-4.6499 -3.11,-1.85 0.05,-5.37 2.9199,-3.25 2.0899,-12.8899 5.7199,-14.5399 4.68,-2.13 9.76,-3.66 14.5399,-6.1701 7.3401,-3.8599 -0.03,-7.66 2.2101,-12.87 1.36,-3.17 1.95,-5.02 2.26,-8.53 0.16,-1.7999 0.49,-2.86 0.97,-3.65 -1.53,0.06 -5.04,-2.09 -7.11,-2.0199 -2.49,0.08 -5.76,3.1699 -7.9601,0.86 -2.0699,-2.1701 -5.0999,2.4299 -6.9499,-0.63 -0.91,-1.5 -2.58,-5.85 -5.0501,-5.5401 -1.1099,7.6401 -6.0299,11.01 -11.12,16.3101 -5.5899,5.8099 -7.2799,-5.11 -12.8099,-3.9601 -3.3299,0.6901 -10,-0.6 -11.66,2.24 -0.85,1.4601 -4.12,3.3001 -2.57,5.13 1.88,2.2201 -2.57,2.0701 -3.56,2.02 -1.43,-0.08 -8.4099,3.8201 -8.49,5.6601 -0.08,2.01 -11.39,3.62 -13.47,3.9599 0.44,3.99 -5.85,3.76 -9.28,3.64 -0.18,2.5301 -1.24,4.48 -2.7901,6.08 0.63,1.6001 1.4501,3.28 3.4801,3.3201 1.43,0.02 3.11,-0.6701 3.3901,1.41 0.2699,1.9099 4.6599,0.9299 1.2598,3.72 -3.2899,2.7099 -10.1799,14.78 -5.25,18.61 1.6601,1.29 3.6801,7.65 4.3501,9.8399 0.99,3.23 -2.3699,6.4201 -2.5,9.63 -0.19,4.77 2.41,4.85 -1.8599,8.85 -2.01,1.88 -3.0501,5.16 -6.26,5.26 -4.2101,0.14 -7.1001,-0.26 -7.74,4.8201 -0.5301,4.14 -0.04,4.61 -4.2001,4.77 -4.52,0.1699 1.64,8.49 2.78,9.5 3.63,3.1999 3.84,4.49 2.74,8.96 -0.5699,2.3299 0.13,4.55 -0.6999,6.89 -0.8501,2.4 -3.0101,4.02 -3.37,6.63 -0.4401,3.2099 2.2598,5.2899 5,6.2199 2.7699,0.9301 2.9099,6.5401 1.75,8.98 -0.7201,1.52 0.5299,3.12 0.99,4.75 1.75,0.35 3.7799,0.4601 6.5799,0.2901 0.51,-1.61 1.4399,-2.73 1.6801,-4.47 6.5799,0.36 12.0199,-4.5901 18.5199,-4.5701 5.63,0.02 9.89,5.3101 13.9701,8.52 2.9199,2.2901 7.1599,7.12 11.1199,7.1801 4.6401,0.07 7.34,-3.8501 11.43,-5.03 2.55,-0.73 4.76,0.88 6.64,2.9599 0.07,-1.15 0.16,-2.2999 0.28,-3.4499 1.62,-0.4101 2.61,-3.4101 3.98,-3.53 z"
         id="svg_96" />
    </g>
    <g
       id="mp">
      <path
         style="fill:none;stroke:#646464;stroke-width:2;stroke-miterlimit:4;stroke-opacity:1;stroke-dasharray:none"
         d="M 1735.2672,972.53962 1731.3401,961.06 c -1.3201,-3.84998 -6.28,-8.02002 -3.88,-12.28998 1.99,-3.54999 7.0699,-7.54004 4.6399,-12.10003 -2.0099,-3.78998 -6.95,-5.54999 -10.68,-7.02997 -0.17,-3.22003 0.86,-6.59003 -0.01,-9.77002 -0.79,-2.90998 -3.42,-4.69 -2.0799,-7.96002 2.73,-6.68 11.4499,-9.06995 12.7099,-16.68 1.01,-6.07 -7.2199,-7.16998 -7.3599,-13.57 -0.07,-3.09998 0.5699,-6.19001 0.4,-9.27997 -0.2801,-5.23999 -5.3501,-4.13001 -8.9401,-4.73999 -2.85,-4.84003 -0.54,-10.62 -2.74,-15.60004 l -6.9301,6.40002 c -11.6,11.33002 -26.7699,22.31 -40.81,30.45001 -6.3599,3.69001 -14.37,9.70002 -20.4499,2.94001 -3.8201,-4.23999 -15.8401,-8.28003 -21.0901,-4.40003 -5.74,4.23004 -6.58,13.67005 -11.38,18.98004 -6.1899,6.83997 -10.23,15.31995 -16.48,22.19995 -8.23,9.05005 -18.49,15.26001 -28.4499,22.13001 -3.12,2.16003 -17.6401,13.10999 -30.0701,19.78005 -8.54,4.57009 -16.0701,7.16005 -18.26,3.53005 -3.7201,4.39001 -4.37,3.53003 -9.41,2.56 1.11,8.30999 -7.7901,7.79998 -13.5301,7.91003 -11,0.21997 -7.29,7.96997 -14.26,13.21997 -10.1799,7.66001 -10.7099,9.48001 -6.87,21.72001 3.1401,10 -6.74,15.4701 -14.76,17.7299 -8,2.2601 -6.5799,15.8101 -15.9599,15.4902 -6.89,-0.2301 -10.0501,-10.8001 -11.11,-16.1501 -0.65,-3.28 -4.4,-19.36 -9.72,-8.9 -4.66,9.15 -3.7301,14.24 -15.8401,17.0501 -0.48,6.1699 -4.5399,12.3399 -5.85,18.4899 -1.6799,7.85 -1.2299,15.3901 -2.4,23.18 -0.64,4.3 -2.5299,6.64 -6.0249,7.4849 -0.555,0.145 -1.1649,0.2449 -1.825,0.3049 -6.0599,0.52 -9.6599,4.4 -12.1599,9.62 -2.01,4.2101 -3.4701,8.92 -6.7401,12.38 -2.5699,2.7201 -4.22,1.4501 -5.71,5.6001 -1.49,4.1599 -4.7099,3.24 -6.76,6.4399 -3.3399,5.21 1.9001,10.6701 -3.4299,15.83 -4.11,3.9901 -9.98,6.4 -13.2101,11.28 12.9201,17.4401 -5.25,33.1701 -6.25,50.5901 -0.6699,11.59 4.88,18.2899 6.9,28.7799 2.1501,11.1801 -9.9599,13.15 -16.1899,17.89 -3.2101,2.4401 -3.6001,7.3201 -7.3501,9.1901 -4.59,2.2899 -10.36,-0.88 -15.1899,-0.5501 -8.84,0.6 -12.34,7.0601 -18.1801,12.34 -8.1499,7.37 -4.63,-9.84 -4.38,-12.89 0.91,-10.9399 4.15,-23.7599 2.5,-34.63 l -5.4298,0.23 c -3.2901,0.6799 -5.5801,2.48 -8.4501,5.87 -4.1,4.84 -9.7999,0.6 -14.8099,1.48 -13.8401,2.43 -0.8001,18.86 0.9199,26.05 2.7301,11.37 -8.26,13.4099 -16.2999,16.8999 -4.6801,2.03 -6.9501,6.62 -9.97,10.4 -3.42,4.2801 -12.55,4.9001 -14.4901,9.09 -1.0399,2.26 3.3201,10.3101 -1.5299,10.7001 -3.25,0.26 -7.11,0.8399 -8.3401,4.48 -1.09,3.2199 0.28,7.9599 -2.1899,10.56 -4.6401,4.8899 -10.5201,8.5199 -15.09,13.5399 -3.0901,3.4001 -6.9801,8.4501 -12.25,7.1 -5.2901,-1.36 -8.91,-0.08 -10.49,5.41 -3.7401,12.99 -16.8101,11.2001 -23.4301,19.8201 -0.1901,0.27 -0.3801,0.53 -0.5701,0.8099 2.95,1.8201 6.67,1.87 9.54,3.8901 4.0401,2.83 1.59,8.77 1.88,12.79 8.8101,3.27 8.07,13.4399 17.23,15.45 13.63,2.9899 6.85,13.25 14.67,20.67 9.5401,9.05 -2.75,7.0599 -1.4599,17.38 0.36,2.8099 2.7099,10.98 -1.64,12.09 -7.8301,2 -2.5001,3.17 -2.4401,8.57 0.02,-0.03 0.02,-0.06 0.02,-0.09 6.25,1.1199 16.46,-2.23 17.46,6.31 0.76,6.5299 12.66,3.49 16.64,3.98 3.3099,0.4 7.4299,3.2899 6.51,7.1699 -1.05,4.4201 1.57,4.76 3.5199,8.2201 5.4901,9.76 7.8601,1.99 9.38,-4.3101 2.4501,-10.16 10.6701,-20.42 15.7401,-29.4499 2.22,-3.9401 3.6499,-9.23 6.74,-12.5801 2.81,-3.0399 7.2,-3.5299 10.5499,-5.74 4.1401,-2.74 5.7801,-8.65 8.87,-12.48 3.2001,-3.9599 6.26,-8.02 9.3201,-12.0799 1.0399,-1.38 6.46,-6.64 7.82,-9.36 l -2.1552,-10.8934 -8.5196,-1.5958 c 0.4465,-7.3386 0.2825,-15.3587 7.1849,-15.4907 4.6,-0.26 2.9399,-3.54 5.9399,-5.51 2.77,-1.8199 7.24,-0.66 10.32,-0.64 6.39,0.03 13.1001,-6.34 19.2,-3.1799 6.86,3.5599 8.55,5.4 16.73,4.9 0.51,-1.6201 1.45,-2.7301 1.6801,-4.4701 6.5699,0.35 12.0199,-4.5899 18.5199,-4.5699 5.64,0.02 9.89,5.3199 13.9701,8.52 2.9199,2.2999 7.1499,7.1199 11.12,7.1799 4.64,0.07 7.3499,-3.85 11.4299,-5.03 4.66,-1.34 8.23,5.18 10.62,8.04 4.4601,5.34 10.75,2.48 16.6901,2.1901 7.39,-0.36 14.7899,-0.4801 22.1699,-1.0401 7.1101,-0.54 10.02,-2.4499 16.04,-5.26 5,-2.3299 10.3201,0 13.9,-5.54 2.5501,-3.9299 2.43,-8.63 3.23,-13.0499 1.22,-6.74 17.95,-9.63 23.26,-12.5301 2.57,-1.41 5.75,-3.07 8.1851,-5.7149 1.165,-1.4851 2.145,-1.5951 2.835,-2.8351 2.31,-4.1701 2.56,-8.26 5.83,-12.02 1.51,-1.75 6.8101,-7.7801 9.4,-4.26 2.27,3.08 -1.16,8.12 -0.54,11.56 5.62,2.46 6.39,10.0499 -0.1699,12.28 -6.76,2.3 -10.5401,5.22 -7.0401,13.0099 3.37,7.5 1.35,9.7401 -0.2199,17.0201 -1.34,6.2 7.39,8.15 11.77,8.06 1.13,3.84 -1.14,6.54 1.5,10.13 1.5499,2.11 3.5299,4.7 6.26,5.34 3.49,0.82 6.7799,-1.44 10.1499,-1.87 3.9301,-0.8865 7.6779,0.4141 11.4349,1.6051"
         id="path4356"
         inkscape:connector-curvature="0"
         sodipodi:nodetypes="cccccccccccccccccccccccccccccccccccccccccccccccccccccccccccccccccccccccccccccccccccccccccccccccccccscccccccccccccc" />
      <path
         id="svg_102"
         style="fill:#e1e1e1;stroke:#646464;stroke-width:3;stroke-miterlimit:4;stroke-opacity:1;stroke-dasharray:none"
         d="m 1588.1923,1515.7561 c -0.3081,-3.3124 0.3569,-5.0604 0.1977,-8.076 -0.4299,-8.1301 -8.5799,-11.25 -15.1699,-13.9201 -6.8401,-2.77 -14.1201,-4.91 -20.1201,-9.3 -2.57,-1.88 -5.23,-2.3 -8.24,-3.1 -3.12,-0.83 -3.85,-3.87 -5.96,-5.98 -4.9399,-4.97 -1.9,-11.18 0.1,-17.12 0.99,-2.9501 0.5801,-6.09 1.53,-8.99 1.1601,-3.54 4.45,-6.77 6.4001,-9.88 2.5599,-4.09 8.9599,-15.94 5.27,-20.87 -3.4301,-4.5801 8.63,-6.38 10.4699,-8.92 2.7801,-3.84 -1.3399,-12.82 1.5501,-16.59 0.52,-0.6601 1.2401,-1.1701 2.2401,-1.4502 2.8899,-0.8199 4.9299,0.9501 7.5199,-1.5899 3.18,-3.1 4.81,-6.44 8.94,-8.62 8.07,-4.24 7.3001,2.3399 15.56,3.27 9.3,1.04 8.7301,-11.11 10.17,-17.1801 1.84,-7.7999 9.11,-9.8199 15.6901,-12.3599 7.5199,-2.9001 4.48,-5.3901 2.3949,-8.83 -0.775,-1.26 -1.395,-2.63 -1.335,-4.1899 0.03,0.01 0.06,0.01 0.08,0.02 0.02,0 0.04,0.01 0.06,0.01 1.07,0.1999 8.2599,-3.28 8.94,-3.7101 4.47,-2.86 4.26,-10.4099 4.51,-14.98 0.35,-6.3399 5.46,-5.87 10.18,-7.54 6.24,-2.21 8.22,-9.73 10.62,-15.1499 2.66,-6.01 5.66,-6.3501 11.6,-5.5901 7.08,0.92 5.09,-6.0399 3.59,-9.8999 -2.32,-5.99 3.4499,-8.8601 3.67,-14.24 0.13,-3.1801 -2.65,-4.4701 -4.44,-6.54 -2.01,-2.3301 -0.7,-5.0501 -1.19,-7.75 -6.01,-2.49 -5.87,-7.6901 -4.775,-12.7501 0.1851,-0.7901 0.375,-1.5901 0.5751,-2.3802 0.3399,-1.3399 3.0799,-1.5 1.2299,-3.5 -1.94,-2.0899 -2.4799,-3.5299 -1.52,-6.6499 1.56,-5.05 6.4101,-8.4701 11.18,-10 6.21,-1.9901 10.1001,-6.31 14.28,-11.08 4.36,-4.98 10.12,-8.44 13.13,-14.5301 2.28,-4.61 0.2001,-11.76 5.74,-14.2999 5.13,-2.35 2.35,-8.17 -1.4199,-10.5801 -5.3101,-3.3899 -9.9301,-4.2799 -16.01,-5.25 -1.0301,-3.99 3.5299,-6.11 3.89,-9.7699 0.3899,-3.9 -1.1701,-8.45 -1.4301,-12.41 -0.5699,-8.5601 6.4,-13.46 -0.5,-20.3101 -4.88,-4.8499 1.65,-16.5699 1.64,-22.7699 -0.01,-3.3401 -0.7199,-6.45 -1.48,-9.5099 -1.4001,-5.6 -3.0001,-10.9599 -0.7501,-17.06 -3.61,-1.84 -5.48,-6.56 -10.0499,-6.21 1,-5.17 8.98,-7.0699 4.3099,-13.12 -3.87,-5.01 -12.6799,-1.03 -14.3099,-8.54 7.8899,-0.4001 8.5199,-0.59 10.3899,-8.36 1.26,-5.24 9.0901,-4.74 11.02,-10.07 1.9501,-5.38 -3.6599,-8.52 1.8401,-13.02 5.85,-4.79 9.5299,-5.94 7.61,-14.33 -0.3401,-1.47998 -0.15,-2.96002 0.39,-4.37 1.84,-4.77002 7.84,-8.79998 12.0199,-9.92999 5.42,-1.47003 7.04,-0.29999 9.79,-6.57001 1.12,-2.55999 3.34,-6.44 5.7801,-6.74494 1.1399,-0.14496 2.35,0.50506 3.5099,2.47503 3.7301,6.31 11.62,5.65002 18.12,4.60004 -0.12,-4.87 8.1401,-2.03145 10.7501,-4.91145 l 0.147,540.91002 z"
         inkscape:connector-curvature="0"
         sodipodi:nodetypes="ccccccccccccccccccccccccccccccccccccccccccccccccccccccccccccccc" />
    </g>
  </g>
  <g
     id="major_2_"
     transform="translate(-1119.7039,-843.77829)">
    <g
       id="svg_155">
      <path
         id="svg_156"
         d="m 1679.1801,1514.8762 c -1.7001,-3.74 -1.3401,-13.2062 3.3499,-14.0762 6.1501,-1.15 4.9201,-9.58 4.77,-14.07 -0.1,-3.08 -1.8,-9.62 2.33,-9.57 2.3201,0.03 4.8101,0.8999 6.89,-0.58 5.01,-3.57 4.78,-12.8 11.34,-14.6 5.63,-1.5501 11.37,3.89 16.8201,4.69 5,0.74 7.1499,-1.92 7.5999,-6.6001 0.49,-5.12 -0.8499,-6.6099 3.89,-8.2899 3.92,-1.38 7.69,-2.6001 10.56,-5.77 1.98,-2.1901 3.32,-4.88 4.85,-7.38 0.83,-1.35 1.6782,-8.7323 2.7782,-9.4322"
         inkscape:connector-curvature="0"
         style="fill:none;stroke:#0978aa;stroke-width:1;stroke-linejoin:round;stroke-opacity:1;stroke-miterlimit:4;stroke-dasharray:none"
         sodipodi:nodetypes="cccccccccccc" />
    </g>
  </g>
  <g
     id="lake"
     transform="translate(-1119.7039,-843.77829)">
    <g
       id="svg_160">
      <path
         id="svg_161"
         d="m 1119.36,972.73004 c 4.56,-4.27997 8.24,-3.69 13.35,-6.10998 4.2,-1.98005 7.56,-6.41004 10.93,-9.51001 6.31,-5.81 17.89,-4.63001 25.91,-5.12 11.81,-0.72003 23.8899,-0.53998 35.7601,-0.89001 9.87,-0.28998 19.5098,-1.62 28.9099,-4.69001 3.94,-1.27996 5.67,-5.78997 9.82,-6.52996 4.99,-0.88001 9.85,2.13 13.63,-2.59003 7.69,-9.62 8.42,7.82001 16.85,6.73999 4.0401,-0.51996 2.72,-5.20996 2.9101,-8.04999 5.0599,-0.96997 10.8399,3.91998 15.3499,-0.42999 2.45,-2.35999 1.98,-6.58002 3.38,-9.5 1.99,-4.15003 7.11,-4.27002 10.13,-7.28998 2.26,-2.26001 3.1401,-5.18005 3.81,-8.44 1.2199,-5.87 4.9601,-4.84003 9.3399,-6.26001 3.9902,-1.29004 5.2901,-5.57001 8.5501,-7.84003 3.91,-2.70996 9.04,-1.54999 13.27,-4.04999 3.96,-2.34997 5.86,-4.42999 9.26,-7.21002 1.96,-1.59998 4.58,-0.75995 6.7999,-1.57996 2.8901,-1.05999 3.5301,-3.97003 5.8301,-5.74005 4.88,-3.73999 8.23,2.67005 12.83,2.48005 3.73,-0.15003 11.49,-3.95002 13.63,-7.03003 3.44,-4.95002 7.77,-18.07996 15.0701,-18.57001 3.2999,-0.21997 5.7399,4.58002 8.7699,0.08 2.52,-3.72998 3.54,-7.66999 6.9,-11 3.26,-3.22998 8.26,-6.34998 13.02,-4.59998 4.23,1.56 7.6901,6.07001 12.61,5.53998 4.8399,-0.52997 6.5,-4.51001 12.17,-4.19 3.31,0.19 7.55,-0.64002 10.5301,-2.04999 3.5299,-1.66998 6.2799,-4.47003 10.3999,-5.41998 5.41,-1.25 9.1199,-5.27002 14.79,-5.23005 l 27.8299,8.51001 c -6.6199,9.51001 -15.9699,15.63001 -24.5299,23.19 -4.18,3.69001 -8.8599,7.35004 -12.69,11.39002 -3.88,4.08997 -6.11,10.89996 -12.0401,12.51001 -4.0499,1.09998 -8.9199,0.61999 -11.3798,4.82996 -1.9701,3.38 -1.2901,7.62005 -3.2901,11.08001 -4.8,8.34003 -13.76,14.87 -23.41,14.77002 -9.83,-0.10003 -17.28,6.12 -26.99,6.68 -4.87,0.27996 -10.64,-0.31 -15.13,1.97998 -4.36,2.23004 -8.83,5.40002 -12.91,8.11999 -3.8,2.54004 -6.6301,6.24005 -11.34,7.20001 -5.1,1.03003 -9.51,-0.35998 -14.57,1.88001 -10.4,4.61999 -9.34,13.82 -16.06,20.98999 -3.22,3.44 -8.19,2.19 -12.33,2.03003 -5.41,-0.21003 -8.74,3.75 -12.94,6.46997 -11.09,7.20001 -19.62,-4.95996 -30.35,-1.52997 -3.91,1.25 -6.16,5.38 -10.1,6.33997 -4.48,1.09002 -7.23,-1.97998 -10.55,-4.25 -4.2701,-2.93 -4.8,0.16003 -7.9099,2.04003 -5.2001,3.13001 -10.4401,1.60999 -16.2701,1.52997 -5.25,-0.08 -10.0999,0.53003 -14.78,-2.41998 -4.29,-2.70001 -8.08,-6.10004 -12.4,-8.75 -10.6601,-6.53998 -20.75,-4.07001 -32.2,-1.35999 -10.36,2.44996 -20.37,2.64997 -28.9601,9.63996 -9.2299,7.52002 -21.8827,14.4143 -30.5027,22.61425 m 320.4929,-92.61424 c 17.9,-0.32 1.68,-11.94 11.42,-18.85998 2.01,-1.42999 4.59,-1.31 6.7699,-2.29999 1.77,-0.80005 2.9901,-2.48004 4.76,-3.38 5.0501,-2.60004 5.7101,-8.31 6.54,-13.36005 4.6,-0.95996 5.08,-5.67999 11.1701,-3.94 3.5799,1.03003 8.3099,0.89001 11.02,-2.26996 2.4399,-2.85998 2.6499,-7.04004 4.35,-10.31 1.97,-3.78003 6.9599,-9.61999 4.14,-14.17004 -3.03,-4.88996 -18.03,6.22003 -20.75,7.64001 -4.9801,2.60004 -9.0501,3.53003 -14.5801,4.12 -5.64,0.60004 -9.5,5.52002 -15.0399,6.07001 -9.65,0.96002 -14.1901,-9.58997 -23.79,-0.70002 -3.6701,3.40003 -4.37,7.42005 -6.08,11.84003 -2.26,5.82001 -7.7401,3.09998 -11.8201,1.16998 -4,2.75 -0.67,20.63001 -8.6799,11.29999 -1.4,-1.63 -2.52,-7.00995 -4.67,-2.35998 -2.62,5.66003 -2.33,8.47003 -8.84,11.10003 -5.41,2.18 -7.8301,-0.23004 -12.8301,-0.82 -3.9,-0.47004 -4.3399,6.82 -5.3199,9.19995 -1.6901,4.12005 -5.0801,4.51001 -8.3301,1.49005 -2.7999,-2.61005 -9.2799,0.34997 -10.2899,4.08996 -0.6701,2.5 0.6799,7.85999 -1.59,9.09003 -3.04,1.64002 -6.31,-3.07001 -8.4901,-4.89001 -5.72,-4.75 -21.23,14.28003 -23.49,17.97998 -4.9399,8.09002 -15.24,10.07 -17.7099,20.10003 -2.5401,10.32996 5.81,10.72998 13.68,9.76996 6.5499,-0.79999 10.0199,-2.53998 14.5,-7.36999 4.61,-4.96997 11.8099,-5.10999 15.3999,-11.38001 2.6901,-4.69995 3.9401,-10.34997 9.9301,-11.85998 6.52,-1.64002 13.25,0.88 19.74,-1.51001 5.88,-2.15998 9.9,-6.5 16.4699,-6.94001 7.3101,-0.48999 10.9301,-1.52996 16.5301,-6.38995 11.7199,-10.17004 22.5098,-1.91003 35.88,-2.15002"
         inkscape:connector-curvature="0"
         style="fill:#c6ecff;stroke:#0978aa;stroke-opacity:1;stroke-width:0.5;stroke-miterlimit:4;stroke-dasharray:none"
         sodipodi:nodetypes="ccccccccccccsccccccccccccccccccccccccccccccccccccccccccccccccccccccccccccccccccccccscccccc" />
    </g>
  </g>
  <g
     id="mask"
     transform="translate(-1119.7039,-843.77829)" />
  <path
     style="fill:none;stroke:#646464;stroke-width:1px;stroke-linecap:butt;stroke-linejoin:miter;stroke-opacity:1"
     d="m 516.7461,261.48171 -5.33373,8.88455 -7.03969,6.21149 -7.45378,9.11018 -7.66192,13.73847 15.16378,-6.10168 c 3.46145,0.7048 4.44939,4.42129 1.53296,7.50186 -5.44542,3.11995 -7.4114,7.76215 -9.86302,12.19189 -3.86508,-0.12527 -3.19997,3.73052 -4.14099,6.17488 l 6.52942,15.83409 c 0.31027,6.83909 3.90925,7.27153 4.96919,8.69608 4.92819,7.10847 1.21098,14.64534 -1.97433,20.64323"
     id="path903"
     inkscape:connector-curvature="0"
     sodipodi:nodetypes="cccccccccccc" />
  <g
     id="minor_2_"
     transform="translate(-1119.7039,-843.77829)"
     style="stroke:#0978aa;stroke-opacity:1;stroke-width:0.5;stroke-miterlimit:4;stroke-dasharray:none">
    <g
       id="svg_106"
       style="stroke:#0978aa;stroke-opacity:1;stroke-width:0.5;stroke-miterlimit:4;stroke-dasharray:none">
      <path
         id="svg_112"
         d="m 1148.8454,1515.3074 c 0.4794,-2.5469 0.4921,-5.1613 -0.1855,-7.5175 -3.24,-11.35 7.51,-22.86 14.3501,-31.1 5.0399,-6.0699 8.74,-22.51 19.7999,-19.63"
         inkscape:connector-curvature="0"
         style="fill:none;stroke:#0978aa;stroke-width:0.5;stroke-linejoin:round;stroke-opacity:1;stroke-miterlimit:4;stroke-dasharray:none"
         sodipodi:nodetypes="cccc" />
      <path
         id="svg_131"
         d="m 1313.7899,842.37994 c 11.1801,-0.10998 10.2101,15.36005 11.4201,23.27002 1.81,11.79999 8.14,20.93 17.42,28.27002"
         inkscape:connector-curvature="0"
         style="fill:none;stroke:#0978aa;stroke-width:0.5;stroke-linejoin:round;stroke-opacity:1;stroke-miterlimit:4;stroke-dasharray:none"
         sodipodi:nodetypes="ccc" />
      <path
         id="svg_134"
         d="m 1193.5701,1514.6901 c 2.0899,-10.36 13.3499,-9.3401 20.8299,-14.2701 4.72,-3.1099 7.35,-7.2399 9.97,-12.12 1.64,-3.05 3.74,-5.88 5.96,-8.53 1.19,-1.42 4.7401,-3.0799 4.21,-5.2099"
         inkscape:connector-curvature="0"
         style="fill:none;stroke:#0978aa;stroke-width:0.5;stroke-linejoin:round;stroke-opacity:1;stroke-miterlimit:4;stroke-dasharray:none"
         sodipodi:nodetypes="ccccc" />
      <path
         id="svg_135"
         d="m 1527.3,1503.24 c -2.9799,-6.34 -7.76,-11.63 -10.63,-18.03 -3.2299,-7.21 -0.7199,-14.7701 0.7701,-22.05 1.4699,-7.17 1.8199,-12.8 1.9499,-20.03 0.14,-7.75 5.6801,-14.24 5.9301,-22.27 0.25,-7.8001 -0.4401,-14.46 -2.5701,-21.95 -2.62,-9.2 0.15,-15.44 1.8101,-24.3401 1.27,-6.8199 -1.84,-13.26 1.64,-19.5 2.6699,-4.7799 -5.4501,-12.0999 1.49,-13.9399 2.8499,-0.76 4.51,-2.0701 5.9299,-4.75 2.4801,-4.67 1.38,-3.51 -0.83,-7.43 -2.16,-3.84 0.2,-13.1401 -6.4899,-13.2701 -6.69,-0.1299 -3.0101,10.5901 -5.1401,14.0301 -3.41,5.52 -13.8499,8.0999 -19.8299,8.06 -4.8001,-0.02 -9.62,7.26 -13.5901,9.7899 -7.09,4.51 -5.6,8.4401 -6.99,15.6901 -1.1999,6.24 -8.4299,6.13 -13.1699,8.35 -7.74,3.63 -12.8101,6.25 -21.63,5.63"
         inkscape:connector-curvature="0"
         style="fill:none;stroke:#0978aa;stroke-width:0.5;stroke-linejoin:round;stroke-opacity:1;stroke-miterlimit:4;stroke-dasharray:none" />
      <path
         id="svg_136"
         d="m 1391.8952,1514.7631 c 3.49,-2.26 15.9247,-5.0131 16.0648,-9.8831 0.26,-9.38 4.51,-8.5699 10.38,-14.2999 5.78,-5.63 11.75,-10.8101 18.81,-14.7901 5.1601,-2.91 12.96,-6.67 15.19,-12.49 1.71,-4.4599 0.88,-13.91 4.52,-17.17 1.66,-1.49 4.26,-0.84 6.16,-1.85 3.56,-1.89 3.44,-7.41 5.09,-10.5899 1.22,-2.35 3.35,-4.6501 3.0701,-7.5 -0.4501,-4.5501 -1.7801,-8 -1.4201,-12.7701 0.6,-7.89 2.46,-11.82 7.97,-17.5 2.3,-2.37 3.52,-6.0799 4.54,-9.13 1.26,-3.79 3.39,-6.4499 5.15,-9.9499 3.08,-6.13 9.11,-13.53 9.28,-20.51 0.19,-8 -1.32,-16.39 0.7,-24.25 0.61,-2.3501 1.68,-3.64 0.84,-6.15 -0.74,-2.22 -2.69,-3.8301 -3.7999,-5.84 -0.75,-1.37 -1.0401,-4.5901 -2.5301,-5.28 -1.65,-0.7601 -4.36,1.65 -5.52,2.5999 -1.13,-1.14 -1.38,-2.37 -1.88,-3.78 -2.31,0.14 -4.18,2.4601 -6.53,2.0701 -2.33,-0.39 -3.69,-3.2201 -5.65,-4.4101 -4.92,-2.9699 -9.97,-1 -13.0101,2.9201 -0.8399,1.0799 -0.3499,1.4499 -1.7999,2.0299 -1.69,0.68 -4.36,-0.19 -6.17,-0.04 -2.27,0.1899 -4.1,0.8099 -5.88,2.26 -2.57,2.1 -3.1599,2.6699 -6.49,3.1899 -2.08,0.3201 -3.95,0.88 -5.27,2.6601 -1.47,1.9899 -1.46,3.2899 -3.8,4.75 -1.57,0.9899 -4,3.14 -5.91,2.39 -0.09,-1.61 -0.12,-3.2801 0.01,-4.9001 -2.71,-1.2199 -4.36,0.23 -6.84,-2.3399 -1.77,-1.8301 -2.21,-3.6801 -5.18,-2.5801 -1.5499,0.5701 -0.1701,3.65 -0.38,4.61 -0.2901,1.3201 -1.6699,2.77 -2.46,3.86 -1.4699,2.03 -3.9,5.8401 -6.93,5.13 -5.26,-1.24 -5.84,-8.1 -7.05,-12.25 -2.9799,-0.44 -3.54,-1.46 -6.55,-0.69 -2.03,0.5201 -2.77,0.9101 -4.57,2.2 -1.52,1.0901 -3.34,2.7201 -5.21,2.2001 -1.94,-0.5401 -3.58,-3.5601 -6.1,-3.0601 -1.57,0.3201 -2.58,2.41 -4.21,2.99 -1.98,0.7001 -3.49,-0.8099 -5.19,-0.4399 -3.74,0.7999 -2.6599,7.53 -3.12,10.1899 -1.1599,6.65 -7.75,-1.09 -10.1,-3.34 -4.34,2.5301 -6.41,7.6901 -11.49,8.6801 -4.28,0.8399 -8.72,1.2899 -12.27,4.1599 -1.94,1.5701 -1.09,3.74 -3.21,5.4501 -1.93,1.5599 -4.62,2.4 -6.7099,3.77 -4.3301,2.84 -5.9301,7.3299 -9.3301,0 -0.95,-2.0501 -3.06,-6.5901 -6.14,-5.25 -1.71,0.75 -2.31,4.8899 -2.82,6.6899 -3.2099,1.1701 -6.38,0.87 -9.36,2.5301 -3.31,1.8399 -6.53,3.78 -10.07,5.16 -1.67,0.6499 -4.57,0.97 -5.86,2.3299 -2.2999,2.43 0.02,6.3801 -1.7,9.19 -1.61,2.63 -6.3499,5.0901 -9.29,5.77 -3.73,0.87 -8.29,-0.7899 -9.57,4.01 -1.26,4.72 0.8901,8.64 -2.47,12.87 -2.48,3.12 -3.91,5.5401 -4.5199,9.63 -0.6101,4.09 1.3499,9.73 -0.62,13.4301 -1.6701,3.14 -6.0801,3.37 -6,7.4499 0.09,5.1 3.8199,10.86 4.8999,15.9201 0.93,4.37 0.13,8.2199 -2.5,11.9 -1.5,2.11 -2.13,3.1699 -1.6599,5.6999 0.6099,3.2701 -0.6102,3.0201 -2.4201,5.43 -0.97,1.29 -2.63,4.7201 -2.24,6.4901"
         inkscape:connector-curvature="0"
         style="fill:none;stroke:#0978aa;stroke-width:0.5;stroke-linejoin:round;stroke-opacity:1;stroke-miterlimit:4;stroke-dasharray:none"
         sodipodi:nodetypes="ccccccccccccccccccccccccccccccccccccccccccccccccccccccccccccccccccc" />
      <path
         id="svg_137"
         d="m 1533.66,1329.5699 c 1.5501,-0.56 2.89,-1.5699 4.48,-2.2299 0.8201,-0.34 3.38,-0.6901 3.85,-1.3201 0.43,-0.5699 0.42,-3.5399 0.7101,-4.33 0.5299,-1.4399 1.39,-2.18 2.4699,-3.52 1.38,-1.7099 2.37,-2.3299 2.5,-4.62 0.11,-2.04 -1.0799,-3.3199 -1.01,-5.3099 0.08,-2.6901 4.9301,-8.3201 7.89,-7.9701 0.3801,1.9801 0,3.4401 1.32,5.1801 1.73,2.29 3.4701,1.7199 5.53,2.75 -0.62,2.38 -1.2199,5.13 -2.27,7.3599 -1.2899,2.74 -4.48,4.22 -2.6,7.3001 1.09,1.7799 4.22,4.0499 6.38,3.9199 2.58,-0.1599 4.45,-3.25 7.2701,-2.24 2.0599,0.74 5.0999,4.9401 6.7299,6.53 3.08,3.0101 1.1601,4.11 0.26,7.5501 -0.7399,2.8099 0.7901,4.3999 2.1701,6.72 1.35,2.27 2.0299,5.03 3.73,7.0699 3.2799,3.9301 9.8399,9.39 15.15,9.0801 0.46,-5.03 6.5,-18.11 12.7899,-12.39 2.9501,2.6799 4.79,7.0599 8.5501,8.9699 1.77,0.9001 2.7299,0.24 4.5,0.2801 5.38,0.12 11.5699,1.4599 13.8199,6.4499 1.88,4.1601 4.5501,9.4201 9.9,9.23 9.59,-0.34 12.62,-11.6999 10.99,-19.4099 8.96,-0.99 20.21,2 28.6,4.6999 2.18,-7.41 11.26,-7.9 16.3201,-3.1099 3.1099,2.9499 3.75,7.0799 2.4,11.0499 -1.9401,5.6901 -1.1001,9.5801 -0.1901,15.42 0.38,2.46 0.5301,4.99 2.5701,6.75 2.0499,1.7701 4.49,0.4001 6.7699,1.39 4.25,1.85 3.5801,7.9201 7.2101,10.21 4.86,3.0701 8.1799,-1.1599 10.13,5.98 0.4599,1.7001 2.01,2.3 3.5899,2.55 3.56,0.5601 2.45,3.7 4.48,5.7801 1.75,-1.2801 3.47,-7.24 6.2,-2.14 2.19,4.0999 -0.83,9 1.25,13.1899 5.8,2.91 7.43,4.13 13.04,0.37 2.4185,-1.6156 5.2177,-2.3298 7.9119,-3.2187"
         inkscape:connector-curvature="0"
         style="fill:none;stroke:#0978aa;stroke-width:0.5;stroke-linejoin:round;stroke-opacity:1;stroke-miterlimit:4;stroke-dasharray:none"
         sodipodi:nodetypes="ccccccccccccccccccccccccccccccccccccccc" />
      <path
         id="svg_138"
         d="m 1407.97,1091.24 c -7.58,-0.36 -16.45,3.25 -21.1701,-4.85 -4.39,-7.55 1.4201,-15.29 -1.2899,-23.22 -1.63,-4.78 -0.9501,-9.62 -0.4501,-14.51 -3.4199,0.06 -6.12,-2.9701 -6.27,-6.26 -0.3999,-8.61 10.13,-16.45 1.01,-23.71 -3.11,-2.48 -7.2799,-4.47 -9.25,-8.11 -1.62,-2.98 0.5601,-6.16 1.3301,-9.04 0.98,-3.64999 3.02,-7.49001 -0.08,-10.75002 -3.0599,-3.21997 -6.9599,-5.51996 -9.7799,-8.97998 -4.54,-5.58002 -2.4801,-12.64002 -7.2201,-17.77002 -4.2899,-4.64002 -11.2999,-7.39997 -12.8199,-14.12"
         inkscape:connector-curvature="0"
         style="fill:none;stroke:#0978aa;stroke-width:0.5;stroke-linejoin:round;stroke-opacity:1;stroke-miterlimit:4;stroke-dasharray:none" />
      <path
         id="svg_140"
         d="m 1115.5694,1369.5112 c 4.6852,-0.449 9.3686,-1.6546 13.9406,-2.3112 6.9501,-1 14.1801,0.14 21,-1.7801 6.4,-1.8099 9.63,-6.5499 11.5501,-12.65 2.79,-8.86 6.4,-13.0199 15.9499,-14.2799 8.4301,-1.12 14.6801,-5.4501 21.51,-10.2301 7.1901,-5.0399 8.98,-9.8899 5.86,-18.24 1.9601,-0.5299 3.5601,0.62 5.4401,-0.5699 1.63,-1.0301 3.3199,-1.4201 5.13,-2.0301 5,-1.6899 4.62,-5.86 4.15,-10.27 -0.6001,-5.5299 2.88,-6.34 7.4099,-6.5599 6.0601,-0.2901 8.0801,-5.24 10.0501,-10.0701 3.9299,-9.59 15.77,-3.0499 18.4599,-13.1599 1.1,-4.16 4.2101,-7.48 0.87,-11.2201 -2.13,-2.3899 -2.25,-9.1 -2.3199,-12.1699 -0.26,-12.51 12.74,-6.72 17.9399,-13.85 2.5601,-3.51 3.9201,-8.88 9.23,-8.7301 5.91,0.16 7.38,-5.3099 6.76,-10.21 -0.49,-3.92 -1.76,-6.63 0.2001,-10.42 1.61,-3.12 3.4499,-6 1.6799,-9.5299 -2.22,-4.4301 -3.4299,-7.5701 1.54,-10.5701 3.84,-2.3299 8.5601,-6.48 6.49,-11.5599 -1.66,-4.0701 -4.6999,-6.49 -2.51,-11.1601 2.3301,-4.9599 2.5501,-10.1899 4.5501,-15.1899 1.78,-4.4401 5.13,-8.04 6.8299,-12.52 2.24,-5.88 2.14,-12.3401 4.98,-18.0401 2.65,-5.3099 3.4301,-8.3 0.91,-13.79 -2.66,-5.7999 0.87,-8.13 1.48,-13.64 0.52,-4.73 -14.6699,-19.74 -19.8399,-17.1799 -4.11,2.04 -1.2801,17.8499 -9.11,13.3699 -8.48,-4.8499 -2.9301,-21.02 -5.4501,-28.9499 -1.6699,-5.27 -0.76,-6.4301 -5.11,-9.78 -2.9099,-2.24 -5.4199,-8.01 -7.6699,-11.1 -2.9701,-4.0801 -1.8401,-6.0701 1.0699,-9.3901 1.9101,-2.18 6.1801,-6.8199 2.75,-9.55 -3.8499,-3.06 -11.88,-6.0999 -16.74,-5.42 -7.9399,1.11 -6.6099,-2.06 -6.67,-7.75996 -0.07,-6.18 -5.83,-8.78998 -11.09,-9.08002 -7.8299,-0.41998 -11.5899,-2.35999 -17.4799,-7.29999 -4.75,-3.98999 -11.2601,-3.11999 -16.0201,-6.48999 -4.0999,-2.90002 -4.15,-6.86999 -9.8299,-7.32001 -3.1801,-0.25 -2.4401,-3.11999 -6.5601,-2.92999 -4.01,0.17999 -11.65,-1.31 -12.26,-6.63"
         inkscape:connector-curvature="0"
         style="fill:none;stroke:#0978aa;stroke-width:0.5;stroke-linejoin:round;stroke-opacity:1;stroke-miterlimit:4;stroke-dasharray:none"
         sodipodi:nodetypes="ccccccccccccccccccccccccccccccccccccccccccc" />
      <path
         id="svg_141"
         d="m 1560.33,1308.5699 c 2.26,-1.77 3.0999,-4.89 3.6999,-7.3399 0.5901,-2.4 0.51,-4.61 1.9601,-6.48 1.8299,-2.3501 4.0499,-3.04 5.99,-5.54 2.51,-3.24 5.91,-6.1401 7.8199,-9.7901 1.02,-1.9599 2.62,-3.77 3.9001,-5.4199 1.44,-1.8601 2.93,-4.2301 4.7399,-5.8 1.6701,-1.46 3.5101,-1 5.4301,-1.6901 0.59,-0.7 0.36,-0.7899 1.35,-1.33 -0.58,-3.03 -0.59,-4.92 -2.01,-7.76 -1.4101,-2.8199 -1.6901,-4.99 -1.22,-8.0399 0.49,-3.17 1.86,-5.75 0.9399,-8.93 -0.6699,-2.2901 -1.4299,-5.6801 -2.9799,-7.5301 0.5999,-1.11 0.79,-2.23 1.4499,-3.3099 3.4401,0.5599 3.3601,-2.6701 4.2401,-4.9301 1.5099,-3.88 3.62,-1.1799 5.96,-3.16 1.87,-1.58 0.8299,-3.8199 3.6799,-5.22 2.66,-1.2999 3.3401,-0.9599 3.8401,-4.0899 0.8199,-5.12 2.75,-9.21 7.24,-12.2901 2.9,-2 10.15,-2.5399 8.4,-6.9699 -0.29,-0.74 -1.13,-1.36 -1.4801,-2.1701 -0.3999,-0.9499 -0.1799,-2.0799 -0.6599,-3.0399 -0.79,-1.5901 -2.61,-2.4201 -3.26,-4.0801 -0.4301,-1.1 -0.22,-2.6 -0.62,-3.8299 -1.1,-3.36 -3.28,-6.3201 -4.5501,-9.63 -1.16,-3.0401 -2.52,-7.2801 -1.27,-10.49 0.9301,-2.38 3.38,-4.12 4.8001,-6.25 1.7199,-2.58 3.0699,-4.6401 5.4299,-6.6801 1.9,-1.64 4.2401,-3.4199 3.6001,-6.3199 -1.4401,-6.48 -11.79,0.6899 -14.8301,2.16 -4.4499,2.1499 -8.5699,1.37 -12.5499,4.5599 -0.1901,-3.63 1.14,-7 0.6,-10.61 -0.38,-2.55 -1.5201,-3.8 -2.37,-6.02 3.39,-3.15 2.3299,-7.5 4.04,-11.5499 1.37,-3.2401 2.07,-6.2401 4.3999,-9.26 2.5,-3.24 5.66,-4.0601 5.3001,-8.8401 -0.2,-2.6499 -0.03,-4.5199 1.8199,-6.49 1.6801,-1.7999 5.6901,-2.8099 6.49,-5.1899 0.5,-1.51 -0.3199,-5.5501 -0.84,-7.0701 -1.6799,-4.89 -0.6999,-9.89 -2.63,-14.7799 -1.0499,-2.67 -1.5699,-4.4401 -1.7999,-7.28 -0.26,-3.23 -1.91,-3.1501 -3.0901,-5.5301 -1.1799,-2.37 7.63,-10.16 1.63,-9.78 -3.6799,0.23 -6.74,5.66 -10.4599,3.0901 -5.45,-3.75 -0.46,-9.24 1.8,-12.7101 2.5399,-3.89 1.58,-8.8199 4.07,-12.73 2.3499,-3.69 5.7099,-6.0399 6.14,-10.7699 0.37,-4.06 -2.38,-6.3401 -3.1501,-10 -2.12,-10.12008 10.5601,-11.72006 14.3901,-18.91006 1.5799,-2.96002 3.4399,-9.14001 0.8,-11.96997 -2.8601,-3.06 -8.3301,-0.27002 -10.4601,-4.30005 -2.1899,-4.15997 -0.2099,-7.90997 -6.1799,-8.88995 -3.5601,-0.58002 -6.27,-1.67005 -8.11,-4.89002 -1.04,-1.81 -0.67,-3.34002 -1.3301,-5.13 -0.6699,-1.79999 -2.61,-2.77002 -3.01,-4.72998 -0.6799,-3.31 1.6601,-4.80005 -1.2099,-7.87 -2.4101,-2.58001 -4.47,-4.91003 -3.2601,-8.62005 2.7901,-8.56995 3.33,-11.89997 -3.6199,-18.48999 -6.7801,-6.44001 -12.98,-12.98999 -19.1501,-20 -10.1799,-11.57001 -27.36,-17.25 -41.7199,-10.88996 -5.75,2.53998 -12.63,8.39997 -19.32,7.31 -3.9901,-0.65002 -7.01,-5.32001 -9.78,-7.90002 -3.5701,-3.33002 -7.3201,-6.52002 -11.4201,-9.16999"
         inkscape:connector-curvature="0"
         style="fill:none;stroke:#0978aa;stroke-width:0.5;stroke-linejoin:round;stroke-opacity:1;stroke-miterlimit:4;stroke-dasharray:none" />
      <path
         id="svg_153"
         d="m 1444.08,1318.3199 c 1.0999,-0.91 2.01,-2.89 2.5699,-4.27 0.52,-1.2999 0.25,-3.3299 0.91,-4.4199 0.84,-1.39 2.76,-1.8301 3.47,-3.4701 0.8301,-1.89 0.7101,-3.9199 1.3401,-5.8099 4.23,-0.24 5.24,-3.51 8.02,-5.8401 3.22,-2.7 7.6299,-3.81 10.62,-7.0499 1.7799,-1.9301 3,-5 3.59,-7.5501 0.37,-1.5699 0.76,-3.4199 0.5499,-5.0499 -0.25,-1.9201 -1.73,-2.9701 -2.3199,-4.77 0.87,0.1099 1.8199,0 2.51,-0.5601 2.76,2.38 5.7199,-2.1999 7.3199,-3.87 1.12,-1.1799 2.86,-1.65 2.6001,-3.49 -0.2301,-1.63 -3,-2.77 -3.13,-4.12 -0.18,-1.86 1.3899,-1.4599 2.4299,-1.2099 1.84,0.4599 2.22,1.63 3.76,0.05 1.36,-1.3999 1.37,-3.0199 1.5101,-4.7699 0.3399,-4.13 2.9399,-8.38 2.65,-12.4601 -1.5401,0.08 -2.24,-1.47 -2.1601,-2.76 0.1901,-2.95 2.4201,-2.33 4.5701,-2.09 1.81,0.2 4.6,1.1601 5.75,-0.6799 1.1299,-1.8 0.2699,-5.66 0.7699,-7.75 0.7001,-2.8601 1.9701,-3.41 3.77,-5.41 1.4001,-1.5601 2.9401,-4.4601 3.13,-6.47 0.21,-2.1001 -0.7299,-4.28 -0.53,-6.17 0.3601,-3.4301 6.1801,-5.5401 4.5801,-9.7601 -0.78,-2.05 -3.89,-2.4699 -1.61,-4.87 2.0199,-2.13 4.5399,-2.4699 5.47,-5.7099 1.6999,-5.9401 -1.08,-11.2301 -2.1,-16.9701 -0.1801,-1.0399 0.03,-2.49 -0.26,-3.45 -0.4201,-1.38 -1.7901,-2.4699 -2.53,-3.6999 -1.6401,-2.7001 -0.8101,-5.27 -1.9201,-8.0801 -1.0599,-2.6999 -1.85,-1.76 -4.14,-2.59 -4.3199,-1.55 -4.97,-9.03 -7.1799,-12.4799 -2.33,-3.6501 -2.63,-6.9501 -2.21,-11.09 0.47,-4.7001 0.4099,-9.3601 0.4299,-14.0701"
         inkscape:connector-curvature="0"
         style="fill:none;stroke:#0978aa;stroke-width:0.5;stroke-linejoin:round;stroke-opacity:1;stroke-miterlimit:4;stroke-dasharray:none" />
      <path
         id="svg_154"
         d="m 1599.33,1130.3199 c -5.72,4.69 -11.0301,-2.92 -16.2601,1.07 -2.0899,1.5901 -2.79,4.67 -4.8399,6.43 -5.5701,4.7601 -9.5401,-2.13 -15.1801,-2.65 -5.25,-0.49 -10.61,3.5301 -15.8399,1.77 -5.1501,-1.7299 -5.7901,-8.65 -4.59,-13.14 1.01,-3.77 2.6599,-14.4499 -4.0601,-14.29 -2.89,0.07 -5.03,3.8701 -7.25,5.29 -2.1099,1.35 -4.51,1.21 -6.6799,2.3001 -4.79,2.4199 -6.6101,10.52 -11.6101,3.9399 -3.2999,-4.3299 -6.8099,-8.0899 -6.62,-13.77 0.2401,-7.2699 0.41,-11.5 -5.87,-16.13 -3.72,-2.74 -6.37,-9.8999 -11.5399,-9.98 -1.5601,-0.03 -4.3301,1.6 -3.9301,-1.4299 0.23,-1.74 2.51,-1.89 3.4301,-3.0401 4.1899,-5.2299 -5.3301,-2.54 -7.26,-3.4699 -3.9101,-1.88 0.26,-6.5401 -0.3301,-9.4001 -1.63,-7.93 -12.5499,3.6701 -15.88,2.94 -0.3899,-4.1599 2.76,-4.96 3.63,-8.5499 1.3101,-5.4401 -4.4399,-7.9401 -6.9099,-11.98 -1.64,-2.6901 -0.87,-4.8301 0.27,-7.61 1.86,-4.5601 3.7799,-11.2301 1.83,-16.0001 -1.0201,-2.49 -3.12,-4.8999 -4.36,-7.3499 -1.23,-2.43 -2.3101,-5.05 -3.25,-7.62 -1.7101,-4.69 -1.9,-10.30002 -4.35,-15.15006 -1.4801,-2.95001 -1.8,-4.84998 -4.24,-7.25 -2.04,-2.01001 -3.8501,-4.03998 -5.14,-6.64002 -4,-0.19 -5.8501,-0.32995 -8.9601,-3.10998 -2.8099,-2.51001 -5.38,-5.77002 -8.38,-8.02002 -1.7899,-1.32996 -2.5499,-1.34998 -3.4099,-3.52997 -1.12,-2.82001 -1.42,-6.48999 -3.1001,-9 -3.2899,-4.90997 -6.8999,-9.38 -10.59,-14.03998 -2.13,-2.68005 -3.03,-6.17004 -5.0699,-8.84002 -2.99,-3.90998 -10.9501,-7.01001 -12.35,-11.85999"
         inkscape:connector-curvature="0"
         style="fill:none;stroke:#0978aa;stroke-width:0.5;stroke-linejoin:round;stroke-opacity:1;stroke-miterlimit:4;stroke-dasharray:none" />
    </g>
  </g>
</svg>
