<?xml version="1.0" encoding="utf-8"?>
<!-- Generator: Adobe Illustrator 16.0.0, SVG Export Plug-In . SVG Version: 6.00 Build 0)  -->
<!DOCTYPE svg PUBLIC "-//W3C//DTD SVG 1.1//EN" "http://www.w3.org/Graphics/SVG/1.1/DTD/svg11.dtd">
<svg version="1.1" id="Calque_1" xmlns="http://www.w3.org/2000/svg" xmlns:xlink="http://www.w3.org/1999/xlink" x="0px" y="0px"
	 width="979.198px" height="1056.532px" viewBox="0 0 979.198 1056.532" enable-background="new 0 0 979.198 1056.532"
	 xml:space="preserve">
<g id="N6Feja_1_">
	<g>
		<path fill="#99CCFF" d="M977.198,45.532c0.334,0.167,0.943,0.316,0.955,0.503c0.084,1.328,0.045,2.664,0.045,3.997
			c0,335.167,0,670.333,0,1005.5c-97.166,0-194.334,0.004-291.5-0.042c-1.5-0.001-3-0.625-4.5-0.958
			c0.537-1.383,1.19-2.731,1.593-4.151c5.216-18.389,9.818-36.792,11.204-56.07c1.175-16.334,4.666-32.505,7.225-48.734
			c2.547-16.155,4.695-32.397,7.982-48.403c2.576-12.553,6.599-24.811,10.021-37.188c7.279-26.328,13.814-52.895,22.102-78.902
			c8.288-26.017,18.965-51.267,27.445-77.229c8.896-27.24,23.428-52.395,29.557-80.584c3.293-15.141,7.394-30.318,8.492-45.669
			c1.226-17.118,5.078-33.608,8.596-50.158c2.621-12.331,8.699-23.908,11.549-36.212c4.24-18.304,6.905-36.97,10.395-55.452
			c3.368-17.843,6.999-35.637,10.377-53.479c1.473-7.779,2.062-15.761,4.014-23.405c3.191-12.501,7.297-24.767,10.738-37.208
			c1.08-3.903,0.787-8.198,1.959-12.06c2.889-9.519,5.932-19.017,9.517-28.291c5.627-14.554,11.626-28.969,17.711-43.34
			c3.503-8.273,7.562-16.309,11.21-24.522c1.469-3.305,2.32-6.882,3.777-10.193c18.736-42.594,36.627-85.562,57.183-127.348
			C969.659,66.141,973.116,55.683,977.198,45.532z"/>
	</g>
</g>
<path fill="none" d="M647.879,551.297c-3.273-1.715-6.879-2.828-10.821-3.654c-0.59,3.082-1.107,5.788-1.665,8.698
	c-6.1-0.645-11.86-1.233-17.616-1.869c-3.031-0.335-4.418,0.702-3.531,4.09c3.06,0.555,6.082,1.103,10.533,1.91
	c-2.119,3.769-4.23,6.471-5.259,9.537c-4.396,13.116-2.414,26.845-3.435,40.292c-0.037,0.477,0.144,0.98,0.272,1.459
	c0.936,3.459,1.884,6.916,2.97,10.89c6.635,0.78,6.798,0.805,5.981,9.115c-0.353,3.593-1.486,7.112-2.299,10.657
	c-0.452,1.975-0.973,3.934-1.463,5.898c0.364,0.32,0.728,0.641,1.092,0.962c4.638-7.487,9.169-15.208,19.772-9.66
	c-0.189,2.115-1.178,4.812-0.494,6.981c2.476,7.853-0.658,15.381-0.723,23.059c-0.046,5.543-0.567,11.08-0.764,16.623
	c-0.137,3.831,2.387,5.095,5.682,5.525c3.153,0.412,6.303,0.865,9.445,1.354c3.542,0.549,6.041-0.211,7.012-4.24
	c1.203-4.992,3.009-9.838,4.229-14.828c0.71-2.9,0.582-5.998,1.195-8.932c0.659-3.148,1.171-6.555,2.784-9.221
	c2.298-3.799,5.542-7.025,8.948-11.189c1.02,0,3.486,0,5.923,0c1.844-5.527,1.698-11.916,8.032-15.135
	c0.9-0.457,0.85-3.301,0.789-5.025c-0.138-3.906-1.479-8.008-0.665-11.66c1.646-7.383,4.412-14.514,6.682-21.76
	c0.523-1.672,1.255-3.379,1.291-5.082c0.128-5.99,0.083-11.996,0.067-18.161l-2.522,0.395l1.553-2.772
	c-5.079,2.67-10.161,5.853-15.687,7.745c-3.792,1.298-9.383,2.088-12.298,0.208c-6.127-3.953-11.631-9.322-16.261-15.026
	c-2.414-2.973-5.111-5.158-8.088-6.817l-0.422,0.505L647.879,551.297z"/>
<polygon fill="none" points="758.44,568.325 764.902,568.325 768.492,565.456 772.316,556.909 745.504,561.103 751.261,564.259 "/>
<g>
	<polygon fill="none" points="758.44,568.325 764.902,568.325 768.492,565.456 772.316,556.909 745.504,561.103 751.261,564.259 	
		"/>
	<polygon fill="none" points="813.038,550.541 813.048,550.539 801.282,546.548 797.213,546.548 794.102,548.224 792.905,546.788 
		785.246,546.788 781.896,544.155 774.236,544.155 774.236,549.66 772.562,556.361 772.316,556.909 813.038,550.541 	"/>
</g>
<g>
	<path fill="#FFFFCC" stroke="#333333" stroke-width="2" stroke-miterlimit="10" d="M729.062,787.072
		c-6.499,0.291-11.302-0.822-11.646-8.907c-0.137-3.2-7.439-5.855-10.435-4.11c-3.91,2.278-1.506,5.088-0.223,7.697
		c2.562,5.211,0.389,8.848-5.474,9.055c-1.991,0.07-4.229-0.597-5.919,0.111c-1.917,0.804-3.771,2.524-4.82,4.33
		c-0.578,0.996,0.193,4.038,0.992,4.312c1.787,0.615,4.046,0.385,5.972-0.082c1.892-0.459,3.538-1.865,5.419-2.446
		c3.002-0.927,6.138-1.958,8.348,1.735c0.539,0.902,1.688,1.691,2.717,2.004c4.154,1.262,3.387,4.395,2.048,6.748
		c-1.233,2.168-3.437,4.473-5.7,5.198c-3.139,1.007-3.595,2.724-3.726,5.421c-0.347,7.178-1.352,7.736-7.747,4.859
		c1.318-3.646,2.637-7.293,3.851-10.652c-3.848-3.305-6.94-3.127-10.136-0.105c-2.598,2.456-5.443,2.535-8.435,0.277
		c-1.261-0.951-2.93-1.453-4.486-1.909c-4.206-1.233-8.343-2.442-10.124-7.146c-0.248-0.656-1.033-1.291-1.72-1.572
		c-8.774-3.582-17.783-3.229-26.667-0.818c-2.326,0.631-4.318,3.02-6.117,4.928c-2.238,2.375-3.614,6.252-6.264,7.396
		c-4.371,1.892-5.423,4.979-5.96,8.886c-0.511,3.718-0.963,7.443-1.353,10.481c-5.129,3.313-7.464-6.141-12.64-2.521
		c-3.526-1.941-7.656-3.984-11.507-6.46c-1.291-0.831-2.642-2.761-2.648-4.194c-0.034-6.817,0.472-13.636,0.619-20.457
		c0.131-6.047-5.179-10.66-11.196-10.592c-3.269,0.037-6.802-0.418-9.761-1.701c-3.746-1.625-6.905-4.553-10.554-6.467
		c-2.401-1.262-5.743-3.082-7.757-2.304c-6.713,2.595-11.295,0.175-15.586-4.534c-0.753-0.826-1.943-1.255-2.931-1.867
		c-9.944-6.158-20.853-1.294-31.274-3.323c-0.986-0.831-2.305-1.941-3.623-3.052c-0.877,2.625-0.762,4.559-0.426,6.453
		c0.374,2.119,1.377,4.21,1.342,6.301c-0.066,4.004-2.16,6.234-6.502,6.321c-7.217,0.144-14.427,0.583-22.956,0.954
		c3.293,3.031,5.728,4.828,7.562,7.108c1.363,1.692,2.782,4.026,2.743,6.046c-0.219,10.967-0.907,21.922-1.36,32.885
		c-0.052,1.233,0.077,3.427,0.596,3.581c4.083,1.215,2.575,4.399,2.856,7.009c0.309,2.879-0.201,6.855,1.457,8.365
		c3.354,3.053,2.775,5.894,1.977,9.393c-0.503,2.197-0.861,4.575-0.568,6.777c0.625,4.691,1.717,9.321,2.746,14.65
		c-6.635-0.361-13.314,1.252-16.516-1.375c-4.476-3.672-8.943-2.523-13.321-3.648c-3.282-0.842-4.95,0.595-4.672,4.264
		c0.575,7.572,0.931,15.163,1.378,22.746c0.154,2.618,0.807,5.097-2.874,6.434c-1.78,0.647-4.354,4.252-3.939,4.945
		c2.429,4.061-0.946,7.08-1.067,10.518c-0.117,3.341-1.816,4.463-4.475,4.695c-2.771,0.241-5.6-0.188-8.371,0.051
		c-3.193,0.275-6.364,0.891-9.521,1.49c-2.597,0.492-5.212,1.831-7.721,1.619c-3.613-0.304-5.316,0.892-5.947,4.268
		c-0.855,4.577-1.893,9.123-2.623,13.719c-0.215,1.352-0.17,3.316,0.636,4.166c5.052,5.336,10.353,10.436,15.603,15.645
		c4.451-5.211,8.207-9.607,12.167-14.244c5.87,7.039,11.017,13.123,16.059,19.291c3.988,4.878,9.061,7.322,15.312,6.658
		c9.226-0.979,18.401-2.482,27.641-3.279c3.953-0.34,8.527-0.537,11.916,1.086c7.273,3.482,13.94,8.222,20.906,12.359
		c0.941,0.559,2.174,0.838,3.281,0.871c7.992,0.242,15.987,0.539,23.98,0.518c6.869-0.019,12.309-8.409,9.826-15.02
		c5.574-2.889,4.332-8.207,4.814-13.116c0.324-3.304,0.79-8.271,2.857-9.372c4.167-2.223,5.652-4.936,6.109-9.151
		c0.2-1.845,14.394-6.857,16.139-6.067c4.222,1.91,8.502,3.69,12.725,5.508c0.1,1.692,0.537,4.048,0.292,6.33
		c-0.28,2.609-0.989,5.213-1.825,7.715c-1.938,5.792-0.505,8.258,5.537,9.295c6.458,1.109,12.908,2.27,19.35,3.475
		c4.01,0.751,7.997,1.627,11.82,2.411c0.806-3.31,0.749-6.499,2.266-8.489c2.202-2.887,5.684-4.76,8.352-7.342
		c2.35-2.276,4.697-3.137,8.012-2.402c3.879,0.859,7.908,1.018,11.855,1.587c7.689,1.108,15.368,2.293,23.728,3.548
		c4.136-60.525,24.142-117.117,38.368-175.236C736.025,787.383,732.53,786.918,729.062,787.072z"/>
	<path fill="#FFFFCC" stroke="#333333" stroke-width="2" stroke-miterlimit="10" d="M272.412,833.499
		c-0.398-1.862-2.071-4.505-3.624-4.885c-7.194-1.756-14.517-3.107-21.863-4.073c-5.012-0.66-12.25-8.156-11.887-13.285
		c0.064-0.904,0.754-1.76,1.14-2.644c1.473-3.376,3.288-6.65,4.332-10.154c1.934-6.483,2.965-13.259,5.21-19.618
		c2.24-6.342,1.087-8.186-5.487-8.969c-7-0.835-13.977-2.414-20.74-4.422c-2.7-0.801-4.524-4.434-7.23-5.353
		c-6.797-2.308-13.861-3.839-20.839-5.601c-2.073-0.522-4.33-0.469-6.301-1.213c-3.696-1.395-6.13,0.496-6.039,3.506
		c0.113,3.709,1.939,7.359,2.973,11.051c0.858,3.066,2.472,6.207,2.274,9.219c-0.357,5.439-1.957,10.784-2.783,16.207
		c-1.177,7.716-2.067,15.475-3.224,23.193c-0.201,1.341-0.768,3.006-1.749,3.786c-4.657,3.703-9.515,7.152-14.874,11.114
		c3.053,2.204,5.256,3.926,7.588,5.453c6.485,4.248,13.733,7.346,18.806,13.668c2.08,2.592,6.06,3.898,7.558,6.666
		c3.278,6.057,5.857,10.199,14.598,9.225c7.438-0.828,15.351,2.713,23.076,4.21c1.045,0.202,2.303-0.03,3.318-0.429
		c10.583-4.162,21.368-6.608,32.805-4.35c1.104,0.219,2.29,0.029,4.215,0.029c0.741-4.223,2.237-8.287,1.973-12.232
		C275.187,846.852,273.831,840.135,272.412,833.499z"/>
	<path fill="#FFFFCC" stroke="#333333" stroke-width="2" stroke-miterlimit="10" d="M331.402,864.869
		c-0.382-0.385-1.268-0.375-1.92-0.373c-9.129,0.012-18.262-0.074-27.388,0.132c-7.184,0.162-7.863,1.087-8.297,8.497
		c-0.331,5.639-0.813,11.27-1.228,16.904c-0.132-0.001-0.264-0.002-0.396-0.002c0,5.812-0.103,11.627,0.062,17.434
		c0.05,1.748,0.45,3.734,1.383,5.154c1.944,2.959,4.27,5.684,6.595,8.369c1.946,2.248,3.922,4.544,6.227,6.39
		c4.117,3.296,5.774,2.826,7.77-1.916c1.86-4.423,3.779-8.847,5.222-13.413c1.923-6.086,6.849-7.516,12.121-9.021
		c2.443-0.698,5.573-1.964,6.652-3.928c4.033-7.338,4.297-15.835,2.893-23.585C340.372,871.5,334.84,868.338,331.402,864.869z"/>
	<path fill="#FFFFCC" stroke="#333333" stroke-width="2" stroke-miterlimit="10" d="M380.333,843.927
		c-0.576-5.093-1.366-10.161-2.127-15.706c-7.949,0-15.842,0-23.207,0c-1.024,10.846-2.014,21.324-3.109,32.919
		c10.802-0.456,21.168-0.839,31.522-1.419c1.042-0.059,2.67-1.173,2.863-2.053c0.257-1.173-0.209-3.117-1.09-3.819
		C381.917,851.245,380.777,847.854,380.333,843.927z"/>
</g>
<path fill="none" d="M648.12,552.168l0.422-0.505c-0.221-0.123-0.439-0.249-0.663-0.366L648.12,552.168z"/>
<path fill="none" d="M828.203,354.586l-6.488,6.761c0.331,0.31,0.666,0.595,1.007,0.852L828.203,354.586z"/>
<g>
	<path fill="#FFFFCC" stroke="#333333" stroke-width="2" stroke-miterlimit="10" d="M948.866,48.096
		c-16.471-5.714-32.89-11.58-49.313-17.43c-1.375-0.49-2.624-1.335-3.931-2.016c-0.334,0-0.666,0-1,0
		c-6.97,2.096-10.506,6.888-12.441,13.867c-3.584,12.918-7.693,25.704-11.99,38.408c-3.663,10.83-5.717,21.708-5.113,33.243
		c0.405,7.755,0.184,15.736-1.205,23.352c-3.128,17.141-7.148,34.119-10.824,51.159c-0.738,3.426-1.084,5.979,3.469,7.649
		c11.957,4.388,23.633,9.538,35.449,14.316c3.911,1.582,7.906,2.958,10.954,4.09c11.86-27.135,23.2-53.518,34.907-79.736
		c11.685-26.17,23.736-52.177,35.885-78.818C965.21,53.424,956.985,50.912,948.866,48.096z"/>
	<path fill="#FFFFCC" stroke="#333333" stroke-width="2" stroke-miterlimit="10" d="M693.339,148.29
		c6.998,1.309,14.062,2.69,21.143,2.923c2.954,0.097,7.506-1.796,8.699-4.129c2.725-5.331,3.826-11.491,5.693-17.667
		c-12.229-1.11-23.247-2.11-35.247-3.2c-1.013,6.01-2.223,12.16-2.938,18.366C690.554,145.752,692.212,148.079,693.339,148.29z"/>
	<path fill="#FFFFCC" stroke="#333333" stroke-width="2" stroke-miterlimit="10" d="M821.715,361.347
		c-0.187-0.176-0.376-0.342-0.56-0.536c-0.702-0.739-2.148-0.788-3.262-1.116c-9.83-2.901-17.513-8.409-22.245-17.77
		c-1.174-2.322-3.124-4.246-4.673-6.385c-0.861-1.189-2.346-2.452-2.33-3.666c0.104-7.939-3.777-14.656-6.138-21.857
		c-1.95-5.947-3.144-12.138-4.874-18.162c-1.554-5.406-5.172-8.021-10.959-8.388c-5.676-0.36-9.903,1.802-12.623,6.342
		c-6.137,10.246-11.703,20.833-17.852,31.07c-5.396,8.982-6.688,18.722-6.032,28.81c0.688,10.602,1.889,21.169,2.987,33.075
		c-2.375-1.226-4.634-1.881-6.215-3.293c-8.705-7.781-17.67-14.742-29.239-18.271c-6.914-2.109-13.231-6.341-19.604-9.991
		c-3.611-2.067-9.924-1.159-11.95,2.486c-2.126,3.824-4.517,6.417-9.499,4.456c-2.309-0.909-4.465-0.49-6.361,2.133
		c-1.51,2.088-4.393,3.902-6.932,4.36c-3.845,0.692-6.013,2.05-6.461,6.065c-0.12,1.076-1.097,2.546-2.057,2.958
		c-6.979,2.997-13.646,6.084-13.104,15.462c0.053,0.909-0.787,1.836-0.949,2.799c-0.623,3.696-1.758,7.45-1.523,11.106
		c0.175,2.738-0.257,4.452-1.975,5.089l7.461,1.955l-3.973,43.268l-0.15,1.632h-21.076l0.741,2.77l0.833,4.333l-1.574,2.083v3.667
		l0.741,1.667l3.916,1l2.167,1l1.833,1.333l2,1.583l0.834,2.167l1.108,0.833v0.917l0.725,0.583l1.25,1.083h7.417l0.75-0.833h0.666
		l4,0.083v2.833l-0.749,1.167h-3l-0.834,1h-1.5l-1.916,0.75h-1.084l-0.833,0.833v1.75l1.083,1.167l1,0.5l2.084-0.917l1.25-1.167h3
		l1.499-0.833l2.501-0.083l0.406-0.061l13.509-2.022l2.417-1l1.417-0.833l2.25-1.833l1.833-1.667l1-0.75l1.75-1.167l0.833-0.417
		v-8.667l6.334,0.333v4.25l-0.583,1.25l0.583,0.75l2.084,0.667l2.75-0.25l1.333-0.75l1.583-1.083l0.917-0.917l1.417-0.833h1.833
		l0.917,2.917V477l3.916,0.25v2.75l1.583,1.083l2.583,0.083v2.75l5.334-0.083l1.916-0.167l5.834,9.5l5.996-0.165l1.25-2.75h7.667
		v-11l39-4.417l-1.833-23.666h-11.774h-2.309v-0.667v-3.833l1-0.833l5.416-0.5l0.834-7.917l1.167-8.917l0.666-8.417l0.5-1.833h1.583
		l4.667,1.333l8.667,0.667l2.583,2.083l1.958,0.979l1.542,0.771l2.25,0.917l4.083,2.083l2.5,2.25l4.25,1.833l4.083,1.25l7.666,0.25
		l7.417,0.417l3.083-4.25l1.334-3l0.833-3.583l4.167-5l0.834-3.5l3-2.667l2.084-4.917l1.333-3.5l2.334-5.417l1.667-7.75l2.5-5
		l-4.167-3.75l4.583-10.917l3.095-7.627l0.008-0.01C822.381,361.941,822.046,361.656,821.715,361.347z"/>
</g>
<path fill="#FFFFCC" stroke="#333333" stroke-width="2" stroke-miterlimit="10" d="M838.343,364.679
	c-5.44-0.087-10.984,1.026-15.621-2.48l-0.008,0.01l-3.095,7.627l-4.583,10.917l4.167,3.75l-2.5,5l-1.667,7.75l-2.334,5.417
	l-1.333,3.5l-2.084,4.917l-3,2.667l-0.834,3.5l-4.167,5l-0.833,3.583l-1.334,3l-3.083,4.25l-7.417-0.417l-7.666-0.25l-4.083-1.25
	l-4.25-1.833l-2.5-2.25l-4.083-2.083l-2.25-0.917l-1.542-0.771l-1.958-0.979l-2.583-2.083l-8.667-0.667l-4.667-1.333h-1.583
	l-0.5,1.833l-0.666,8.417l-1.167,8.917l-0.834,7.917l-5.416,0.5l-1,0.833v3.833v0.667h2.309h11.774l1.833,23.666l-39,4.417v11
	h-7.667l-1.25,2.75l-5.996,0.165l-1.917,12.167l-4-0.5l-4.583-0.75l-3.333-0.917l-14.75-0.167l-2.75-0.917l-2.75-1.333l-2,0.167
	l-0.084,3.417l-1.333,3.167l-1,2.25l-0.667,1.833l-0.75,1.5v6l0.5,0.917l-0.501,3.833l-0.167,3l-1.083,2.417l0.167,9.667l-1.084,2
	l-1.166,1.25v2l1.25,1.083l-0.417,1.333l-4.245,5.078c2.977,1.659,5.674,3.844,8.088,6.817c4.63,5.704,10.134,11.073,16.261,15.026
	c2.915,1.88,8.506,1.09,12.298-0.208c5.525-1.892,10.607-5.074,15.687-7.745l1.798-3.209l6.941-5.744l6.703,1.197l4.786-2.633
	l10.531,1.197l4.308,1.197l2.394,1.197l3.351-0.239l2.154,1.675l1.663,0.912l5.757,3.157l7.18,4.066h6.462l3.59-2.87l3.824-8.546
	l0.245-0.548l1.675-6.701v-5.505h7.659l3.351,2.633h7.659l1.196,1.436l3.111-1.676h4.069l11.766,3.991l-0.01,0.001l0.013,0.001
	c1.86-10.552,4.283-20.966,6.651-31.396c3.2-14.089,8.734-27.632,12.445-41.626c3.09-11.649,5.389-23.542,7.402-35.434
	c2.681-15.832,4.414-31.827,7.203-47.637c1.617-9.176,4.505-18.128,7.021-27.962C848.159,365.79,843.259,364.758,838.343,364.679z"
	/>
<path fill="#FFFFCC" stroke="#333333" stroke-width="2" stroke-miterlimit="10" d="M813.038,550.541l0.01-0.001l-11.766-3.991
	h-4.069l-3.111,1.676l-1.196-1.436h-7.659l-3.351-2.633h-7.659v5.505l-1.675,6.701l-0.245,0.548l-3.824,8.546l-3.59,2.87h-6.462
	l-7.18-4.066l-5.757-3.157l-1.663-0.912l-2.154-1.675l-3.351,0.239l-2.394-1.197l-4.308-1.197l-10.531-1.197l-4.786,2.633
	l-6.703-1.197l-6.941,5.744l-1.798,3.209c0.321-0.169,0.643-0.342,0.964-0.507c0,0.969,0.004,1.923,0.006,2.884
	c0.016,6.165,0.061,12.171-0.067,18.161c-0.036,1.703-0.768,3.41-1.291,5.082c-2.27,7.246-5.036,14.377-6.682,21.76
	c-0.813,3.652,0.527,7.754,0.665,11.66c0.061,1.725,0.111,4.568-0.789,5.025c-6.334,3.219-6.188,9.607-8.032,15.135
	c-2.437,0-4.903,0-5.923,0c-3.406,4.164-6.65,7.391-8.948,11.189c-1.613,2.666-2.125,6.072-2.784,9.221
	c-0.613,2.934-0.485,6.031-1.195,8.932c-1.22,4.99-3.025,9.836-4.229,14.828c-0.971,4.029-3.47,4.789-7.012,4.24
	c-3.143-0.488-6.292-0.941-9.445-1.354c-3.295-0.431-5.818-1.694-5.682-5.525c0.196-5.543,0.718-11.08,0.764-16.623
	c0.064-7.678,3.198-15.206,0.723-23.059c-0.684-2.17,0.305-4.866,0.494-6.981c-10.604-5.548-15.135,2.173-19.772,9.66
	c-0.364-0.321-0.728-0.642-1.092-0.962l-11.165,2.496l-0.569,1.519h-2.278c0.386,7.828,0.514,15.672,0.624,23.511
	c0.012,0.834-0.696,2.345-1.224,2.416c-4.441,0.604-3.127,4.033-3.259,6.562c-0.198,3.788-0.052,7.596-0.052,11.46
	c-2.764,0.818-7.28,1.052-7.693,2.477c-1.506,5.186-7.626,7.961-6.853,14.217c0.339,2.746-0.323,5.641-0.732,8.438
	c-0.155,1.065-0.774,2.87-1.356,2.943c-8.105,1.019-5.036,10.421-10.146,12.452c4.308,2.855,7.892,6.307,12.157,7.771
	c4.691,1.611,4.788,4.437,4.94,8.261c0.417,10.503,2.841,19.866,13.229,25.517c10.111,5.497,19.541,6.967,26.17-3.162
	c3.803-5.812,3.004-13.059,2.696-19.908c-0.111-2.49,0.755-5.023,1.175-7.536c5.254,2.039,5.877-2.735,7.029-5.423
	c2.729-6.366,4.862-13.002,6.98-19.61c1.066-3.328,2.129-5.384,6.458-4.841c8.724,1.094,17.535,1.518,26.317,2.113
	c3.399,0.23,6.82,0.271,10.229,0.234c7.582-0.082,15.164-0.398,22.742-0.317c1.924,0.021,4.728,0.591,5.585,1.911
	c2.558,3.938,7.42,7.139,5.354,13.092c-0.246,0.708,0.492,1.846,0.947,2.691c1.517,2.816,3.111,5.591,4.944,8.861
	c9.239,1.908,10.044,4.191,4.103,12.76c-2.062,2.975-4.002,6.133-5.322,9.474c-0.497,1.259,0.418,4.079,1.557,4.782
	c2.834,1.749,6.158,2.716,9.328,3.881c0.156,0.058,0.87-0.934,1.062-1.522c1.742-5.325,3.254-10.731,5.162-15.995
	c4.77-13.146,9.74-26.219,14.568-39.344c1.789-4.865,3.402-9.795,5.059-14.588c-2.561-1.15-4.212-1.893-5.863-2.635
	c0.097-0.48,0.193-0.961,0.29-1.439c2.487-0.137,4.975-0.273,7.882-0.434c7.873-28.371,23.719-53.951,30.038-82.98
	c3.337-15.327,7.423-30.696,8.583-46.24c0.545-7.31,1.548-14.507,2.806-21.642L813.038,550.541z"/>
<path fill="none" d="M603.59,652.335h3.944c-0.015-0.291-0.026-0.582-0.041-0.873L603.59,652.335z"/>
<path fill="#FFFFCC" stroke="#333333" stroke-width="2" stroke-miterlimit="10" d="M610.382,650.816l-2.889,0.646
	c0.015,0.291,0.026,0.582,0.041,0.873h2.278L610.382,650.816z"/>
<polygon fill="#FFFFCC" stroke="#333333" stroke-width="2" stroke-miterlimit="10" points="613.642,647.069 611.249,648.506 
	610.382,650.816 621.547,648.32 616.753,647.069 "/>
<path fill="none" d="M569.844,667.892l-1.97-0.985c-0.074,0.116-0.146,0.23-0.224,0.35L569.844,667.892z"/>
<path fill="none" d="M397.999,618.109l4.208,1.219c0.055-0.405,0.111-0.812,0.173-1.219H397.999z"/>
<g>
	<path fill="#FFFFCC" stroke="#333333" stroke-width="2" stroke-miterlimit="10" d="M180.379,734.438
		c7.642,0.695,15.319,2.062,22.927,1.758c6.762-0.27,13.803-1.502,20.088-3.939c9.479-3.678,12.693-13.727,16.716-21.713
		c2.771-5.5,2.621-12.465,7.44-17.732c3.297-3.604,0.094-11.553-4.271-12.736c-2.978-0.807-6.312-1.277-8.725-2.979
		c-4.682-3.299-11.922-4.889-10.174-13.395c-10.189-0.529-19.903-1.034-30.488-1.584c0-11.527,0-22.615,0-34.02
		c-7.243-0.41-13.6-0.768-19.7-1.113c-1.11-5.895,3.659-12.377-4.276-15.864c-5.412-2.378-10.79-3.763-17.14-3.036
		c0,5.636,0,11.051,0,16.84c-6.179,0.404-11.908,0.779-17.115,1.121c-0.694-6.691-1.577-12.603-1.815-18.539
		c-0.132-3.293-1.066-4.662-4.427-5.074c-4.772-0.586-9.635-1.303-14.15-2.859c-4.805-1.655-9.25-4.356-14.782-7.055
		c-4.869,23.564-21.294,36.312-38.923,48.33c-1.558-1.795-2.984-3.4-4.37-5.041c-5.938-7.025-13.37-11.791-22.12-14.488
		c-4.375-1.348-4.752-0.301-5.104,4.109c-0.515,6.455-2.176,12.819-3.348,19.223c0,0.333,0,0.666,0,1
		c2.981-0.529,3.383,1.271,3.155,3.555c-0.326,3.26-0.708,6.515-1.064,9.757c2.298,0.743,4.136,1.339,6.197,2.006
		c-0.704,15.118,4.492,29.804,1.366,44.825c-0.211,1.018,0.351,2.742,1.146,3.316c2.263,1.633,13.549,0.238,15.891-1.191
		c1.96-1.197,4.303-1.854,6.553-2.47c4.135-1.134,8.755-1.323,12.309-3.39c1.742-1.014,1.538-5.357,2.242-8.187
		c0.073-0.296,0.336-0.544,0.914-1.437c8.018,0,16.424,0,25.397,0c0-8.322,0-16.035,0-23.697c8.389-0.394,16.135-0.757,24.176-1.134
		c0,2.891,0.223,5.358-0.043,7.771c-0.705,6.382-1.933,12.72-2.37,19.115c-0.477,6.968-0.298,13.979-0.408,20.972
		c-0.082,5.183,2.01,7.588,7.204,7.832c4.155,0.195,8.333-0.082,12.486,0.129c12.852,0.652,25.999,0.341,36.301,10.188
		C178.616,734.131,179.583,734.365,180.379,734.438z"/>
	<path fill="#FFFFCC" stroke="#333333" stroke-width="2" stroke-miterlimit="10" d="M565.057,665.498l-2.154-2.394l-2.872-2.393
		l-3.111-0.958l0.958-11.01l-1.676-2.872l-3.351-3.351v-3.351l-2.394-3.59l2.394-1.196v-10.771v-9.812l-3.351-0.24l-2.872-0.957
		v-1.675l-1.197-1.915l-2.872,0.239v2.872h-2.393l-0.958-1.676l-6.701-0.479v-2.394h-1.196l-1.915,1.915h-4.309l-2.872,4.309
		l-3.59-1.437l-1.914-2.872h-1.915l-3.59,3.111l-2.633-3.111h-13.882h-3.351h-3.829h-5.505l-16.754,14.732l-2.633-1.329
		l-2.633-0.239l-3.829-1.437l-1.915,0.239l-5.505,3.829l-9.573,1.197l-2.863,2.719l-1.924,1.828c0,0-3.111,1.437-3.83,1.197
		s-10.531,0-10.531,0l-1.675-1.437l-0.454-6.923l-0.503-7.677h-3.59l-4.787,1.915h-4.547h-2.082
		c-0.062,0.407-0.118,0.813-0.173,1.219c-0.098,0.73-0.188,1.459-0.255,2.189c-0.901,9.654-1.4,19.348-2.121,29.02
		c-0.358,4.81-0.759,9.619-1.297,14.41c-0.375,3.342,0.99,5.369,4.086,6.427c3.836,1.31,6.708,3.634,7.674,7.759
		c1.906,8.137,8.202,13.402,13.489,18.943c3.802,3.984,6.827,7.73,8.257,13.035c1.705,6.324,3.777,12.58,9.636,18.385
		c2.442-13.64,4.697-26.23,6.797-37.953c3.891,0.883,6.664,2.119,9.383,2.011c7.388-0.296,14.756-1.136,22.124-1.839
		c0.919-0.088,2.104-0.396,2.636-1.041c2.578-3.122,5.971-3.1,9.553-3.034c4.994,0.091,10.015,0.159,14.984-0.25
		c5.209-0.429,8.548,1.313,10.392,6.349c0.993,2.713,2.776,5.129,4.141,7.713c3.358,6.357,2.488,12.901,0.726,19.449
		c-1.272,4.725-3.52,9.398-3.66,14.144c-0.096,3.206-0.756,8.931,4.112,9.626c11.191,1.598,22.548,2.465,32.669-4.606
		c2.765-1.932,4.176-4.147,2.912-7.556c-1.43-3.855-1.43-7.664-1.176-11.87c0.568-9.388-0.451-18.862-0.428-28.302
		c0.006-2.326,1.508-4.658,2.358-6.974c1.601-4.358,2.466-9.224,4.993-12.96c1.429-2.112,2.56-3.756,3.46-5.146
		c0.077-0.119,0.149-0.233,0.224-0.35L565.057,665.498z"/>
</g>
<path fill="none" d="M363.049,342.8l-2.42-3.993l0.611,4.736c0.006,0.007,0.013,0.013,0.02,0.019
	C361.856,343.302,362.454,343.051,363.049,342.8z"/>
<path fill="none" d="M397.895,400.282l-1.272-2.098c-0.43,0.063-0.89,0.1-1.413,0.08L397.895,400.282z"/>
<g>
	<path fill="#FFFFCC" stroke="#333333" stroke-width="2" stroke-miterlimit="10" d="M388.413,386.878l-4.41-3.969l-4.852-5.072
		l-1.323-4.63l-5.954-6.174l-3.528-6.131l-3.308-7.32l-3.528-7.938l-0.271-2.1c-1.922-1.839-3.772-3.608-4.98-4.765
		c-4.693,14.991-9.39,29.993-14.128,45.13c6.341,3.042,15.068,3.885,15.863,13.831c0.011,0.136,0.179,0.286,0.309,0.382
		c4.363,3.251,5.495,8.102,6.526,13.031c0.75,3.586,2.603,5.197,6.67,5.916c13.876,2.455,21.062,8.978,24.453,21.233
		c2.18,7.878,3.146,9.052,12.317,8.651c-4.383-16.26-8.707-32.3-13.124-48.687c0.023,0.001,0.041-0.002,0.063-0.001l-1.946-1.463
		L388.413,386.878z"/>
	<path fill="#FFFFCC" stroke="#333333" stroke-width="2" stroke-miterlimit="10" d="M276.364,453.811
		c-6.655-2.1-5.957-7.786-6.967-12.797c-0.511-2.539-1.387-6.766-2.738-7.037c-3.706-0.744-7.795-0.06-11.647,0.575
		c-2.525,0.416-4.904,1.727-8.606,3.106c1.871-6.861-0.865-9.15-5.152-11.031c-2.222-0.975-3.759-3.506-5.612-5.329
		c-1.189-1.169-2.24-2.555-3.61-3.452c-5.812-3.803-12.328-7.31-13.329-14.909c-0.587-4.459-2.485-5.664-6.291-5.659
		c-2.776,0.004-5.553,0.001-8.473,0.001c-0.286,2.098-0.441,3.563-0.693,5.011c-0.503,2.886-2.175,3.954-5.171,4.217
		c-3.646,0.32-7.334,1.161-10.785,2.392c-2.987,1.065-5.668,2.989-8.766,4.687c-0.277-2.603-0.463-4.751-0.746-6.886
		c-0.303-2.292,0.11-5.67-1.211-6.642c-3.414-2.511-2.799-5.83-3.042-8.958c-0.807-10.407-0.714-10.306,9.757-11.138
		c1.563-0.124,4.065-1.581,4.315-2.794c1.012-4.925,2.302-9.967-1.303-14.732c-1.669-2.206-1.396-4.654,2.126-5.614
		c1.163-0.317,2.769-1.453,2.974-2.458c1.755-8.609,3.39-17.251,4.64-25.945c0.198-1.375-1.399-3.457-2.729-4.486
		c-1.506-1.167-3.731-1.349-5.492-2.253c-7.141-3.667-14.268-7.367-21.304-11.229c-2.363-1.297-2.49-3.408-1.621-6.012
		c2.748-8.23,1.899-9.722-6.324-12.622c-0.896-0.316-1.765-0.709-2.631-1.06c0.366-2.379,0.582-4.526,1.037-6.623
		c2.041-9.401,3.792-19.053,10.101-26.677c3.069-3.708,4.436-7.583,5.148-12.095c0.455-2.881-0.21-4.501-2.898-5.988
		c-4.045-2.236-7.866-4.951-11.506-7.814c-1.449-1.14-3.305-3.505-2.977-4.808c0.734-2.911,2.825-5.201,6.638-4.365
		c2.426,0.532,4.963,1.093,7.392,0.9c1.899-0.15,4.657-0.942,5.38-2.317c2.273-4.323,3.938-8.998,5.505-13.649
		c1.244-3.689,1.272-7.827,5.757-9.756c1.26-0.542,2.387-2.55,2.658-4.052c2.057-11.39,3.783-22.84,5.833-34.232
		c0.881-4.898,1.242-9.967,7.208-12.412c5.736-2.351,6.384-7.659,1.574-11.48c-6.458-5.13-13.18-9.967-20.065-14.511
		c-9.206-6.076-11.44-5.788-20.429,0.52c-1.136,0.797-3.416,1.536-4.206,0.967c-2.661-1.915-5.888-4.004-7.084-6.803
		c-2.91-6.807-8.461-6.105-13.964-6.303c-2.312-0.083-4.704-0.025-6.904-0.613c-3.647-0.975-6.379-0.435-8.625,2.867
		c-2.812,4.134-1.087,8.189,0.568,11.693c2.052,4.342,5.613,7.944,8.013,12.156c3.788,6.646,1.167,16.381-4.743,21.278
		c-5.136,4.257-10.417,7.382-17.339,7.786c-2.663,0.155-6.517-0.068-7.165,4.565c-0.921,6.582-2.592,13.061-3.465,19.647
		c-1.256,9.473-2.083,19.003-3.09,28.489c7.564,0,13.807,0,20.485,0c-0.816,10.017-1.512,19.617-2.474,29.19
		c-0.141,1.405-1.39,2.821-2.407,3.987c-1.323,1.516-2.927,2.786-4.716,4.445c-4.945-0.242-10.575-0.604-16.209-0.719
		c-1.081-0.022-2.181,0.925-3.272,1.425c0.566,1.186,1.013,2.448,1.72,3.542c2.307,3.569,10.741,2.745,7.411,10.366
		c5.437,1.118,7.776,6.033,11.547,9.206c0.936,0.787,3.097,0.117,4.696,0.117c0,2.935-0.441,5.123,0.09,7.042
		c1.186,4.288,3.174,8.367,4.19,12.683c0.475,2.017,0.207,5.035-1.031,6.476c-4.063,4.729-8.781,8.889-13.117,13.394
		c-1.04,1.081-1.571,2.65-2.336,3.995c1.373,0.604,2.695,1.528,4.127,1.756c7.222,1.146,14.472,2.111,22.048,3.187
		c-0.364,3.399-0.803,5.85-0.841,8.306c-0.041,2.621-0.53,5.703,0.619,7.789c4.046,7.348,6.203,14.866,5.931,23.373
		c-0.413,12.9-0.108,25.823-0.108,38.029c-12.204,4.248-22.169,12.524-34.301,6.532c-7.091,11.697-6.994,24.256-6.507,36.722
		c0.362,9.259,2.025,18.464,2.464,27.724c0.177,3.721,1.199,5.458,4.767,5.924c7.932,1.036,15.357,3.34,22.777,6.629
		c5.134,2.276,6.278,5.181,6.186,9.708c-0.047,2.312-0.423,4.645-0.892,6.918c-2.719,13.186-5.512,26.356-8.274,39.533
		c-0.71,3.387-0.159,5.419,3.625,7.329c15.605,7.878,31.815,6.991,48.271,4.583c2.72-0.398,3.875-1.703,3.697-4.692
		c-0.293-4.916-0.08-9.862-0.08-15.778c11.367,0,21.83,0.132,32.288-0.058c4.964-0.09,9.922-0.747,14.874-1.236
		c2.916-0.288,4.29-1.854,4.328-4.954c0.049-3.935,0.539-7.865,0.864-12.146c3.846,0,7.314,0,10.783,0c3.464,0,6.929,0,10.335,0
		c2.097-7.612,1.344-11.635-2.533-13.35c9.404-9.684,21.852-2.357,32.4-5.664c0-9.223-0.185-18.188,0.081-27.139
		c0.125-4.221,1.277-8.403,1.632-12.631C277.562,457.024,277.175,454.066,276.364,453.811z"/>
	<path fill="#FFFFCC" stroke="#333333" stroke-width="2" stroke-miterlimit="10" d="M291.856,400.435
		c0.576-1.068,1.715-1.924,2.765-2.625c1.86-1.242,3.951-2.146,5.765-3.445c5.36-3.839,10.13-9.254,16.079-11.308
		c5.945-2.052,10.914-4.05,14.418-10.646c-2.303-0.672-4.495-1.312-7.214-2.105c0.774-2.002,1.441-4.355,2.555-6.473
		c2.279-4.333,5.621-8.286,7.037-12.856c2.49-8.037,3.89-16.415,5.658-24.669c0.146-0.68-0.204-1.621-0.62-2.242
		c-4.488-6.685-9.131-8.013-17.163-5.869c-6.309,1.685-12.815,2.621-19.198,4.049c-1.279,0.286-3.055,1.019-3.474,2.019
		c-1.635,3.9-4.376,4.446-8.039,3.618c-1.421-0.322-2.961-0.214-4.442-0.162c-11.151,0.391-22.3,0.896-33.454,1.168
		c-2.459,0.06-4.931-0.719-7.407-1.02c-4.693-0.569-5.924,0.98-4.807,5.673c0.48,2.015,1.493,4.512,0.761,6.095
		c-2.572,5.563-8.293,9.347-9.219,15.996c-0.078,0.56-1.816,1.182-2.827,1.268c-4.642,0.395-9.31,0.921-13.947,0.763
		c-2.466-0.084-4.888-1.467-8.375-2.604c-0.234,2.73-0.754,6.533-0.767,10.337c-0.004,1.133,2.144,2.325,2.065,3.399
		c-0.58,7.902,2.823,13.589,9.135,17.924c1.345,0.924,3.062,1.966,3.562,3.335c1.449,3.97,4.113,3.393,7.258,2.858
		c6.213-1.057,12.526-2.708,18.707-2.381c4.733,0.25,9.428,1.272,14.319,1.059c2.537-0.11,5.385,1.191,7.685,2.547
		c4.673,2.756,9.009,6.077,13.598,8.986C286.402,405.746,289.565,404.687,291.856,400.435z"/>
	<path fill="#FFFFCC" stroke="#333333" stroke-width="2" stroke-miterlimit="10" d="M434.755,240.092
		c0-2.239,0.097-4.051-0.033-5.847c-0.091-1.255-0.315-3.493-0.782-3.575c-4.314-0.759-3.301-4.285-3.999-6.958
		c-0.274-1.05-0.746-2.137-1.416-2.978c-1.681-2.108-3.527-4.085-5.306-6.114c-4.761-2.802-11.74-2.877-12.998-10.937
		c-0.107-0.685-2.064-0.923-2.839-1.693c-1.74-1.728-4.022-3.419-4.714-5.567c-0.938-2.91-1.826-4.547-5.213-4.745
		c-3.909-0.229-10.599-7.194-11.133-10.832c-2.436-16.59-1.34-33.041,1.765-49.441c1.541-8.138,3.471-16.317,0.399-24.541
		c-0.389-1.041-0.722-2.483-1.527-2.925c-5.402-2.964-10.874-4.908-17.397-3.295c-3.395,0.839-8.023,1.001-10.776-0.685
		c-8.509-5.208-14.254-3.651-16.993,5.82c-0.501,1.732-0.267,3.716-0.936,5.354c-1.305,3.192-2.455,8.372-4.645,8.936
		c-8.331,2.144-12.599,9.41-19.292,13.412c-0.264,0.158-0.541,0.501-0.584,0.792c-1.137,7.581-6.784,5.64-11.446,5.24
		c-5.082-0.437-10.125-1.337-15.174-2.035c-5.115,14.754-10.057,29.012-15.328,44.217c-11.562-3.258-22.652-6.497-33.833-9.38
		c-1.292-0.333-3.89,0.895-4.508,2.102c-2.077,4.055-3.531,8.428-5.366,13.036c-5.389-0.782-6.741,2.727-6.152,7.521
		c0.532,4.33,2.35,8.659,2.087,12.895c-0.491,7.907-1.514,15.882-3.358,23.579c-2.146,8.954-0.526,14.697,7.043,18.745
		c3.381,1.809,6.848,2.577,10.229-0.228c3.348-2.776,6.866-3.003,11.135-1.723c5.369,1.61,11.179,2.878,15.285-3.107
		c0.41-0.599,1.484-0.701,2.156-1.169c2.173-1.515,4.582-2.826,6.381-4.711c2.516-2.636,6.757-3.042,8.434-0.384
		c3.531,5.596,7.095,11.17,10.66,16.744c3.759,5.878,7.512,11.762,11.316,17.611c1.652,2.54,3.709,4.518,5.872,0.653
		c3.443-6.154,6.569-12.486,10.065-19.194c4.313,0.229,9.312,0.287,14.261,0.806c6.569,0.688,11.11-1.505,14.177-7.615
		c2.549-5.079,6.6-5.595,11.49-2.479c2.504,1.596,5.094,3.1,7.791,4.327c1.025,0.466,2.594,0.384,3.68-0.043
		c3.74-1.471,8.17-1.949,9.954-6.558c0.253-0.654,1.787-1.385,2.499-1.2c6.587,1.709,13.123,3.613,20.862,5.794
		c8.75-2.723,17.505,6.443,27.817,4.378c0.156-1.829,0.306-3.595,0.486-5.716c1.678,0.187,3.278,0.364,5.026,0.559l3.028-4.447
		C440.188,241.677,437.478,240.809,434.755,240.092z"/>
</g>
<g>
	<path fill="#FFFFCC" stroke="#333333" stroke-width="2" stroke-miterlimit="10" d="M372.188,674.736
		c0.647-6.875,1.117-13.768,1.655-20.562c-3.861-0.48-6.965-0.867-9.227-1.149c-1.387,16.399-2.719,32.159-4.041,47.787
		c8.84-2.636,9.153-3.093,9.908-11.711C370.904,684.3,371.737,679.535,372.188,674.736z"/>
	<path fill="#FFFFCC" stroke="#333333" stroke-width="2" stroke-miterlimit="10" d="M689.371,483.667l-1.916,0.167l-5.334,0.083
		v-2.75l-2.583-0.083l-1.583-1.083v-2.75l-3.916-0.25v-2.833l-0.917-2.917h-1.833l-1.417,0.833L668.955,473l-1.583,1.083
		l-1.333,0.75l-2.75,0.25l-2.084-0.667l-0.583-0.75l0.583-1.25v-4.25l-6.334-0.333v8.667l-0.833,0.417l-1.75,1.167l-1,0.75
		l-1.833,1.667l-2.25,1.833l-1.417,0.833l-2.417,1l-13.509,2.022l-0.406,0.061l-2.501,0.083l-1.499,0.833h-3l-1.25,1.167
		l-2.084,0.917l-1-0.5l-1.083-1.167v-1.75l0.833-0.833h1.084l1.916-0.75h1.5l0.834-1h3l0.749-1.167v-2.833l-4-0.083h-0.666
		l-0.75,0.833h-7.417l-1.25-1.083l-0.725-0.583v-0.917l-1.108-0.833l-0.834-2.167l-2-1.583l-1.833-1.333l-2.167-1l-3.916-1
		l-0.741-1.667v-3.667l1.574-2.083l-0.833-4.333l-0.741-2.77h21.076l0.15-1.632l3.973-43.268l-7.461-1.955
		c-0.619,0.229-1.4,0.323-2.388,0.269c-2.259-0.124-4.506-0.417-6.756-0.691c-1.205-0.147-2.41-0.289-3.618-0.394
		c-2.257-0.197-4.609-0.599-6.785-0.193c-6.02,1.125-11.969,2.625-18.851,4.182c0.244,5.364,0.669,10.198,0.636,15.029
		c-0.049,7.16-0.613,14.318-0.555,21.475c0.021,2.538,0.49,6.567,2.022,7.315c4.345,2.12,3.589,5.806,4.386,9.14
		c0.826,3.465-0.17,5.009-3.973,4.578c-3.298-0.374-6.644-0.421-9.967-0.411c-1.076,0.003-2.45,0.346-3.166,1.058
		c-1.63,1.623-2.938,3.57-5.155,6.369c0.037,1.097-1.707,4.32,2.862,5.105c0.591,0.102,1.281,1.806,1.277,2.765
		c-0.013,2.455-0.391,4.909-0.658,7.738c-5.617,0-10.89,0-16.044,0c-0.742-3.289-2.61-6.817-2.025-9.875
		c1.669-8.721,2.66-17.309,0.954-26.109c-2.547-13.138-3.593-26.193-0.326-39.516c1.703-6.948,1.717-14.341,2.155-21.553
		c0.22-3.605-0.442-7.255-0.497-10.888c-0.182-12.292-0.041-24.592-0.482-36.873c-0.246-6.828-2.32-13.064-9.43-16.137
		c-7.432-3.21-14.656-7.017-22.298-9.599c-21.264-7.184-42.696-13.867-64.59-20.917c1.052-4.565,1.673-8.144,2.715-11.595
		c2.102-6.965,4.812-13.77,6.519-20.823c0.963-3.973,2.811-5.279,6.512-5.076c8.764,0.48,17.067,2.393,24.659,7.072
		c2.199,1.355,4.769,2.419,7.301,2.871c11.39,2.033,19.909,9.956,30.103,14.439c4.644,2.042,8.805,5.132,14.586,2.284
		c-1.736-3.22-3.137-6.235-4.91-9.012c-2.984-4.674-2.904-8.295,1.46-11.668c2.354-1.819,5.539-2.601,8.405-3.707
		c3.053-1.179,7.369-1.877,5.879-6.286c-1.551-4.582,0.832-4.888,3.96-5.812c5.965-1.762,12.707-2.7,15.277-9.638
		c1.343-3.625,3.656-4.644,7.192-4.642c6.922,0.003,10.322-6.745,16.219-8.828c0.396-0.14,0.523-1.463,0.525-2.237
		c0.021-6.332,0.113-12.668-0.156-18.989c-0.051-1.175-1.545-3.194-2.521-3.288c-13.214-1.268-25.726-5.073-37.925-10.067
		c-8.553-3.501-17.258-6.708-25.518-10.809c-4.929-2.448-5.592-2.562-7.941,2.441c-1.141,2.426-3.648,4.252-5.678,6.204
		c-1.654,1.591-3.611,2.868-5.252,4.47c-1.147,1.121-1.771,3.397-3,3.715c-8.239,2.128-13.66,10.62-23.069,10.125
		c-0.872-0.046-2.341,1.459-2.672,2.514c-2.105,6.715-3.921,13.521-5.943,20.264c-0.558,1.857-1.179,3.856-2.353,5.325
		c-1.244,1.557-3.18,2.56-5.52,4.342c-5.33,0.479-12.016,1.977-18.523,1.412c-3.857-0.335-7.654-1.363-11.442-2.499l-3.028,4.447
		c0.955,0.106,1.953,0.217,3.035,0.337c-2.214,3.897-4.177,7.404-6.192,10.881c-2.034,3.508-4.121,6.984-6.045,10.239
		c-3.154-2.24-6.093-3.835-8.378-6.092c-2.139-2.112-0.919-7.376-6.466-6.701c-0.344,1.104-0.804,2.166-1,3.274
		c-1.36,7.657-1.999,15.519-4.162,22.937c-2.506,8.594-0.972,16.102,3.487,23.322c2.56,4.146,5.927,7.859,11.361,7.109
		c4.214-0.581,5.896,1.581,5.783,4.818c-0.112,3.203-0.997,6.722-5.831,6.376c-2.252-0.162-5.201-1.042-6.024,2.663
		c-0.085,0.383-1.559,0.854-2.195,0.658c-6.831-2.107-14.374,1.238-20.989-3.02c-3.894-2.507-7.658-1.604-10.417,2.251
		c-2.286,3.194-4.658,5.809-9.208,5.615c-1.317-0.056-3.399,1.78-3.975,3.213c-1.841,4.589-5.633,6.296-9.611,7.98
		c-0.595,0.251-1.193,0.502-1.79,0.762c-0.006-0.006-0.013-0.012-0.02-0.019l0.271,2.1l3.528,7.938l3.308,7.32l3.528,6.131
		l5.954,6.174l1.323,4.63l4.852,5.072l4.41,3.969l4.851,9.923l1.946,1.463c0.522,0.02,0.983-0.017,1.413-0.08
		c4.746-0.699,4.212-6.085,5.664-8.502c13.224,5.66,26.035,11.144,39.668,16.979c-4.939,17.835-10.188,36.785-15.551,56.149
		c2.433,1.384,5.209,3.226,8.194,4.617c11.336,5.284,18.021,15.135,24.875,24.872c3.409,4.845,6.612,9.896,10.516,14.318
		c5.942,6.733,12.611,12.822,18.591,19.525c4.403,4.937,8.197,10.417,12.857,16.42c-3.524,0.312-6.479,0.338-9.331,0.891
		c-2.808,0.543-5.474,1.799-8.274,2.41c-2.573,0.562-6.103-0.202-7.608,1.265c-1.271,1.239-0.236,4.835-0.251,7.389
		c-0.003,0.494-0.087,1.005-0.229,1.479c-0.75,2.493-1.596,4.959-2.285,7.468c-0.994,3.613,1.168,6.55,1.895,9.758
		c1.357,5.988,0.725,12.539,0.2,18.795c-0.267,3.183-2.636,6.229-6.427,5.043c-3.959-1.236-7.53-3.67-11.383-5.32
		c-1.237-0.53-3.169-0.773-4.148-0.15c-0.773,0.492-1.211,2.89-0.684,3.783c1.45,2.455,3.486,4.566,5.37,6.912
		c-2.475,2.182-4.671,2.039-5.712-1.186c-1.537-4.764-4.734-5.658-8.904-4.273c-4.11,1.367-6.447,0.807-7.613-3.999
		c-0.477-1.966-4.009-5.039-5.157-4.653c-3.711,1.25-6.96,3.87-10.352,5.939c-3.501-3.6-3.699-3.561-7.47,1.965
		c-1.564-1.828-4.097-3.418-4.194-5.145c-0.365-6.442-3.494-5.509-7.492-3.531c-1.027,0.51-2.193,1.146-3.258,1.084
		c-2.063-0.12-4.261-0.377-6.048-1.279c-0.524-0.264,0.035-2.918,0.302-4.439c0.287-1.633,0.744-3.245,1.253-4.826
		c2.205-6.852,2.093-14.8,11.473-17.505c6.269-1.808,3.087-8.504,5.18-13.228c-3.672-0.732-6.672-1.331-10.024-1.999
		c1.028-10.263,2.376-20.288,2.898-30.355c0.269-5.2,2.619-6.213,6.914-5.599c1.482,0.212,2.94,0.611,4.426,0.779
		c7.769,0.878,15.543,1.71,23.47,2.575c0.537-5.635,0.988-10.385,1.57-16.499c-12.459,0-24.515-0.111-36.567,0.04
		c-7.959,0.099-15.928,1-23.868,0.751c-7.019-0.22-14.002-1.533-21.465-2.417c-0.822,13.903-1.583,26.774-2.334,39.498
		c8.819,1.693,9.026,1.891,8.596,9.93c-0.13,2.428,0.965,5.67-3.309,5.983c-3.411,0.25-4.63,2.144-4.529,5.633
		c0.231,7.945,0.073,15.902,0.073,24.41c-9.721,0-19.424,0-29.647,0c0,5.622,0,11.037,0,16.408c-4.43,0-8.318,0-12.867,0
		c0.337-1.53,0.446-2.162,0.617-2.776c1.508-5.415,0.96-5.905-4.806-5.259c-5.293,0.594-10.629,1.295-15.93,1.185
		c-4.751-0.099-6.747,2.173-6.86,6.284c-0.28,10.146-0.352,20.303-0.204,30.451c0.017,1.167,1.928,3.275,3.008,3.306
		c9.297,0.265,18.604,0.151,28.337,0.151c0.343-4.211,0.673-8.26,1.023-12.557c5.32,0,10.292-0.211,15.239,0.047
		c8.139,0.427,16.254,1.362,24.396,1.687c5.333,0.212,7.149-1.849,7.337-6.966c0.041-1.115,0.229-2.226,0.28-2.693
		c12.597-5.918,25.104-3.559,38.418-2.486c-0.721,4.107-1.549,7.785-2.101,11.389h2.082h4.547l4.787-1.915h3.59l0.503,7.677
		l0.454,6.923l1.675,1.437c0,0,9.812-0.239,10.531,0s3.83-1.197,3.83-1.197l1.924-1.828l2.863-2.719l9.573-1.197l5.505-3.829
		l1.915-0.239l3.829,1.437l2.633,0.239l2.633,1.329l16.754-14.732h5.505h3.829h3.351h13.882l2.633,3.111l3.59-3.111h1.915
		l1.914,2.872l3.59,1.437l2.872-4.309h4.309l1.915-1.915h1.196v2.394l6.701,0.479l0.958,1.676h2.393v-2.872l2.872-0.239l1.197,1.915
		v1.675l2.872,0.957l3.351,0.24v9.812v10.771l-2.394,1.196l2.394,3.59v3.351l3.351,3.351l1.676,2.872l-0.958,11.01l3.111,0.958
		l2.872,2.393l2.154,2.394l2.817,1.408c3.021-4.733,3.272-6.593,3.603-14.932c0.012-0.286,0.272-0.562,0.458-0.927
		c2.399-0.315,5.901,0.269,7.078-1.12c3.799-4.479,6.835-3.102,10.363-0.086c2.772,2.368,4.942,2.188,6.503-1.581
		c0.472-1.138,2.102-2.294,3.351-2.489c1.636-0.256,3.611,0.061,5.082,0.823c1.336,0.692,3.049,2.264,3.119,3.53
		c0.025,0.445,0.039,0.892,0.062,1.337l2.889-0.646l0.867-2.311l2.393-1.437h3.111l4.794,1.251c0.49-1.965,1.011-3.924,1.463-5.898
		c0.812-3.545,1.946-7.064,2.299-10.657c0.816-8.311,0.653-8.335-5.981-9.115c-1.086-3.974-2.034-7.431-2.97-10.89
		c-0.129-0.479-0.31-0.982-0.272-1.459c1.021-13.447-0.962-27.176,3.435-40.292c1.028-3.065,3.14-5.768,5.259-9.537
		c-4.451-0.807-7.474-1.355-10.533-1.91c-0.887-3.388,0.5-4.425,3.531-4.09c5.756,0.636,11.517,1.225,17.616,1.869
		c0.558-2.911,1.075-5.617,1.665-8.698c3.942,0.826,7.548,1.939,10.821,3.654c0.224,0.117,0.442,0.243,0.663,0.366l4.245-5.078
		l0.417-1.333l-1.25-1.083v-2l1.166-1.25l1.084-2l-0.167-9.667l1.083-2.417l0.167-3l0.501-3.833l-0.5-0.917v-6l0.75-1.5l0.667-1.833
		l1-2.25l1.333-3.167l0.084-3.417l2-0.167l2.75,1.333l2.75,0.917l14.75,0.167l3.333,0.917l4.583,0.75l4,0.5l1.917-12.167
		L689.371,483.667z"/>
</g>
</svg>
